<svg width="81" height="81" viewBox="0 0 81 81" fill="none" xmlns="http://www.w3.org/2000/svg">
<circle cx="40.5" cy="40.5" r="40.5" fill="white"/>
<path d="M59.75 34.125C60.5788 34.125 61.3737 34.4542 61.9597 35.0403C62.5458 35.6263 62.875 36.4212 62.875 37.25V62.25C62.875 63.0788 62.5458 63.8737 61.9597 64.4597C61.3737 65.0458 60.5788 65.375 59.75 65.375H51.9375C50.9672 65.375 50.0103 65.6009 49.1424 66.0348C48.2746 66.4688 47.5197 67.0988 46.9375 67.875L41 75.7906L35.0625 67.875C34.4803 67.0988 33.7254 66.4688 32.8576 66.0348C31.9897 65.6009 31.0328 65.375 30.0625 65.375H22.25C21.4212 65.375 20.6263 65.0458 20.0403 64.4597C19.4542 63.8737 19.125 63.0788 19.125 62.25V37.25C19.125 36.4212 19.4542 35.6263 20.0403 35.0403C20.6263 34.4542 21.4212 34.125 22.25 34.125H59.75ZM22.25 31C20.5924 31 19.0027 31.6585 17.8306 32.8306C16.6585 34.0027 16 35.5924 16 37.25V62.25C16 63.9076 16.6585 65.4973 17.8306 66.6694C19.0027 67.8415 20.5924 68.5 22.25 68.5H30.0625C30.5476 68.5 31.0261 68.613 31.46 68.8299C31.894 69.0469 32.2714 69.3619 32.5625 69.75L38.5 77.6656C38.7911 78.0537 39.1685 78.3687 39.6025 78.5857C40.0364 78.8027 40.5149 78.9156 41 78.9156C41.4851 78.9156 41.9636 78.8027 42.3975 78.5857C42.8315 78.3687 43.2089 78.0537 43.5 77.6656L49.4375 69.75C49.7286 69.3619 50.106 69.0469 50.54 68.8299C50.9739 68.613 51.4524 68.5 51.9375 68.5H59.75C61.4076 68.5 62.9973 67.8415 64.1694 66.6694C65.3415 65.4973 66 63.9076 66 62.25V37.25C66 35.5924 65.3415 34.0027 64.1694 32.8306C62.9973 31.6585 61.4076 31 59.75 31H22.25Z" fill="#0CBC8B"/>
<path d="M53.1247 47.1765V43.3338C53.1247 42.6487 52.8525 41.9916 52.368 41.5071C51.8836 41.0227 51.2265 40.7505 50.5413 40.7505H42.7913V39.0558C43.1853 38.7019 43.4372 38.193 43.4372 37.6221C43.4372 37.1082 43.233 36.6154 42.8697 36.2521C42.5063 35.8887 42.0135 35.6846 41.4997 35.6846C40.9858 35.6846 40.493 35.8887 40.1297 36.2521C39.7663 36.6154 39.5622 37.1082 39.5622 37.6221C39.5622 38.193 39.814 38.7019 40.208 39.0558V40.7505H32.458C31.7729 40.7505 31.1158 41.0227 30.6313 41.5071C30.1468 41.9916 29.8747 42.6487 29.8747 43.3338V47.2062L29.7817 47.2127C29.456 47.2359 29.1513 47.3817 28.9289 47.6206C28.7064 47.8596 28.5828 48.174 28.583 48.5005V51.0838C28.583 51.4264 28.7191 51.7549 28.9613 51.9972C29.2036 52.2394 29.5321 52.3755 29.8747 52.3755V58.8338C29.8747 59.519 30.1468 60.176 30.6313 60.6605C31.1158 61.145 31.7729 61.4172 32.458 61.4172H50.5413C51.2265 61.4172 51.8836 61.145 52.368 60.6605C52.8525 60.176 53.1247 59.519 53.1247 58.8338V52.3755C53.4672 52.3755 53.7958 52.2394 54.038 51.9972C54.2803 51.7549 54.4163 51.4264 54.4163 51.0838V48.5806C54.4313 48.3801 54.3995 48.1789 54.3233 47.9929C54.0624 47.3625 53.5031 47.2114 53.1247 47.1765ZM35.0413 48.5005C35.0413 47.0745 35.9093 45.9172 36.9788 45.9172C38.0483 45.9172 38.9163 47.0745 38.9163 48.5005C38.9163 49.9265 38.0483 51.0838 36.9788 51.0838C35.9093 51.0838 35.0413 49.9265 35.0413 48.5005ZM46.6638 56.2505C45.3708 56.2466 36.3343 56.2505 36.333 56.2505V53.6672C36.333 53.6672 45.376 53.6646 46.6689 53.6672L46.6638 56.2505ZM46.0205 51.0838C44.951 51.0838 44.083 49.9265 44.083 48.5005C44.083 47.0745 44.951 45.9172 46.0205 45.9172C47.09 45.9172 47.958 47.0745 47.958 48.5005C47.958 49.9265 47.09 51.0838 46.0205 51.0838Z" fill="#367CFF"/>
</svg>
