<svg width="292" height="78" viewBox="0 0 292 78" fill="none" xmlns="http://www.w3.org/2000/svg">
<g filter="url(#filter0_d_1413_5087)">
<mask id="path-1-inside-1_1413_5087" fill="white">
<path fill-rule="evenodd" clip-rule="evenodd" d="M270.481 4.59128C269.565 2.9889 267.861 2 266.016 2H7.86237C3.91357 2 1.43797 6.2659 3.39712 9.69443L18.4377 36.0154C19.1404 37.2452 19.1404 38.7548 18.4377 39.9846L3.39712 66.3056C1.43797 69.7341 3.91356 74 7.86236 74H266.016C267.861 74 269.565 73.0111 270.481 71.4087L288.438 39.9846C289.14 38.7548 289.14 37.2452 288.438 36.0154L270.481 4.59128Z"/>
</mask>
<path fill-rule="evenodd" clip-rule="evenodd" d="M270.481 4.59128C269.565 2.9889 267.861 2 266.016 2H7.86237C3.91357 2 1.43797 6.2659 3.39712 9.69443L18.4377 36.0154C19.1404 37.2452 19.1404 38.7548 18.4377 39.9846L3.39712 66.3056C1.43797 69.7341 3.91356 74 7.86236 74H266.016C267.861 74 269.565 73.0111 270.481 71.4087L288.438 39.9846C289.14 38.7548 289.14 37.2452 288.438 36.0154L270.481 4.59128Z" fill="white"/>
<path d="M18.4377 36.0154L17.3214 36.6533L18.4377 36.0154ZM18.4377 39.9846L17.3214 39.3467L18.4377 39.9846ZM288.438 39.9846L289.554 40.6224V40.6224L288.438 39.9846ZM288.438 36.0154L289.554 35.3776V35.3776L288.438 36.0154ZM270.481 4.59128L269.365 5.22918L270.481 4.59128ZM270.481 71.4087L269.365 70.7708L270.481 71.4087ZM7.86237 3.28571H266.016V0.714286H7.86237V3.28571ZM19.554 35.3776L4.51343 9.05653L2.28081 10.3323L17.3214 36.6533L19.554 35.3776ZM19.554 40.6224C20.4826 38.9974 20.4826 37.0026 19.554 35.3776L17.3214 36.6533C17.7982 37.4878 17.7982 38.5122 17.3214 39.3467L19.554 40.6224ZM4.51343 66.9435L19.554 40.6224L17.3214 39.3467L2.28081 65.6677L4.51343 66.9435ZM266.016 72.7143H7.86236V75.2857H266.016V72.7143ZM287.321 39.3467L269.365 70.7708L271.597 72.0466L289.554 40.6224L287.321 39.3467ZM287.321 36.6533C287.798 37.4878 287.798 38.5122 287.321 39.3467L289.554 40.6224C290.483 38.9974 290.483 37.0026 289.554 35.3776L287.321 36.6533ZM269.365 5.22918L287.321 36.6533L289.554 35.3776L271.597 3.95339L269.365 5.22918ZM2.28081 65.6677C-0.168131 69.9533 2.92635 75.2857 7.86236 75.2857V72.7143C4.90076 72.7143 3.04407 69.5149 4.51343 66.9435L2.28081 65.6677ZM266.016 3.28571C267.4 3.28571 268.678 4.02739 269.365 5.22918L271.597 3.95339C270.453 1.95041 268.323 0.714286 266.016 0.714286V3.28571ZM266.016 75.2857C268.323 75.2857 270.453 74.0496 271.597 72.0466L269.365 70.7708C268.678 71.9726 267.4 72.7143 266.016 72.7143V75.2857ZM7.86237 0.714286C2.92637 0.714286 -0.168137 6.04667 2.28081 10.3323L4.51343 9.05653C3.04407 6.48514 4.90077 3.28571 7.86237 3.28571V0.714286Z" fill="#C1C9D2" mask="url(#path-1-inside-1_1413_5087)"/>
</g>
<defs>
<filter id="filter0_d_1413_5087" x="0.140486" y="0.714286" width="291.396" height="77.1429" filterUnits="userSpaceOnUse" color-interpolation-filters="sRGB">
<feFlood flood-opacity="0" result="BackgroundImageFix"/>
<feColorMatrix in="SourceAlpha" type="matrix" values="0 0 0 0 0 0 0 0 0 0 0 0 0 0 0 0 0 0 127 0" result="hardAlpha"/>
<feOffset dy="1.28571"/>
<feGaussianBlur stdDeviation="1.28571"/>
<feColorMatrix type="matrix" values="0 0 0 0 0.215686 0 0 0 0 0.254902 0 0 0 0 0.317647 0 0 0 0.08 0"/>
<feBlend mode="normal" in2="BackgroundImageFix" result="effect1_dropShadow_1413_5087"/>
<feBlend mode="normal" in="SourceGraphic" in2="effect1_dropShadow_1413_5087" result="shape"/>
</filter>
</defs>
</svg>
