<svg width="291" height="78" viewBox="0 0 291 78" fill="none" xmlns="http://www.w3.org/2000/svg">
<g filter="url(#filter0_d_1413_5096)">
<mask id="path-1-inside-1_1413_5096" fill="white">
<path fill-rule="evenodd" clip-rule="evenodd" d="M269.195 4.59128C268.28 2.9889 266.576 2 264.73 2H7.86237C3.91357 2 1.43797 6.2659 3.39712 9.69443L18.4377 36.0154C19.1404 37.2452 19.1404 38.7548 18.4377 39.9846L3.39712 66.3056C1.43797 69.7341 3.91358 74 7.86238 74H264.73C266.576 74 268.28 73.0111 269.195 71.4087L287.152 39.9846C287.855 38.7548 287.855 37.2452 287.152 36.0154L269.195 4.59128Z"/>
</mask>
<path fill-rule="evenodd" clip-rule="evenodd" d="M269.195 4.59128C268.28 2.9889 266.576 2 264.73 2H7.86237C3.91357 2 1.43797 6.2659 3.39712 9.69443L18.4377 36.0154C19.1404 37.2452 19.1404 38.7548 18.4377 39.9846L3.39712 66.3056C1.43797 69.7341 3.91358 74 7.86238 74H264.73C266.576 74 268.28 73.0111 269.195 71.4087L287.152 39.9846C287.855 38.7548 287.855 37.2452 287.152 36.0154L269.195 4.59128Z" fill="white"/>
<path d="M18.4377 36.0154L17.3214 36.6533L18.4377 36.0154ZM18.4377 39.9846L17.3214 39.3467L18.4377 39.9846ZM287.152 39.9846L288.268 40.6224V40.6224L287.152 39.9846ZM287.152 36.0154L288.268 35.3776V35.3776L287.152 36.0154ZM269.195 4.59128L268.079 5.22918L269.195 4.59128ZM269.195 71.4087L268.079 70.7708L269.195 71.4087ZM7.86237 3.28571H264.73V0.714286H7.86237V3.28571ZM19.554 35.3776L4.51343 9.05653L2.28081 10.3323L17.3214 36.6533L19.554 35.3776ZM19.554 40.6224C20.4826 38.9974 20.4826 37.0026 19.554 35.3776L17.3214 36.6533C17.7982 37.4878 17.7982 38.5122 17.3214 39.3467L19.554 40.6224ZM4.51344 66.9435L19.554 40.6224L17.3214 39.3467L2.28081 65.6677L4.51344 66.9435ZM264.73 72.7143H7.86238V75.2857H264.73V72.7143ZM286.036 39.3467L268.079 70.7708L270.312 72.0466L288.268 40.6224L286.036 39.3467ZM286.036 36.6533C286.513 37.4878 286.513 38.5122 286.036 39.3467L288.268 40.6224C289.197 38.9974 289.197 37.0026 288.268 35.3776L286.036 36.6533ZM268.079 5.22918L286.036 36.6533L288.268 35.3776L270.312 3.95339L268.079 5.22918ZM2.28081 65.6677C-0.168135 69.9533 2.92638 75.2857 7.86238 75.2857V72.7143C4.90078 72.7143 3.04407 69.5149 4.51344 66.9435L2.28081 65.6677ZM264.73 3.28571C266.114 3.28571 267.392 4.02739 268.079 5.22918L270.312 3.95339C269.167 1.9504 267.037 0.714286 264.73 0.714286V3.28571ZM264.73 75.2857C267.037 75.2857 269.167 74.0496 270.312 72.0466L268.079 70.7708C267.392 71.9726 266.114 72.7143 264.73 72.7143V75.2857ZM7.86237 0.714286C2.92637 0.714286 -0.168137 6.04667 2.28081 10.3323L4.51343 9.05653C3.04407 6.48514 4.90077 3.28571 7.86237 3.28571V0.714286Z" fill="#C1C9D2" mask="url(#path-1-inside-1_1413_5096)"/>
</g>
<defs>
<filter id="filter0_d_1413_5096" x="0.140486" y="0.714286" width="290.11" height="77.1429" filterUnits="userSpaceOnUse" color-interpolation-filters="sRGB">
<feFlood flood-opacity="0" result="BackgroundImageFix"/>
<feColorMatrix in="SourceAlpha" type="matrix" values="0 0 0 0 0 0 0 0 0 0 0 0 0 0 0 0 0 0 127 0" result="hardAlpha"/>
<feOffset dy="1.28571"/>
<feGaussianBlur stdDeviation="1.28571"/>
<feColorMatrix type="matrix" values="0 0 0 0 0.215686 0 0 0 0 0.254902 0 0 0 0 0.317647 0 0 0 0.08 0"/>
<feBlend mode="normal" in2="BackgroundImageFix" result="effect1_dropShadow_1413_5096"/>
<feBlend mode="normal" in="SourceGraphic" in2="effect1_dropShadow_1413_5096" result="shape"/>
</filter>
</defs>
</svg>
