<svg width="296" height="78" viewBox="0 0 296 78" fill="none" xmlns="http://www.w3.org/2000/svg">
<g filter="url(#filter0_d_1413_5080)">
<mask id="path-1-inside-1_1413_5080" fill="white">
<path fill-rule="evenodd" clip-rule="evenodd" d="M3 7.14286C3 4.30254 5.30254 2 8.14286 2H270.015C271.861 2 273.565 2.9889 274.481 4.59128L292.437 36.0154C293.14 37.2452 293.14 38.7548 292.437 39.9846L274.481 71.4087C273.565 73.0111 271.861 74 270.015 74H8.14286C5.30254 74 3 71.6975 3 68.8571V7.14286Z"/>
</mask>
<path fill-rule="evenodd" clip-rule="evenodd" d="M3 7.14286C3 4.30254 5.30254 2 8.14286 2H270.015C271.861 2 273.565 2.9889 274.481 4.59128L292.437 36.0154C293.14 37.2452 293.14 38.7548 292.437 39.9846L274.481 71.4087C273.565 73.0111 271.861 74 270.015 74H8.14286C5.30254 74 3 71.6975 3 68.8571V7.14286Z" fill="#F5FBFF"/>
<path d="M292.437 36.0154L293.554 35.3776V35.3776L292.437 36.0154ZM292.437 39.9846L293.554 40.6224V40.6224L292.437 39.9846ZM274.481 71.4087L273.364 70.7708L274.481 71.4087ZM274.481 4.59128L273.364 5.22918L274.481 4.59128ZM270.015 0.714286H8.14286V3.28571H270.015V0.714286ZM273.364 5.22918L291.321 36.6533L293.554 35.3776L275.597 3.95339L273.364 5.22918ZM291.321 36.6533C291.798 37.4878 291.798 38.5122 291.321 39.3467L293.554 40.6224C294.482 38.9974 294.482 37.0026 293.554 35.3776L291.321 36.6533ZM291.321 39.3467L273.364 70.7708L275.597 72.0466L293.554 40.6224L291.321 39.3467ZM8.14286 75.2857H270.015V72.7143H8.14286V75.2857ZM1.71429 7.14286V68.8571H4.28571V7.14286H1.71429ZM273.364 70.7708C272.678 71.9726 271.4 72.7143 270.015 72.7143V75.2857C272.322 75.2857 274.452 74.0496 275.597 72.0466L273.364 70.7708ZM8.14286 0.714286C4.59246 0.714286 1.71429 3.59246 1.71429 7.14286H4.28571C4.28571 5.01262 6.01262 3.28571 8.14286 3.28571V0.714286ZM8.14286 72.7143C6.01262 72.7143 4.28571 70.9874 4.28571 68.8571H1.71429C1.71429 72.4075 4.59245 75.2857 8.14286 75.2857V72.7143ZM270.015 3.28571C271.4 3.28571 272.678 4.02739 273.364 5.22918L275.597 3.95339C274.452 1.95041 272.322 0.714286 270.015 0.714286V3.28571Z" fill="#7DABF8" mask="url(#path-1-inside-1_1413_5080)"/>
</g>
<defs>
<filter id="filter0_d_1413_5080" x="0.428571" y="0.714286" width="295.108" height="77.1429" filterUnits="userSpaceOnUse" color-interpolation-filters="sRGB">
<feFlood flood-opacity="0" result="BackgroundImageFix"/>
<feColorMatrix in="SourceAlpha" type="matrix" values="0 0 0 0 0 0 0 0 0 0 0 0 0 0 0 0 0 0 127 0" result="hardAlpha"/>
<feOffset dy="1.28571"/>
<feGaussianBlur stdDeviation="1.28571"/>
<feColorMatrix type="matrix" values="0 0 0 0 0.215686 0 0 0 0 0.254902 0 0 0 0 0.317647 0 0 0 0.08 0"/>
<feBlend mode="normal" in2="BackgroundImageFix" result="effect1_dropShadow_1413_5080"/>
<feBlend mode="normal" in="SourceGraphic" in2="effect1_dropShadow_1413_5080" result="shape"/>
</filter>
</defs>
</svg>
