<svg width="37" height="37" viewBox="0 0 37 37" fill="none" xmlns="http://www.w3.org/2000/svg">
<path d="M12.875 11H24.125M16.9026 11.4282C17.5851 11.7109 18.2051 12.1252 18.7275 12.6475C19.2498 13.1699 19.6641 13.7899 19.9468 14.4724C20.2295 15.1549 20.375 15.8863 20.375 16.625C20.375 17.3637 20.2295 18.0951 19.9468 18.7776C19.6641 19.4601 19.2498 20.0801 18.7275 20.6025C18.2051 21.1248 17.5851 21.5391 16.9026 21.8218C16.2201 22.1045 15.4887 22.25 14.75 22.25H12.875L18.5 27.875M12.875 16.625H24.125M35.375 18.5C35.375 20.7161 34.9385 22.9104 34.0905 24.9578C33.2424 27.0052 31.9994 28.8654 30.4324 30.4324C28.8654 31.9994 27.0052 33.2424 24.9578 34.0905C22.9104 34.9385 20.7161 35.375 18.5 35.375C16.2839 35.375 14.0896 34.9385 12.0422 34.0905C9.99485 33.2424 8.13456 31.9994 6.56757 30.4324C5.00058 28.8654 3.75758 27.0052 2.90953 24.9578C2.06148 22.9104 1.625 20.7161 1.625 18.5C1.625 14.0245 3.4029 9.73225 6.56757 6.56757C9.73225 3.4029 14.0245 1.625 18.5 1.625C22.9755 1.625 27.2678 3.4029 30.4324 6.56757C33.5971 9.73225 35.375 14.0245 35.375 18.5Z" stroke="white" stroke-width="2" stroke-linecap="round" stroke-linejoin="round"/>
</svg>
