<svg width="16" height="16" viewBox="0 0 16 16" fill="none" xmlns="http://www.w3.org/2000/svg">
<path d="M8.04415 0.994141C4.2016 0.994141 1.08594 4.10981 1.08594 7.95236C1.08594 11.7949 4.2016 14.9106 8.04415 14.9106C11.8867 14.9106 15.0024 11.7949 15.0024 7.95236C15.0024 4.10981 11.8867 0.994141 8.04415 0.994141ZM8.04415 13.7302C4.85394 13.7302 2.26635 11.1426 2.26635 7.95236C2.26635 4.76214 4.85394 2.17455 8.04415 2.17455C11.2344 2.17455 13.822 4.76214 13.822 7.95236C13.822 11.1426 11.2344 13.7302 8.04415 13.7302Z" fill="#5782D3"/>
<path d="M7.30078 5.21867C7.30078 5.41639 7.37933 5.60602 7.51914 5.74583C7.65895 5.88565 7.84858 5.96419 8.0463 5.96419C8.24403 5.96419 8.43366 5.88565 8.57347 5.74583C8.71328 5.60602 8.79183 5.41639 8.79183 5.21867C8.79183 5.02094 8.71328 4.83132 8.57347 4.6915C8.43366 4.55169 8.24403 4.47314 8.0463 4.47314C7.84858 4.47314 7.65895 4.55169 7.51914 4.6915C7.37933 4.83132 7.30078 5.02094 7.30078 5.21867ZM8.41907 6.95822H7.67354C7.6052 6.95822 7.54929 7.01414 7.54929 7.08248V11.3071C7.54929 11.3754 7.6052 11.4314 7.67354 11.4314H8.41907C8.48741 11.4314 8.54332 11.3754 8.54332 11.3071V7.08248C8.54332 7.01414 8.48741 6.95822 8.41907 6.95822Z" fill="#5782D3"/>
</svg>
