<svg width="43" height="30" viewBox="0 0 43 30" fill="none" xmlns="http://www.w3.org/2000/svg">
<rect x="1" y="0.5" width="41.5" height="29" rx="3.5" fill="white" stroke="#B2BCCA"/>
<path fill-rule="evenodd" clip-rule="evenodd" d="M21.9737 21.0369C20.4937 22.2845 18.5738 23.0376 16.4759 23.0376C11.7948 23.0376 8 19.288 8 14.6626C8 10.0372 11.7948 6.2876 16.4759 6.2876C18.5738 6.2876 20.4937 7.04072 21.9737 8.28827C23.4538 7.04072 25.3737 6.2876 27.4716 6.2876C32.1527 6.2876 35.9474 10.0372 35.9474 14.6626C35.9474 19.288 32.1527 23.0376 27.4716 23.0376C25.3737 23.0376 23.4538 22.2845 21.9737 21.0369Z" fill="#ED0006"/>
<path fill-rule="evenodd" clip-rule="evenodd" d="M21.9727 21.037C23.7951 19.5008 24.9507 17.2151 24.9507 14.6626C24.9507 12.1101 23.7951 9.82435 21.9727 8.28822C23.4527 7.0407 25.3726 6.2876 27.4704 6.2876C32.1515 6.2876 35.9463 10.0372 35.9463 14.6626C35.9463 19.288 32.1515 23.0376 27.4704 23.0376C25.3726 23.0376 23.4527 22.2845 21.9727 21.037Z" fill="#F9A000"/>
<path fill-rule="evenodd" clip-rule="evenodd" d="M21.9741 21.0369C23.7965 19.5008 24.9521 17.2151 24.9521 14.6626C24.9521 12.1102 23.7965 9.82446 21.9741 8.28833C20.1517 9.82446 18.9961 12.1102 18.9961 14.6626C18.9961 17.2151 20.1517 19.5008 21.9741 21.0369Z" fill="#FD6020"/>
</svg>
