<svg width="39" height="39" viewBox="0 0 39 39" fill="none" xmlns="http://www.w3.org/2000/svg">
<path d="M19.5 4.5C27.7706 4.5 34.5 11.2294 34.5 19.5C34.5 27.7706 27.7706 34.5 19.5 34.5C11.2294 34.5 4.5 27.7706 4.5 19.5C4.5 11.2294 11.2294 4.5 19.5 4.5ZM19.5 0.75C9.14438 0.75 0.75 9.14438 0.75 19.5C0.75 29.8556 9.14438 38.25 19.5 38.25C29.8556 38.25 38.25 29.8556 38.25 19.5C38.25 9.14438 29.8556 0.75 19.5 0.75ZM21.375 25.125H17.625V28.875H21.375V25.125ZM17.625 21.375H21.375L22.3125 10.125H16.6875L17.625 21.375Z" fill="white"/>
</svg>
