<svg width="49" height="49" viewBox="0 0 49 49" fill="none" xmlns="http://www.w3.org/2000/svg">
<path d="M24.5 45.9375C18.8144 45.9375 13.3617 43.6789 9.3414 39.6586C5.32109 35.6383 3.0625 30.1856 3.0625 24.5C3.0625 18.8144 5.32109 13.3617 9.3414 9.3414C13.3617 5.32109 18.8144 3.0625 24.5 3.0625C30.1856 3.0625 35.6383 5.32109 39.6586 9.3414C43.6789 13.3617 45.9375 18.8144 45.9375 24.5C45.9375 30.1856 43.6789 35.6383 39.6586 39.6586C35.6383 43.6789 30.1856 45.9375 24.5 45.9375ZM24.5 49C30.9978 49 37.2295 46.4188 41.8241 41.8241C46.4188 37.2295 49 30.9978 49 24.5C49 18.0022 46.4188 11.7705 41.8241 7.17588C37.2295 2.58124 30.9978 0 24.5 0C18.0022 0 11.7705 2.58124 7.17588 7.17588C2.58124 11.7705 0 18.0022 0 24.5C0 30.9978 2.58124 37.2295 7.17588 41.8241C11.7705 46.4188 18.0022 49 24.5 49Z" fill="#1AC80A"/>
<path d="M33.5968 15.2206C33.575 15.2417 33.5545 15.2642 33.5355 15.2879L22.8995 28.8395L16.4897 22.4266C16.0542 22.0209 15.4784 21.8 14.8833 21.8105C14.2883 21.821 13.7205 22.0621 13.2997 22.4829C12.8789 22.9037 12.6378 23.4715 12.6273 24.0665C12.6168 24.6616 12.8377 25.2375 13.2434 25.6729L21.3468 33.7793C21.5651 33.9972 21.825 34.1689 22.1111 34.2842C22.3972 34.3994 22.7036 34.4559 23.012 34.4502C23.3204 34.4445 23.6245 34.3767 23.9061 34.2509C24.1877 34.1251 24.4411 33.9439 24.6512 33.7181L36.8767 18.4362C37.293 17.9993 37.5206 17.4161 37.5103 16.8127C37.5 16.2093 37.2527 15.6342 36.8218 15.2117C36.3908 14.7892 35.8109 14.5533 35.2074 14.5549C34.604 14.5566 34.0254 14.7957 33.5968 15.2206Z" fill="#1AC80A"/>
</svg>
