<svg width="60" height="60" viewBox="0 0 60 60" fill="none" xmlns="http://www.w3.org/2000/svg">
<rect opacity="0.1" width="60" height="60" rx="30" fill="#2717EB" fill-opacity="0.98"/>
<g clip-path="url(#clip0_1456_1042)">
<path d="M30.0002 47.0001C29.8183 47.0001 29.6366 46.9501 29.4762 46.8501C20.2402 41.091 16.6971 33.8154 15.3514 28.726C13.9123 23.2846 14.5961 19.1892 14.6509 18.8817L14.6667 18.7833C14.7427 18.3088 15.1483 17.9574 15.6288 17.9498C15.6785 17.9487 20.9141 17.786 25.2908 13.2988C25.5883 12.9938 26.0477 12.9133 26.4312 13.099C27.5486 13.6398 28.7493 13.914 30.0002 13.914C31.2511 13.914 32.4518 13.6397 33.5691 13.099C33.9529 12.9133 34.412 12.9938 34.7096 13.2988C39.1143 17.8148 44.3196 17.949 44.3716 17.9498C44.852 17.9574 45.2577 18.3088 45.3336 18.7833L45.3495 18.8817C45.4044 19.1892 46.088 23.2846 44.649 28.726C43.3032 33.8154 39.7602 41.091 30.5242 46.8502C30.3638 46.9501 30.1819 47.0001 30.0002 47.0001ZM16.5202 19.8609C16.3882 21.171 16.2368 24.3861 17.2905 28.3118C19.0847 34.9961 23.3592 40.5531 29.9998 44.8372C38.2952 39.4781 41.5054 32.8662 42.7341 28.2197C43.7663 24.3165 43.6145 21.1564 43.4815 19.8611C41.7199 19.6464 37.5664 18.7663 33.784 15.1683C32.5831 15.6506 31.3134 15.8947 30 15.8947C28.6866 15.8947 27.4169 15.6508 26.216 15.1683C22.435 18.7652 18.2827 19.6457 16.5202 19.8609Z" fill="black"/>
<path d="M30.0003 40.8592C29.8184 40.8592 29.6367 40.8092 29.4763 40.7092C23.5724 37.0279 21.3078 32.1725 20.4474 28.7477C19.5129 25.0275 19.9838 22.1863 20.0043 22.0671L20.0134 22.0105C20.0893 21.536 20.495 21.1846 20.9754 21.177C21.0026 21.1763 24.1489 21.0677 26.7807 18.3694C27.0783 18.0644 27.5377 17.9839 27.9212 18.1695C28.572 18.4846 29.2715 18.6442 30.0003 18.6442C30.7291 18.6442 31.4286 18.4844 32.0794 18.1695C32.4631 17.9839 32.9223 18.0644 33.2199 18.3694C35.8517 21.0677 38.9981 21.1762 39.0296 21.177C39.5068 21.1887 39.912 21.5393 39.9874 22.0105L39.9983 22.0785C40.017 22.1863 40.4877 25.0275 39.5533 28.7477C38.6931 32.1725 36.4282 37.0279 30.5245 40.7092C30.3639 40.8092 30.182 40.8592 30.0003 40.8592ZM21.8868 23.0676C21.8162 24.0523 21.7919 26.0193 22.3895 28.3488C23.4785 32.5937 26.0379 36.0711 30.0003 38.6922C33.9626 36.0711 36.5221 32.5937 37.6111 28.3488C38.2094 26.0168 38.1844 24.0481 38.114 23.0676C36.8657 22.8704 34.4943 22.2401 32.2918 20.2267C31.5602 20.4912 30.7922 20.6249 30.0003 20.6249C29.2084 20.6249 28.4405 20.4912 27.7088 20.2267C25.5063 22.2399 23.135 22.8702 21.8868 23.0676Z" fill="black"/>
<path d="M30.0001 23.3462L31.0109 26.457H34.2818L31.6356 28.3796L32.6463 31.4904L30.0001 29.5678L27.3539 31.4904L28.3647 28.3796L25.7185 26.457H28.9894L30.0001 23.3462Z" fill="black"/>
</g>
<defs>
<clipPath id="clip0_1456_1042">
<rect width="34" height="34" fill="white" transform="translate(13 13)"/>
</clipPath>
</defs>
</svg>
