<svg width="291" height="78" viewBox="0 0 291 78" fill="none" xmlns="http://www.w3.org/2000/svg">
<g filter="url(#filter0_d_1437_5068)">
<mask id="path-1-inside-1_1437_5068" fill="white">
<path fill-rule="evenodd" clip-rule="evenodd" d="M269.195 4.59129C268.28 2.9889 266.576 2 264.73 2H7.86237C3.91357 2 1.43797 6.26591 3.39712 9.69443L18.1137 35.4484C19.0172 37.0295 19.0172 38.9705 18.1137 40.5516L3.39712 66.3056C1.43797 69.7341 3.91358 74 7.86238 74H264.73C266.576 74 268.28 73.0111 269.195 71.4087L286.828 40.5516C287.731 38.9705 287.731 37.0295 286.828 35.4484L269.195 4.59129Z"/>
</mask>
<path fill-rule="evenodd" clip-rule="evenodd" d="M269.195 4.59129C268.28 2.9889 266.576 2 264.73 2H7.86237C3.91357 2 1.43797 6.26591 3.39712 9.69443L18.1137 35.4484C19.0172 37.0295 19.0172 38.9705 18.1137 40.5516L3.39712 66.3056C1.43797 69.7341 3.91358 74 7.86238 74H264.73C266.576 74 268.28 73.0111 269.195 71.4087L286.828 40.5516C287.731 38.9705 287.731 37.0295 286.828 35.4484L269.195 4.59129Z" fill="#F5FBFF"/>
<path d="M18.1137 35.4484L19.23 34.8105L18.1137 35.4484ZM18.1137 40.5516L19.23 41.1895L18.1137 40.5516ZM286.828 40.5516L285.712 39.9137V39.9137L286.828 40.5516ZM286.828 35.4484L285.712 36.0863V36.0863L286.828 35.4484ZM3.39712 66.3056L4.51343 66.9435L3.39712 66.3056ZM269.195 4.59129L268.079 5.22918L269.195 4.59129ZM269.195 71.4087L268.079 70.7708L269.195 71.4087ZM7.86237 3.28571H264.73V0.714286H7.86237V3.28571ZM19.23 34.8105L4.51343 9.05654L2.28081 10.3323L16.9974 36.0863L19.23 34.8105ZM19.23 41.1895C20.3593 39.2131 20.3593 36.7869 19.23 34.8105L16.9974 36.0863C17.675 37.2721 17.675 38.7279 16.9974 39.9137L19.23 41.1895ZM4.51343 66.9435L19.23 41.1895L16.9974 39.9137L2.28081 65.6677L4.51343 66.9435ZM264.73 72.7143H7.86238V75.2857H264.73V72.7143ZM285.712 39.9137L268.079 70.7708L270.312 72.0466L287.944 41.1895L285.712 39.9137ZM285.712 36.0863C286.389 37.2721 286.389 38.7279 285.712 39.9137L287.944 41.1895C289.074 39.2131 289.074 36.7869 287.944 34.8105L285.712 36.0863ZM268.079 5.22918L285.712 36.0863L287.944 34.8105L270.312 3.95339L268.079 5.22918ZM2.28081 65.6677C-0.168137 69.9533 2.92638 75.2857 7.86238 75.2857V72.7143C4.90077 72.7143 3.04407 69.5149 4.51343 66.9435L2.28081 65.6677ZM264.73 3.28571C266.114 3.28571 267.392 4.02739 268.079 5.22918L270.312 3.95339C269.167 1.95041 267.037 0.714286 264.73 0.714286V3.28571ZM264.73 75.2857C267.037 75.2857 269.167 74.0496 270.312 72.0466L268.079 70.7708C267.392 71.9726 266.114 72.7143 264.73 72.7143V75.2857ZM7.86237 0.714286C2.92637 0.714286 -0.168136 6.04667 2.28081 10.3323L4.51343 9.05654C3.04407 6.48515 4.90077 3.28571 7.86237 3.28571V0.714286Z" fill="#7DABF8" mask="url(#path-1-inside-1_1437_5068)"/>
</g>
<defs>
<filter id="filter0_d_1437_5068" x="0.140486" y="0.714286" width="289.937" height="77.1429" filterUnits="userSpaceOnUse" color-interpolation-filters="sRGB">
<feFlood flood-opacity="0" result="BackgroundImageFix"/>
<feColorMatrix in="SourceAlpha" type="matrix" values="0 0 0 0 0 0 0 0 0 0 0 0 0 0 0 0 0 0 127 0" result="hardAlpha"/>
<feOffset dy="1.28571"/>
<feGaussianBlur stdDeviation="1.28571"/>
<feColorMatrix type="matrix" values="0 0 0 0 0.215686 0 0 0 0 0.254902 0 0 0 0 0.317647 0 0 0 0.08 0"/>
<feBlend mode="normal" in2="BackgroundImageFix" result="effect1_dropShadow_1437_5068"/>
<feBlend mode="normal" in="SourceGraphic" in2="effect1_dropShadow_1437_5068" result="shape"/>
</filter>
</defs>
</svg>
