<svg width="296" height="78" viewBox="0 0 296 78" fill="none" xmlns="http://www.w3.org/2000/svg">
<g filter="url(#filter0_d_1431_5052)">
<mask id="path-1-inside-1_1431_5052" fill="white">
<path fill-rule="evenodd" clip-rule="evenodd" d="M3 7.14286C3 4.30254 5.30254 2 8.14286 2H270.015C271.861 2 273.565 2.9889 274.481 4.59129L292.113 35.4484C293.017 37.0295 293.017 38.9705 292.113 40.5516L274.481 71.4087C273.565 73.0111 271.861 74 270.015 74H8.14286C5.30254 74 3 71.6975 3 68.8571V7.14286Z"/>
</mask>
<path fill-rule="evenodd" clip-rule="evenodd" d="M3 7.14286C3 4.30254 5.30254 2 8.14286 2H270.015C271.861 2 273.565 2.9889 274.481 4.59129L292.113 35.4484C293.017 37.0295 293.017 38.9705 292.113 40.5516L274.481 71.4087C273.565 73.0111 271.861 74 270.015 74H8.14286C5.30254 74 3 71.6975 3 68.8571V7.14286Z" fill="white"/>
<path d="M292.113 35.4484L290.997 36.0863V36.0863L292.113 35.4484ZM292.113 40.5516L290.997 39.9137V39.9137L292.113 40.5516ZM274.481 71.4087L273.364 70.7708L274.481 71.4087ZM274.481 4.59129L273.364 5.22918L274.481 4.59129ZM270.015 0.714286H8.14286V3.28571H270.015V0.714286ZM273.364 5.22918L290.997 36.0863L293.23 34.8105L275.597 3.95339L273.364 5.22918ZM290.997 36.0863C291.675 37.2721 291.675 38.7279 290.997 39.9137L293.23 41.1895C294.359 39.2131 294.359 36.7869 293.23 34.8105L290.997 36.0863ZM290.997 39.9137L273.364 70.7708L275.597 72.0466L293.23 41.1895L290.997 39.9137ZM8.14286 75.2857H270.015V72.7143H8.14286V75.2857ZM1.71429 7.14286V68.8571H4.28571V7.14286H1.71429ZM273.364 70.7708C272.678 71.9726 271.4 72.7143 270.015 72.7143V75.2857C272.322 75.2857 274.452 74.0496 275.597 72.0466L273.364 70.7708ZM8.14286 0.714286C4.59246 0.714286 1.71429 3.59246 1.71429 7.14286H4.28571C4.28571 5.01262 6.01262 3.28571 8.14286 3.28571V0.714286ZM8.14286 72.7143C6.01262 72.7143 4.28571 70.9874 4.28571 68.8571H1.71429C1.71429 72.4075 4.59245 75.2857 8.14286 75.2857V72.7143ZM270.015 3.28571C271.4 3.28571 272.678 4.02739 273.364 5.22918L275.597 3.95339C274.452 1.95041 272.322 0.714286 270.015 0.714286V3.28571Z" fill="#C1C9D2" mask="url(#path-1-inside-1_1431_5052)"/>
</g>
<defs>
<filter id="filter0_d_1431_5052" x="0.428571" y="0.714286" width="294.934" height="77.1429" filterUnits="userSpaceOnUse" color-interpolation-filters="sRGB">
<feFlood flood-opacity="0" result="BackgroundImageFix"/>
<feColorMatrix in="SourceAlpha" type="matrix" values="0 0 0 0 0 0 0 0 0 0 0 0 0 0 0 0 0 0 127 0" result="hardAlpha"/>
<feOffset dy="1.28571"/>
<feGaussianBlur stdDeviation="1.28571"/>
<feColorMatrix type="matrix" values="0 0 0 0 0.215686 0 0 0 0 0.254902 0 0 0 0 0.317647 0 0 0 0.08 0"/>
<feBlend mode="normal" in2="BackgroundImageFix" result="effect1_dropShadow_1431_5052"/>
<feBlend mode="normal" in="SourceGraphic" in2="effect1_dropShadow_1431_5052" result="shape"/>
</filter>
</defs>
</svg>
