<svg width="31" height="32" viewBox="0 0 31 32" fill="none" xmlns="http://www.w3.org/2000/svg">
<path d="M27.2079 3H9.73212C9.5889 2.99987 9.44706 3.03057 9.3147 3.09035C9.18234 3.15014 9.06205 3.23783 8.96069 3.34842C8.85934 3.45902 8.77891 3.59035 8.72399 3.73492C8.66907 3.87949 8.64075 4.03447 8.64062 4.191V9.5L18.7678 12.75L28.3003 9.5V4.191C28.3002 4.03438 28.2718 3.87932 28.2168 3.73469C28.1619 3.59005 28.0813 3.45868 27.9799 3.34807C27.8784 3.23746 27.758 3.14979 27.6256 3.09007C27.4931 3.03034 27.3512 2.99974 27.2079 3Z" fill="#41A5EE"/>
<path d="M28.3003 9.5H8.64062V16L18.7678 17.95L28.3003 16V9.5Z" fill="#2B7CD3"/>
<path d="M8.64062 16V22.5L18.1722 23.8L28.3003 22.5V16H8.64062Z" fill="#185ABD"/>
<path d="M9.73212 29H27.207C27.3503 29.0004 27.4924 28.9699 27.6249 28.9102C27.7575 28.8506 27.878 28.7629 27.9796 28.6523C28.0811 28.5417 28.1617 28.4102 28.2167 28.2655C28.2718 28.1208 28.3002 27.9657 28.3003 27.809V22.5H8.64062V27.809C8.64075 27.9655 8.66907 28.1205 8.72399 28.2651C8.77891 28.4097 8.85934 28.541 8.96069 28.6516C9.06205 28.7622 9.18234 28.8499 9.3147 28.9096C9.44706 28.9694 9.5889 29.0001 9.73212 29Z" fill="#103F91"/>
<path opacity="0.1" d="M15.8886 8.19995H8.64062V24.45H15.8886C16.1774 24.4484 16.454 24.3225 16.6585 24.0996C16.8629 23.8766 16.9788 23.5746 16.981 23.259V9.39095C16.9788 9.07529 16.8629 8.77327 16.6585 8.55034C16.454 8.32741 16.1774 8.20152 15.8886 8.19995Z" fill="black"/>
<path opacity="0.2" d="M15.293 8.84998H8.64062V25.1H15.293C15.5818 25.0984 15.8584 24.9725 16.0629 24.7496C16.2673 24.5267 16.3832 24.2246 16.3854 23.909V10.041C16.3832 9.72531 16.2673 9.4233 16.0629 9.20037C15.8584 8.97743 15.5818 8.85155 15.293 8.84998Z" fill="black"/>
<path opacity="0.2" d="M15.293 8.84998H8.64062V23.8H15.293C15.5818 23.7984 15.8584 23.6725 16.0629 23.4496C16.2673 23.2267 16.3832 22.9246 16.3854 22.609V10.041C16.3832 9.72531 16.2673 9.4233 16.0629 9.20037C15.8584 8.97743 15.5818 8.85155 15.293 8.84998Z" fill="black"/>
<path opacity="0.2" d="M14.6974 8.84998H8.64062V23.8H14.6974C14.9862 23.7984 15.2628 23.6725 15.4672 23.4496C15.6717 23.2267 15.7876 22.9246 15.7898 22.609V10.041C15.7876 9.72531 15.6717 9.4233 15.4672 9.20037C15.2628 8.97743 14.9862 8.85155 14.6974 8.84998Z" fill="black"/>
<path d="M3.776 8.84998H14.6982C14.9876 8.84971 15.2651 8.97501 15.47 9.19834C15.6748 9.42166 15.7902 9.72475 15.7906 10.041V21.959C15.7902 22.2752 15.6748 22.5783 15.47 22.8016C15.2651 23.0249 14.9876 23.1502 14.6982 23.15H3.776C3.63271 23.1502 3.49077 23.1196 3.3583 23.0599C3.22584 23.0002 3.10544 22.9125 3.00399 22.8019C2.90254 22.6913 2.82202 22.5599 2.76705 22.4153C2.71207 22.2707 2.68371 22.1156 2.68359 21.959V10.041C2.68371 9.88436 2.71207 9.7293 2.76705 9.58466C2.82202 9.44003 2.90254 9.30865 3.00399 9.19804C3.10544 9.08744 3.22584 8.99977 3.3583 8.94004C3.49077 8.88032 3.63271 8.84971 3.776 8.84998Z" fill="url(#paint0_linear_117_4207)"/>
<path d="M7.16691 17.988C7.18796 18.172 7.2026 18.332 7.209 18.469H7.23462C7.24377 18.339 7.2639 18.182 7.29409 17.999C7.32428 17.816 7.35081 17.661 7.37551 17.534L8.52373 12.127H10.0095L11.1989 17.453C11.2682 17.7824 11.3177 18.1165 11.3472 18.453H11.3673C11.3891 18.1254 11.4304 17.7997 11.4908 17.478L12.4414 12.12H13.7927L12.1239 19.868H10.5439L9.41211 14.742C9.37917 14.594 9.34197 14.4013 9.30049 14.164C9.25902 13.9267 9.2334 13.7533 9.22364 13.644H9.20443C9.19162 13.77 9.166 13.957 9.12757 14.205C9.08915 14.454 9.05895 14.637 9.03608 14.757L7.97204 19.871H6.36545L4.6875 12.127H6.05987L7.09464 17.545C7.12552 17.6912 7.14964 17.8391 7.16691 17.988Z" fill="white"/>
<defs>
<linearGradient id="paint0_linear_117_4207" x1="4.96539" y1="7.91398" x2="14.6981" y2="23.3354" gradientUnits="userSpaceOnUse">
<stop stop-color="#2368C4"/>
<stop offset="0.5" stop-color="#1A5DBE"/>
<stop offset="1" stop-color="#1146AC"/>
</linearGradient>
</defs>
</svg>
