<svg width="30" height="32" viewBox="0 0 30 32" fill="none" xmlns="http://www.w3.org/2000/svg">
<path d="M22.0489 2.07202L27.1395 7.87202V29.928H8.12305V30H27.2045V7.94502L22.0489 2.07202Z" fill="#909090"/>
<path d="M21.9863 2H8.05859V29.928H27.14V7.873L21.9854 2" fill="#F4F4F4"/>
<path d="M7.91856 3.5H2.07227V10.327H20.462V3.5H7.91856Z" fill="#7A7B7C"/>
<path d="M20.5601 10.211H2.19141V3.37903H20.5601V10.211Z" fill="#DD2025"/>
<path d="M8.28173 4.53406H7.08594V9.33406H8.02647V7.71506L8.23415 7.72806C8.43596 7.72426 8.63586 7.68475 8.8261 7.61106C8.99289 7.54836 9.14633 7.44936 9.27715 7.32006C9.41027 7.19688 9.51523 7.04141 9.58365 6.86606C9.67541 6.57456 9.70819 6.26476 9.67972 5.95806C9.674 5.73897 9.63886 5.52198 9.57542 5.31406C9.51766 5.16396 9.43195 5.02866 9.32374 4.91675C9.21552 4.80484 9.08718 4.71879 8.94687 4.66406C8.82556 4.61606 8.70022 4.58122 8.57267 4.56006C8.47608 4.54377 8.37854 4.53508 8.28081 4.53406H8.28173ZM8.1079 6.82806H8.02647V5.34806H8.20305C8.28098 5.34192 8.35918 5.35499 8.43187 5.38632C8.50455 5.41765 8.56987 5.46643 8.62299 5.52906C8.73307 5.69007 8.79188 5.88606 8.79042 6.08706C8.79042 6.33306 8.79042 6.55606 8.58731 6.71306C8.44098 6.80102 8.27443 6.84063 8.1079 6.82706" fill="#464648"/>
<path d="M11.4669 4.52094C11.3654 4.52094 11.2665 4.52894 11.197 4.53194L10.9793 4.53794H10.2656V9.33794H11.1055C11.4265 9.34756 11.7461 9.2881 12.046 9.16294C12.2875 9.05826 12.5013 8.88952 12.6682 8.67194C12.8305 8.4524 12.9469 8.19678 13.0095 7.92294C13.0813 7.61281 13.1164 7.29385 13.1138 6.97394C13.1315 6.5961 13.1047 6.21733 13.0342 5.84694C12.9672 5.5743 12.8417 5.32303 12.6682 5.11394C12.532 4.9451 12.3654 4.80891 12.1787 4.71394C12.0184 4.63286 11.8498 4.5731 11.6764 4.53594C11.6075 4.52349 11.5377 4.51781 11.4678 4.51894L11.4669 4.52094ZM11.3013 8.45594H11.2098V5.39194H11.2217C11.4103 5.36822 11.6012 5.40542 11.7707 5.49894C11.8948 5.60727 11.9959 5.74374 12.0671 5.89894C12.1439 6.06228 12.1882 6.24155 12.197 6.42494C12.2052 6.64494 12.197 6.82494 12.197 6.97394C12.2007 7.14558 12.1906 7.31724 12.1668 7.48694C12.1386 7.66117 12.0865 7.82974 12.0122 7.98694C11.9281 8.1331 11.8145 8.25625 11.6801 8.34694C11.5672 8.42674 11.4335 8.46397 11.2995 8.45294" fill="#464648"/>
<path d="M15.9478 4.53796H13.7246V9.33796H14.6651V7.43396H15.8545V6.54196H14.6651V5.42996H15.946V4.53796" fill="#464648"/>
<path d="M19.9283 20.255C19.9283 20.255 22.845 19.677 22.845 20.766C22.845 21.855 21.0381 21.412 19.9283 20.255ZM17.7718 20.338C17.3084 20.4499 16.8568 20.6138 16.4242 20.827L16.7901 19.927C17.1561 19.027 17.5358 17.8 17.5358 17.8C17.9725 18.6033 18.4806 19.3577 19.0527 20.052C18.6212 20.1223 18.1936 20.2185 17.7718 20.34V20.338ZM16.6172 13.838C16.6172 12.889 16.8981 12.63 17.1167 12.63C17.3354 12.63 17.5815 12.745 17.5898 13.569C17.5185 14.3976 17.3598 15.2143 17.1167 16.003C16.7838 15.3408 16.6115 14.5966 16.6163 13.841L16.6172 13.838ZM12.3638 24.354C11.469 23.769 14.2403 21.968 14.7425 21.91C14.7398 21.911 13.3006 24.966 12.3638 24.354ZM23.6968 20.895C23.6876 20.795 23.6053 19.688 21.8029 19.735C21.0517 19.7218 20.3008 19.7797 19.5586 19.908C18.8398 19.1164 18.2207 18.2235 17.7178 17.253C18.0346 16.2524 18.2264 15.2097 18.2878 14.153C18.2613 12.953 17.9987 12.265 17.157 12.275C16.3153 12.285 16.1927 13.09 16.3034 14.288C16.4118 15.0931 16.6164 15.8791 16.9118 16.626C16.9118 16.626 16.523 17.949 16.0088 19.265C15.4946 20.581 15.1433 21.271 15.1433 21.271C14.2492 21.5891 13.4074 22.0618 12.6501 22.671C11.8962 23.438 11.5898 24.027 11.9868 24.616C12.329 25.124 13.5266 25.239 14.5971 23.706C15.1658 22.9142 15.6854 22.0817 16.1524 21.214C16.1524 21.214 17.7846 20.725 18.2924 20.591C18.8002 20.457 19.4141 20.351 19.4141 20.351C19.4141 20.351 20.9045 21.99 22.3418 21.932C23.7791 21.874 23.7096 20.993 23.7005 20.897" fill="#DD2025"/>
<path d="M21.916 2.07703V7.95003H27.0697L21.916 2.07703Z" fill="#909090"/>
<path d="M21.9863 2V7.873H27.14L21.9863 2Z" fill="#F4F4F4"/>
<path d="M8.21142 4.45703H7.01562V9.25703H7.95981V7.63903L8.16842 7.65203C8.37022 7.64824 8.57012 7.60872 8.76036 7.53503C8.92714 7.4723 9.08058 7.37331 9.21142 7.24403C9.34354 7.12052 9.44753 6.96508 9.51517 6.79003C9.60693 6.49853 9.6397 6.18873 9.61123 5.88203C9.60552 5.66294 9.57038 5.44595 9.50693 5.23803C9.44918 5.08794 9.36347 4.95263 9.25525 4.84072C9.14704 4.72882 9.01869 4.64276 8.87839 4.58803C8.75652 4.53956 8.63056 4.50439 8.50236 4.48303C8.40577 4.46674 8.30823 4.45805 8.2105 4.45703H8.21142ZM8.03758 6.75103H7.95616V5.27103H8.13365C8.21158 5.26489 8.28978 5.27797 8.36247 5.30929C8.43516 5.34062 8.50047 5.3894 8.55359 5.45203C8.66367 5.61305 8.72248 5.80903 8.72102 6.01003C8.72102 6.25603 8.72102 6.47903 8.51791 6.63603C8.37159 6.724 8.20503 6.7636 8.0385 6.75003" fill="white"/>
<path d="M11.3958 4.44404C11.2942 4.44404 11.1954 4.45204 11.1259 4.45504L10.9109 4.46104H10.1973V9.26104H11.0372C11.3581 9.27065 11.6777 9.21119 11.9777 9.08604C12.2191 8.98136 12.433 8.81262 12.5998 8.59504C12.7621 8.37549 12.8786 8.11987 12.9411 7.84604C13.013 7.53591 13.048 7.21695 13.0454 6.89704C13.0631 6.51919 13.0364 6.14042 12.9658 5.77004C12.8988 5.4974 12.7734 5.24613 12.5998 5.03704C12.4637 4.8682 12.297 4.73201 12.1103 4.63704C11.95 4.55595 11.7814 4.49619 11.6081 4.45904C11.5391 4.44659 11.4693 4.4409 11.3995 4.44204L11.3958 4.44404ZM11.2329 8.37904H11.1415V5.31504H11.1533C11.342 5.29132 11.5328 5.32851 11.7023 5.42204C11.8264 5.53036 11.9276 5.66684 11.9987 5.82204C12.0755 5.98537 12.1198 6.16464 12.1286 6.34804C12.1369 6.56804 12.1286 6.74804 12.1286 6.89704C12.1324 7.06867 12.1223 7.24034 12.0985 7.41004C12.0703 7.58427 12.0181 7.75284 11.9438 7.91004C11.8597 8.05619 11.7461 8.17934 11.6117 8.27004C11.4988 8.34983 11.3652 8.38706 11.2311 8.37604" fill="white"/>
<path d="M15.8756 4.46106H13.6523V9.26106H14.5929V7.35706H15.7823V6.46506H14.5929V5.35306H15.8738V4.46106" fill="white"/>
</svg>
