<svg width="70" height="48" viewBox="0 0 70 48" fill="none" xmlns="http://www.w3.org/2000/svg">
<g clip-path="url(#clip0_682_8212)">
<path fill-rule="evenodd" clip-rule="evenodd" d="M55.5083 13.6615C53.5638 14.1344 52.4461 15.6681 52.4166 17.9044C52.4111 18.3193 52.38 18.9227 52.3476 19.2454L52.2884 19.8322L51.6471 19.8811C50.8532 19.9417 50.5566 20.2745 50.6045 21.0512L50.6316 21.4947L51.437 21.5231L52.2424 21.5512V24.0709V26.5907L51.6211 27.0831C50.4367 28.0214 49.6067 28.3666 48.9784 28.1823C48.3449 27.9965 48.336 27.9464 48.2844 24.3668C48.2407 21.3278 48.2287 21.1527 48.0485 20.8965C47.4176 19.9994 45.21 19.4224 44.6568 20.01L44.4184 20.2635V24.1127C44.4184 27.975 44.4718 28.8062 44.7592 29.4143C45.7492 31.5081 49.2086 31.2091 51.6761 28.8162L52.3237 28.1884L52.3522 30.1556L52.3805 32.123L52.6387 32.3587C53.0941 32.7745 54.4921 32.6107 55.2894 32.0479C56.1224 31.4597 56.1084 31.558 56.1084 26.2762V21.662L57.19 21.6236C58.7294 21.5691 59.189 21.2146 59.0129 20.217L58.9536 19.8811L57.646 19.8796C55.9924 19.8777 56.0709 19.9366 56.1328 18.7423C56.2531 16.426 57.0494 15.5167 58.8868 15.5974L59.5602 15.627L59.5905 15.3441C59.7217 14.1243 57.4521 13.1889 55.5083 13.6615ZM45.6309 14.8373C44.3798 15.2705 43.7923 16.5294 44.3515 17.5783C45.4148 19.5731 48.5605 18.91 48.5605 16.6912C48.5605 15.325 47.0264 14.3539 45.6309 14.8373ZM34.1363 15.2065C33.527 15.3749 33.5569 14.9837 33.5569 22.7893V29.8592L33.8719 30.2245L34.1869 30.5898L38.8885 30.6169L43.59 30.6438L43.5898 29.7368C43.5891 28.0283 43.5293 27.9994 40.0002 27.9987L37.4689 27.9982L37.496 22.3788C37.5262 16.1651 37.549 16.4262 36.9348 15.9284C36.3211 15.4311 34.7703 15.0309 34.1363 15.2065ZM63.7943 19.7906C60.5248 20.375 58.3601 22.7507 58.3656 25.7489C58.3718 29.0832 60.3568 30.7797 64.2546 30.7819C66.9939 30.7834 69.6165 29.5138 69.8729 28.0622C69.9884 27.4073 69.8121 27.3667 68.926 27.8439C65.0255 29.9443 61.6876 28.3361 62.4019 24.7005C62.8849 22.2429 65.6146 21.0307 66.3634 22.9411C66.8047 24.0673 65.5727 25.3763 63.7946 25.6699C62.9887 25.8029 62.9532 25.8821 63.459 26.4195C64.9053 27.9561 68.5414 26.8782 69.5153 24.6242C70.864 21.5026 67.9574 19.0467 63.7943 19.7906Z" fill="#005E9C"/>
<path fill-rule="evenodd" clip-rule="evenodd" d="M0.697266 15.4178C0.697266 29.276 0.710383 30.6542 0.842931 30.6001C0.923012 30.5674 7.35342 30.5407 15.1328 30.5407H29.2772L25.2745 26.2873L21.2719 22.0339L15.0575 22.0088L8.84343 21.9836L8.81973 15.3814L8.79602 8.7789L4.74664 4.47734L0.697266 0.175781V15.4178Z" fill="#B11016"/>
<path fill-rule="evenodd" clip-rule="evenodd" d="M65.6809 0.0508949C63.2132 0.295141 62.2294 1.40659 61.9958 4.21358C61.6859 7.94206 62.4437 9.98209 64.3778 10.6271C65.5008 11.0014 67.6558 11.0461 69.1615 10.7261L69.4549 10.6637V9.55398V8.444L68.0019 8.50487C65.3901 8.61416 65.1747 8.38556 65.1747 5.50498C65.1747 2.61951 65.2589 2.5222 67.7591 2.5222H69.4549V1.3731C69.4549 0.430587 69.4307 0.223994 69.3205 0.223994C69.2464 0.223994 68.7804 0.181941 68.285 0.130354C66.8274 -0.0209859 66.5052 -0.0307648 65.6809 0.0508949ZM4.72255 4.45367L8.79471 8.78115L8.81842 15.3824L8.84189 21.9836L15.0551 22.0086L21.2682 22.0337L25.2497 26.2627L29.231 30.4919L15.0325 30.5413L0.833795 30.5906L15.1241 30.6146L29.4144 30.6386V15.3824V0.126198H15.0325H0.650391L4.72255 4.45367ZM44.8093 0.197833L44.4181 0.23524V5.45731V10.6794L44.7633 10.7525C45.5236 10.9136 49.4878 10.8461 50.125 10.661C52.3224 10.0229 53.0705 8.69802 53.0705 5.44459C53.0705 0.811992 51.1483 -0.408747 44.8093 0.197833ZM33.5565 5.45608V10.6882H35.1195H36.6824L36.7073 8.61001L36.7322 6.53184H38.2049H39.6777L39.7025 8.61221L39.7274 10.6928L41.3133 10.6659L42.8993 10.6393L42.9269 5.84727C42.9421 3.21166 42.929 0.867248 42.8979 0.637183L42.8413 0.219349L41.3055 0.245997L39.7697 0.272891L39.7449 2.20436L39.7198 4.13584H38.2031H36.6861V2.17992V0.223994H35.1213H33.5565V5.45608ZM54.2671 5.45608V10.6882H55.8319H57.3967V8.58751V6.4871L59.2607 6.46045L61.1246 6.43404V5.40718V4.38033L59.2607 4.35392L57.3967 4.32727V3.45126V2.57501L59.3987 2.54861L61.4008 2.5222L61.4268 1.3731L61.4525 0.223994H57.8599H54.2671V5.45608ZM49.2227 2.60142C49.8422 2.87696 49.9874 3.42168 49.9839 5.45608C49.9793 8.10318 49.6788 8.58531 48.0776 8.51661L47.4096 8.48776L47.3852 5.55486C47.3719 3.94196 47.3831 2.5601 47.4105 2.48455C47.4729 2.31145 48.7565 2.39433 49.2227 2.60142ZM21.1999 15.3579L21.1762 21.8858H15.0551H8.93394L8.91023 15.3579L8.88653 8.83005H15.0551H21.2236L21.1999 15.3579ZM69.2017 37.2916C69.0181 37.3701 68.9944 37.4498 68.9926 37.9945C68.9914 38.3324 68.8879 39.1591 68.7627 39.8314C68.3252 42.181 68.5319 43.5765 69.2565 43.1645C69.5161 43.0171 69.5646 42.787 69.3946 42.5113C69.1889 42.1778 69.2758 40.7949 69.5844 39.4967C69.7112 38.963 69.8429 38.2258 69.8769 37.8586L69.9388 37.1909L69.674 37.197C69.5281 37.2004 69.3157 37.243 69.2017 37.2916ZM2.87126 37.4034C1.21096 37.8965 1.30208 39.5385 3.07698 41.1091C5.02746 42.835 4.3921 44.2591 2.07643 43.3521C1.04067 42.9462 0.695723 43.035 0.695723 43.7066C0.695723 44.2036 3.097 44.4444 3.98894 44.0366C5.62576 43.2885 5.48746 42.0621 3.58002 40.4052C2.51849 39.4832 2.27387 38.8092 2.77231 38.1796C3.25003 37.5767 3.93256 37.654 4.59852 38.3867C5.08798 38.9253 5.21316 38.9324 5.47849 38.4358C5.8881 37.6699 4.21054 37.0056 2.87126 37.4034ZM42.9831 37.6237L42.6984 37.7552L42.6397 38.8666C42.6073 39.4779 42.4987 40.5646 42.3981 41.2815C42.2975 41.9983 42.1875 42.9115 42.1535 43.3107L42.0916 44.0366L42.4034 44.0364C42.6945 44.0359 42.7362 43.9929 43.0289 43.3917C43.4431 42.5406 43.455 42.5403 44.3424 43.3582C45.5102 44.4351 45.8188 44.5909 46.19 44.2916C46.4307 44.0975 46.3849 43.8726 46.0816 43.7604C45.7026 43.62 44.9124 43.0636 44.3861 42.5665L43.9401 42.1453L44.248 41.8377C44.6919 41.3947 45.5381 40.8094 45.7346 40.8094C45.9458 40.8094 45.9196 40.3409 45.7003 40.1952C45.3896 39.9889 44.2103 40.9634 43.1819 42.2763L42.8369 42.7164L42.8938 42.3741C43.3552 39.5942 43.5482 37.5828 43.3595 37.5219C43.3089 37.5058 43.1395 37.5515 42.9831 37.6237ZM28.2995 37.7043C28.0691 37.8016 28.0569 37.8457 28.0082 38.7454C27.9801 39.262 27.8482 40.2568 27.715 40.9561L27.4727 42.2274L27.0398 42.6467C26.2206 43.4401 25.2134 43.7692 24.8629 43.3577C24.668 43.1288 24.7186 42.5624 25.0318 41.4661L25.2332 40.7605L25.8927 40.7116C26.5897 40.66 26.7846 40.5539 26.7273 40.2573C26.6917 40.0737 26.2266 40.038 25.6626 40.1759C25.4578 40.226 25.4557 40.2165 25.5148 39.5402L25.5749 38.8534H25.3374C24.7766 38.8534 24.6397 38.9952 24.6096 39.607L24.5819 40.1737L24.1677 40.2226C23.7922 40.2668 23.7508 40.2979 23.7231 40.5546C23.6937 40.8284 23.7033 40.8358 24.0207 40.781C24.4379 40.7091 24.4627 40.7619 24.3295 41.4375C24.2068 42.058 23.9533 42.3394 22.9212 42.9998C21.4293 43.9547 20.8405 43.4169 21.3957 41.6064C21.7513 40.4473 21.7556 40.516 21.3255 40.516C20.907 40.516 20.7933 40.6353 20.6161 41.2612C20.215 42.677 19.1472 43.6171 18.5059 43.1188C18.1725 42.8599 18.3897 41.8949 18.9887 40.9732C19.2687 40.5421 19.1997 40.4343 18.684 40.4984C18.1893 40.5597 17.836 41.3049 17.6731 42.6323C17.4823 44.1845 18.6173 44.5408 19.9499 43.3469C20.4713 42.8797 20.4513 42.8814 20.525 43.299C20.6962 44.2677 21.8827 44.2753 23.4205 43.3176L23.9836 42.967V43.3442C23.9836 44.5105 25.4677 44.4674 27.1823 43.2516L27.4814 43.0394V43.4853C27.4814 43.9242 27.4874 43.933 27.8567 44.0386C28.2249 44.144 28.4939 44.0577 28.4939 43.8342C28.4939 43.4802 29.9278 41.4934 30.183 41.4942C30.2536 41.4944 30.2907 41.7619 30.2944 42.301C30.3066 44.1149 31.552 44.7007 32.9299 43.5403C33.3303 43.2029 33.3724 43.1936 33.3724 43.4423C33.3724 44.4777 34.7642 44.4205 35.9781 43.3352C36.2215 43.1176 36.4339 42.9555 36.45 42.9748C36.4661 42.9939 36.5653 43.1907 36.6702 43.412C37.0522 44.2171 37.7918 44.3217 38.8833 43.7254C39.5739 43.3481 39.7437 43.1359 39.5341 42.913C39.408 42.779 39.3608 42.7892 39.0777 43.011C37.998 43.8574 37.2384 43.4014 37.2384 41.9071C37.2384 40.1453 35.2757 39.8424 33.9889 41.4054C33.7512 41.6944 33.5565 41.9802 33.5565 42.0409C33.5565 42.2137 32.8275 43.0496 32.538 43.2085C31.5296 43.7626 30.9366 42.9885 31.1391 41.3827C31.3559 39.6647 30.4914 40.0211 28.6161 42.423C28.0335 43.1692 28.0289 43.242 28.8228 39.0979C29.0955 37.675 28.9961 37.4105 28.2995 37.7043ZM54.037 37.9689C53.5556 38.1757 53.3427 38.9512 53.7452 39.0324C54.3083 39.1458 54.9174 38.529 54.6569 38.1087C54.5573 37.9481 54.2476 37.8784 54.037 37.9689ZM56.4194 38.2258C55.8374 38.531 55.8199 39.2446 56.3946 39.2446C56.9648 39.2446 57.402 38.5165 57.008 38.2234C56.7609 38.0393 56.7754 38.0393 56.4194 38.2258ZM15.4233 38.9833C14.5104 39.3084 13.6444 40.1062 12.9994 41.2169C12.8015 41.5575 12.6653 41.7262 12.6968 41.5917C12.9002 40.7221 12.8883 40.6138 12.5891 40.6138C12.0571 40.6138 12.0175 40.6702 12.0175 41.4272V42.122L11.5 42.6337C10.1865 43.9325 9.58402 43.7684 9.56883 42.1081C9.55939 41.0837 9.55525 41.0646 9.29269 40.8402C7.97481 39.7136 5.80434 41.1431 5.80434 43.1376C5.80434 44.5579 7.10588 44.6515 8.40121 43.3247L8.78896 42.9274L8.97075 43.378C9.38543 44.4061 10.2716 44.376 11.5343 43.2907L11.8334 43.0335V43.6166C11.8334 44.3117 11.8502 44.3364 12.2354 44.2107C12.527 44.1156 12.5394 44.0887 12.6924 43.2293C13.0036 41.4802 14.4374 39.8404 15.6617 39.8336C16.017 39.8314 16.0448 39.8099 16.1564 39.4507C16.3419 38.8532 16.1435 38.7268 15.4233 38.9833ZM48.1129 40.4284C46.4275 40.9668 45.7873 43.4239 47.1733 44.0339C47.9548 44.3779 49.9437 43.9171 50.0164 43.375C50.0537 43.0971 49.8051 42.9836 49.5923 43.1816C48.9242 43.8036 47.7513 43.7846 47.3295 43.145C47.0861 42.7756 47.1436 42.7071 47.8929 42.4756C49.211 42.068 49.8033 41.503 49.5766 40.8688C49.4252 40.4461 48.7206 40.2341 48.1129 40.4284ZM53.6525 40.4632C53.3144 40.6194 53.3153 40.6147 53.1609 42.8631C52.8968 46.7077 52.2754 47.7707 51.1444 46.3128L50.883 45.9757L50.7341 46.2016C50.3151 46.8368 50.7684 47.3617 51.7358 47.3617C52.9087 47.3617 53.4939 46.5654 53.7482 44.6234C54.0688 42.1753 54.2575 40.9436 54.352 40.6808C54.4066 40.5294 54.4512 40.3864 54.4512 40.3629C54.4512 40.27 53.9282 40.3358 53.6525 40.4632ZM64.0453 40.6341C62.4501 41.3018 61.7703 43.3122 62.891 44.0481C63.6412 44.5408 64.9614 44.244 65.7981 43.3946C67.3951 41.7739 66.1198 39.7654 64.0453 40.6341ZM55.504 40.9556C54.4333 43.6785 55.6414 45.1143 57.6406 43.4944L57.9357 43.2552L58.1508 43.6704C58.4836 44.3122 58.8621 44.3726 59.6988 43.9163C60.0527 43.7234 60.3422 43.5726 60.342 43.5811C60.3418 43.5897 60.221 44.1041 60.0734 44.7244C59.9257 45.3447 59.7757 46.1698 59.7395 46.5581L59.6742 47.2639H60.0488C60.5397 47.2639 60.5542 47.227 60.6324 45.797C60.7175 44.2371 60.9987 43.1807 61.5671 42.2858C62.3162 41.1067 62.3576 40.8856 61.8628 40.7123C61.4346 40.5622 61.424 40.5739 61.042 41.6211C60.594 42.8501 60.1022 43.3521 59.347 43.3521C58.7075 43.3521 58.5692 42.7631 58.9548 41.6844C59.2027 40.9918 59.1955 40.8649 58.9005 40.7221C58.5639 40.559 58.4797 40.6751 58.1876 41.7064C57.8708 42.8257 57.2978 43.3521 56.3966 43.3521C55.6876 43.3521 55.6453 42.5474 56.2843 41.2169C56.4735 40.8228 56.4737 40.8147 56.2984 40.715C55.929 40.505 55.6476 40.5903 55.504 40.9556ZM48.7263 41.2626C48.7618 41.6499 48.4601 41.923 47.7564 42.1404C47.1664 42.3228 47.1581 42.3179 47.2764 41.8631C47.4968 41.015 48.6596 40.5331 48.7263 41.2626ZM65.5443 41.3301C65.9115 41.8873 65.5652 42.9909 64.8914 43.4105C63.8713 44.0457 62.8613 43.4014 63.1948 42.3279C63.5521 41.1778 65.0302 40.5502 65.5443 41.3301ZM8.62282 41.2949C8.94774 41.6404 8.90678 41.7756 8.1971 42.7015C7.25109 43.9352 6.20382 43.7914 6.57408 42.4785C6.92271 41.2421 7.99183 40.6245 8.62282 41.2949ZM36.2452 41.2881C36.609 41.6335 36.5561 41.7912 35.7739 42.6919C34.8693 43.7335 34.1088 43.8308 34.1088 42.9049C34.1088 41.5824 35.47 40.5524 36.2452 41.2881ZM68.2192 44.0286C67.8392 44.4748 68.4166 45.1163 69.0027 44.8992C69.1502 44.8444 69.2708 44.7637 69.2708 44.7197C69.2708 44.6755 69.2952 44.5718 69.3251 44.4892C69.4864 44.0423 68.5422 43.6491 68.2192 44.0286Z" fill="#ED1B24"/>
</g>
<defs>
<clipPath id="clip0_682_8212">
<rect width="69.2884" height="47.3617" fill="white" transform="translate(0.650391)"/>
</clipPath>
</defs>
</svg>
