<svg width="32" height="32" viewBox="0 0 32 32" fill="none" xmlns="http://www.w3.org/2000/svg">
<path d="M21.2512 15H16.6578V10.25C16.6578 10.1125 16.549 10 16.4161 10H14.9655C14.8326 10 14.7238 10.1125 14.7238 10.25V15H10.1304C9.99746 15 9.88867 15.1125 9.88867 15.25V16.75C9.88867 16.8875 9.99746 17 10.1304 17H14.7238V21.75C14.7238 21.8875 14.8326 22 14.9655 22H16.4161C16.549 22 16.6578 21.8875 16.6578 21.75V17H21.2512C21.3841 17 21.4929 16.8875 21.4929 16.75V15.25C21.4929 15.1125 21.3841 15 21.2512 15Z" fill="#5782D3"/>
<path d="M15.6906 2C8.21436 2 2.15234 8.26875 2.15234 16C2.15234 23.7313 8.21436 30 15.6906 30C23.1669 30 29.2289 23.7313 29.2289 16C29.2289 8.26875 23.1669 2 15.6906 2ZM15.6906 27.625C9.48357 27.625 4.44902 22.4188 4.44902 16C4.44902 9.58125 9.48357 4.375 15.6906 4.375C21.8977 4.375 26.9323 9.58125 26.9323 16C26.9323 22.4188 21.8977 27.625 15.6906 27.625Z" fill="#5782D3"/>
</svg>
