<svg width="91" height="91" viewBox="0 0 91 91" fill="none" xmlns="http://www.w3.org/2000/svg">
<path fill-rule="evenodd" clip-rule="evenodd" d="M45.5013 3.79175C22.4669 3.79175 3.79297 22.4657 3.79297 45.5001C3.79297 68.5345 22.4669 87.2084 45.5013 87.2084C68.5357 87.2084 87.2096 68.5345 87.2096 45.5001C87.2096 22.4657 68.5357 3.79175 45.5013 3.79175ZM63.58 38.4476C63.9129 38.0671 64.1663 37.6238 64.3254 37.1439C64.4844 36.664 64.5459 36.1571 64.5062 35.6531C64.4664 35.149 64.3263 34.6581 64.094 34.209C63.8617 33.7599 63.542 33.3618 63.1536 33.0382C62.7652 32.7145 62.316 32.4718 61.8324 32.3243C61.3488 32.1768 60.8406 32.1275 60.3377 32.1793C59.8347 32.2311 59.3472 32.383 58.9039 32.626C58.4605 32.869 58.0702 33.1982 57.756 33.5942L41.4518 53.1555L33.0153 44.7152C32.3002 44.0245 31.3424 43.6423 30.3483 43.651C29.3541 43.6596 28.4031 44.0584 27.7001 44.7614C26.9971 45.4644 26.5983 46.4154 26.5897 47.4096C26.5811 48.4037 26.9632 49.3615 27.6539 50.0766L39.0289 61.4516C39.4015 61.824 39.8475 62.1146 40.3386 62.305C40.8297 62.4954 41.3551 62.5814 41.8813 62.5575C42.4075 62.5336 42.9229 62.4003 43.3947 62.1662C43.8665 61.932 44.2844 61.6021 44.6216 61.1976L63.58 38.4476Z" fill="#0CBC8B"/>
</svg>
