<svg width="292" height="78" viewBox="0 0 292 78" fill="none" xmlns="http://www.w3.org/2000/svg">
<g filter="url(#filter0_d_1431_5115)">
<mask id="path-1-inside-1_1431_5115" fill="white">
<path fill-rule="evenodd" clip-rule="evenodd" d="M270.481 4.59129C269.565 2.9889 267.861 2 266.016 2H7.86237C3.91357 2 1.43797 6.26591 3.39712 9.69443L18.1137 35.4484C19.0172 37.0295 19.0172 38.9705 18.1137 40.5516L3.39712 66.3056C1.43797 69.7341 3.91356 74 7.86236 74H266.016C267.861 74 269.565 73.0111 270.481 71.4087L288.114 40.5516C289.017 38.9705 289.017 37.0295 288.114 35.4484L270.481 4.59129Z"/>
</mask>
<path fill-rule="evenodd" clip-rule="evenodd" d="M270.481 4.59129C269.565 2.9889 267.861 2 266.016 2H7.86237C3.91357 2 1.43797 6.26591 3.39712 9.69443L18.1137 35.4484C19.0172 37.0295 19.0172 38.9705 18.1137 40.5516L3.39712 66.3056C1.43797 69.7341 3.91356 74 7.86236 74H266.016C267.861 74 269.565 73.0111 270.481 71.4087L288.114 40.5516C289.017 38.9705 289.017 37.0295 288.114 35.4484L270.481 4.59129Z" fill="#F5FBFF"/>
<path d="M18.1137 35.4484L19.23 34.8105L18.1137 35.4484ZM18.1137 40.5516L19.23 41.1895L18.1137 40.5516ZM288.114 40.5516L286.997 39.9137V39.9137L288.114 40.5516ZM288.114 35.4484L286.997 36.0863V36.0863L288.114 35.4484ZM3.39712 66.3056L4.51343 66.9435L3.39712 66.3056ZM270.481 4.59129L269.365 5.22918L270.481 4.59129ZM270.481 71.4087L269.365 70.7708L270.481 71.4087ZM3.39712 9.69443L2.28081 10.3323L3.39712 9.69443ZM7.86237 3.28571H266.016V0.714286H7.86237V3.28571ZM19.23 34.8105L4.51343 9.05654L2.28081 10.3323L16.9974 36.0863L19.23 34.8105ZM19.23 41.1895C20.3594 39.2131 20.3593 36.7869 19.23 34.8105L16.9974 36.0863C17.675 37.2721 17.675 38.7279 16.9974 39.9137L19.23 41.1895ZM4.51343 66.9435L19.23 41.1895L16.9974 39.9137L2.28081 65.6677L4.51343 66.9435ZM266.016 72.7143H7.86236V75.2857H266.016V72.7143ZM286.997 39.9137L269.365 70.7708L271.597 72.0466L289.23 41.1895L286.997 39.9137ZM286.997 36.0863C287.675 37.2721 287.675 38.7279 286.997 39.9137L289.23 41.1895C290.359 39.2131 290.359 36.7869 289.23 34.8105L286.997 36.0863ZM269.365 5.22918L286.997 36.0863L289.23 34.8105L271.597 3.95339L269.365 5.22918ZM2.28081 65.6677C-0.168132 69.9533 2.92635 75.2857 7.86236 75.2857V72.7143C4.90076 72.7143 3.04407 69.5149 4.51343 66.9435L2.28081 65.6677ZM266.016 3.28571C267.4 3.28571 268.678 4.02739 269.365 5.22918L271.597 3.95339C270.453 1.95041 268.323 0.714286 266.016 0.714286V3.28571ZM266.016 75.2857C268.323 75.2857 270.453 74.0496 271.597 72.0466L269.365 70.7708C268.678 71.9726 267.4 72.7143 266.016 72.7143V75.2857ZM7.86237 0.714286C2.92637 0.714286 -0.168135 6.04667 2.28081 10.3323L4.51343 9.05654C3.04407 6.48515 4.90077 3.28571 7.86237 3.28571V0.714286Z" fill="#7DABF8" mask="url(#path-1-inside-1_1431_5115)"/>
</g>
<defs>
<filter id="filter0_d_1431_5115" x="0.140486" y="0.714286" width="291.222" height="77.1429" filterUnits="userSpaceOnUse" color-interpolation-filters="sRGB">
<feFlood flood-opacity="0" result="BackgroundImageFix"/>
<feColorMatrix in="SourceAlpha" type="matrix" values="0 0 0 0 0 0 0 0 0 0 0 0 0 0 0 0 0 0 127 0" result="hardAlpha"/>
<feOffset dy="1.28571"/>
<feGaussianBlur stdDeviation="1.28571"/>
<feColorMatrix type="matrix" values="0 0 0 0 0.215686 0 0 0 0 0.254902 0 0 0 0 0.317647 0 0 0 0.08 0"/>
<feBlend mode="normal" in2="BackgroundImageFix" result="effect1_dropShadow_1431_5115"/>
<feBlend mode="normal" in="SourceGraphic" in2="effect1_dropShadow_1431_5115" result="shape"/>
</filter>
</defs>
</svg>
