<svg width="32" height="32" viewBox="0 0 32 32" fill="none" xmlns="http://www.w3.org/2000/svg">
<g clip-path="url(#clip0_435_10733)">
<path d="M20.9168 12.6666H9.63905C9.4254 12.6666 9.22051 12.5817 9.06944 12.4306C8.91837 12.2796 8.8335 12.0747 8.8335 11.861V8.63881C8.8335 8.42516 8.91837 8.22026 9.06944 8.06919C9.22051 7.91812 9.4254 7.83325 9.63905 7.83325H20.9168C21.1305 7.83325 21.3354 7.91812 21.4864 8.06919C21.6375 8.22026 21.7224 8.42516 21.7224 8.63881V11.861C21.7224 12.0747 21.6375 12.2796 21.4864 12.4306C21.3354 12.5817 21.1305 12.6666 20.9168 12.6666ZM10.4446 11.0555H20.1113V9.39603H10.4446V11.0555Z" fill="black"/>
<path d="M20.9168 14.3423H9.63905C9.4254 14.3423 9.22051 14.4272 9.06944 14.5782C8.91837 14.7293 8.8335 14.9342 8.8335 15.1478V18.3056C8.8335 18.5193 8.91837 18.7242 9.06944 18.8752C9.22051 19.0263 9.4254 19.1112 9.63905 19.1112H18.7902L21.7224 16.1306V15.1478C21.7224 14.9342 21.6375 14.7293 21.4864 14.5782C21.3354 14.4272 21.1305 14.3423 20.9168 14.3423ZM20.1113 17.5001H10.4446V15.889H20.1113V17.5001Z" fill="black"/>
<path d="M12.9097 28.383V28.3347L13.1674 27.215H7.22244V6.2222H23.3335V14.4791L24.9447 12.9566V5.41664C24.9447 5.20299 24.8598 4.9981 24.7087 4.84703C24.5576 4.69595 24.3528 4.61108 24.1391 4.61108H6.41688C6.20324 4.61108 5.99834 4.69595 5.84727 4.84703C5.6962 4.9981 5.61133 5.20299 5.61133 5.41664V27.9722C5.61133 28.1858 5.6962 28.3907 5.84727 28.5418C5.99834 28.6929 6.20324 28.7778 6.41688 28.7778H12.8613C12.868 28.6452 12.8841 28.5133 12.9097 28.383Z" fill="black"/>
<path d="M21.7221 18.4424L21.0938 19.0788C21.2496 19.0466 21.3925 18.969 21.5043 18.8558C21.6162 18.7425 21.6919 18.5987 21.7221 18.4424Z" fill="black"/>
<path d="M8.8335 24.7016C8.8335 24.9153 8.91837 25.1202 9.06944 25.2712C9.22051 25.4223 9.4254 25.5072 9.63905 25.5072H13.5379L13.7796 24.4599L13.8843 24.0169V23.9766H10.4446V22.3333H15.5518L17.1629 20.7222H9.63905C9.4254 20.7222 9.22051 20.807 9.06944 20.9581C8.91837 21.1092 8.8335 21.3141 8.8335 21.5277V24.7016Z" fill="black"/>
<path d="M30.9778 16.4286L28.2631 13.7139C28.1426 13.5931 27.9994 13.4972 27.8419 13.4318C27.6843 13.3664 27.5153 13.3328 27.3447 13.3328C27.1741 13.3328 27.0052 13.3664 26.8476 13.4318C26.69 13.4972 26.5469 13.5931 26.4264 13.7139L15.3822 24.8225L14.4719 28.6972C14.4379 28.8644 14.4371 29.0366 14.4697 29.2041C14.5023 29.3715 14.5676 29.5309 14.6619 29.6731C14.7562 29.8153 14.8776 29.9375 15.0191 30.0326C15.1607 30.1278 15.3197 30.1941 15.4869 30.2278C15.57 30.2361 15.6536 30.2361 15.7367 30.2278C15.8354 30.2439 15.936 30.2439 16.0347 30.2278L19.9417 29.3658L30.9778 18.3056C31.0983 18.1858 31.194 18.0433 31.2593 17.8864C31.3246 17.7295 31.3582 17.5612 31.3582 17.3912C31.3582 17.2213 31.3246 17.053 31.2593 16.8961C31.194 16.7392 31.0983 16.5967 30.9778 16.4769V16.4286ZM19.12 27.8997L16.1717 28.5522L16.8886 25.6281L25.1697 17.2583L27.4414 19.53L19.12 27.8997ZM28.3517 18.6197L26.08 16.3481L27.3608 15.0833L29.6486 17.3711L28.3517 18.6197Z" fill="black"/>
</g>
<defs>
<clipPath id="clip0_435_10733">
<rect width="32" height="32" fill="white"/>
</clipPath>
</defs>
</svg>
