<svg width="272" height="29" viewBox="0 0 272 29" fill="none" xmlns="http://www.w3.org/2000/svg">
<rect x="8.36914" y="16.4425" width="0.9625" height="12.0505" fill="#094B59"/>
<rect x="100.769" y="16.4425" width="0.9625" height="12.0505" fill="#094B59"/>
<rect x="193.169" y="16.4425" width="0.9625" height="12.0505" fill="#094B59"/>
<rect x="54.5693" y="16.4425" width="0.9625" height="12.0505" fill="#094B59"/>
<rect x="146.969" y="16.4425" width="0.9625" height="12.0505" fill="#094B59"/>
<rect x="239.369" y="16.4425" width="0.9625" height="12.0505" fill="#094B59"/>
<rect x="31.4688" y="16.4425" width="0.9625" height="12.0505" fill="#094B59"/>
<rect x="123.869" y="16.4425" width="0.9625" height="12.0505" fill="#094B59"/>
<rect x="216.269" y="16.4425" width="0.9625" height="12.0505" fill="#094B59"/>
<rect x="77.6689" y="16.4425" width="0.9625" height="12.0505" fill="#094B59"/>
<rect x="170.069" y="16.4425" width="0.9625" height="12.0505" fill="#094B59"/>
<rect x="262.469" y="16.4425" width="0.9625" height="12.0505" fill="#094B59"/>
<rect x="8.36914" y="23.3591" width="255.063" height="0.988082" fill="#094B59"/>
<path d="M2.56217 0.599213C2.01007 0.599213 1.48058 0.821792 1.09018 1.21798C0.69979 1.61418 0.480469 2.15153 0.480469 2.71183L0.480469 11.1623C0.480469 11.7226 0.69979 12.26 1.09018 12.6562C1.48058 13.0523 2.01007 13.2749 2.56217 13.2749H5.16429C5.32587 13.2749 5.48524 13.3131 5.62977 13.3864C5.7743 13.4598 5.90001 13.5663 5.99697 13.6974L7.97458 16.3731C8.07153 16.5043 8.19725 16.6108 8.34177 16.6841C8.4863 16.7574 8.64567 16.7956 8.80726 16.7956C8.96884 16.7956 9.12821 16.7574 9.27274 16.6841C9.41726 16.6108 9.54298 16.5043 9.63993 16.3731L11.6175 13.6974C11.7145 13.5663 11.8402 13.4598 11.9847 13.3864C12.1293 13.3131 12.2886 13.2749 12.4502 13.2749H15.0523C15.6044 13.2749 16.1339 13.0523 16.5243 12.6562C16.9147 12.26 17.134 11.7226 17.134 11.1623V2.71183C17.134 2.15153 16.9147 1.61418 16.5243 1.21798C16.1339 0.821792 15.6044 0.599213 15.0523 0.599213L2.56217 0.599213Z" fill="#094B59"/>
<g clip-path="url(#clip0_1457_2177)">
<path d="M5.87556 7.54576V9.79965H4.55749V3.40264H7.05303C7.53339 3.40264 7.95517 3.49051 8.31837 3.66625C8.6845 3.84199 8.96569 4.09243 9.16193 4.41755C9.35818 4.73974 9.4563 5.10734 9.4563 5.52033C9.4563 6.14715 9.24102 6.64215 8.81045 7.00535C8.38281 7.36562 7.78968 7.54576 7.03106 7.54576H5.87556ZM5.87556 6.47813H7.05303C7.40158 6.47813 7.66666 6.39611 7.84826 6.23209C8.03279 6.06806 8.12505 5.83374 8.12505 5.52912C8.12505 5.21571 8.03279 4.96235 7.84826 4.76903C7.66373 4.57572 7.40891 4.47613 7.08378 4.47027H5.87556V6.47813ZM13.4938 9.79965H12.2241V4.90523L10.7083 5.37534V4.34286L13.3576 3.39385H13.4938V9.79965Z" fill="white"/>
</g>
<path d="M118.26 0.599243C117.708 0.599243 117.179 0.821822 116.788 1.21801C116.398 1.61421 116.179 2.15156 116.179 2.71186V11.1623C116.179 11.7226 116.398 12.26 116.788 12.6562C117.179 13.0524 117.708 13.275 118.26 13.275H120.863C121.024 13.275 121.183 13.3131 121.328 13.3865C121.473 13.4598 121.598 13.5663 121.695 13.6975L123.673 16.3731C123.77 16.5043 123.895 16.6108 124.04 16.6841C124.185 16.7575 124.344 16.7956 124.505 16.7956C124.667 16.7956 124.826 16.7575 124.971 16.6841C125.116 16.6108 125.241 16.5043 125.338 16.3731L127.316 13.6975C127.413 13.5663 127.538 13.4598 127.683 13.3865C127.828 13.3131 127.987 13.275 128.148 13.275H130.751C131.303 13.275 131.832 13.0524 132.223 12.6562C132.613 12.26 132.832 11.7226 132.832 11.1623V2.71186C132.832 2.15156 132.613 1.61421 132.223 1.21801C131.832 0.821822 131.303 0.599243 130.751 0.599243L118.26 0.599243Z" fill="#094B59"/>
<g clip-path="url(#clip1_1457_2177)">
<path d="M121.574 7.54579V9.79968H120.256V3.40267H122.751C123.232 3.40267 123.653 3.49054 124.017 3.66628C124.383 3.84202 124.664 4.09246 124.86 4.41758C125.056 4.73977 125.155 5.10737 125.155 5.52036C125.155 6.14718 124.939 6.64218 124.509 7.00538C124.081 7.36565 123.488 7.54579 122.729 7.54579H121.574ZM121.574 6.47816H122.751C123.1 6.47816 123.365 6.39614 123.547 6.23212C123.731 6.06809 123.823 5.83377 123.823 5.52915C123.823 5.21574 123.731 4.96238 123.547 4.76906C123.362 4.57575 123.107 4.47616 122.782 4.4703H121.574V6.47816ZM130.493 9.79968H126.108V8.92976L128.177 6.7242C128.461 6.41372 128.671 6.14278 128.805 5.91139C128.943 5.67999 129.012 5.46032 129.012 5.25236C129.012 4.96824 128.94 4.74563 128.797 4.58454C128.653 4.42051 128.448 4.3385 128.182 4.3385C127.894 4.3385 127.667 4.43808 127.501 4.63726C127.336 4.8335 127.254 5.09272 127.254 5.41492H125.98C125.98 5.02536 126.073 4.66948 126.257 4.34728C126.445 4.02509 126.708 3.77319 127.048 3.59159C127.388 3.40706 127.773 3.3148 128.203 3.3148C128.863 3.3148 129.374 3.47297 129.737 3.7893C130.103 4.10564 130.286 4.55232 130.286 5.12934C130.286 5.44567 130.204 5.76787 130.04 6.09592C129.876 6.42397 129.595 6.80621 129.196 7.24263L127.742 8.77598H130.493V9.79968Z" fill="white"/>
</g>
<path d="M256.749 0.599243C256.197 0.599243 255.667 0.821822 255.277 1.21801C254.886 1.61421 254.667 2.15156 254.667 2.71186V11.1623C254.667 11.7226 254.886 12.26 255.277 12.6562C255.667 13.0524 256.197 13.275 256.749 13.275H259.351C259.512 13.275 259.672 13.3131 259.816 13.3865C259.961 13.4598 260.087 13.5663 260.183 13.6975L262.161 16.3731C262.258 16.5043 262.384 16.6108 262.528 16.6841C262.673 16.7575 262.832 16.7956 262.994 16.7956C263.155 16.7956 263.315 16.7575 263.459 16.6841C263.604 16.6108 263.73 16.5043 263.826 16.3731L265.804 13.6975C265.901 13.5663 266.027 13.4598 266.171 13.3865C266.316 13.3131 266.475 13.275 266.637 13.275H269.239C269.791 13.275 270.32 13.0524 270.711 12.6562C271.101 12.26 271.321 11.7226 271.321 11.1623V2.71186C271.321 2.15156 271.101 1.61421 270.711 1.21801C270.32 0.821822 269.791 0.599243 269.239 0.599243L256.749 0.599243Z" fill="#094B59"/>
<g clip-path="url(#clip2_1457_2177)">
<path d="M260.062 7.54579V9.79968H258.744V3.40267H261.24C261.72 3.40267 262.142 3.49054 262.505 3.66628C262.871 3.84202 263.152 4.09246 263.348 4.41758C263.545 4.73977 263.643 5.10737 263.643 5.52036C263.643 6.14718 263.428 6.64218 262.997 7.00538C262.569 7.36565 261.976 7.54579 261.218 7.54579H260.062ZM260.062 6.47816H261.24C261.588 6.47816 261.853 6.39614 262.035 6.23212C262.219 6.06809 262.312 5.83377 262.312 5.52915C262.312 5.21574 262.219 4.96238 262.035 4.76906C261.85 4.57575 261.595 4.47616 261.27 4.4703H260.062V6.47816ZM265.888 6.0388H266.564C266.887 6.0388 267.125 5.95825 267.281 5.79716C267.436 5.63606 267.513 5.42224 267.513 5.1557C267.513 4.89794 267.436 4.6973 267.281 4.55378C267.128 4.41026 266.917 4.3385 266.648 4.3385C266.405 4.3385 266.201 4.40586 266.037 4.5406C265.873 4.67241 265.791 4.84522 265.791 5.05904H264.521C264.521 4.72513 264.611 4.42637 264.789 4.16275C264.971 3.89621 265.223 3.68825 265.545 3.53887C265.87 3.38949 266.228 3.3148 266.617 3.3148C267.294 3.3148 267.824 3.47736 268.208 3.80248C268.591 4.12468 268.783 4.56989 268.783 5.13812C268.783 5.43103 268.694 5.7005 268.515 5.94654C268.336 6.19258 268.102 6.3815 267.812 6.51331C268.172 6.64218 268.44 6.8355 268.616 7.09325C268.795 7.35101 268.884 7.65563 268.884 8.00711C268.884 8.57535 268.676 9.03081 268.26 9.37351C267.847 9.71621 267.3 9.88755 266.617 9.88755C265.979 9.88755 265.456 9.71913 265.049 9.3823C264.644 9.04546 264.442 8.60024 264.442 8.04666H265.712C265.712 8.28684 265.801 8.48308 265.98 8.63539C266.162 8.7877 266.384 8.86386 266.648 8.86386C266.95 8.86386 267.185 8.78477 267.355 8.6266C267.528 8.46551 267.614 8.25315 267.614 7.98954C267.614 7.35101 267.263 7.03174 266.56 7.03174H265.888V6.0388Z" fill="white"/>
</g>
<defs>
<clipPath id="clip0_1457_2177">
<rect width="14.0241" height="14.3968" fill="white" transform="translate(2.2334 1.49901)"/>
</clipPath>
<clipPath id="clip1_1457_2177">
<rect width="14.0241" height="14.3968" fill="white" transform="translate(117.932 1.49904)"/>
</clipPath>
<clipPath id="clip2_1457_2177">
<rect width="14.0241" height="14.3968" fill="white" transform="translate(256.42 1.49904)"/>
</clipPath>
</defs>
</svg>
