<svg width="272" height="29" viewBox="0 0 272 29" fill="none" xmlns="http://www.w3.org/2000/svg">
<rect x="8.36914" y="16.4425" width="0.9625" height="12.0505" fill="#094B59"/>
<rect x="100.769" y="16.4425" width="0.9625" height="12.0505" fill="#094B59"/>
<rect x="193.169" y="16.4425" width="0.9625" height="12.0505" fill="#094B59"/>
<rect x="54.5693" y="16.4425" width="0.9625" height="12.0505" fill="#094B59"/>
<rect x="146.969" y="16.4425" width="0.9625" height="12.0505" fill="#094B59"/>
<rect x="239.369" y="16.4425" width="0.9625" height="12.0505" fill="#094B59"/>
<rect x="31.4688" y="16.4425" width="0.9625" height="12.0505" fill="#094B59"/>
<rect x="123.869" y="16.4425" width="0.9625" height="12.0505" fill="#094B59"/>
<rect x="216.269" y="16.4425" width="0.9625" height="12.0505" fill="#094B59"/>
<rect x="77.6689" y="16.4425" width="0.9625" height="12.0505" fill="#094B59"/>
<rect x="170.069" y="16.4425" width="0.9625" height="12.0505" fill="#094B59"/>
<rect x="262.469" y="16.4425" width="0.9625" height="12.0505" fill="#094B59"/>
<rect x="8.36914" y="23.359" width="255.063" height="0.988082" fill="#094B59"/>
<path d="M2.56217 0.599197C2.01007 0.599197 1.48058 0.821776 1.09018 1.21797C0.69979 1.61416 0.480469 2.15151 0.480469 2.71182L0.480469 11.1623C0.480469 11.7226 0.69979 12.2599 1.09018 12.6561C1.48058 13.0523 2.01007 13.2749 2.56217 13.2749H5.16429C5.32587 13.2749 5.48524 13.3131 5.62977 13.3864C5.7743 13.4598 5.90001 13.5662 5.99697 13.6974L7.97458 16.3731C8.07153 16.5043 8.19725 16.6107 8.34177 16.6841C8.4863 16.7574 8.64567 16.7956 8.80726 16.7956C8.96884 16.7956 9.12821 16.7574 9.27274 16.6841C9.41726 16.6107 9.54298 16.5043 9.63993 16.3731L11.6175 13.6974C11.7145 13.5662 11.8402 13.4598 11.9847 13.3864C12.1293 13.3131 12.2886 13.2749 12.4502 13.2749H15.0523C15.6044 13.2749 16.1339 13.0523 16.5243 12.6561C16.9147 12.2599 17.134 11.7226 17.134 11.1623V2.71182C17.134 2.15151 16.9147 1.61416 16.5243 1.21797C16.1339 0.821776 15.6044 0.599197 15.0523 0.599197L2.56217 0.599197Z" fill="#094B59"/>
<g clip-path="url(#clip0_1457_4488)">
<path d="M5.87556 7.54571V9.79961H4.55749V3.40259H7.05303C7.53339 3.40259 7.95517 3.49046 8.31837 3.66621C8.6845 3.84195 8.96569 4.09238 9.16193 4.4175C9.35818 4.7397 9.4563 5.10729 9.4563 5.52029C9.4563 6.1471 9.24102 6.64211 8.81045 7.00531C8.38281 7.36558 7.78968 7.54571 7.03106 7.54571H5.87556ZM5.87556 6.47808H7.05303C7.40158 6.47808 7.66666 6.39607 7.84826 6.23204C8.03279 6.06802 8.12505 5.83369 8.12505 5.52907C8.12505 5.21567 8.03279 4.9623 7.84826 4.76899C7.66373 4.57567 7.40891 4.47608 7.08378 4.47023H5.87556V6.47808ZM13.4938 9.79961H12.2241V4.90519L10.7083 5.3753V4.34281L13.3576 3.39381H13.4938V9.79961Z" fill="white"/>
</g>
<path d="M48.4518 0.599213C47.8997 0.599213 47.3702 0.821792 46.9798 1.21798C46.5894 1.61418 46.3701 2.15153 46.3701 2.71183V11.1623C46.3701 11.7226 46.5894 12.26 46.9798 12.6562C47.3702 13.0523 47.8997 13.2749 48.4518 13.2749H51.0539C51.2155 13.2749 51.3749 13.3131 51.5194 13.3864C51.6639 13.4598 51.7897 13.5663 51.8866 13.6974L53.8642 16.3731C53.9612 16.5043 54.0869 16.6108 54.2314 16.6841C54.3759 16.7574 54.5353 16.7956 54.6969 16.7956C54.8585 16.7956 55.0179 16.7574 55.1624 16.6841C55.3069 16.6108 55.4326 16.5043 55.5296 16.3731L57.5072 13.6974C57.6041 13.5663 57.7299 13.4598 57.8744 13.3864C58.0189 13.3131 58.1783 13.2749 58.3399 13.2749H60.942C61.4941 13.2749 62.0236 13.0523 62.414 12.6562C62.8044 12.26 63.0237 11.7226 63.0237 11.1623V2.71183C63.0237 2.15153 62.8044 1.61418 62.414 1.21798C62.0236 0.821792 61.4941 0.599213 60.942 0.599213L48.4518 0.599213Z" fill="#094B59"/>
<g clip-path="url(#clip1_1457_4488)">
<path d="M51.7652 7.54573V9.79962H50.4471V3.40261H52.9427C53.423 3.40261 53.8448 3.49048 54.208 3.66622C54.5741 3.84196 54.8553 4.0924 55.0516 4.41752C55.2478 4.73971 55.3459 5.10731 55.3459 5.5203C55.3459 6.14711 55.1307 6.64212 54.7001 7.00532C54.2725 7.36559 53.6793 7.54573 52.9207 7.54573H51.7652ZM51.7652 6.4781H52.9427C53.2912 6.4781 53.5563 6.39608 53.7379 6.23206C53.9224 6.06803 54.0147 5.83371 54.0147 5.52909C54.0147 5.21568 53.9224 4.96232 53.7379 4.769C53.5534 4.57569 53.2986 4.4761 52.9734 4.47024H51.7652V6.4781ZM60.6839 9.79962H56.2992V8.9297L58.3685 6.72413C58.6527 6.41366 58.8621 6.14272 58.9968 5.91133C59.1345 5.67993 59.2033 5.46026 59.2033 5.25229C59.2033 4.96818 59.1316 4.74557 58.988 4.58447C58.8445 4.42045 58.6395 4.33844 58.3729 4.33844C58.0859 4.33844 57.8589 4.43802 57.6919 4.6372C57.5279 4.83344 57.4459 5.09266 57.4459 5.41486H56.1718C56.1718 5.02529 56.264 4.66942 56.4486 4.34722C56.636 4.02503 56.8996 3.77313 57.2394 3.59153C57.5792 3.407 57.9643 3.31474 58.3949 3.31474C59.0539 3.31474 59.565 3.47291 59.9282 3.78924C60.2944 4.10558 60.4774 4.55225 60.4774 5.12927C60.4774 5.44561 60.3954 5.7678 60.2314 6.09586C60.0674 6.42391 59.7862 6.80615 59.3878 7.24257L57.9336 8.77592H60.6839V9.79962Z" fill="white"/>
</g>
<path d="M141.132 0.599213C140.579 0.599213 140.05 0.821792 139.66 1.21798C139.269 1.61418 139.05 2.15153 139.05 2.71183V11.1623C139.05 11.7226 139.269 12.26 139.66 12.6562C140.05 13.0523 140.579 13.2749 141.132 13.2749H143.734C143.895 13.2749 144.055 13.3131 144.199 13.3864C144.344 13.4598 144.469 13.5663 144.566 13.6974L146.544 16.3731C146.641 16.5043 146.767 16.6108 146.911 16.6841C147.056 16.7574 147.215 16.7956 147.377 16.7956C147.538 16.7956 147.698 16.7574 147.842 16.6841C147.987 16.6108 148.112 16.5043 148.209 16.3731L150.187 13.6974C150.284 13.5663 150.41 13.4598 150.554 13.3864C150.699 13.3131 150.858 13.2749 151.02 13.2749H153.622C154.174 13.2749 154.703 13.0523 155.094 12.6562C155.484 12.26 155.703 11.7226 155.703 11.1623V2.71183C155.703 2.15153 155.484 1.61418 155.094 1.21798C154.703 0.821792 154.174 0.599213 153.622 0.599213L141.132 0.599213Z" fill="#094B59"/>
<g clip-path="url(#clip2_1457_4488)">
<path d="M144.445 7.54573V9.79962H143.127V3.40261H145.622C146.103 3.40261 146.525 3.49048 146.888 3.66622C147.254 3.84196 147.535 4.0924 147.731 4.41752C147.928 4.73971 148.026 5.10731 148.026 5.5203C148.026 6.14711 147.81 6.64212 147.38 7.00532C146.952 7.36559 146.359 7.54573 145.6 7.54573H144.445ZM144.445 6.4781H145.622C145.971 6.4781 146.236 6.39608 146.418 6.23206C146.602 6.06803 146.694 5.83371 146.694 5.52909C146.694 5.21568 146.602 4.96232 146.418 4.769C146.233 4.57569 145.978 4.4761 145.653 4.47024H144.445V6.4781ZM152.735 7.39195H153.46V8.41565H152.735V9.79962H151.466V8.41565H148.843L148.786 7.61603L151.452 3.40261H152.735V7.39195ZM150.051 7.39195H151.466V5.13367L151.382 5.27866L150.051 7.39195Z" fill="white"/>
</g>
<path d="M187.021 0.599213C186.469 0.599213 185.94 0.821792 185.549 1.21798C185.159 1.61418 184.939 2.15153 184.939 2.71183V11.1623C184.939 11.7226 185.159 12.26 185.549 12.6562C185.94 13.0523 186.469 13.2749 187.021 13.2749H189.623C189.785 13.2749 189.944 13.3131 190.089 13.3864C190.233 13.4598 190.359 13.5663 190.456 13.6974L192.434 16.3731C192.531 16.5043 192.656 16.6108 192.801 16.6841C192.945 16.7574 193.105 16.7956 193.266 16.7956C193.428 16.7956 193.587 16.7574 193.732 16.6841C193.876 16.6108 194.002 16.5043 194.099 16.3731L196.077 13.6974C196.173 13.5663 196.299 13.4598 196.444 13.3864C196.588 13.3131 196.748 13.2749 196.909 13.2749H199.511C200.063 13.2749 200.593 13.0523 200.983 12.6562C201.374 12.26 201.593 11.7226 201.593 11.1623V2.71183C201.593 2.15153 201.374 1.61418 200.983 1.21798C200.593 0.821792 200.063 0.599213 199.511 0.599213L187.021 0.599213Z" fill="#094B59"/>
<g clip-path="url(#clip3_1457_4488)">
<path d="M190.335 7.54573V9.79962H189.016V3.40261H191.512C191.992 3.40261 192.414 3.49048 192.777 3.66622C193.143 3.84196 193.425 4.0924 193.621 4.41752C193.817 4.73971 193.915 5.10731 193.915 5.5203C193.915 6.14711 193.7 6.64212 193.269 7.00532C192.842 7.36559 192.249 7.54573 191.49 7.54573H190.335ZM190.335 6.4781H191.512C191.861 6.4781 192.126 6.39608 192.307 6.23206C192.492 6.06803 192.584 5.83371 192.584 5.52909C192.584 5.21568 192.492 4.96232 192.307 4.769C192.123 4.57569 191.868 4.4761 191.543 4.47024H190.335V6.4781ZM195.057 6.65384L195.426 3.40261H199.012V4.46145H196.468L196.31 5.83664C196.611 5.67554 196.932 5.59499 197.272 5.59499C197.881 5.59499 198.358 5.78391 198.704 6.16176C199.05 6.53961 199.223 7.0683 199.223 7.74783C199.223 8.16083 199.135 8.53135 198.959 8.8594C198.786 9.18452 198.537 9.43789 198.212 9.61949C197.887 9.79816 197.503 9.88749 197.061 9.88749C196.674 9.88749 196.315 9.80987 195.984 9.65463C195.653 9.49647 195.391 9.27532 195.198 8.99121C195.008 8.70709 194.907 8.38343 194.895 8.02023H196.151C196.178 8.28677 196.27 8.49474 196.428 8.64412C196.589 8.79057 196.799 8.86379 197.057 8.86379C197.344 8.86379 197.565 8.76128 197.72 8.55625C197.875 8.34828 197.953 8.05538 197.953 7.67754C197.953 7.31434 197.863 7.03608 197.685 6.84276C197.506 6.64944 197.253 6.55279 196.925 6.55279C196.623 6.55279 196.378 6.63187 196.191 6.79004L196.068 6.90427L195.057 6.65384Z" fill="white"/>
</g>
<path d="M257.206 0.599213C256.654 0.599213 256.124 0.821792 255.734 1.21798C255.343 1.61418 255.124 2.15153 255.124 2.71183V11.1623C255.124 11.7226 255.343 12.26 255.734 12.6562C256.124 13.0523 256.654 13.2749 257.206 13.2749H259.808C259.969 13.2749 260.129 13.3131 260.273 13.3864C260.418 13.4598 260.544 13.5663 260.641 13.6974L262.618 16.3731C262.715 16.5043 262.841 16.6108 262.985 16.6841C263.13 16.7574 263.289 16.7956 263.451 16.7956C263.612 16.7956 263.772 16.7574 263.916 16.6841C264.061 16.6108 264.187 16.5043 264.283 16.3731L266.261 13.6974C266.358 13.5663 266.484 13.4598 266.628 13.3864C266.773 13.3131 266.932 13.2749 267.094 13.2749H269.696C270.248 13.2749 270.777 13.0523 271.168 12.6562C271.558 12.26 271.778 11.7226 271.778 11.1623V2.71183C271.778 2.15153 271.558 1.61418 271.168 1.21798C270.777 0.821792 270.248 0.599213 269.696 0.599213L257.206 0.599213Z" fill="#094B59"/>
<g clip-path="url(#clip4_1457_4488)">
<path d="M260.519 7.54573V9.79962H259.201V3.40261H261.697C262.177 3.40261 262.599 3.49048 262.962 3.66622C263.328 3.84196 263.609 4.0924 263.805 4.41752C264.002 4.73971 264.1 5.10731 264.1 5.5203C264.1 6.14711 263.885 6.64212 263.454 7.00532C263.026 7.36559 262.433 7.54573 261.675 7.54573H260.519ZM260.519 6.4781H261.697C262.045 6.4781 262.31 6.39608 262.492 6.23206C262.676 6.06803 262.769 5.83371 262.769 5.52909C262.769 5.21568 262.676 4.96232 262.492 4.769C262.307 4.57569 262.052 4.4761 261.727 4.47024H260.519V6.4781ZM268.498 3.33671V4.38237H268.375C267.801 4.39116 267.338 4.54054 266.986 4.83051C266.638 5.12049 266.428 5.52323 266.358 6.03874C266.698 5.69311 267.127 5.5203 267.645 5.5203C268.202 5.5203 268.644 5.71948 268.972 6.11782C269.3 6.51617 269.464 7.04047 269.464 7.69072C269.464 8.10664 269.373 8.48302 269.192 8.81986C269.013 9.1567 268.758 9.41885 268.427 9.60631C268.099 9.79376 267.727 9.88749 267.311 9.88749C266.638 9.88749 266.093 9.65317 265.677 9.18452C265.264 8.71588 265.057 8.09053 265.057 7.30848V6.85155C265.057 6.15737 265.188 5.5452 265.449 5.01504C265.712 4.48196 266.088 4.07043 266.578 3.78045C267.07 3.48755 267.639 3.33963 268.287 3.33671H268.498ZM267.259 6.53961C267.054 6.53961 266.868 6.59379 266.701 6.70217C266.534 6.80761 266.411 6.94821 266.332 7.12395V7.51058C266.332 7.93529 266.415 8.26774 266.582 8.50792C266.749 8.74517 266.983 8.86379 267.285 8.86379C267.557 8.86379 267.777 8.75689 267.944 8.54307C268.114 8.32632 268.199 8.04659 268.199 7.7039C268.199 7.35534 268.114 7.07415 267.944 6.86033C267.774 6.64652 267.546 6.53961 267.259 6.53961Z" fill="white"/>
</g>
<path d="M95.2419 0.599213C94.6898 0.599213 94.1603 0.821792 93.7699 1.21798C93.3795 1.61418 93.1602 2.15153 93.1602 2.71183V11.1623C93.1602 11.7226 93.3795 12.26 93.7699 12.6562C94.1603 13.0523 94.6898 13.2749 95.2419 13.2749H97.844C98.0056 13.2749 98.1649 13.3131 98.3095 13.3864C98.454 13.4598 98.5797 13.5663 98.6767 13.6974L100.654 16.3731C100.751 16.5043 100.877 16.6108 101.021 16.6841C101.166 16.7574 101.325 16.7956 101.487 16.7956C101.649 16.7956 101.808 16.7574 101.952 16.6841C102.097 16.6108 102.223 16.5043 102.32 16.3731L104.297 13.6974C104.394 13.5663 104.52 13.4598 104.664 13.3864C104.809 13.3131 104.968 13.2749 105.13 13.2749H107.732C108.284 13.2749 108.814 13.0523 109.204 12.6562C109.594 12.26 109.814 11.7226 109.814 11.1623V2.71183C109.814 2.15153 109.594 1.61418 109.204 1.21798C108.814 0.821792 108.284 0.599213 107.732 0.599213L95.2419 0.599213Z" fill="#094B59"/>
<g clip-path="url(#clip5_1457_4488)">
<path d="M98.5552 7.54573V9.79962H97.2372V3.40261H99.7327C100.213 3.40261 100.635 3.49048 100.998 3.66622C101.364 3.84196 101.645 4.0924 101.842 4.41752C102.038 4.73971 102.136 5.10731 102.136 5.5203C102.136 6.14711 101.921 6.64212 101.49 7.00532C101.062 7.36559 100.469 7.54573 99.7107 7.54573H98.5552ZM98.5552 6.4781H99.7327C100.081 6.4781 100.346 6.39608 100.528 6.23206C100.712 6.06803 100.805 5.83371 100.805 5.52909C100.805 5.21568 100.712 4.96232 100.528 4.769C100.343 4.57569 100.089 4.4761 99.7635 4.47024H98.5552V6.4781ZM104.381 6.03874H105.058C105.38 6.03874 105.618 5.95819 105.774 5.79709C105.929 5.636 106.007 5.42218 106.007 5.15564C106.007 4.89788 105.929 4.69724 105.774 4.55372C105.621 4.4102 105.41 4.33844 105.141 4.33844C104.898 4.33844 104.694 4.4058 104.53 4.54054C104.366 4.67235 104.284 4.84516 104.284 5.05898H103.015C103.015 4.72507 103.104 4.42631 103.283 4.16269C103.464 3.89615 103.716 3.68819 104.038 3.53881C104.363 3.38943 104.721 3.31474 105.11 3.31474C105.787 3.31474 106.317 3.4773 106.701 3.80242C107.084 4.12462 107.276 4.56983 107.276 5.13806C107.276 5.43097 107.187 5.70044 107.008 5.94648C106.83 6.19251 106.595 6.38144 106.305 6.51324C106.666 6.64212 106.934 6.83544 107.109 7.09319C107.288 7.35095 107.377 7.65557 107.377 8.00705C107.377 8.57528 107.169 9.03075 106.753 9.37345C106.34 9.71614 105.793 9.88749 105.11 9.88749C104.472 9.88749 103.949 9.71907 103.542 9.38223C103.138 9.0454 102.935 8.60018 102.935 8.04659H104.205C104.205 8.28677 104.295 8.48302 104.473 8.63533C104.655 8.78764 104.877 8.86379 105.141 8.86379C105.443 8.86379 105.678 8.78471 105.848 8.62654C106.021 8.46545 106.108 8.25309 106.108 7.98948C106.108 7.35095 105.756 7.03168 105.053 7.03168H104.381V6.03874Z" fill="white"/>
</g>
<defs>
<clipPath id="clip0_1457_4488">
<rect width="14.0241" height="14.3968" fill="white" transform="translate(2.2334 1.49901)"/>
</clipPath>
<clipPath id="clip1_1457_4488">
<rect width="14.0241" height="14.3968" fill="white" transform="translate(48.123 1.49902)"/>
</clipPath>
<clipPath id="clip2_1457_4488">
<rect width="14.0241" height="14.3968" fill="white" transform="translate(140.803 1.49902)"/>
</clipPath>
<clipPath id="clip3_1457_4488">
<rect width="14.0241" height="14.3968" fill="white" transform="translate(186.692 1.49902)"/>
</clipPath>
<clipPath id="clip4_1457_4488">
<rect width="14.0241" height="14.3968" fill="white" transform="translate(256.877 1.49902)"/>
</clipPath>
<clipPath id="clip5_1457_4488">
<rect width="14.0241" height="14.3968" fill="white" transform="translate(94.9131 1.49902)"/>
</clipPath>
</defs>
</svg>
