<svg width="272" height="29" viewBox="0 0 272 29" fill="none" xmlns="http://www.w3.org/2000/svg">
<rect x="8.36914" y="16.4425" width="0.9625" height="12.0505" fill="#094B59"/>
<rect x="100.769" y="16.4425" width="0.9625" height="12.0505" fill="#094B59"/>
<rect x="193.169" y="16.4425" width="0.9625" height="12.0505" fill="#094B59"/>
<rect x="54.5693" y="16.4425" width="0.9625" height="12.0505" fill="#094B59"/>
<rect x="146.969" y="16.4425" width="0.9625" height="12.0505" fill="#094B59"/>
<rect x="239.369" y="16.4425" width="0.9625" height="12.0505" fill="#094B59"/>
<rect x="31.4688" y="16.4425" width="0.9625" height="12.0505" fill="#094B59"/>
<rect x="123.869" y="16.4425" width="0.9625" height="12.0505" fill="#094B59"/>
<rect x="216.269" y="16.4425" width="0.9625" height="12.0505" fill="#094B59"/>
<rect x="77.6689" y="16.4425" width="0.9625" height="12.0505" fill="#094B59"/>
<rect x="170.069" y="16.4425" width="0.9625" height="12.0505" fill="#094B59"/>
<rect x="262.469" y="16.4425" width="0.9625" height="12.0505" fill="#094B59"/>
<rect x="8.36914" y="23.3591" width="255.063" height="0.988082" fill="#094B59"/>
<path d="M2.56217 0.59922C2.01007 0.59922 1.48058 0.821799 1.09018 1.21799C0.69979 1.61418 0.480469 2.15154 0.480469 2.71184L0.480469 11.1623C0.480469 11.7226 0.69979 12.26 1.09018 12.6562C1.48058 13.0524 2.01007 13.2749 2.56217 13.2749H5.16429C5.32587 13.2749 5.48524 13.3131 5.62977 13.3864C5.7743 13.4598 5.90001 13.5663 5.99697 13.6975L7.97458 16.3731C8.07153 16.5043 8.19725 16.6108 8.34177 16.6841C8.4863 16.7574 8.64567 16.7956 8.80726 16.7956C8.96884 16.7956 9.12821 16.7574 9.27274 16.6841C9.41726 16.6108 9.54298 16.5043 9.63993 16.3731L11.6175 13.6975C11.7145 13.5663 11.8402 13.4598 11.9847 13.3864C12.1293 13.3131 12.2886 13.2749 12.4502 13.2749H15.0523C15.6044 13.2749 16.1339 13.0524 16.5243 12.6562C16.9147 12.26 17.134 11.7226 17.134 11.1623V2.71184C17.134 2.15154 16.9147 1.61418 16.5243 1.21799C16.1339 0.821799 15.6044 0.59922 15.0523 0.59922L2.56217 0.59922Z" fill="#094B59"/>
<g clip-path="url(#clip0_1457_4427)">
<path d="M5.87556 7.54572V9.79961H4.55749V3.4026H7.05303C7.53339 3.4026 7.95517 3.49047 8.31837 3.66621C8.6845 3.84196 8.96569 4.09239 9.16193 4.41751C9.35818 4.73971 9.4563 5.1073 9.4563 5.52029C9.4563 6.14711 9.24102 6.64211 8.81045 7.00531C8.38281 7.36559 7.78968 7.54572 7.03106 7.54572H5.87556ZM5.87556 6.47809H7.05303C7.40158 6.47809 7.66666 6.39607 7.84826 6.23205C8.03279 6.06802 8.12505 5.8337 8.12505 5.52908C8.12505 5.21567 8.03279 4.96231 7.84826 4.769C7.66373 4.57568 7.40891 4.47609 7.08378 4.47023H5.87556V6.47809ZM13.4938 9.79961H12.2241V4.9052L10.7083 5.37531V4.34282L13.3576 3.39381H13.4938V9.79961Z" fill="white"/>
</g>
<path d="M94.3415 0.599228C93.7894 0.599228 93.2599 0.821807 92.8695 1.218C92.4791 1.61419 92.2598 2.15155 92.2598 2.71185V11.1623C92.2598 11.7226 92.4791 12.26 92.8695 12.6562C93.2599 13.0524 93.7894 13.2749 94.3415 13.2749H96.9436C97.1052 13.2749 97.2645 13.3131 97.4091 13.3865C97.5536 13.4598 97.6793 13.5663 97.7763 13.6975L99.7539 16.3731C99.8508 16.5043 99.9765 16.6108 100.121 16.6841C100.266 16.7574 100.425 16.7956 100.587 16.7956C100.748 16.7956 100.908 16.7574 101.052 16.6841C101.197 16.6108 101.322 16.5043 101.419 16.3731L103.397 13.6975C103.494 13.5663 103.62 13.4598 103.764 13.3865C103.909 13.3131 104.068 13.2749 104.23 13.2749H106.832C107.384 13.2749 107.913 13.0524 108.304 12.6562C108.694 12.26 108.913 11.7226 108.913 11.1623V2.71185C108.913 2.15155 108.694 1.61419 108.304 1.218C107.913 0.821807 107.384 0.599228 106.832 0.599228L94.3415 0.599228Z" fill="#094B59"/>
<g clip-path="url(#clip1_1457_4427)">
<path d="M97.6549 7.54573V9.79962H96.3368V3.40261H98.8323C99.3127 3.40261 99.7345 3.49048 100.098 3.66622C100.464 3.84196 100.745 4.0924 100.941 4.41752C101.137 4.73971 101.236 5.10731 101.236 5.5203C101.236 6.14711 101.02 6.64212 100.59 7.00532C100.162 7.36559 99.569 7.54573 98.8104 7.54573H97.6549ZM97.6549 6.4781H98.8323C99.1809 6.4781 99.446 6.39608 99.6276 6.23206C99.8121 6.06803 99.9044 5.83371 99.9044 5.52909C99.9044 5.21568 99.8121 4.96232 99.6276 4.769C99.443 4.57569 99.1882 4.4761 98.8631 4.47024H97.6549V6.4781ZM106.574 9.79962H102.189V8.9297L104.258 6.72413C104.542 6.41366 104.752 6.14272 104.886 5.91133C105.024 5.67993 105.093 5.46026 105.093 5.25229C105.093 4.96818 105.021 4.74557 104.878 4.58447C104.734 4.42045 104.529 4.33844 104.263 4.33844C103.976 4.33844 103.749 4.43802 103.582 4.6372C103.418 4.83344 103.336 5.09266 103.336 5.41486H102.061C102.061 5.02529 102.154 4.66942 102.338 4.34722C102.526 4.02503 102.789 3.77313 103.129 3.59153C103.469 3.407 103.854 3.31474 104.285 3.31474C104.944 3.31474 105.455 3.47291 105.818 3.78924C106.184 4.10558 106.367 4.55225 106.367 5.12927C106.367 5.44561 106.285 5.7678 106.121 6.09586C105.957 6.42391 105.676 6.80615 105.277 7.24257L103.823 8.77592H106.574V9.79962Z" fill="white"/>
</g>
<path d="M256.749 0.599228C256.197 0.599228 255.667 0.821807 255.277 1.218C254.886 1.61419 254.667 2.15155 254.667 2.71185V11.1623C254.667 11.7226 254.886 12.26 255.277 12.6562C255.667 13.0524 256.197 13.2749 256.749 13.2749H259.351C259.512 13.2749 259.672 13.3131 259.816 13.3865C259.961 13.4598 260.087 13.5663 260.183 13.6975L262.161 16.3731C262.258 16.5043 262.384 16.6108 262.528 16.6841C262.673 16.7574 262.832 16.7956 262.994 16.7956C263.155 16.7956 263.315 16.7574 263.459 16.6841C263.604 16.6108 263.73 16.5043 263.826 16.3731L265.804 13.6975C265.901 13.5663 266.027 13.4598 266.171 13.3865C266.316 13.3131 266.475 13.2749 266.637 13.2749H269.239C269.791 13.2749 270.32 13.0524 270.711 12.6562C271.101 12.26 271.321 11.7226 271.321 11.1623V2.71185C271.321 2.15155 271.101 1.61419 270.711 1.218C270.32 0.821807 269.791 0.599228 269.239 0.599228L256.749 0.599228Z" fill="#094B59"/>
<g clip-path="url(#clip2_1457_4427)">
<path d="M260.062 7.54573V9.79962H258.744V3.40261H261.24C261.72 3.40261 262.142 3.49048 262.505 3.66622C262.871 3.84196 263.152 4.0924 263.348 4.41752C263.545 4.73971 263.643 5.10731 263.643 5.5203C263.643 6.14711 263.428 6.64212 262.997 7.00532C262.569 7.36559 261.976 7.54573 261.218 7.54573H260.062ZM260.062 6.4781H261.24C261.588 6.4781 261.853 6.39608 262.035 6.23206C262.219 6.06803 262.312 5.83371 262.312 5.52909C262.312 5.21568 262.219 4.96232 262.035 4.769C261.85 4.57569 261.595 4.4761 261.27 4.47024H260.062V6.4781ZM268.353 7.39195H269.077V8.41565H268.353V9.79962H267.083V8.41565H264.46L264.403 7.61603L267.07 3.40261H268.353V7.39195ZM265.668 7.39195H267.083V5.13367L266.999 5.27866L265.668 7.39195Z" fill="white"/>
</g>
<path d="M187.021 0.599228C186.469 0.599228 185.94 0.821807 185.549 1.218C185.159 1.61419 184.939 2.15155 184.939 2.71185V11.1623C184.939 11.7226 185.159 12.26 185.549 12.6562C185.94 13.0524 186.469 13.2749 187.021 13.2749H189.623C189.785 13.2749 189.944 13.3131 190.089 13.3865C190.233 13.4598 190.359 13.5663 190.456 13.6975L192.434 16.3731C192.531 16.5043 192.656 16.6108 192.801 16.6841C192.945 16.7574 193.105 16.7956 193.266 16.7956C193.428 16.7956 193.587 16.7574 193.732 16.6841C193.876 16.6108 194.002 16.5043 194.099 16.3731L196.077 13.6975C196.173 13.5663 196.299 13.4598 196.444 13.3865C196.588 13.3131 196.748 13.2749 196.909 13.2749H199.511C200.063 13.2749 200.593 13.0524 200.983 12.6562C201.374 12.26 201.593 11.7226 201.593 11.1623V2.71185C201.593 2.15155 201.374 1.61419 200.983 1.218C200.593 0.821807 200.063 0.599228 199.511 0.599228L187.021 0.599228Z" fill="#094B59"/>
<g clip-path="url(#clip3_1457_4427)">
<path d="M190.335 7.54573V9.79962H189.016V3.40261H191.512C191.992 3.40261 192.414 3.49048 192.777 3.66622C193.143 3.84196 193.425 4.0924 193.621 4.41752C193.817 4.73971 193.915 5.10731 193.915 5.5203C193.915 6.14711 193.7 6.64212 193.269 7.00532C192.842 7.36559 192.249 7.54573 191.49 7.54573H190.335ZM190.335 6.4781H191.512C191.861 6.4781 192.126 6.39608 192.307 6.23206C192.492 6.06803 192.584 5.83371 192.584 5.52909C192.584 5.21568 192.492 4.96232 192.307 4.769C192.123 4.57569 191.868 4.4761 191.543 4.47024H190.335V6.4781ZM196.16 6.03874H196.837C197.159 6.03874 197.398 5.95819 197.553 5.79709C197.708 5.636 197.786 5.42218 197.786 5.15564C197.786 4.89788 197.708 4.69724 197.553 4.55372C197.401 4.4102 197.19 4.33844 196.92 4.33844C196.677 4.33844 196.474 4.4058 196.31 4.54054C196.146 4.67235 196.064 4.84516 196.064 5.05898H194.794C194.794 4.72507 194.883 4.42631 195.062 4.16269C195.243 3.89615 195.495 3.68819 195.818 3.53881C196.143 3.38943 196.5 3.31474 196.89 3.31474C197.566 3.31474 198.096 3.4773 198.48 3.80242C198.864 4.12462 199.056 4.56983 199.056 5.13806C199.056 5.43097 198.966 5.70044 198.788 5.94648C198.609 6.19251 198.375 6.38144 198.085 6.51324C198.445 6.64212 198.713 6.83544 198.889 7.09319C199.067 7.35095 199.157 7.65557 199.157 8.00705C199.157 8.57528 198.949 9.03075 198.533 9.37345C198.12 9.71614 197.572 9.88749 196.89 9.88749C196.251 9.88749 195.728 9.71907 195.321 9.38223C194.917 9.0454 194.715 8.60018 194.715 8.04659H195.984C195.984 8.28677 196.074 8.48302 196.252 8.63533C196.434 8.78764 196.657 8.86379 196.92 8.86379C197.222 8.86379 197.458 8.78471 197.628 8.62654C197.8 8.46545 197.887 8.25309 197.887 7.98948C197.887 7.35095 197.535 7.03168 196.832 7.03168H196.16V6.03874Z" fill="white"/>
</g>
<defs>
<clipPath id="clip0_1457_4427">
<rect width="14.0241" height="14.3968" fill="white" transform="translate(2.2334 1.49902)"/>
</clipPath>
<clipPath id="clip1_1457_4427">
<rect width="14.0241" height="14.3968" fill="white" transform="translate(94.0127 1.49903)"/>
</clipPath>
<clipPath id="clip2_1457_4427">
<rect width="14.0241" height="14.3968" fill="white" transform="translate(256.42 1.49903)"/>
</clipPath>
<clipPath id="clip3_1457_4427">
<rect width="14.0241" height="14.3968" fill="white" transform="translate(186.692 1.49903)"/>
</clipPath>
</defs>
</svg>
