<svg width="16" height="16" viewBox="0 0 16 16" fill="none" xmlns="http://www.w3.org/2000/svg">
<path d="M11.0003 2.49999C11.0002 1.91343 11.2064 1.34551 11.5827 0.895605C11.9591 0.4457 12.4817 0.142457 13.059 0.0389307C13.6364 -0.0645957 14.2318 0.038187 14.741 0.329296C15.2502 0.620405 15.6409 1.0813 15.8446 1.63135C16.0484 2.1814 16.0522 2.78557 15.8555 3.33817C15.6587 3.89076 15.274 4.35658 14.7685 4.65414C14.263 4.95169 13.669 5.06203 13.0903 4.96585C12.5117 4.86966 11.9853 4.57308 11.6033 4.12799L4.88527 7.24799C5.03971 7.73743 5.03971 8.26255 4.88527 8.75199L11.6033 11.872C12.0071 11.4023 12.5709 11.0993 13.1855 11.0216C13.8 10.944 14.4215 11.0972 14.9294 11.4517C15.4374 11.8061 15.7957 12.3365 15.9349 12.9401C16.0741 13.5437 15.9843 14.1775 15.6829 14.7186C15.3814 15.2597 14.8898 15.6696 14.3033 15.869C13.7169 16.0683 13.0773 16.0428 12.5085 15.7974C11.9398 15.552 11.4824 15.1043 11.225 14.5409C10.9676 13.9775 10.9285 13.3386 11.1153 12.748L4.39727 9.62799C4.0647 10.0156 3.62142 10.292 3.12704 10.4201C2.63267 10.5482 2.11093 10.5218 1.632 10.3445C1.15308 10.1672 0.739941 9.84743 0.448173 9.42828C0.156404 9.00914 0 8.51069 0 7.99999C0 7.4893 0.156404 6.99085 0.448173 6.57171C0.739941 6.15256 1.15308 5.83283 1.632 5.65551C2.11093 5.4782 2.63267 5.45182 3.12704 5.57991C3.62142 5.708 4.0647 5.98442 4.39727 6.37199L11.1153 3.25199C11.0388 3.00866 11 2.75506 11.0003 2.49999Z" fill="black"/>
</svg>
