<svg width="12" height="18" viewBox="0 0 12 18" fill="none" xmlns="http://www.w3.org/2000/svg">
<path d="M11.1113 2.78906H8.3457C8.8457 3.42188 9.16211 4.19531 9.29492 5.10938H11.6504L11.1113 6.96094H9.33008C9.18945 8.35156 8.63867 9.39844 7.67773 10.1016C6.7168 10.8047 5.38086 11.1562 3.66992 11.1562L9.44727 17.8594V18H6.78711L0.576172 10.7695L0.564453 9.30469H3.48242C4.45898 9.29688 5.25195 9.08594 5.86133 8.67188C6.4707 8.25 6.85742 7.67969 7.02148 6.96094H0.236328L0.775391 5.10938H6.99805C6.62305 3.625 5.47461 2.85156 3.55273 2.78906H0.259766L0.810547 0.9375H11.6504L11.1113 2.78906Z" fill="black"/>
</svg>
