<svg width="39" height="33" viewBox="0 0 39 33" fill="none" xmlns="http://www.w3.org/2000/svg">
<path d="M19.0313 11.0625C18.6583 11.0625 18.3006 11.2107 18.0369 11.4744C17.7732 11.7381 17.625 12.0958 17.625 12.4688C17.625 12.8417 17.7732 13.1994 18.0369 13.4631C18.3006 13.7268 18.6583 13.875 19.0313 13.875C21.51 13.875 24.1163 15.2981 25.425 17.1675C25.5309 17.3188 25.6655 17.4478 25.8212 17.5471C25.977 17.6463 26.1507 17.714 26.3326 17.7461C26.5144 17.7782 26.7008 17.7742 26.8811 17.7343C27.0615 17.6944 27.2321 17.6193 27.3834 17.5134C27.5347 17.4076 27.6637 17.2729 27.763 17.1172C27.8623 16.9615 27.9299 16.7877 27.962 16.6059C27.9941 16.424 27.9901 16.2376 27.9502 16.0573C27.9103 15.877 27.8353 15.7063 27.7294 15.555C25.8994 12.9412 22.4381 11.0625 19.0313 11.0625Z" fill="white"/>
<path d="M14.8125 5.4375C14.8125 4.1943 15.3064 3.00201 16.1854 2.12294C17.0645 1.24386 18.2568 0.75 19.5 0.75C20.7432 0.75 21.9355 1.24386 22.8146 2.12294C23.6936 3.00201 24.1875 4.1943 24.1875 5.4375V7.0875C27.3196 8.08192 30.0534 10.0485 31.992 12.702C33.9307 15.3554 34.9734 18.5576 34.9688 21.8438C34.9688 22.2167 34.8206 22.5744 34.5569 22.8381C34.2931 23.1018 33.9355 23.25 33.5625 23.25H5.4375C5.06454 23.25 4.70685 23.1018 4.44313 22.8381C4.17941 22.5744 4.03125 22.2167 4.03125 21.8438C4.03125 14.9456 8.5725 9.10688 14.8125 7.11V5.4375ZM21.375 5.4375C21.375 4.94022 21.1775 4.46331 20.8258 4.11167C20.4742 3.76004 19.9973 3.5625 19.5 3.5625C19.0027 3.5625 18.5258 3.76004 18.1742 4.11167C17.8225 4.46331 17.625 4.94022 17.625 5.4375V6.49313C18.8701 6.33944 20.1292 6.3363 21.375 6.48375V5.4375ZM6.9225 20.4375H32.0794C31.3856 14.1075 26.0494 9.1875 19.5394 9.1875C13.0238 9.1875 7.62562 14.115 6.92062 20.4375H6.9225Z" fill="white"/>
<path d="M4.5 25.125C3.50544 25.125 2.55161 25.5201 1.84835 26.2234C1.14509 26.9266 0.75 27.8804 0.75 28.875C0.75 29.8696 1.14509 30.8234 1.84835 31.5266C2.55161 32.2299 3.50544 32.625 4.5 32.625H34.5C35.4946 32.625 36.4484 32.2299 37.1516 31.5266C37.8549 30.8234 38.25 29.8696 38.25 28.875C38.25 27.8804 37.8549 26.9266 37.1516 26.2234C36.4484 25.5201 35.4946 25.125 34.5 25.125H4.5ZM3.5625 28.875C3.5625 28.6264 3.66127 28.3879 3.83709 28.2121C4.0129 28.0363 4.25136 27.9375 4.5 27.9375H34.5C34.7486 27.9375 34.9871 28.0363 35.1629 28.2121C35.3387 28.3879 35.4375 28.6264 35.4375 28.875C35.4375 29.1236 35.3387 29.3621 35.1629 29.5379C34.9871 29.7137 34.7486 29.8125 34.5 29.8125H4.5C4.25136 29.8125 4.0129 29.7137 3.83709 29.5379C3.66127 29.3621 3.5625 29.1236 3.5625 28.875Z" fill="white"/>
</svg>
