<svg width="14" height="14" viewBox="0 0 14 14" fill="none" xmlns="http://www.w3.org/2000/svg">
<path d="M11.9423 5.35443C11.9096 5.24643 11.8494 5.15154 11.7691 5.08146C11.6889 5.01138 11.592 4.96919 11.4906 4.96009L8.52401 4.69584L7.24026 1.51026C7.19937 1.40766 7.13287 1.32051 7.04879 1.25934C6.9647 1.19817 6.86661 1.16559 6.76637 1.16553C6.66613 1.16547 6.56801 1.19793 6.48386 1.25899C6.39971 1.32006 6.33313 1.40712 6.29214 1.50968L5.00839 4.69584L2.04177 4.96009C1.9421 4.96894 1.84681 5.0098 1.76731 5.07777C1.6878 5.14574 1.62745 5.23795 1.59347 5.34336C1.55949 5.44877 1.55332 5.56293 1.5757 5.67217C1.59808 5.78141 1.64806 5.88111 1.71967 5.95934L3.91198 8.35509L3.13663 12.1188C3.11309 12.2327 3.12063 12.3519 3.15829 12.461C3.19594 12.57 3.26197 12.6639 3.3478 12.7303C3.43362 12.7968 3.53529 12.8328 3.63961 12.8337C3.74392 12.8346 3.84607 12.8003 3.93279 12.7353L6.7662 10.6178L9.59961 12.7353C9.68825 12.8013 9.79278 12.8353 9.89915 12.8327C10.0055 12.83 10.1086 12.791 10.1946 12.7207C10.2806 12.6505 10.3453 12.5524 10.38 12.4396C10.4148 12.3269 10.4179 12.205 10.389 12.0902L9.43725 8.35684L11.7976 5.97568C11.9522 5.81934 12.0089 5.57551 11.9423 5.35443Z" fill="#A71E1E"/>
</svg>
