<svg width="119" height="67" viewBox="0 0 119 67" fill="none" xmlns="http://www.w3.org/2000/svg">
<g clip-path="url(#clip0_514_6268)">
<path d="M109.976 12.2341H108.185C108.043 12.2344 107.904 12.1906 107.787 12.1088C107.671 12.027 107.584 11.9112 107.536 11.7776C107.399 11.3861 107.237 11.0037 107.051 10.6328C106.987 10.5044 106.965 10.3592 106.988 10.2177C107.011 10.0762 107.079 9.9457 107.181 9.84466L108.454 8.57844C108.584 8.44967 108.656 8.27509 108.656 8.09307C108.656 7.91104 108.584 7.73646 108.454 7.60769L105.704 4.87334C105.575 4.74468 105.399 4.6724 105.217 4.6724C105.034 4.6724 104.858 4.74468 104.729 4.87334L103.433 6.16241C103.332 6.26312 103.202 6.32998 103.061 6.35366C102.92 6.37735 102.775 6.35666 102.647 6.2945C102.281 6.1168 101.904 5.96232 101.519 5.83197C101.383 5.78594 101.265 5.69873 101.182 5.58259C101.098 5.46645 101.054 5.32723 101.054 5.18451V3.35837C101.054 3.26828 101.036 3.17907 101.001 3.09583C100.967 3.01259 100.916 2.93696 100.852 2.87325C100.788 2.80955 100.712 2.75902 100.628 2.72455C100.545 2.69008 100.455 2.67235 100.364 2.67236H96.477C96.3864 2.67235 96.2967 2.69008 96.2131 2.72455C96.1294 2.75902 96.0534 2.80955 95.9893 2.87325C95.9253 2.93696 95.8745 3.01259 95.8399 3.09583C95.8052 3.17907 95.7874 3.26828 95.7874 3.35837V5.18451C95.7877 5.32723 95.743 5.46645 95.6596 5.58259C95.5762 5.69873 95.4583 5.78594 95.3225 5.83197C94.9371 5.96229 94.5604 6.11678 94.1946 6.2945C94.0661 6.35666 93.9212 6.37735 93.7803 6.35366C93.6394 6.32998 93.5094 6.26312 93.4085 6.16241L92.1127 4.87334C91.9832 4.7447 91.8078 4.67244 91.6248 4.67244C91.4418 4.67244 91.2663 4.7447 91.1369 4.87334L88.3869 7.60769C88.2576 7.73646 88.185 7.91104 88.185 8.09307C88.185 8.27509 88.2576 8.44967 88.3869 8.57844L89.6599 9.84466C89.7621 9.94571 89.8297 10.0763 89.8531 10.2177C89.8765 10.3592 89.8545 10.5045 89.7902 10.6328C89.6039 11.0035 89.4422 11.3859 89.306 11.7776C89.2585 11.9112 89.1704 12.0269 89.0541 12.1086C88.9377 12.1904 88.7987 12.2343 88.6562 12.2341H86.8654C86.7748 12.2341 86.6851 12.2518 86.6014 12.2863C86.5178 12.3208 86.4417 12.3713 86.3777 12.435C86.3136 12.4987 86.2628 12.5743 86.2282 12.6576C86.1936 12.7408 86.1757 12.8301 86.1758 12.9202V16.7886C86.1757 16.8787 86.1936 16.9679 86.2282 17.0512C86.2628 17.1344 86.3136 17.2101 86.3777 17.2738C86.4417 17.3375 86.5178 17.388 86.6014 17.4225C86.6851 17.457 86.7748 17.4747 86.8654 17.4746H88.6093C88.7543 17.4745 88.8956 17.52 89.0131 17.6046C89.1306 17.6892 89.2183 17.8085 89.2635 17.9456C89.3981 18.3477 89.5591 18.7406 89.7454 19.1217C89.8087 19.2501 89.8301 19.3949 89.8067 19.5359C89.7833 19.677 89.7163 19.8073 89.6149 19.9087L88.3868 21.1305C88.3227 21.1941 88.2718 21.2697 88.2371 21.3529C88.2024 21.4362 88.1846 21.5254 88.1846 21.6155C88.1846 21.7056 88.2024 21.7948 88.2371 21.878C88.2718 21.9612 88.3227 22.0368 88.3868 22.1005L91.1366 24.8356C91.2661 24.9642 91.4416 25.0365 91.6245 25.0365C91.8075 25.0365 91.983 24.9642 92.1124 24.8356L93.3163 23.6378C93.4189 23.536 93.5511 23.4689 93.6942 23.446C93.8372 23.4231 93.9839 23.4455 94.1134 23.5101C94.5029 23.7037 94.9052 23.8707 95.3175 24.0099C95.4542 24.0559 95.573 24.1434 95.6572 24.2599C95.7414 24.3765 95.7869 24.5164 95.7871 24.66V26.349C95.787 26.4392 95.8047 26.5285 95.8393 26.6119C95.8739 26.6953 95.9247 26.771 95.9887 26.8349C96.0528 26.8987 96.1288 26.9494 96.2126 26.9839C96.2963 27.0185 96.3861 27.0363 96.4767 27.0363H100.364C100.455 27.0363 100.544 27.0185 100.628 26.9839C100.712 26.9494 100.788 26.8987 100.852 26.8349C100.916 26.771 100.967 26.6953 101.001 26.6119C101.036 26.5285 101.054 26.4392 101.054 26.349V24.6602C101.054 24.5166 101.099 24.3768 101.184 24.2602C101.268 24.1436 101.387 24.0562 101.523 24.0102C101.936 23.871 102.338 23.704 102.727 23.5104C102.857 23.4458 103.004 23.4233 103.147 23.4462C103.29 23.4691 103.422 23.5362 103.524 23.638L104.728 24.8358C104.858 24.9645 105.033 25.0368 105.216 25.0368C105.399 25.0368 105.575 24.9645 105.704 24.8358L108.454 22.1002C108.518 22.0366 108.569 21.961 108.604 21.8777C108.638 21.7945 108.656 21.7053 108.656 21.6152C108.656 21.5251 108.638 21.4359 108.604 21.3527C108.569 21.2695 108.518 21.1939 108.454 21.1302L107.226 19.9084C107.124 19.807 107.057 19.6767 107.034 19.5357C107.011 19.3946 107.032 19.2498 107.095 19.1214C107.282 18.7403 107.443 18.3475 107.577 17.9453C107.622 17.8083 107.71 17.6889 107.828 17.6043C107.945 17.5198 108.086 17.4743 108.231 17.4744H109.975C110.066 17.4744 110.156 17.4567 110.239 17.4222C110.323 17.3878 110.399 17.3372 110.463 17.2735C110.527 17.2098 110.578 17.1342 110.612 17.0509C110.647 16.9677 110.665 16.8785 110.665 16.7884V12.9202C110.665 12.8301 110.647 12.7409 110.612 12.6577C110.578 12.5745 110.527 12.4989 110.463 12.4352C110.399 12.3715 110.323 12.3209 110.24 12.2864C110.156 12.252 110.066 12.2342 109.976 12.2341ZM98.4211 20.5707C97.2845 20.5708 96.1734 20.2356 95.2283 19.6074C94.2833 18.9793 93.5466 18.0865 93.1116 17.0418C92.6766 15.9972 92.5628 14.8477 92.7845 13.7387C93.0062 12.6297 93.5535 11.611 94.3572 10.8115C95.1609 10.012 96.1849 9.46747 97.2997 9.2469C98.4144 9.02633 99.5699 9.13959 100.62 9.57234C101.67 10.0051 102.567 10.7379 103.199 11.6781C103.83 12.6183 104.167 13.7237 104.167 14.8544C104.167 16.3704 103.562 17.8243 102.484 18.8962C101.406 19.9682 99.945 20.5705 98.4211 20.5707Z" fill="#F4F4F4"/>
<path d="M33.8176 53.9673H32.5022C32.3976 53.9675 32.2956 53.9353 32.2102 53.8752C32.1249 53.8151 32.0604 53.7301 32.0258 53.6319C31.9251 53.3443 31.806 53.0634 31.6692 52.791C31.622 52.6967 31.6058 52.59 31.6231 52.4861C31.6403 52.3822 31.6899 52.2863 31.765 52.212L32.7004 51.2817C32.7954 51.1872 32.8488 51.0589 32.8488 50.9252C32.8488 50.7915 32.7954 50.6632 32.7004 50.5687L30.6807 48.5603C30.5856 48.4658 30.4567 48.4127 30.3223 48.4127C30.1879 48.4127 30.059 48.4658 29.9639 48.5603L29.0122 49.5072C28.9381 49.5811 28.8427 49.6302 28.7392 49.6476C28.6357 49.665 28.5293 49.6498 28.4349 49.6042C28.1663 49.4736 27.8896 49.3602 27.6065 49.2644C27.5068 49.2306 27.4202 49.1666 27.3589 49.0813C27.2977 48.996 27.2648 48.8937 27.265 48.7889V47.4477C27.265 47.3816 27.2519 47.316 27.2265 47.2549C27.201 47.1937 27.1637 47.1382 27.1167 47.0914C27.0697 47.0446 27.0138 47.0075 26.9523 46.9822C26.8909 46.9569 26.825 46.9438 26.7585 46.9438H23.9023C23.8358 46.9438 23.7699 46.9569 23.7085 46.9822C23.647 47.0075 23.5911 47.0446 23.5441 47.0914C23.4971 47.1382 23.4598 47.1937 23.4343 47.2549C23.4089 47.316 23.3958 47.3816 23.3958 47.4477V48.7891C23.396 48.894 23.3632 48.9962 23.3019 49.0815C23.2406 49.1668 23.154 49.2309 23.0543 49.2647C22.7712 49.3604 22.4945 49.4739 22.2259 49.6044C22.1315 49.6501 22.0251 49.6653 21.9216 49.6479C21.8181 49.6305 21.7227 49.5814 21.6486 49.5074L20.6968 48.5605C20.6017 48.466 20.4728 48.4129 20.3384 48.4129C20.204 48.4129 20.0751 48.466 19.98 48.5605L17.9603 50.5689C17.8653 50.6635 17.8119 50.7917 17.8119 50.9255C17.8119 51.0592 17.8653 51.1874 17.9603 51.282L18.8951 52.212C18.9702 52.2863 19.0199 52.3822 19.0371 52.4861C19.0543 52.59 19.0382 52.6967 18.991 52.791C18.8541 53.0633 18.7353 53.3442 18.6352 53.6319C18.6003 53.73 18.5357 53.815 18.4502 53.8751C18.3648 53.9351 18.2627 53.9674 18.1581 53.9673H16.8424C16.7759 53.9673 16.7101 53.9803 16.6486 54.0056C16.5871 54.031 16.5313 54.0681 16.4843 54.1149C16.4372 54.1617 16.3999 54.2172 16.3745 54.2784C16.349 54.3395 16.3359 54.405 16.3359 54.4712V57.3126C16.3359 57.3788 16.349 57.4443 16.3745 57.5055C16.3999 57.5666 16.4372 57.6222 16.4843 57.669C16.5313 57.7158 16.5871 57.7529 16.6486 57.7782C16.7101 57.8035 16.7759 57.8165 16.8424 57.8165H18.1233C18.2299 57.8164 18.3337 57.8498 18.4201 57.9119C18.5064 57.974 18.5708 58.0617 18.604 58.1624C18.7029 58.4578 18.8212 58.7464 18.958 59.0263C19.0045 59.1206 19.0202 59.227 19.003 59.3306C18.9858 59.4342 18.9366 59.5299 18.8622 59.6044L17.9601 60.5019C17.9131 60.5486 17.8758 60.6041 17.8503 60.6652C17.8248 60.7263 17.8117 60.7917 17.8117 60.8579C17.8117 60.924 17.8248 60.9895 17.8503 61.0506C17.8758 61.1117 17.9131 61.1672 17.9601 61.2139L19.9799 63.2233C20.0749 63.3178 20.2038 63.3709 20.3382 63.3709C20.4727 63.3709 20.6016 63.3178 20.6966 63.2233L21.581 62.3434C21.6563 62.2687 21.7534 62.2195 21.8585 62.2027C21.9636 62.1859 22.0713 62.2025 22.1664 62.25C22.4525 62.3922 22.748 62.5148 23.0508 62.6171C23.1512 62.6508 23.2385 62.715 23.3003 62.8006C23.3622 62.8862 23.3956 62.989 23.3958 63.0944V64.3352C23.3957 64.4015 23.4087 64.4671 23.4341 64.5283C23.4595 64.5895 23.4968 64.6451 23.5439 64.692C23.5909 64.7389 23.6468 64.7761 23.7083 64.8014C23.7698 64.8268 23.8357 64.8399 23.9023 64.8399H26.7577C26.8243 64.8399 26.8902 64.8268 26.9517 64.8014C27.0132 64.7761 27.0691 64.7389 27.1162 64.692C27.1632 64.6451 27.2005 64.5895 27.2259 64.5283C27.2513 64.4671 27.2643 64.4015 27.2642 64.3352V63.0944C27.2644 62.989 27.2978 62.8862 27.3597 62.8006C27.4216 62.715 27.5088 62.6508 27.6092 62.6171C27.9121 62.5148 28.2076 62.3922 28.4937 62.25C28.5888 62.2025 28.6965 62.1859 28.8015 62.2027C28.9066 62.2195 29.0037 62.2687 29.0791 62.3434L29.9634 63.2233C30.0585 63.3178 30.1874 63.3709 30.3218 63.3709C30.4562 63.3709 30.5851 63.3178 30.6802 63.2233L32.7004 61.2139C32.7475 61.1672 32.7848 61.1117 32.8102 61.0506C32.8357 60.9895 32.8488 60.924 32.8488 60.8579C32.8488 60.7917 32.8357 60.7263 32.8102 60.6652C32.7848 60.6041 32.7475 60.5486 32.7004 60.5019L31.7984 59.6044C31.724 59.5299 31.6747 59.4342 31.6575 59.3306C31.6404 59.227 31.6561 59.1206 31.7025 59.0263C31.8394 58.7464 31.9576 58.4578 32.0565 58.1624C32.0897 58.0617 32.1541 57.974 32.2405 57.9119C32.3268 57.8498 32.4307 57.8164 32.5372 57.8165H33.8181C33.8846 57.8165 33.9505 57.8035 34.012 57.7782C34.0734 57.7529 34.1293 57.7158 34.1763 57.669C34.2233 57.6222 34.2606 57.5666 34.2861 57.5055C34.3115 57.4443 34.3246 57.3788 34.3246 57.3126V54.4712C34.3246 54.405 34.3115 54.3394 34.286 54.2782C34.2606 54.2171 34.2232 54.1615 34.1761 54.1147C34.129 54.0679 34.0731 54.0308 34.0116 54.0055C33.9501 53.9802 33.8842 53.9672 33.8176 53.9673ZM25.3305 60.0906C24.4957 60.0906 23.6796 59.8444 22.9855 59.383C22.2914 58.9216 21.7504 58.2658 21.4309 57.4985C21.1114 56.7312 21.0278 55.8869 21.1907 55.0724C21.3536 54.2579 21.7556 53.5097 22.3459 52.9224C22.9362 52.3352 23.6883 51.9353 24.507 51.7733C25.3258 51.6112 26.1745 51.6944 26.9457 52.0122C27.717 52.33 28.3762 52.8682 28.84 53.5587C29.3038 54.2493 29.5513 55.0611 29.5513 55.8916C29.5513 56.443 29.4421 56.9891 29.23 57.4985C29.0179 58.008 28.707 58.4709 28.3151 58.8608C27.9231 59.2507 27.4578 59.56 26.9457 59.771C26.4336 59.982 25.8848 60.0906 25.3305 60.0906Z" fill="#F4F4F4"/>
<path d="M23.9525 30.7482H22.1615C22.0191 30.7484 21.8802 30.7046 21.7641 30.6228C21.6479 30.541 21.5601 30.4253 21.513 30.2917C21.3758 29.9001 21.2137 29.5177 21.0275 29.1467C20.9632 29.0184 20.9412 28.8731 20.9646 28.7316C20.988 28.5902 21.0557 28.4596 21.158 28.3586L22.4308 27.0924C22.5601 26.9636 22.6327 26.789 22.6327 26.607C22.6327 26.425 22.5601 26.2504 22.4308 26.1216L19.681 23.3873C19.5516 23.2586 19.3761 23.1864 19.1931 23.1864C19.0102 23.1864 18.8347 23.2586 18.7052 23.3873L17.4095 24.6763C17.3086 24.7771 17.1786 24.844 17.0377 24.8677C16.8967 24.8914 16.7518 24.8706 16.6233 24.8084C16.2575 24.6307 15.8808 24.4762 15.4953 24.3459C15.3595 24.2999 15.2417 24.2126 15.1583 24.0965C15.0749 23.9804 15.0301 23.8411 15.0304 23.6984V21.8723C15.0304 21.7822 15.0126 21.693 14.978 21.6097C14.9433 21.5265 14.8926 21.4508 14.8285 21.3871C14.7645 21.3234 14.6884 21.2729 14.6048 21.2384C14.5211 21.204 14.4314 21.1862 14.3408 21.1863H10.4535C10.363 21.1863 10.2733 21.204 10.1897 21.2385C10.106 21.2729 10.03 21.3235 9.96594 21.3872C9.90192 21.4509 9.85114 21.5265 9.8165 21.6098C9.78187 21.693 9.76406 21.7822 9.76409 21.8723V23.6984C9.76433 23.8411 9.71962 23.9804 9.63622 24.0965C9.55283 24.2126 9.43495 24.2998 9.29916 24.3459C8.91372 24.4762 8.53698 24.6307 8.1712 24.8084C8.04266 24.8706 7.89779 24.8914 7.75684 24.8677C7.61588 24.844 7.48589 24.7771 7.38502 24.6763L6.08925 23.3873C5.95981 23.2586 5.78432 23.1864 5.60135 23.1864C5.41838 23.1864 5.2429 23.2586 5.11345 23.3873L2.36348 26.1216C2.23417 26.2504 2.16153 26.425 2.16153 26.607C2.16153 26.789 2.23417 26.9636 2.36348 27.0924L3.63641 28.3586C3.73867 28.4596 3.8063 28.5902 3.8297 28.7317C3.8531 28.8731 3.83108 29.0184 3.76676 29.1467C3.58045 29.5174 3.41871 29.8999 3.28258 30.2917C3.23499 30.4252 3.14696 30.5409 3.03059 30.6226C2.91422 30.7044 2.77523 30.7483 2.63277 30.7482H0.841921C0.751361 30.7481 0.661679 30.7658 0.578001 30.8003C0.494323 30.8347 0.418291 30.8853 0.354249 30.949C0.290207 31.0127 0.239413 31.0883 0.204769 31.1715C0.170124 31.2548 0.15231 31.344 0.152344 31.4341V35.3025C0.152293 35.3926 0.170095 35.4819 0.204732 35.5651C0.239368 35.6484 0.29016 35.724 0.354204 35.7877C0.418247 35.8514 0.494285 35.902 0.577972 35.9364C0.661658 35.9709 0.751351 35.9886 0.841921 35.9886H2.58569C2.73071 35.9885 2.87205 36.034 2.98955 36.1186C3.10704 36.2031 3.19469 36.3224 3.23998 36.4595C3.37456 36.8617 3.53553 37.2546 3.72185 37.6357C3.78507 37.7641 3.80648 37.9089 3.78309 38.0499C3.7597 38.191 3.69269 38.3212 3.59138 38.4226L2.36323 39.6444C2.29914 39.708 2.2483 39.7836 2.21362 39.8669C2.17893 39.9501 2.16108 40.0393 2.16108 40.1294C2.16108 40.2195 2.17893 40.3087 2.21362 40.3919C2.2483 40.4751 2.29914 40.5507 2.36323 40.6144L5.11307 43.3499C5.24251 43.4785 5.418 43.5508 5.60097 43.5508C5.78394 43.5508 5.95942 43.4785 6.08887 43.3499L7.29277 42.1521C7.39535 42.0502 7.52754 41.9831 7.6706 41.9602C7.81367 41.9373 7.96035 41.9598 8.08986 42.0244C8.47934 42.218 8.88161 42.3849 9.2939 42.5241C9.43062 42.5701 9.54944 42.6575 9.63369 42.7741C9.71795 42.8907 9.76341 43.0305 9.76371 43.1741V44.8633C9.76355 44.9535 9.78127 45.0428 9.81585 45.1262C9.85043 45.2095 9.90119 45.2853 9.96523 45.3491C10.0293 45.4129 10.1053 45.4635 10.189 45.4981C10.2728 45.5326 10.3625 45.5504 10.4532 45.5505H14.3404C14.4311 45.5505 14.5209 45.5327 14.6046 45.4981C14.6883 45.4636 14.7644 45.413 14.8285 45.3491C14.8925 45.2853 14.9433 45.2095 14.9779 45.1262C15.0125 45.0428 15.0302 44.9535 15.03 44.8633V43.1741C15.0303 43.0305 15.0758 42.8907 15.16 42.7741C15.2443 42.6575 15.3631 42.5701 15.4998 42.5241C15.9121 42.3849 16.3143 42.218 16.7037 42.0244C16.8333 41.9598 16.9799 41.9373 17.123 41.9602C17.2661 41.9831 17.3983 42.0502 17.5008 42.1521L18.7049 43.3499C18.8343 43.4785 19.0098 43.5508 19.1928 43.5508C19.3757 43.5508 19.5512 43.4785 19.6807 43.3499L22.4304 40.6144C22.4945 40.5507 22.5453 40.4751 22.58 40.3919C22.6147 40.3087 22.6325 40.2195 22.6325 40.1294C22.6325 40.0393 22.6147 39.9501 22.58 39.8669C22.5453 39.7836 22.4945 39.708 22.4304 39.6444L21.2022 38.4226C21.1009 38.3212 21.0339 38.191 21.0105 38.0499C20.9871 37.9089 21.0085 37.7641 21.0718 37.6357C21.2581 37.2546 21.4191 36.8617 21.5536 36.4595C21.5989 36.3224 21.6866 36.2031 21.8041 36.1186C21.9216 36.034 22.0629 35.9885 22.2079 35.9886H23.9518C24.0424 35.9886 24.132 35.9709 24.2157 35.9364C24.2994 35.9019 24.3754 35.8514 24.4394 35.7877C24.5035 35.724 24.5543 35.6483 24.5889 35.5651C24.6235 35.4818 24.6413 35.3926 24.6413 35.3025V31.4341C24.6413 31.2523 24.5688 31.0779 24.4396 30.9492C24.3105 30.8206 24.1352 30.7483 23.9525 30.7482ZM12.3977 39.0846C11.2611 39.0847 10.15 38.7495 9.20491 38.1214C8.25982 37.4932 7.5232 36.6004 7.08819 35.5558C6.65319 34.5111 6.53934 33.3616 6.76106 32.2526C6.98277 31.1436 7.53009 30.1249 8.33378 29.3254C9.13748 28.5259 10.1615 27.9814 11.2762 27.7608C12.391 27.5402 13.5465 27.6535 14.5965 28.0863C15.6466 28.519 16.5441 29.2518 17.1755 30.192C17.8069 31.1322 18.1438 32.2376 18.1437 33.3683C18.1435 34.8843 17.5381 36.3382 16.4606 37.4101C15.383 38.4821 13.9216 39.0844 12.3977 39.0846Z" fill="#F4F4F4"/>
<path d="M18.2844 55.9263L85.7389 55.9263C87.3954 55.9263 88.7383 54.5903 88.7383 52.9424V3.81074C88.7383 2.1628 87.3954 0.826874 85.7389 0.826874L18.2844 0.826874C16.6279 0.826874 15.285 2.1628 15.285 3.81074V52.9424C15.285 54.5903 16.6279 55.9263 18.2844 55.9263Z" fill="white"/>
<path d="M15.1836 52.9425V3.81082C15.1846 2.99336 15.5114 2.20967 16.0925 1.63165C16.6735 1.05363 17.4613 0.728485 18.283 0.727539L85.7378 0.727539C86.5595 0.728485 87.3473 1.05363 87.9284 1.63165C88.5094 2.20967 88.8363 2.99336 88.8373 3.81082V52.9425C88.8363 53.76 88.5095 54.5437 87.9284 55.1217C87.3473 55.6997 86.5595 56.0249 85.7378 56.0258H18.283C17.4613 56.0249 16.6735 55.6997 16.0925 55.1217C15.5114 54.5437 15.1845 53.76 15.1836 52.9425ZM18.283 0.926514C17.5143 0.927392 16.7774 1.23157 16.2338 1.77232C15.6902 2.31306 15.3845 3.04622 15.3836 3.81095V52.9425C15.3845 53.7072 15.6902 54.4404 16.2338 54.9811C16.7774 55.5219 17.5143 55.8261 18.283 55.8269H85.7378C86.5065 55.8261 87.2435 55.5219 87.787 54.9811C88.3306 54.4404 88.6364 53.7072 88.6373 52.9425V3.81082C88.6364 3.04608 88.3307 2.31291 87.7871 1.77215C87.2435 1.2314 86.5065 0.927231 85.7378 0.926387L18.283 0.926514Z" fill="#292A2E"/>
<path d="M15.2852 3.81101V6.81351H88.7382V3.81101C88.7382 3.01973 88.4223 2.26085 87.8599 1.70128C87.2975 1.14171 86.5347 0.827284 85.7393 0.827148H18.2845C17.489 0.827148 16.7261 1.14152 16.1637 1.7011C15.6012 2.26068 15.2852 3.01964 15.2852 3.81101Z" fill="#292A2E"/>
<path d="M28.2108 34.1585C26.6046 34.1585 25.0345 33.6846 23.699 32.7969C22.3636 31.9092 21.3227 30.6474 20.708 29.1712C20.0934 27.6949 19.9325 26.0705 20.2459 24.5033C20.5592 22.9362 21.3327 21.4966 22.4684 20.3668C23.6042 19.2369 25.0512 18.4675 26.6265 18.1557C28.2018 17.844 29.8347 18.004 31.3186 18.6155C32.8025 19.2269 34.0708 20.2624 34.9632 21.591C35.8555 22.9196 36.3318 24.4816 36.3318 26.0795C36.3293 28.2214 35.4729 30.2749 33.9505 31.7895C32.428 33.304 30.3639 34.156 28.2108 34.1585ZM28.2108 18.2558C26.6554 18.2558 25.1349 18.7146 23.8416 19.5743C22.5483 20.434 21.5403 21.6559 20.9451 23.0855C20.3498 24.5151 20.1941 26.0882 20.4975 27.6058C20.801 29.1235 21.55 30.5175 22.6499 31.6117C23.7497 32.7058 25.151 33.451 26.6765 33.7529C28.2021 34.0547 29.7834 33.8998 31.2204 33.3076C32.6574 32.7155 33.8857 31.7127 34.7498 30.4261C35.614 29.1395 36.0752 27.6269 36.0752 26.0795C36.0729 24.0051 35.2436 22.0164 33.7693 20.5496C32.2949 19.0828 30.2959 18.2576 28.2108 18.2552V18.2558Z" fill="#292A2E"/>
<path d="M52.0077 34.1585C50.4015 34.1585 48.8314 33.6846 47.4959 32.7969C46.1604 31.9092 45.1196 30.6474 44.5049 29.1712C43.8902 27.6949 43.7294 26.0705 44.0428 24.5033C44.3561 22.9362 45.1296 21.4966 46.2653 20.3668C47.401 19.2369 48.8481 18.4675 50.4234 18.1557C51.9987 17.844 53.6316 18.004 55.1155 18.6155C56.5994 19.2269 57.8677 20.2624 58.76 21.591C59.6524 22.9196 60.1287 24.4816 60.1287 26.0795C60.1262 28.2214 59.2698 30.2749 57.7474 31.7895C56.2249 33.304 54.1608 34.156 52.0077 34.1585ZM52.0077 18.2558C50.4523 18.2558 48.9318 18.7146 47.6385 19.5743C46.3452 20.434 45.3372 21.6559 44.742 23.0855C44.1467 24.5151 43.991 26.0882 44.2944 27.6058C44.5979 29.1235 45.3469 30.5175 46.4467 31.6117C47.5466 32.7058 48.9479 33.451 50.4734 33.7529C51.999 34.0547 53.5802 33.8998 55.0173 33.3076C56.4543 32.7155 57.6826 31.7127 58.5467 30.4261C59.4109 29.1395 59.8721 27.6269 59.8721 26.0795C59.8698 24.0051 59.0405 22.0164 57.5662 20.5496C56.0918 19.0828 54.0928 18.2576 52.0077 18.2552V18.2558Z" fill="#292A2E"/>
<path d="M75.8046 34.1585C74.1984 34.1585 72.6283 33.6846 71.2928 32.7969C69.9573 31.9092 68.9164 30.6474 68.3018 29.1712C67.6871 27.6949 67.5263 26.0705 67.8396 24.5033C68.153 22.9362 68.9264 21.4966 70.0622 20.3668C71.1979 19.2369 72.6449 18.4675 74.2203 18.1557C75.7956 17.844 77.4284 18.004 78.9124 18.6155C80.3963 19.2269 81.6646 20.2624 82.5569 21.591C83.4493 22.9196 83.9256 24.4816 83.9256 26.0795C83.9231 28.2214 83.0667 30.2749 81.5443 31.7895C80.0218 33.304 77.9576 34.156 75.8046 34.1585ZM75.8046 18.2558C74.2492 18.2558 72.7287 18.7146 71.4354 19.5743C70.1421 20.434 69.1341 21.6559 68.5388 23.0855C67.9436 24.5151 67.7879 26.0882 68.0913 27.6058C68.3948 29.1235 69.1438 30.5175 70.2436 31.6117C71.3435 32.7058 72.7448 33.451 74.2703 33.7529C75.7959 34.0547 77.3771 33.8998 78.8142 33.3076C80.2512 32.7155 81.4794 31.7127 82.3436 30.4261C83.2077 29.1395 83.669 27.6269 83.669 26.0795C83.6667 24.0051 82.8374 22.0164 81.3631 20.5496C79.8887 19.0828 77.8897 18.2576 75.8046 18.2552V18.2558Z" fill="#292A2E"/>
<path opacity="0.6" d="M80.8615 27.2434V22.2131H75.0273V26.16H79.3411L80.8615 27.2434Z" fill="#0CBC8B"/>
<path d="M70.75 30.8989V24.0957H78.6405V29.4336H72.8064L70.75 30.8989Z" fill="#0CBC8B"/>
<path d="M72.5393 27.4973C72.9169 27.4973 73.2231 27.1927 73.2231 26.817C73.2231 26.4413 72.9169 26.1367 72.5393 26.1367C72.1616 26.1367 71.8555 26.4413 71.8555 26.817C71.8555 27.1927 72.1616 27.4973 72.5393 27.4973Z" fill="white"/>
<path d="M74.6955 27.4973C75.0732 27.4973 75.3793 27.1927 75.3793 26.817C75.3793 26.4413 75.0732 26.1367 74.6955 26.1367C74.3179 26.1367 74.0117 26.4413 74.0117 26.817C74.0117 27.1927 74.3179 27.4973 74.6955 27.4973Z" fill="white"/>
<path d="M76.8518 27.4973C77.2294 27.4973 77.5356 27.1927 77.5356 26.817C77.5356 26.4413 77.2294 26.1367 76.8518 26.1367C76.4741 26.1367 76.168 26.4413 76.168 26.817C76.168 27.1927 76.4741 27.4973 76.8518 27.4973Z" fill="white"/>
<path d="M32.2559 28.5513C32.3345 28.6035 32.3899 28.6838 32.4106 28.7755C32.4313 28.8672 32.4157 28.9633 32.3671 29.0439L31.9248 29.7771C31.8075 29.9754 31.6179 30.1212 31.3954 30.1842C30.6602 30.3849 29.0388 30.4252 26.4399 27.8401C23.8409 25.2549 23.8818 23.641 24.0835 22.91C24.1468 22.6886 24.2932 22.5 24.4925 22.3831L25.2298 21.9432C25.3108 21.8948 25.4074 21.8794 25.4995 21.9001C25.5917 21.9207 25.6723 21.9759 25.7246 22.0541L26.9 23.8081C26.9514 23.8849 26.9717 23.9782 26.9568 24.0692C26.9419 24.1603 26.893 24.2424 26.8199 24.2991L26.1597 24.8096C26.0904 24.8628 26.0426 24.9389 26.0249 25.0241C26.0072 25.1093 26.0208 25.1981 26.0632 25.2742C26.2569 25.6208 26.4405 26.0294 27.3496 26.9349C28.2587 27.8404 28.671 28.0219 29.0189 28.2147C29.0954 28.2569 29.1846 28.2703 29.2703 28.2527C29.3559 28.235 29.4324 28.1873 29.4857 28.1183L29.9988 27.4619C30.0558 27.389 30.1384 27.3403 30.2299 27.3255C30.3215 27.3107 30.4153 27.3309 30.4925 27.3821L32.2559 28.5513Z" fill="#0CBC8B"/>
<path opacity="0.6" d="M56.1943 28.92H47.8572C47.7634 28.9205 47.6733 28.8839 47.6067 28.8183C47.54 28.7527 47.5023 28.6634 47.5018 28.5702L47.4727 23.5991C47.4724 23.5579 47.4803 23.5171 47.4959 23.479C47.5116 23.4408 47.5346 23.4061 47.5637 23.3768C47.5928 23.3476 47.6274 23.3243 47.6656 23.3083C47.7037 23.2924 47.7447 23.2841 47.7861 23.2839L56.2002 23.241C56.2837 23.2405 56.364 23.2731 56.4234 23.3315C56.4828 23.3899 56.5164 23.4694 56.5168 23.5525L56.546 28.5665C56.5462 28.6126 56.5373 28.6584 56.5198 28.7012C56.5023 28.744 56.4764 28.7829 56.4438 28.8157C56.4111 28.8485 56.3723 28.8746 56.3295 28.8925C56.2867 28.9104 56.2407 28.9198 56.1943 28.92Z" fill="#0CBC8B"/>
<path d="M56.4275 23.334C55.9297 23.6977 52.3146 26.3447 52.3107 26.3473C52.2125 26.4021 52.1014 26.4298 51.9889 26.4275C51.8763 26.4253 51.7664 26.3932 51.6705 26.3345L47.5586 23.3825C47.5879 23.3513 47.6232 23.3263 47.6625 23.3092C47.7018 23.2921 47.7442 23.2831 47.7871 23.2829L56.2004 23.2395C56.2427 23.2394 56.2846 23.2477 56.3236 23.2639C56.3626 23.2801 56.3979 23.3039 56.4275 23.334Z" fill="#0CBC8B"/>
<path d="M90.9355 29.4656C92.5503 29.4656 93.8593 28.1633 93.8593 26.5569C93.8593 24.9505 92.5503 23.6482 90.9355 23.6482C89.3208 23.6482 88.0117 24.9505 88.0117 26.5569C88.0117 28.1633 89.3208 29.4656 90.9355 29.4656Z" fill="#367CFF"/>
<path d="M89.5626 26.2815C89.4874 26.2815 89.4138 26.2597 89.351 26.2186C89.2881 26.1775 89.2388 26.1189 89.209 26.0502C89.1563 25.9286 87.9324 23.0227 89.2617 18.7599C90.7017 14.1424 95.7173 14.0886 95.7677 14.0886C95.8698 14.0886 95.9677 14.129 96.0399 14.2008C96.1121 14.2726 96.1526 14.37 96.1526 14.4715C96.1526 14.5731 96.1121 14.6705 96.0399 14.7423C95.9677 14.8141 95.8698 14.8544 95.7677 14.8544C95.5845 14.8544 91.2662 14.9145 89.9962 18.9866C88.7503 22.9814 89.9033 25.7194 89.9151 25.7466C89.9404 25.8048 89.9507 25.8684 89.9452 25.9316C89.9397 25.9948 89.9184 26.0556 89.8834 26.1087C89.8484 26.1617 89.8007 26.2052 89.7446 26.2353C89.6885 26.2654 89.6257 26.2812 89.5619 26.2813L89.5626 26.2815Z" fill="#367CFF"/>
<path d="M89.8769 29.4656C91.4917 29.4656 92.8008 28.1633 92.8008 26.5569C92.8008 24.9505 91.4917 23.6482 89.8769 23.6482C88.2622 23.6482 86.9531 24.9505 86.9531 26.5569C86.9531 28.1633 88.2622 29.4656 89.8769 29.4656Z" fill="#367CFF"/>
<path opacity="0.3" d="M89.8769 29.4656C91.4917 29.4656 92.8008 28.1633 92.8008 26.5569C92.8008 24.9505 91.4917 23.6482 89.8769 23.6482C88.2622 23.6482 86.9531 24.9505 86.9531 26.5569C86.9531 28.1633 88.2622 29.4656 89.8769 29.4656Z" fill="white"/>
<path d="M90.5801 29.4656C92.1948 29.4656 93.5039 28.1633 93.5039 26.5569C93.5039 24.9505 92.1948 23.6482 90.5801 23.6482C88.9653 23.6482 87.6562 24.9505 87.6562 26.5569C87.6562 28.1633 88.9653 29.4656 90.5801 29.4656Z" fill="#367CFF"/>
<path d="M104.372 21.3232C104.372 21.3232 105.311 25.8011 106.433 27.1559C109.663 31.0559 111.081 35.7408 108.763 38.5985C106.445 41.4561 90.3 43.7642 88.236 38.183C86.4988 33.4843 88.3625 32.6523 88.3852 28.5809C88.3955 26.7386 88.6516 22.8533 88.6516 22.8533" fill="#0A0A0A"/>
<path d="M90.875 35.814C90.9045 35.8102 91.232 41.2166 97.5455 40.7453C101.916 40.4195 103.475 35.806 103.575 35.806C103.104 35.7064 102.311 35.5614 102.101 35.4504C101.413 35.0824 100.562 34.6997 100.34 33.37C100.211 32.6043 100.429 28.6832 100.362 27.9075L93.6529 29.3972C93.7467 31.0347 94.4028 34.831 92.1032 35.5029C91.7199 35.6148 91.3077 35.717 90.875 35.814Z" fill="#E98862"/>
<path opacity="0.5" d="M93.5586 33.9522C93.6637 33.6153 93.7314 33.2679 93.7604 32.9163C93.8342 32.114 93.8195 31.3061 93.7165 30.5069C95.08 30.3238 96.3646 29.764 97.4242 28.8909C97.5489 29.3486 98.234 31.3485 98.0443 31.7835C97.686 32.6058 96.0011 33.9522 93.5586 33.9522Z" fill="#0C0C0C"/>
<path d="M94.7531 32.7645C97.4088 32.6652 100.659 31.1671 100.891 27.6L101.1 24.3814C101.332 20.8144 99.6366 17.8016 96.2606 17.5844C92.8845 17.3674 90.1731 20.0965 89.9412 23.6636L89.8486 25.0885C89.7597 26.4577 90.015 32.9413 94.7531 32.7645Z" fill="#E98862"/>
<path opacity="0.1" d="M95.8036 27.9909C96.242 27.9842 96.5933 27.7196 96.5884 27.3997C96.5835 27.0799 96.2242 26.826 95.7859 26.8327C95.3475 26.8393 94.9962 27.104 95.0011 27.4238C95.006 27.7437 95.3653 27.9976 95.8036 27.9909Z" fill="#0C0C0C"/>
<path opacity="0.1" d="M91.0728 27.3432C91.0768 27.6623 90.7255 27.9271 90.2873 27.9344C90.2115 27.9355 90.1358 27.9288 90.0614 27.9144C89.9905 27.5423 89.9405 27.1819 89.9062 26.8466C90.022 26.8008 90.1454 26.7769 90.27 26.776C90.7086 26.7688 91.0678 27.0226 91.0728 27.3432Z" fill="#0C0C0C"/>
<path d="M90.9543 24.9405C91.1837 24.9405 91.3696 24.7556 91.3696 24.5274C91.3696 24.2992 91.1837 24.1143 90.9543 24.1143C90.725 24.1143 90.5391 24.2992 90.5391 24.5274C90.5391 24.7556 90.725 24.9405 90.9543 24.9405Z" fill="#0C0C0C"/>
<path d="M95.0637 25.246C95.2931 25.246 95.479 25.061 95.479 24.8328C95.479 24.6046 95.2931 24.4197 95.0637 24.4197C94.8344 24.4197 94.6484 24.6046 94.6484 24.8328C94.6484 25.061 94.8344 25.246 95.0637 25.246Z" fill="#0C0C0C"/>
<path opacity="0.5" d="M93.1141 28.059H93.1075C92.9706 28.0491 92.8344 28.0319 92.6994 28.0072C92.4977 27.9689 92.2309 27.8972 92.2426 27.7189C92.2554 27.5156 92.9578 25.3586 93.038 25.1133C93.0456 25.0927 93.061 25.0758 93.0808 25.0662C93.1007 25.0566 93.1236 25.055 93.1446 25.0618C93.1656 25.0686 93.1832 25.0832 93.1936 25.1026C93.204 25.122 93.2064 25.1446 93.2004 25.1658C92.9007 26.0847 92.4219 27.5931 92.4131 27.7299C92.4426 27.7891 92.7792 27.8675 93.1187 27.8894C93.1406 27.891 93.161 27.901 93.1757 27.9172C93.1904 27.9334 93.1983 27.9546 93.1978 27.9764C93.1972 27.9982 93.1882 28.019 93.1726 28.0344C93.1571 28.0498 93.1361 28.0587 93.1142 28.0592L93.1141 28.059Z" fill="#0C0C0C"/>
<path opacity="0.5" d="M93.7871 29.5044C93.2404 29.501 92.7022 29.3698 92.2158 29.1215C92.2057 29.1166 92.1967 29.1098 92.1893 29.1014C92.1819 29.093 92.1762 29.0833 92.1726 29.0728C92.1652 29.0515 92.1667 29.0281 92.1767 29.0079C92.1866 28.9877 92.2042 28.9722 92.2256 28.9649C92.2471 28.9576 92.2705 28.9591 92.2908 28.969C93.3399 29.4795 94.3179 29.4632 95.118 28.9217C95.1342 28.9103 95.1509 28.8997 95.1682 28.89C95.1883 28.8809 95.2111 28.8799 95.2319 28.8871C95.2528 28.8944 95.2699 28.9094 95.2799 28.929C95.2898 28.9486 95.2918 28.9713 95.2853 28.9922C95.2788 29.0132 95.2645 29.0309 95.2452 29.0416C95.2388 29.0452 95.2284 29.0523 95.2139 29.0623C94.7931 29.3476 94.2963 29.5015 93.7871 29.5044Z" fill="#0C0C0C"/>
<path d="M103.836 25.1513L100.812 24.9741C98.4602 24.3466 97.3056 20.5722 97.3056 20.5722C97.3056 20.5722 95.4246 23.5433 88.6458 22.8503C88.6458 22.8503 88.3154 13.4098 98.3924 15.0082C101.633 15.5223 104.283 18.354 104.523 22.5964C104.691 25.5696 103.836 25.1513 103.836 25.1513Z" fill="#0A0A0A"/>
<path d="M100.613 28.6733C101.639 28.7394 102.541 27.7009 102.608 26.6803C102.674 25.6596 101.879 25.0433 100.853 24.9773L100.28 25.6272L99.7305 28.6167L100.613 28.6733Z" fill="#E98862"/>
<path d="M92.1084 23.5932C91.8346 23.4509 91.5278 23.3832 91.2192 23.3971C91.0641 23.4031 90.9108 23.4323 90.7644 23.4838C90.6167 23.535 90.476 23.6044 90.3457 23.6904L90.3416 23.693C90.327 23.7018 90.3096 23.7047 90.293 23.7009C90.2764 23.6971 90.2619 23.687 90.2526 23.6728C90.2434 23.6585 90.2401 23.6413 90.2435 23.6246C90.2469 23.608 90.2567 23.5934 90.2708 23.5838C90.408 23.4864 90.5571 23.4065 90.7144 23.3462C90.8727 23.2847 91.0394 23.2471 91.209 23.2349C91.5522 23.208 91.8963 23.2733 92.2056 23.4238C92.2288 23.4353 92.2465 23.4556 92.2547 23.4802C92.263 23.5047 92.2611 23.5315 92.2494 23.5546C92.2378 23.5777 92.2174 23.5953 92.1928 23.6035C92.1681 23.6117 92.1412 23.6098 92.1179 23.5983L92.1155 23.597L92.1084 23.5932Z" fill="#0C0C0C"/>
<path d="M94.8505 23.6021C95.1762 23.4911 95.5258 23.4691 95.863 23.5383C96.0297 23.5714 96.1904 23.6293 96.3398 23.7098C96.4884 23.7892 96.6263 23.8869 96.7504 24.0006C96.7629 24.0119 96.7706 24.0275 96.7717 24.0443C96.7729 24.061 96.7675 24.0776 96.7567 24.0905C96.7458 24.1034 96.7304 24.1116 96.7136 24.1134C96.6968 24.1152 96.68 24.1104 96.6666 24.1001L96.6626 24.0971C96.5441 23.9956 96.4133 23.9092 96.2731 23.8402C96.1343 23.771 95.9858 23.723 95.8326 23.698C95.5282 23.646 95.2154 23.6751 94.9259 23.7823L94.9189 23.7851C94.9069 23.7898 94.8941 23.7921 94.8812 23.7918C94.8683 23.7915 94.8556 23.7888 94.8438 23.7836C94.8321 23.7785 94.8214 23.7711 94.8125 23.7618C94.8036 23.7526 94.7966 23.7417 94.7919 23.7298C94.7872 23.7178 94.7849 23.7051 94.7852 23.6923C94.7854 23.6795 94.7882 23.6668 94.7934 23.6551C94.7986 23.6434 94.806 23.6328 94.8153 23.6239C94.8246 23.615 94.8356 23.6081 94.8476 23.6034L94.8505 23.6021Z" fill="#0C0C0C"/>
<path opacity="0.52" d="M93.7694 30.3098C93.6706 30.3107 93.5718 30.3032 93.4743 30.2875C93.4632 30.2857 93.4526 30.2818 93.4431 30.276C93.4335 30.2702 93.4252 30.2625 93.4186 30.2535C93.412 30.2445 93.4073 30.2342 93.4047 30.2234C93.4021 30.2125 93.4016 30.2013 93.4034 30.1903C93.4052 30.1793 93.4091 30.1687 93.415 30.1592C93.4208 30.1497 93.4285 30.1414 93.4376 30.1349C93.4466 30.1283 93.4569 30.1236 93.4678 30.121C93.4787 30.1184 93.49 30.118 93.5011 30.1198C94.0882 30.2127 94.384 29.9581 94.3965 29.9472C94.4133 29.9321 94.4354 29.9243 94.458 29.9254C94.4806 29.9265 94.5018 29.9366 94.517 29.9533C94.5322 29.97 94.5401 29.992 94.5389 30.0145C94.5378 30.037 94.5277 30.0581 94.5109 30.0732C94.2986 30.2349 94.0366 30.3185 93.7694 30.3098Z" fill="#0C0C0C"/>
<path d="M100.844 24.9293C98.7635 24.4618 97.9218 23.1889 97.582 22.2034C97.3594 21.5456 97.2775 20.8488 97.3414 20.1577L97.4055 20.1663C97.3429 20.8484 97.4241 21.5359 97.644 22.185C97.9788 23.1542 98.8083 24.4057 100.859 24.8671L100.844 24.9293Z" fill="#0C0C0C"/>
<path d="M68.8554 37.8952L66.7967 34.0332C66.7514 33.9484 66.6889 33.8739 66.6131 33.8144C66.5373 33.7549 66.4498 33.7118 66.3564 33.6878C66.2629 33.6638 66.1654 33.6594 66.0702 33.6749C65.9749 33.6905 65.8839 33.7255 65.803 33.7779C65.6566 33.8793 65.5533 34.0311 65.513 34.2039C65.4727 34.3767 65.4983 34.5583 65.5849 34.7133L66.0264 35.5414L63.4367 33.5712C63.1526 33.3471 62.66 33.2529 62.4283 33.5865C62.3307 33.7091 62.2778 33.8609 62.2782 34.0173C62.2785 34.1736 62.3321 34.3252 62.4302 34.4474C62.4274 34.4495 62.4249 34.4519 62.4225 34.4545C62.4208 34.4568 62.4204 34.4595 62.419 34.4618L61.981 34.1155C61.8999 34.0516 61.8054 34.0064 61.7044 33.9834C61.6035 33.9604 61.4987 33.96 61.3976 33.9824C61.2965 34.0048 61.2018 34.0494 61.1202 34.1128C61.0386 34.1763 60.9723 34.257 60.9261 34.3492C60.8562 34.4958 60.8391 34.6619 60.8776 34.8195C60.9161 34.9772 61.0078 35.117 61.1374 35.2154L61.3239 35.3625C61.3221 35.3698 61.3216 35.3774 61.3225 35.3849C61.1734 35.3147 61.0041 35.2995 60.8447 35.342C60.6854 35.3846 60.5465 35.4821 60.4528 35.6172C60.3547 35.7681 60.3174 35.9502 60.3483 36.1272C60.3792 36.3042 60.4761 36.4632 60.6196 36.5723L61.0826 36.9374C61.0724 36.9368 61.0622 36.9387 61.0528 36.9428C61.0435 36.9469 61.0352 36.9532 61.0288 36.9612C61.0218 36.971 61.0177 36.9826 61.017 36.9946C60.8668 36.9688 60.7121 36.9927 60.5769 37.0628C60.4416 37.1329 60.3333 37.2453 60.2684 37.3826C60.2033 37.5282 60.1895 37.6915 60.2293 37.8459C60.269 38.0003 60.36 38.1368 60.4874 38.2334L64.3944 41.3145C64.9409 41.7455 65.6044 42.0043 66.2998 42.0578C66.9952 42.1112 67.6908 41.9568 68.2974 41.6144C68.8205 41.3192 69.2072 40.8328 69.3755 40.2584C69.5437 39.6841 69.4803 39.0671 69.1986 38.5385L68.8554 37.8952Z" fill="#E98862"/>
<g opacity="0.2">
<path opacity="0.2" d="M64.9847 36.4099C64.9742 36.4229 64.959 36.4313 64.9424 36.4333C64.9258 36.4353 64.909 36.4307 64.8957 36.4205L62.4353 34.5437C62.4286 34.5386 62.423 34.5323 62.4188 34.525C62.4145 34.5177 62.4118 34.5097 62.4107 34.5014C62.4096 34.4931 62.4102 34.4846 62.4123 34.4765C62.4145 34.4684 62.4183 34.4608 62.4234 34.4542C62.4285 34.4475 62.4349 34.442 62.4422 34.4378C62.4495 34.4336 62.4576 34.4308 62.466 34.4297C62.4743 34.4287 62.4828 34.4292 62.4909 34.4314C62.4991 34.4335 62.5067 34.4373 62.5134 34.4424L64.9738 36.3193C64.9873 36.3296 64.9961 36.3448 64.9983 36.3616C65.0005 36.3783 64.996 36.3952 64.9856 36.4087L64.9847 36.4099Z" fill="#0C0C0C"/>
</g>
<g opacity="0.2">
<path opacity="0.2" d="M64.1799 37.5123C64.1694 37.5253 64.1542 37.5336 64.1376 37.5356C64.121 37.5376 64.1042 37.533 64.0909 37.5229L61.3454 35.4283C61.3319 35.418 61.3231 35.4029 61.3209 35.3861C61.3186 35.3694 61.3232 35.3524 61.3335 35.339C61.3442 35.3261 61.3594 35.3177 61.376 35.3155C61.3927 35.3133 61.4096 35.3175 61.4233 35.3271L64.1692 37.4212C64.1826 37.4314 64.1915 37.4466 64.1937 37.4634C64.1959 37.4801 64.1914 37.4971 64.1811 37.5105L64.1799 37.5123Z" fill="#0C0C0C"/>
</g>
<g opacity="0.2">
<path opacity="0.2" d="M63.3201 38.7112C63.3096 38.7242 63.2944 38.7326 63.2778 38.7346C63.2611 38.7366 63.2444 38.732 63.2311 38.7218L61.0407 37.051C61.0272 37.0407 61.0184 37.0255 61.0162 37.0087C61.014 36.9919 61.0185 36.975 61.0289 36.9615C61.0392 36.9481 61.0545 36.9393 61.0714 36.9371C61.0883 36.9349 61.1054 36.9394 61.1189 36.9497L63.3091 38.6209C63.3226 38.6312 63.3314 38.6464 63.3336 38.6631C63.3359 38.6798 63.3313 38.6968 63.321 38.7102L63.3201 38.7112Z" fill="#0C0C0C"/>
</g>
<path d="M83.5169 38.1092L76.8599 49.7176L70.0563 37.3586L61.9258 41.8747L72.8715 61.009C73.226 61.6238 73.7203 62.1474 74.3148 62.5379C75.3121 63.1881 76.5282 63.4175 77.6956 63.1758C78.8629 62.934 79.886 62.2409 80.5396 61.2488L80.5958 61.1634L92.2705 43.4401L83.5169 38.1092Z" fill="#367CFF"/>
<path d="M68.8532 37.8953L66.7945 34.0334C66.7492 33.9486 66.6867 33.874 66.6109 33.8146C66.5351 33.7551 66.4476 33.712 66.3542 33.688C66.2607 33.664 66.1632 33.6596 66.068 33.6751C65.9727 33.6906 65.8817 33.7257 65.8008 33.7781C65.6545 33.8794 65.5511 34.0312 65.5108 34.2041C65.4705 34.3769 65.4961 34.5584 65.5827 34.7135L66.0242 35.5416L66.7106 37.0369" fill="#E98862"/>
<path d="M97.6632 39.3938C102.037 39.1887 102.221 35.4956 102.221 35.4956C102.221 35.4956 104.388 35.6348 105.829 35.8288C108.187 36.1463 109.743 36.9419 110.982 38.1737C112.133 39.3197 112.835 40.5593 112.093 48.4748C111.555 54.2054 111.933 66.8126 111.933 66.8126H85.537C85.537 66.8126 83.9541 50.2889 83.7334 47.709C83.3124 42.7839 81.5879 40.0078 83.9982 37.4708C85.7462 35.6309 90.259 35.4956 92.0753 35.4959C92.105 35.4959 91.7067 39.6732 97.6632 39.3938Z" fill="#367CFF"/>
<path d="M83.8862 46.8856C83.8852 46.8687 83.8774 46.8529 83.8646 46.8417C83.8518 46.8304 83.8351 46.8247 83.818 46.8258C83.801 46.8269 83.7851 46.8346 83.7739 46.8473C83.7626 46.8601 83.7569 46.8767 83.7579 46.8936L84.2947 55.4229C84.2957 55.4382 84.3022 55.4527 84.313 55.4636C84.3238 55.4746 84.3382 55.4813 84.3536 55.4825C84.3566 55.4827 84.3597 55.4827 84.3627 55.4825C84.3711 55.482 84.3794 55.4798 84.3869 55.4761C84.3945 55.4724 84.4013 55.4673 84.4069 55.461C84.4124 55.4547 84.4167 55.4474 84.4194 55.4394C84.4222 55.4315 84.4233 55.4231 84.4227 55.4147" fill="#0C0C0C"/>
<path d="M89.7023 59.3363L85.4324 58.3042C85.3386 58.2815 85.2411 58.2786 85.146 58.2955C85.051 58.3123 84.9605 58.3487 84.8804 58.4023C84.8002 58.4559 84.7322 58.5255 84.6806 58.6067C84.629 58.6879 84.5949 58.7788 84.5806 58.8738C84.5596 59.05 84.6051 59.2276 84.7082 59.3723C84.8114 59.517 84.9649 59.6184 85.139 59.6568L86.0546 59.8781L82.8542 60.4969C82.4973 60.5594 82.0994 60.8634 82.1965 61.2573C82.2239 61.4113 82.3029 61.5515 82.4206 61.655C82.5384 61.7585 82.6879 61.8193 82.8449 61.8274C82.8445 61.8309 82.8445 61.8343 82.8449 61.8378C82.8449 61.8406 82.8472 61.8426 82.8479 61.8453L82.2974 61.9418C82.1955 61.9597 82.0988 62.0001 82.0145 62.0599C81.9302 62.1198 81.8604 62.1975 81.8101 62.2876C81.7599 62.3777 81.7305 62.4778 81.724 62.5806C81.7176 62.6834 81.7342 62.7863 81.7729 62.8819C81.8367 63.0312 81.9501 63.1542 82.0942 63.2302C82.2383 63.3062 82.4042 63.3308 82.5643 63.2996L82.7986 63.2585C82.8029 63.2647 82.8083 63.2701 82.8145 63.2745C82.6627 63.3388 82.5389 63.4547 82.4651 63.6015C82.3913 63.7483 82.3725 63.9164 82.4119 64.0758C82.46 64.249 82.5721 64.3978 82.7257 64.4924C82.8792 64.5871 83.0631 64.6206 83.2404 64.5863L83.8223 64.4842C83.8151 64.4914 83.8097 64.5002 83.8066 64.5099C83.8035 64.5195 83.8028 64.5298 83.8045 64.5398C83.8071 64.5517 83.8131 64.5625 83.8218 64.571C83.7026 64.6656 83.6179 64.7965 83.5809 64.9437C83.5438 65.0908 83.5563 65.246 83.6166 65.3854C83.6828 65.5305 83.7963 65.6492 83.9388 65.7221C84.0812 65.795 84.2442 65.818 84.4015 65.7873L89.3115 64.9257C89.9984 64.8052 90.6334 64.4834 91.1353 64.0015C91.6371 63.5196 91.9828 62.8996 92.1281 62.2209C92.2534 61.6358 92.1444 61.0251 91.8243 60.5186C91.5042 60.0121 90.9982 59.6497 90.4138 59.5084L89.7023 59.3363Z" fill="#E98862"/>
<g opacity="0.2">
<path opacity="0.2" d="M86.0156 61.2307C86.0184 61.2472 86.0146 61.2641 86.005 61.2778C85.9954 61.2916 85.9808 61.301 85.9643 61.3041L82.92 61.8886C82.9118 61.8902 82.9032 61.8902 82.895 61.8885C82.8867 61.8868 82.8789 61.8835 82.8719 61.8788C82.865 61.8741 82.859 61.8681 82.8543 61.8611C82.8497 61.8541 82.8465 61.8463 82.8449 61.838C82.8433 61.8298 82.8434 61.8213 82.8451 61.8131C82.8468 61.8049 82.8501 61.7971 82.8548 61.7902C82.8595 61.7833 82.8656 61.7773 82.8726 61.7727C82.8796 61.7681 82.8875 61.7649 82.8958 61.7633L85.94 61.1786C85.9483 61.177 85.9569 61.1771 85.9652 61.1788C85.9735 61.1805 85.9813 61.1839 85.9883 61.1886C85.9953 61.1933 86.0013 61.1994 86.0059 61.2065C86.0105 61.2135 86.0137 61.2214 86.0152 61.2297L86.0156 61.2307Z" fill="#0C0C0C"/>
</g>
<g opacity="0.2">
<path opacity="0.2" d="M86.3137 62.5592C86.3165 62.5757 86.3127 62.5925 86.3031 62.6062C86.2935 62.6199 86.2789 62.6293 86.2624 62.6325L82.8649 63.2849C82.8566 63.2865 82.8481 63.2864 82.8398 63.2847C82.8316 63.2829 82.8237 63.2796 82.8167 63.2749C82.8098 63.2701 82.8038 63.2641 82.7992 63.257C82.7946 63.25 82.7914 63.2421 82.7899 63.2338C82.7872 63.2172 82.7911 63.2002 82.8006 63.1864C82.8102 63.1725 82.8247 63.1628 82.8412 63.1592L86.2387 62.5067C86.247 62.5052 86.2555 62.5052 86.2638 62.507C86.272 62.5087 86.2799 62.512 86.2869 62.5168C86.2938 62.5215 86.2998 62.5276 86.3044 62.5346C86.309 62.5416 86.3122 62.5495 86.3137 62.5578V62.5592Z" fill="#0C0C0C"/>
</g>
<g opacity="0.2">
<path opacity="0.2" d="M86.6424 63.9963C86.6452 64.0128 86.6414 64.0297 86.6318 64.0434C86.6222 64.0571 86.6076 64.0665 86.5911 64.0696L83.881 64.5901C83.8728 64.5916 83.8643 64.5916 83.856 64.5899C83.8477 64.5882 83.8399 64.585 83.8329 64.5803C83.8259 64.5756 83.82 64.5696 83.8153 64.5626C83.8107 64.5556 83.8075 64.5477 83.8059 64.5395C83.8043 64.5313 83.8043 64.5228 83.806 64.5146C83.8077 64.5064 83.811 64.4986 83.8157 64.4917C83.8204 64.4847 83.8265 64.4788 83.8335 64.4741C83.8405 64.4695 83.8484 64.4663 83.8567 64.4647L86.5667 63.9443C86.575 63.9427 86.5836 63.9427 86.5919 63.9444C86.6002 63.9462 86.608 63.9495 86.615 63.9542C86.622 63.959 86.628 63.965 86.6326 63.9721C86.6372 63.9791 86.6404 63.987 86.6419 63.9953L86.6424 63.9963Z" fill="#0C0C0C"/>
</g>
<path d="M89.2773 66.5964L112.221 66.7209C112.96 66.801 113.708 66.7095 114.405 66.4538C115.103 66.1982 115.731 65.7852 116.241 65.2473C116.751 64.7094 117.129 64.0612 117.345 63.3536C117.561 62.646 117.609 61.8983 117.486 61.169L112.375 40.7993C112.273 40.1765 112.049 39.5799 111.715 39.0437C111.381 38.5075 110.943 38.0422 110.428 37.6748C109.912 37.3073 109.329 37.0449 108.711 36.9025C108.093 36.7601 107.453 36.7407 106.828 36.8453C106.203 36.9499 105.604 37.1764 105.067 37.5119C104.53 37.8474 104.065 38.2852 103.699 38.8001C103.332 39.315 103.072 39.897 102.932 40.5124C102.793 41.1278 102.777 41.7646 102.886 42.3861L106.806 57.7318L89.3883 58.3016L89.2773 66.5964Z" fill="#367CFF"/>
<path d="M109.805 57.6674C109.821 57.6672 109.837 57.6611 109.848 57.6501C109.86 57.6392 109.867 57.6242 109.869 57.6082C109.87 57.5923 109.865 57.5764 109.855 57.5639C109.845 57.5513 109.83 57.543 109.815 57.5405L106.843 57.6479C106.835 57.6465 106.826 57.6468 106.818 57.6488C106.81 57.6507 106.802 57.6543 106.795 57.6593C106.788 57.6643 106.783 57.6706 106.778 57.6779C106.774 57.6851 106.771 57.6931 106.77 57.7015C106.768 57.7182 106.772 57.7352 106.782 57.7488C106.792 57.7624 106.807 57.7714 106.824 57.7739L109.796 57.6666C109.799 57.6671 109.802 57.6674 109.805 57.6674Z" fill="#0C0C0C"/>
<path d="M111.555 66.8127C111.572 66.8138 111.588 66.8081 111.601 66.7969C111.614 66.7857 111.622 66.7699 111.623 66.753C111.624 66.7361 111.618 66.7194 111.607 66.7067C111.596 66.6939 111.58 66.6862 111.563 66.6851L89.4124 66.5476L89.5097 58.3793L106.823 57.7739C106.833 57.7752 106.843 57.7742 106.853 57.7709C106.862 57.7676 106.871 57.7622 106.878 57.755C106.885 57.7478 106.89 57.7391 106.893 57.7295C106.896 57.72 106.897 57.7099 106.895 57.7L105.007 48.4762C105.005 48.4679 105.003 48.4599 104.998 48.4528C104.994 48.4456 104.988 48.4394 104.981 48.4345C104.974 48.4296 104.966 48.4262 104.958 48.4244C104.95 48.4225 104.941 48.4224 104.933 48.4239C104.916 48.4267 104.901 48.436 104.891 48.4498C104.881 48.4636 104.877 48.4807 104.88 48.4974L106.753 57.6357L89.4609 58.2437C89.4524 58.2426 89.4438 58.2432 89.4355 58.2454C89.4273 58.2477 89.4196 58.2516 89.4128 58.2568C89.4061 58.2621 89.4005 58.2687 89.3963 58.2761C89.3922 58.2836 89.3896 58.2918 89.3887 58.3003L89.2777 66.5962C89.2759 66.6128 89.2807 66.6294 89.291 66.6426C89.3014 66.6557 89.3165 66.6643 89.3331 66.6664L111.546 66.812C111.549 66.8125 111.552 66.8127 111.555 66.8127Z" fill="#0C0C0C"/>
<path d="M78.4706 64.4159L72.194 45.2218C72.0837 44.8845 71.8689 44.5906 71.5805 44.3822C71.292 44.1738 70.9446 44.0615 70.5881 44.0615H45.0169C44.7504 44.0615 44.4876 44.1243 44.2501 44.2447C44.0126 44.3651 43.8071 44.5397 43.6505 44.7542C43.4939 44.9688 43.3905 45.2172 43.3489 45.4791C43.3072 45.741 43.3285 46.0091 43.411 46.2612L49.6876 65.4555C49.7979 65.7928 50.0126 66.0867 50.3011 66.2951C50.5895 66.5035 50.9369 66.6158 51.2934 66.6158H76.8646C77.1312 66.6158 77.394 66.553 77.6314 66.4326C77.8689 66.3122 78.0744 66.1375 78.2311 65.923C78.3877 65.7084 78.4911 65.46 78.5327 65.1981C78.5743 64.9361 78.5531 64.6681 78.4706 64.4159Z" fill="#292A2E"/>
<path d="M90.4676 65.0596H73.3504C72.9239 65.0596 72.5781 65.4036 72.5781 65.8279V65.8476C72.5781 66.2719 72.9239 66.6159 73.3504 66.6159H90.4676C90.8942 66.6159 91.2399 66.2719 91.2399 65.8476V65.8279C91.2399 65.4036 90.8942 65.0596 90.4676 65.0596Z" fill="#292A2E"/>
<path d="M60.557 58.5601C62.0382 58.5601 63.2389 57.3655 63.2389 55.892C63.2389 54.4184 62.0382 53.2239 60.557 53.2239C59.0758 53.2239 57.875 54.4184 57.875 55.892C57.875 57.3655 59.0758 58.5601 60.557 58.5601Z" fill="white"/>
<path d="M102.356 26.1205C102.254 26.1205 102.156 26.0802 102.084 26.0084C102.012 25.9366 101.971 25.8392 101.971 25.7376V21.376C101.971 19.1565 101.353 17.3979 100.185 16.2903C99.0779 15.2404 97.4888 14.7576 95.464 14.8542C95.4133 14.8569 95.3627 14.8496 95.3149 14.8328C95.2671 14.8159 95.2231 14.7898 95.1855 14.756C95.1478 14.7222 95.1173 14.6813 95.0956 14.6357C95.0739 14.5901 95.0615 14.5407 95.059 14.4903C95.0566 14.4399 95.0642 14.3895 95.0814 14.342C95.0986 14.2946 95.1251 14.251 95.1593 14.2137C95.1935 14.1764 95.2347 14.1463 95.2807 14.1249C95.3266 14.1036 95.3764 14.0915 95.427 14.0894C97.671 13.9815 99.4511 14.5361 100.717 15.7358C102.041 16.9915 102.741 18.9418 102.741 21.3759V25.7375C102.741 25.7878 102.731 25.8377 102.712 25.8842C102.693 25.9307 102.664 25.9729 102.628 26.0085C102.593 26.0441 102.55 26.0723 102.503 26.0915C102.457 26.1107 102.406 26.1206 102.356 26.1205Z" fill="#367CFF"/>
<path d="M101.779 29.4656C103.394 29.4656 104.703 28.1633 104.703 26.5569C104.703 24.9505 103.394 23.6482 101.779 23.6482C100.165 23.6482 98.8555 24.9505 98.8555 26.5569C98.8555 28.1633 100.165 29.4656 101.779 29.4656Z" fill="#367CFF"/>
<path d="M101.891 28.7358C101.871 28.7211 101.848 28.7105 101.823 28.7047C101.799 28.6988 101.773 28.6979 101.748 28.7019C101.723 28.7059 101.699 28.7147 101.678 28.7279C101.656 28.7411 101.637 28.7583 101.623 28.7787L101.399 29.0862C101.125 29.462 100.765 29.7681 100.349 29.9793C99.9336 30.1905 99.4736 30.301 99.0067 30.3016H95.4471V30.2267C95.4471 30.1251 95.4066 30.0277 95.3344 29.9559C95.2622 29.8841 95.1643 29.8438 95.0622 29.8438H93.8575C93.7555 29.8438 93.6576 29.8841 93.5854 29.9559C93.5132 30.0277 93.4727 30.1251 93.4727 30.2267V30.7872C93.4727 30.8888 93.5132 30.9862 93.5854 31.058C93.6576 31.1298 93.7555 31.1701 93.8575 31.1701H95.0622C95.1643 31.1701 95.2622 31.1298 95.3344 31.058C95.4066 30.9862 95.4471 30.8888 95.4471 30.7872V30.6851H99.0067C99.5344 30.6844 100.054 30.5596 100.524 30.3208C100.994 30.082 101.401 29.7361 101.711 29.3113L101.935 29.0039C101.949 28.9835 101.96 28.9603 101.966 28.9358C101.972 28.9113 101.973 28.8858 101.969 28.8609C101.965 28.836 101.956 28.8121 101.943 28.7907C101.929 28.7692 101.912 28.7506 101.891 28.7358Z" fill="#367CFF"/>
<path d="M102.478 29.4656C104.093 29.4656 105.402 28.1633 105.402 26.5569C105.402 24.9505 104.093 23.6482 102.478 23.6482C100.864 23.6482 99.5547 24.9505 99.5547 26.5569C99.5547 28.1633 100.864 29.4656 102.478 29.4656Z" fill="#367CFF"/>
<path opacity="0.3" d="M102.478 29.4656C104.093 29.4656 105.402 28.1633 105.402 26.5569C105.402 24.9505 104.093 23.6482 102.478 23.6482C100.864 23.6482 99.5547 24.9505 99.5547 26.5569C99.5547 28.1633 100.864 29.4656 102.478 29.4656Z" fill="white"/>
<path d="M46.9525 66.9401H117.899C117.933 66.9401 117.965 66.9266 117.99 66.9027C118.014 66.8787 118.027 66.8463 118.027 66.8124C118.027 66.7786 118.014 66.7461 117.99 66.7222C117.965 66.6983 117.933 66.6848 117.899 66.6848H46.9525C46.9185 66.6848 46.8859 66.6983 46.8618 66.7222C46.8377 66.7461 46.8242 66.7786 46.8242 66.8124C46.8242 66.8463 46.8377 66.8787 46.8618 66.9027C46.8859 66.9266 46.9185 66.9401 46.9525 66.9401Z" fill="#292A2E"/>
</g>
<defs>
<clipPath id="clip0_514_6268">
<rect width="117.873" height="66.2127" fill="white" transform="translate(0.152344 0.727539)"/>
</clipPath>
</defs>
</svg>
