<svg width="101" height="64" viewBox="0 0 101 64" fill="none" xmlns="http://www.w3.org/2000/svg">
<g clip-path="url(#clip0_514_6371)">
<path d="M86.747 41.391L86.5586 41.4116L88.8846 62.6795L89.0729 62.6589L86.747 41.391Z" fill="#292A2E"/>
<path d="M92.7732 50.6754L91.6289 62.0022L91.8174 62.0213L92.9617 50.6945L92.7732 50.6754Z" fill="#292A2E"/>
<path d="M94.7406 60.6333H86.25V63.3904H94.7406V60.6333Z" fill="#292A2E"/>
<path opacity="0.2" d="M94.7406 60.6333H86.25V63.3904H94.7406V60.6333Z" fill="white"/>
<path d="M99.8576 55.5565C101.466 53.4175 100.699 50.1247 98.1449 48.2017C95.5906 46.2786 92.216 46.4537 90.6076 48.5927C88.9992 50.7316 89.766 54.0245 92.3203 55.9475C94.8746 57.8705 98.2492 57.6954 99.8576 55.5565Z" fill="#0CBC8B"/>
<path opacity="0.2" d="M99.8576 55.5565C101.466 53.4175 100.699 50.1247 98.1449 48.2017C95.5906 46.2786 92.216 46.4537 90.6076 48.5927C88.9992 50.7316 89.766 54.0245 92.3203 55.9475C94.8746 57.8705 98.2492 57.6954 99.8576 55.5565Z" fill="white"/>
<path opacity="0.5" d="M99.8595 55.5569C99.7515 55.7011 99.6336 55.8378 99.5068 55.9658C97.7362 57.0977 95.1229 56.9194 93.0496 55.3584C90.4955 53.4357 89.729 50.1429 91.3375 48.004C91.4457 47.8601 91.5633 47.7234 91.6894 47.595C93.4611 46.4623 96.0734 46.6413 98.1475 48.2017C100.702 50.125 101.468 53.4179 99.8595 55.5569Z" fill="white"/>
<path d="M88.0088 47.4418C90.5392 45.4874 91.227 42.1356 89.545 39.9553C87.8629 37.7749 84.4481 37.5918 81.9177 39.5462C79.3872 41.5006 78.6995 44.8525 80.3815 47.0328C82.0635 49.2131 85.4784 49.3962 88.0088 47.4418Z" fill="#0CBC8B"/>
<path opacity="0.2" d="M87.2069 46.8806C85.2473 48.3951 82.7568 48.6259 80.9516 47.64C80.7427 47.4558 80.5518 47.2521 80.3817 47.0316C78.6994 44.852 79.3869 41.4998 81.9173 39.5458C83.877 38.0321 86.3675 37.8005 88.1719 38.7855C88.3813 38.9697 88.5724 39.1737 88.7425 39.3947C90.4249 41.5744 89.7372 44.9266 87.2069 46.8806Z" fill="white"/>
<path d="M10.5327 24.8166C15.6227 24.8166 19.7489 20.6879 19.7489 15.595C19.7489 10.502 15.6227 6.37329 10.5327 6.37329C5.44267 6.37329 1.31641 10.502 1.31641 15.595C1.31641 20.6879 5.44267 24.8166 10.5327 24.8166Z" fill="#F4F4F4"/>
<g opacity="0.05">
<path opacity="0.05" d="M10.5328 22.9054C14.5679 22.9054 17.839 19.6324 17.839 15.5949C17.839 11.5574 14.5679 8.28442 10.5328 8.28442C6.49767 8.28442 3.22656 11.5574 3.22656 15.5949C3.22656 19.6324 6.49767 22.9054 10.5328 22.9054Z" fill="#292A2E"/>
</g>
<path d="M8.14062 18.2063L8.82222 17.1488C9.36226 17.563 9.83494 17.7745 10.3374 17.7745C10.9398 17.7745 11.2048 17.5245 11.2048 17.0405C11.2048 15.9465 8.39947 15.9663 8.39947 14.0474C8.39947 12.8139 9.2534 12.0282 10.6 12.0282C11.5091 12.0282 12.1267 12.4036 12.6231 12.9303L11.8414 13.8262C11.4552 13.4747 11.1276 13.2896 10.6839 13.2896C10.1722 13.2896 9.89529 13.4959 9.89529 13.9736C9.89529 14.9879 12.7005 14.8991 12.7005 16.9313C12.7005 18.1524 11.893 19.0359 10.3374 19.0359C9.6662 19.0356 8.74083 18.7504 8.14062 18.2063ZM10.0098 10.9858H11.0465V12.5172H10.0098V10.9858ZM10.0098 18.3974H11.0465V20.0776H10.0098V18.3974Z" fill="white"/>
<path d="M91.7827 18.6262C96.8727 18.6262 100.999 14.4975 100.999 9.40453C100.999 4.31154 96.8727 0.182861 91.7827 0.182861C86.6927 0.182861 82.5664 4.31154 82.5664 9.40453C82.5664 14.4975 86.6927 18.6262 91.7827 18.6262Z" fill="#F4F4F4"/>
<g opacity="0.05">
<path opacity="0.05" d="M91.7828 16.715C95.8179 16.715 99.089 13.442 99.089 9.4045C99.089 5.36702 95.8179 2.09399 91.7828 2.09399C87.7477 2.09399 84.4766 5.36702 84.4766 9.4045C84.4766 13.442 87.7477 16.715 91.7828 16.715Z" fill="#292A2E"/>
</g>
<path d="M89.3906 12.0158L90.0722 10.9584C90.6123 11.3724 91.0849 11.584 91.5874 11.584C92.1898 11.584 92.4547 11.334 92.4547 10.85C92.4547 9.75601 89.6495 9.77573 89.6495 7.85688C89.6495 6.62344 90.5034 5.83764 91.85 5.83764C92.759 5.83764 93.3766 6.21295 93.8731 6.73966L93.0914 7.63562C92.7051 7.2841 92.3776 7.09905 91.9339 7.09905C91.4222 7.09905 91.1452 7.30533 91.1452 7.78303C91.1452 8.79739 93.9505 8.70847 93.9505 10.7408C93.9505 11.9618 93.1429 12.8453 91.5874 12.8453C90.9161 12.8452 89.9907 12.56 89.3906 12.0158ZM91.2598 4.79541H92.2964V6.32671H91.2598V4.79541ZM91.2598 12.2069H92.2964V13.8872H91.2598V12.2069Z" fill="white"/>
<path d="M83.9177 4.92896H19.9947C18.4249 4.92896 17.1523 6.20226 17.1523 7.77296V54.6018C17.1523 56.1725 18.4249 57.4458 19.9947 57.4458H83.9177C85.4874 57.4458 86.76 56.1725 86.76 54.6018V7.77296C86.76 6.20226 85.4874 4.92896 83.9177 4.92896Z" fill="white"/>
<path d="M83.9185 57.5406H19.9957C19.217 57.5397 18.4705 57.2297 17.9198 56.6788C17.3692 56.1279 17.0595 55.3809 17.0586 54.6018V7.77303C17.0595 6.99388 17.3692 6.24689 17.9198 5.69595C18.4704 5.14501 19.217 4.83511 19.9957 4.83423H83.9185C84.6972 4.83508 85.4437 5.14498 85.9944 5.69593C86.545 6.24687 86.8547 6.99387 86.8556 7.77303V54.6018C86.8547 55.3809 86.5449 56.1279 85.9943 56.6788C85.4437 57.2298 84.6972 57.5397 83.9185 57.5406ZM19.9957 5.02383C19.2672 5.02463 18.5688 5.31454 18.0537 5.82994C17.5386 6.34534 17.2489 7.04414 17.2481 7.77303V54.6018C17.2489 55.3306 17.5386 56.0294 18.0537 56.5448C18.5688 57.0602 19.2672 57.3502 19.9957 57.351H83.9185C84.6469 57.3502 85.3453 57.0602 85.8604 56.5448C86.3755 56.0294 86.6653 55.3306 86.6661 54.6018V7.77303C86.6653 7.04414 86.3755 6.34534 85.8604 5.82994C85.3453 5.31454 84.6469 5.02463 83.9185 5.02383H19.9957Z" fill="#292A2E"/>
<path d="M29.5759 30.5966C29.5386 30.5966 29.5016 30.5893 29.4671 30.575C29.4326 30.5607 29.4013 30.5397 29.375 30.5133L28.0485 29.1861C27.9968 29.1324 27.9681 29.0606 27.9688 28.986C27.9694 28.9115 27.9993 28.8401 28.052 28.7874C28.1047 28.7347 28.176 28.7048 28.2505 28.7041C28.325 28.7035 28.3968 28.7321 28.4504 28.7839L29.7769 30.1111C29.8166 30.1509 29.8437 30.2016 29.8546 30.2567C29.8656 30.3119 29.86 30.3691 29.8385 30.421C29.8169 30.473 29.7805 30.5174 29.7338 30.5487C29.6871 30.5799 29.6321 30.5966 29.5759 30.5966Z" fill="#0CBC8B"/>
<path d="M28.249 30.5966C28.1928 30.5966 28.1379 30.5799 28.0911 30.5487C28.0444 30.5174 28.008 30.473 27.9865 30.421C27.965 30.3691 27.9593 30.3119 27.9703 30.2567C27.9813 30.2016 28.0083 30.1509 28.0481 30.1111L29.3745 28.7839C29.4281 28.7321 29.4999 28.7035 29.5744 28.7041C29.649 28.7048 29.7202 28.7347 29.7729 28.7874C29.8256 28.8401 29.8555 28.9115 29.8562 28.986C29.8568 29.0606 29.8282 29.1324 29.7764 29.1861L28.45 30.5133C28.4236 30.5397 28.3923 30.5607 28.3578 30.575C28.3233 30.5893 28.2863 30.5967 28.249 30.5966Z" fill="#0CBC8B"/>
<path d="M67.5544 43.2819L67.1758 44.1509L69.5059 45.1673L69.8845 44.2983L67.5544 43.2819Z" fill="#0CBC8B"/>
<path d="M68.2892 19.9839L66.0977 21.2725L66.5777 22.0898L68.7692 20.8013L68.2892 19.9839Z" fill="#0CBC8B"/>
<path d="M31.7701 22.1904L31.4766 23.0918L33.8935 23.8798L34.187 22.9784L31.7701 22.1904Z" fill="#0CBC8B"/>
<path d="M34.6013 37.3085L32.5195 38.7659L33.0624 39.5423L35.1442 38.0849L34.6013 37.3085Z" fill="#0CBC8B"/>
<path d="M72.7823 33.9679L72.6953 34.9119L75.1712 35.1402L75.2582 34.1962L72.7823 33.9679Z" fill="#0CBC8B"/>
<path d="M75.3056 27.1773C75.2682 27.1774 75.2312 27.17 75.1968 27.1557C75.1623 27.1414 75.1309 27.1205 75.1046 27.094L73.7782 25.7668C73.751 25.7406 73.7294 25.7092 73.7145 25.6745C73.6996 25.6398 73.6917 25.6025 73.6914 25.5647C73.6911 25.5269 73.6983 25.4895 73.7126 25.4545C73.7269 25.4196 73.748 25.3878 73.7747 25.3611C73.8013 25.3344 73.8331 25.3133 73.868 25.299C73.9029 25.2847 73.9404 25.2775 73.9781 25.2778C74.0158 25.2782 74.0531 25.286 74.0878 25.3009C74.1225 25.3158 74.1539 25.3375 74.1801 25.3647L75.5065 26.6919C75.5462 26.7316 75.5733 26.7823 75.5843 26.8375C75.5952 26.8926 75.5896 26.9498 75.5681 27.0018C75.5466 27.0537 75.5102 27.0981 75.4634 27.1294C75.4167 27.1606 75.3618 27.1773 75.3056 27.1773Z" fill="#0CBC8B"/>
<path d="M73.9795 27.1773C73.9233 27.1773 73.8683 27.1606 73.8216 27.1294C73.7749 27.0981 73.7385 27.0537 73.7169 27.0018C73.6954 26.9498 73.6898 26.8926 73.7008 26.8375C73.7117 26.7823 73.7388 26.7316 73.7785 26.6919L75.1049 25.3647C75.1312 25.3375 75.1625 25.3158 75.1972 25.3009C75.2319 25.286 75.2692 25.2782 75.3069 25.2778C75.3447 25.2775 75.3821 25.2847 75.417 25.299C75.4519 25.3133 75.4837 25.3344 75.5104 25.3611C75.5371 25.3878 75.5582 25.4196 75.5724 25.4545C75.5867 25.4895 75.5939 25.5269 75.5936 25.5647C75.5933 25.6025 75.5854 25.6398 75.5705 25.6745C75.5556 25.7092 75.534 25.7406 75.5068 25.7668L74.1804 27.094C74.1541 27.1204 74.1228 27.1414 74.0883 27.1557C74.0538 27.17 74.0168 27.1774 73.9795 27.1773Z" fill="#0CBC8B"/>
<path opacity="0.4" d="M51.9543 47.6861C60.3018 47.6861 67.0688 40.9152 67.0688 32.5628C67.0688 24.2104 60.3018 17.4395 51.9543 17.4395C43.6068 17.4395 36.8398 24.2104 36.8398 32.5628C36.8398 40.9152 43.6068 47.6861 51.9543 47.6861Z" fill="#0CBC8B"/>
<path d="M51.9571 43.1392C57.7949 43.1392 62.5274 38.4039 62.5274 32.5626C62.5274 26.7214 57.7949 21.9861 51.9571 21.9861C46.1192 21.9861 41.3867 26.7214 41.3867 32.5626C41.3867 38.4039 46.1192 43.1392 51.9571 43.1392Z" fill="#0CBC8B"/>
<path d="M49.7938 37.1003C49.7108 37.1003 49.6286 37.0835 49.5523 37.051C49.476 37.0184 49.407 36.9706 49.3496 36.9107L45.9851 33.4071C45.9281 33.349 45.8831 33.2801 45.8528 33.2045C45.8225 33.1288 45.8075 33.0479 45.8087 32.9664C45.8098 32.8849 45.8271 32.8045 45.8596 32.7297C45.892 32.655 45.939 32.5874 45.9977 32.531C46.0565 32.4745 46.1258 32.4302 46.2017 32.4008C46.2777 32.3713 46.3587 32.3572 46.4401 32.3593C46.5215 32.3613 46.6017 32.3796 46.6761 32.4129C46.7504 32.4462 46.8174 32.4939 46.8732 32.5533L49.8254 35.6274L57.5437 28.6996C57.6037 28.6446 57.6741 28.6021 57.7506 28.5745C57.8272 28.547 57.9084 28.5348 57.9897 28.5388C58.0709 28.5429 58.1506 28.563 58.2241 28.598C58.2975 28.633 58.3633 28.6822 58.4177 28.7428C58.472 28.8034 58.5138 28.8742 58.5406 28.951C58.5675 29.0279 58.5788 29.1093 58.574 29.1906C58.5693 29.2718 58.5484 29.3513 58.5127 29.4245C58.477 29.4977 58.4272 29.5631 58.3661 29.6168L50.205 36.9424C50.0921 37.0441 49.9456 37.1003 49.7938 37.1003Z" fill="white"/>
<path d="M86.7595 7.77247V10.6342H17.1523V7.77247C17.1523 7.01819 17.4518 6.29481 17.9848 5.76145C18.5179 5.2281 19.2408 4.92847 19.9947 4.92847H83.9172C84.671 4.92847 85.394 5.2281 85.927 5.76145C86.4601 6.29481 86.7595 7.01819 86.7595 7.77247Z" fill="#292A2E"/>
<path d="M4.1422 57.7887C3.56983 57.7886 3.00596 57.6501 2.49856 57.3851C1.99117 57.1201 1.55528 56.7363 1.228 56.2665C0.90071 55.7966 0.691714 55.2546 0.618795 54.6866C0.545876 54.1186 0.611193 53.5413 0.809187 53.0039C1.01014 52.4584 6.16462 39.1448 7.06232 36.8311L13.2653 40.4429C12.7608 41.7441 10.9328 46.6756 9.46429 50.6483L11.9041 50.3828L12.672 56.8824L4.52715 57.7684C4.39929 57.7821 4.27079 57.7889 4.1422 57.7887Z" fill="#367CFF"/>
<path d="M8.39981 57.9944L7.31641 63.3903H28.3591L27.147 57.8918L8.39981 57.9944Z" fill="#262626"/>
<path d="M24.433 34.0624C24.4112 34.0596 23.8143 36.3073 19.1557 35.9575C15.9306 35.7157 15.1442 33.5192 15.0703 33.5192C15.418 33.4453 15.9827 33.3685 16.1371 33.286C16.645 33.013 17.0148 32.6806 17.2011 31.9673C17.3467 31.4095 17.4209 29.2622 17.4209 28.1848L22.3836 29.3006C22.3145 30.5159 21.8303 33.3334 23.5272 33.8321C23.8095 33.9145 24.1137 33.9904 24.433 34.0624Z" fill="#E98862"/>
<path d="M22.2095 31.6899C20.2531 31.8445 17.7399 31.0179 17.2625 28.4062L16.8318 26.0496C16.3543 23.4379 17.3384 21.0698 19.796 20.62C22.2536 20.1703 24.4776 21.9513 24.955 24.5631L25.1457 25.6064C25.3285 26.6085 25.6998 31.4144 22.2095 31.6899Z" fill="#E98862"/>
<path d="M12.951 33.8807C11.1929 34.0112 9.40028 34.2017 8.10664 35.4001C6.54866 36.8433 6.26632 38.6179 7.26029 43.5014C8.11545 47.7034 7.77627 49.5396 8.34834 57.2935C8.3652 57.5219 8.4013 57.9943 8.4013 57.9943L27.2081 57.9631C27.2081 57.9631 28.9703 47.6757 29.9433 42.9309C30.6831 39.3237 32.6265 34.9446 24.4325 34.0621C24.4109 34.0597 17.8392 33.5178 12.951 33.8807Z" fill="#367CFF"/>
<path d="M8.39853 58.0418C8.38627 58.0418 8.37448 58.0371 8.36565 58.0286C8.35682 58.0201 8.35162 58.0085 8.35115 57.9962L7.76175 42.6884C7.76129 42.6759 7.76583 42.6636 7.77438 42.6544C7.78292 42.6452 7.79477 42.6398 7.80732 42.6393C7.8136 42.6388 7.81991 42.6396 7.82586 42.6417C7.83181 42.6437 7.83727 42.647 7.8419 42.6513C7.84652 42.6555 7.8502 42.6607 7.85272 42.6665C7.85523 42.6723 7.85652 42.6785 7.85649 42.6848L8.4459 57.9926C8.44636 58.0052 8.44182 58.0174 8.43327 58.0266C8.42473 58.0358 8.41288 58.0413 8.40033 58.0417L8.39853 58.0418Z" fill="#0C0C0C"/>
<path d="M38.5785 39.3465L39.8998 36.3808C39.9289 36.3157 39.9711 36.2573 40.024 36.2094C40.0768 36.1615 40.139 36.1251 40.2067 36.1026C40.2744 36.08 40.346 36.0718 40.4169 36.0785C40.4879 36.0852 40.5568 36.1066 40.619 36.1414C40.7321 36.2091 40.816 36.3165 40.8544 36.4426C40.8928 36.5687 40.883 36.7046 40.8269 36.8239L40.5436 37.4598L42.3519 35.8692C42.5498 35.6891 42.9081 35.5943 43.0956 35.8298C43.1737 35.9157 43.2204 36.0256 43.2281 36.1415C43.2357 36.2573 43.2039 36.3724 43.1378 36.4679C43.14 36.4693 43.142 36.4709 43.1438 36.4728C43.1449 36.4744 43.1459 36.4761 43.1468 36.4779L43.4521 36.1999C43.5086 36.1484 43.576 36.1102 43.6492 36.0881C43.7224 36.0659 43.7996 36.0604 43.8752 36.0719C43.9507 36.0834 44.0228 36.1116 44.0861 36.1545C44.1494 36.1974 44.2024 36.2539 44.2411 36.3199C44.3 36.425 44.321 36.5472 44.3007 36.666C44.2803 36.7848 44.2198 36.893 44.1293 36.9725L43.9994 37.0908C44.001 37.0961 44.0017 37.1017 44.0015 37.1073C44.1078 37.0477 44.2318 37.028 44.3514 37.0515C44.471 37.075 44.5782 37.1403 44.6541 37.2358C44.734 37.3426 44.7707 37.4757 44.7569 37.6084C44.7431 37.7412 44.6797 37.8638 44.5795 37.9519L44.2574 38.2458C44.2649 38.2448 44.2725 38.2457 44.2796 38.2483C44.2867 38.2508 44.293 38.2551 44.2981 38.2606C44.3039 38.2675 44.3076 38.2759 44.3087 38.2848C44.418 38.2581 44.5332 38.2681 44.6364 38.3132C44.7395 38.3583 44.8251 38.436 44.8798 38.5345C44.9352 38.6392 44.9536 38.7595 44.9321 38.8759C44.9107 38.9924 44.8505 39.0981 44.7614 39.1761L42.039 41.6562C41.6581 42.0031 41.1823 42.2284 40.6727 42.303C40.163 42.3777 39.6427 42.2984 39.1784 42.0752C38.7781 41.8828 38.4685 41.5418 38.3154 41.1246C38.1624 40.7075 38.178 40.247 38.3588 39.8411L38.5785 39.3465Z" fill="#E98862"/>
<g opacity="0.2">
<path opacity="0.2" d="M41.356 38.0507C41.3644 38.0598 41.3761 38.0653 41.3885 38.066C41.4009 38.0666 41.413 38.0623 41.4223 38.0541L43.1401 36.5393C43.1448 36.5351 43.1486 36.5301 43.1513 36.5246C43.1541 36.519 43.1557 36.5129 43.1561 36.5067C43.1565 36.5005 43.1556 36.4942 43.1536 36.4883C43.1516 36.4824 43.1484 36.477 43.1443 36.4723C43.1402 36.4677 43.1352 36.4639 43.1296 36.4611C43.124 36.4584 43.1179 36.4568 43.1117 36.4564C43.1055 36.456 43.0993 36.4568 43.0934 36.4589C43.0875 36.4609 43.0821 36.464 43.0774 36.4682L41.3598 37.9829C41.3551 37.987 41.3513 37.992 41.3486 37.9976C41.3458 38.0032 41.3442 38.0093 41.3438 38.0155C41.3435 38.0217 41.3443 38.0279 41.3463 38.0338C41.3483 38.0397 41.3515 38.0451 41.3556 38.0498L41.356 38.0507Z" fill="#0C0C0C"/>
</g>
<g opacity="0.2">
<path opacity="0.2" d="M42.0007 38.8274C42.0091 38.8365 42.0208 38.842 42.0332 38.8426C42.0456 38.8432 42.0578 38.8389 42.067 38.8307L43.9841 37.1402C43.9888 37.1361 43.9926 37.1311 43.9953 37.1255C43.9981 37.1199 43.9997 37.1138 44 37.1076C44.0004 37.1014 43.9996 37.0952 43.9976 37.0893C43.9956 37.0834 43.9924 37.0779 43.9883 37.0733C43.9797 37.0642 43.9681 37.0587 43.9557 37.058C43.9432 37.0572 43.931 37.0612 43.9214 37.0691L42.0043 38.7596C41.9997 38.7637 41.9958 38.7687 41.9931 38.7743C41.9904 38.7799 41.9888 38.786 41.9884 38.7922C41.988 38.7984 41.9888 38.8046 41.9908 38.8105C41.9929 38.8164 41.996 38.8218 42.0001 38.8265L42.0007 38.8274Z" fill="#0C0C0C"/>
</g>
<g opacity="0.2">
<path opacity="0.2" d="M42.6999 39.6722C42.7083 39.6814 42.72 39.6869 42.7324 39.6875C42.7448 39.6881 42.757 39.6839 42.7663 39.6756L44.2954 38.3272C44.3049 38.3189 44.3106 38.3071 44.3114 38.2946C44.3122 38.282 44.308 38.2697 44.2996 38.2602C44.2913 38.2508 44.2796 38.245 44.267 38.2442C44.2545 38.2434 44.2421 38.2477 44.2327 38.256L42.7035 39.6045C42.6989 39.6086 42.6951 39.6136 42.6923 39.6192C42.6896 39.6248 42.688 39.6309 42.6876 39.6371C42.6872 39.6433 42.688 39.6496 42.6901 39.6555C42.6921 39.6614 42.6952 39.6668 42.6994 39.6715L42.6999 39.6722Z" fill="#0C0C0C"/>
</g>
<path d="M24.0257 29.2921C23.6746 27.5266 23.5136 26.3487 23.5322 25.1059C24.0269 24.2378 23.8968 23.2414 23.7843 22.8108C24.2691 23.0755 24.4719 23.1047 24.9282 23.1047C24.9282 23.1047 24.1102 19.8198 21.3298 18.9359C20.8182 18.7368 19.5132 18.4853 17.7799 18.7231C16.3057 18.9254 12.6717 20.0284 12.1521 24.122V24.1244C12.1348 24.2601 11.786 28.0317 11.0904 29.8414C10.1551 32.2741 8.84236 33.03 8.87562 35.8367C8.91844 39.4471 15.5519 39.9277 19.5533 39.6572C23.5548 39.3866 25.7875 38.0708 25.8167 35.4689C25.8489 32.5537 24.7284 32.8245 24.0257 29.2921Z" fill="#0A0A0A"/>
<path d="M24.0237 27.8122C23.2768 27.9488 22.5252 27.2601 22.3887 26.5129C22.2521 25.7657 22.7821 25.2426 23.529 25.106L24.0237 27.8122Z" fill="#E98862"/>
<path d="M32.0598 57.2505C31.3086 57.2503 30.5766 57.0121 29.9691 56.5699C29.3616 56.1277 28.9098 55.5042 28.6784 54.7891L23.7422 39.5136L30.5033 37.3262L33.0993 45.3608L37.5858 38.2219L43.6012 42.0066L35.0667 55.5877C34.7469 56.0966 34.3033 56.5161 33.7774 56.8068C33.2516 57.0976 32.6606 57.2503 32.0598 57.2505Z" fill="#367CFF"/>
<path d="M28.0748 53.033C28.0718 53.033 28.0689 53.0328 28.066 53.0322C28.0537 53.0299 28.0428 53.0228 28.0357 53.0125C28.0285 53.0021 28.0258 52.9893 28.0281 52.977L29.7062 43.8628C29.7084 43.8504 29.7155 43.8395 29.7259 43.8324C29.7362 43.8252 29.749 43.8225 29.7613 43.8248C29.7737 43.827 29.7847 43.8341 29.7918 43.8445C29.7989 43.8548 29.8017 43.8676 29.7994 43.88L28.1214 52.9942C28.1194 53.0051 28.1136 53.015 28.1051 53.0221C28.0966 53.0291 28.0858 53.033 28.0748 53.033Z" fill="#0C0C0C"/>
<path d="M33.7002 47.5124C33.6897 47.5124 33.6795 47.5089 33.6712 47.5025C33.6629 47.4961 33.6569 47.4871 33.6543 47.4769L33.0953 45.3225C33.0937 45.3165 33.0933 45.3102 33.0942 45.304C33.0951 45.2979 33.0971 45.2919 33.1003 45.2866C33.1034 45.2812 33.1076 45.2765 33.1126 45.2727C33.1176 45.269 33.1232 45.2663 33.1292 45.2647C33.1353 45.2631 33.1415 45.2628 33.1477 45.2636C33.1538 45.2645 33.1598 45.2666 33.1651 45.2697C33.1705 45.2729 33.1752 45.2771 33.1789 45.282C33.1827 45.287 33.1854 45.2927 33.187 45.2987L33.746 47.4531C33.7491 47.4653 33.7473 47.4782 33.7409 47.489C33.7345 47.4999 33.7241 47.5077 33.712 47.5108C33.7081 47.5119 33.7042 47.5124 33.7002 47.5124Z" fill="#0C0C0C"/>
<path d="M2.74709 63.485H97.4576C97.4827 63.485 97.5068 63.475 97.5246 63.4572C97.5423 63.4395 97.5523 63.4153 97.5523 63.3902C97.5523 63.3651 97.5423 63.341 97.5246 63.3232C97.5068 63.3054 97.4827 63.2954 97.4576 63.2954H2.74709C2.72196 63.2954 2.69786 63.3054 2.68009 63.3232C2.66233 63.341 2.65234 63.3651 2.65234 63.3902C2.65234 63.4153 2.66233 63.4395 2.68009 63.4572C2.69786 63.475 2.72196 63.485 2.74709 63.485Z" fill="#292A2E"/>
<path d="M75.2488 31.6599L93.3776 31.6599C94.3341 31.6599 95.1094 30.8841 95.1094 29.9272V18.0392C95.1094 17.0823 94.3341 16.3065 93.3776 16.3065H75.2488C74.2924 16.3065 73.5171 17.0823 73.5171 18.0392V29.9272C73.5171 30.8841 74.2924 31.6599 75.2488 31.6599Z" fill="#292A2E"/>
<path d="M78.4253 18.4453H76.1616C75.7703 18.4453 75.4531 18.7627 75.4531 19.1542V20.4734C75.4531 20.8649 75.7703 21.1823 76.1616 21.1823H78.4253C78.8166 21.1823 79.1338 20.8649 79.1338 20.4734V19.1542C79.1338 18.7627 78.8166 18.4453 78.4253 18.4453Z" fill="white"/>
<path d="M79.1356 18.749V19.3912H77.8886L77.6875 19.1904V18.4458H78.8322C78.872 18.4458 78.9114 18.4536 78.9482 18.4688C78.985 18.484 79.0185 18.5064 79.0466 18.5345C79.0748 18.5627 79.0972 18.5961 79.1124 18.6329C79.1277 18.6697 79.1356 18.7091 79.1356 18.749Z" fill="#0CBC8B"/>
<path d="M79.1356 20.2363V20.8785C79.1356 20.959 79.1036 21.0362 79.0468 21.093C78.9899 21.1499 78.9128 21.1819 78.8324 21.1819H77.6875V20.4172L77.8886 20.2361L79.1356 20.2363Z" fill="#0CBC8B"/>
<path d="M76.8811 18.4453V19.1903L76.7001 19.3915H75.4531V18.7492C75.4531 18.7094 75.461 18.67 75.4762 18.6332C75.4914 18.5963 75.5138 18.5629 75.5419 18.5347C75.5701 18.5066 75.6035 18.4842 75.6403 18.469C75.6771 18.4537 75.7165 18.4459 75.7563 18.4459L76.8811 18.4453Z" fill="#0CBC8B"/>
<path d="M76.8808 20.4175V21.1822H75.7563C75.7165 21.1822 75.6771 21.1744 75.6403 21.1591C75.6035 21.1439 75.5701 21.1215 75.5419 21.0933C75.5138 21.0652 75.4914 21.0317 75.4762 20.9949C75.461 20.9581 75.4531 20.9187 75.4531 20.8788V20.2366H76.7001L76.8808 20.4175Z" fill="#0CBC8B"/>
<path d="M93.429 28.6114C93.429 29.0384 93.2595 29.4479 92.9578 29.7498C92.656 30.0518 92.2467 30.2214 91.82 30.2214C91.3932 30.2214 90.984 30.0518 90.6822 29.7498C90.3805 29.4479 90.2109 29.0384 90.2109 28.6114C90.2112 28.3714 90.2656 28.1346 90.3701 27.9185C90.4745 27.7025 90.6264 27.5128 90.8144 27.3637C91.0495 27.1713 91.3344 27.0498 91.636 27.0133C91.9375 26.9768 92.2432 27.0269 92.5173 27.1577C92.7915 27.2885 93.0228 27.4946 93.1843 27.752C93.3458 28.0094 93.4308 28.3075 93.4293 28.6114H93.429Z" fill="white"/>
<path d="M90.2119 29.8592C89.976 30.0516 89.6904 30.1732 89.3882 30.2098C89.086 30.2464 88.7797 30.1964 88.5048 30.0658C88.2298 29.9352 87.9975 29.7292 87.8349 29.4717C87.6723 29.2143 87.5859 28.916 87.5859 28.6115C87.5859 28.3069 87.6723 28.0086 87.8349 27.7512C87.9975 27.4937 88.2298 27.2878 88.5048 27.1571C88.7797 27.0265 89.086 26.9765 89.3882 27.0131C89.6904 27.0497 89.976 27.1713 90.2119 27.3637C89.8499 27.6656 89.688 28.1083 89.688 28.6114C89.688 29.1145 89.8496 29.5774 90.2119 29.8592Z" fill="#0CBC8B"/>
<path d="M78.9577 23.3906H75.7491C75.5856 23.3906 75.4531 23.5232 75.4531 23.6868V23.6869C75.4531 23.8504 75.5856 23.983 75.7491 23.983H78.9577C79.1212 23.983 79.2537 23.8504 79.2537 23.6869V23.6868C79.2537 23.5232 79.1212 23.3906 78.9577 23.3906Z" fill="white"/>
<path d="M83.6843 23.3906H80.4757C80.3122 23.3906 80.1797 23.5232 80.1797 23.6868V23.6869C80.1797 23.8504 80.3122 23.983 80.4757 23.983H83.6843C83.8478 23.983 83.9803 23.8504 83.9803 23.6869V23.6868C83.9803 23.5232 83.8478 23.3906 83.6843 23.3906Z" fill="white"/>
<path d="M88.4069 23.3906H85.1983C85.0349 23.3906 84.9023 23.5232 84.9023 23.6868V23.6869C84.9023 23.8504 85.0349 23.983 85.1983 23.983H88.4069C88.5704 23.983 88.7029 23.8504 88.7029 23.6869V23.6868C88.7029 23.5232 88.5704 23.3906 88.4069 23.3906Z" fill="white"/>
<path d="M93.1335 23.3906H89.9249C89.7614 23.3906 89.6289 23.5232 89.6289 23.6868V23.6869C89.6289 23.8504 89.7614 23.983 89.9249 23.983H93.1335C93.297 23.983 93.4295 23.8504 93.4295 23.6869V23.6868C93.4295 23.5232 93.297 23.3906 93.1335 23.3906Z" fill="white"/>
</g>
<defs>
<clipPath id="clip0_514_6371">
<rect width="100.41" height="63.3022" fill="white" transform="translate(0.589844 0.182861)"/>
</clipPath>
</defs>
</svg>
