<svg width="272" height="29" viewBox="0 0 272 29" fill="none" xmlns="http://www.w3.org/2000/svg">
<rect x="8.37109" y="16.4424" width="0.9625" height="12.0505" fill="#094B59"/>
<rect x="100.77" y="16.4424" width="0.9625" height="12.0505" fill="#094B59"/>
<rect x="193.172" y="16.4424" width="0.9625" height="12.0505" fill="#094B59"/>
<rect x="54.5703" y="16.4424" width="0.9625" height="12.0505" fill="#094B59"/>
<rect x="146.973" y="16.4424" width="0.9625" height="12.0505" fill="#094B59"/>
<rect x="239.371" y="16.4424" width="0.9625" height="12.0505" fill="#094B59"/>
<rect x="31.4727" y="16.4424" width="0.9625" height="12.0505" fill="#094B59"/>
<rect x="123.871" y="16.4424" width="0.9625" height="12.0505" fill="#094B59"/>
<rect x="216.27" y="16.4424" width="0.9625" height="12.0505" fill="#094B59"/>
<rect x="77.6719" y="16.4424" width="0.9625" height="12.0505" fill="#094B59"/>
<rect x="170.07" y="16.4424" width="0.9625" height="12.0505" fill="#094B59"/>
<rect x="262.473" y="16.4424" width="0.9625" height="12.0505" fill="#094B59"/>
<rect x="8.37109" y="23.3589" width="255.063" height="0.988082" fill="#094B59"/>
<path d="M2.56217 0.599121C2.01007 0.599121 1.48058 0.8217 1.09018 1.21789C0.69979 1.61409 0.480469 2.15144 0.480469 2.71174L0.480469 11.1622C0.480469 11.7225 0.69979 12.2599 1.09018 12.6561C1.48058 13.0523 2.01007 13.2748 2.56217 13.2748H5.16429C5.32587 13.2748 5.48524 13.313 5.62977 13.3864C5.7743 13.4597 5.90001 13.5662 5.99697 13.6974L7.97458 16.373C8.07153 16.5042 8.19725 16.6107 8.34177 16.684C8.4863 16.7573 8.64567 16.7955 8.80726 16.7955C8.96884 16.7955 9.12821 16.7573 9.27274 16.684C9.41726 16.6107 9.54298 16.5042 9.63993 16.373L11.6175 13.6974C11.7145 13.5662 11.8402 13.4597 11.9847 13.3864C12.1293 13.313 12.2886 13.2748 12.4502 13.2748H15.0523C15.6044 13.2748 16.1339 13.0523 16.5243 12.6561C16.9147 12.2599 17.134 11.7225 17.134 11.1622V2.71174C17.134 2.15144 16.9147 1.61409 16.5243 1.21789C16.1339 0.8217 15.6044 0.599121 15.0523 0.599121L2.56217 0.599121Z" fill="#094B59"/>
<g clip-path="url(#clip0_1801_4581)">
<path d="M5.87751 7.54567V9.79956H4.55944V3.40255H7.05498C7.53534 3.40255 7.95712 3.49042 8.32032 3.66616C8.68645 3.8419 8.96764 4.09234 9.16389 4.41746C9.36013 4.73965 9.45825 5.10725 9.45825 5.52024C9.45825 6.14705 9.24297 6.64206 8.8124 7.00526C8.38476 7.36553 7.79163 7.54567 7.03301 7.54567H5.87751ZM5.87751 6.47803H7.05498C7.40354 6.47803 7.66861 6.39602 7.85021 6.232C8.03474 6.06797 8.12701 5.83365 8.12701 5.52903C8.12701 5.21562 8.03474 4.96226 7.85021 4.76894C7.66569 4.57563 7.41086 4.47604 7.08574 4.47018H5.87751V6.47803ZM13.4958 9.79956H12.226V4.90514L10.7102 5.37525V4.34277L13.3596 3.39376H13.4958V9.79956Z" fill="white"/>
</g>
<path d="M48.4528 0.599121C47.9007 0.599121 47.3712 0.8217 46.9808 1.21789C46.5904 1.61409 46.3711 2.15144 46.3711 2.71174V11.1622C46.3711 11.7225 46.5904 12.2599 46.9808 12.6561C47.3712 13.0523 47.9007 13.2748 48.4528 13.2748H51.0549C51.2165 13.2748 51.3759 13.313 51.5204 13.3864C51.6649 13.4597 51.7906 13.5662 51.8876 13.6974L53.8652 16.373C53.9622 16.5042 54.0879 16.6107 54.2324 16.684C54.3769 16.7573 54.5363 16.7955 54.6979 16.7955C54.8595 16.7955 55.0188 16.7573 55.1634 16.684C55.3079 16.6107 55.4336 16.5042 55.5306 16.373L57.5082 13.6974C57.6051 13.5662 57.7308 13.4597 57.8754 13.3864C58.0199 13.313 58.1793 13.2748 58.3408 13.2748H60.943C61.4951 13.2748 62.0246 13.0523 62.415 12.6561C62.8053 12.2599 63.0247 11.7225 63.0247 11.1622V2.71174C63.0247 2.15144 62.8053 1.61409 62.415 1.21789C62.0246 0.8217 61.4951 0.599121 60.943 0.599121L48.4528 0.599121Z" fill="#094B59"/>
<g clip-path="url(#clip1_1801_4581)">
<path d="M51.7681 7.54567V9.79956H50.4501V3.40255H52.9456C53.426 3.40255 53.8477 3.49042 54.2109 3.66616C54.5771 3.8419 54.8583 4.09234 55.0545 4.41746C55.2508 4.73965 55.3489 5.10725 55.3489 5.52024C55.3489 6.14705 55.1336 6.64206 54.703 7.00526C54.2754 7.36553 53.6823 7.54567 52.9236 7.54567H51.7681ZM51.7681 6.47803H52.9456C53.2942 6.47803 53.5592 6.39602 53.7408 6.232C53.9254 6.06797 54.0176 5.83365 54.0176 5.52903C54.0176 5.21562 53.9254 4.96226 53.7408 4.76894C53.5563 4.57563 53.3015 4.47604 52.9764 4.47018H51.7681V6.47803ZM60.6869 9.79956H56.3021V8.92964L58.3715 6.72407C58.6556 6.4136 58.865 6.14266 58.9997 5.91127C59.1374 5.67987 59.2062 5.46019 59.2062 5.25223C59.2062 4.96812 59.1345 4.74551 58.991 4.58441C58.8474 4.42039 58.6424 4.33837 58.3759 4.33837C58.0888 4.33837 57.8618 4.43796 57.6949 4.63714C57.5308 4.83338 57.4488 5.0926 57.4488 5.41479H56.1747C56.1747 5.02523 56.267 4.66936 56.4515 4.34716C56.6389 4.02497 56.9026 3.77307 57.2423 3.59147C57.5821 3.40694 57.9673 3.31468 58.3978 3.31468C59.0569 3.31468 59.568 3.47284 59.9312 3.78918C60.2973 4.10552 60.4804 4.55219 60.4804 5.12921C60.4804 5.44555 60.3984 5.76774 60.2343 6.0958C60.0703 6.42385 59.7891 6.80609 59.3908 7.24251L57.9365 8.77586H60.6869V9.79956Z" fill="white"/>
</g>
<path d="M141.132 0.599121C140.58 0.599121 140.051 0.8217 139.66 1.21789C139.27 1.61409 139.051 2.15144 139.051 2.71174V11.1622C139.051 11.7225 139.27 12.2599 139.66 12.6561C140.051 13.0523 140.58 13.2748 141.132 13.2748H143.735C143.896 13.2748 144.056 13.313 144.2 13.3864C144.345 13.4597 144.47 13.5662 144.567 13.6974L146.545 16.373C146.642 16.5042 146.768 16.6107 146.912 16.684C147.057 16.7573 147.216 16.7955 147.378 16.7955C147.539 16.7955 147.699 16.7573 147.843 16.684C147.988 16.6107 148.113 16.5042 148.21 16.373L150.188 13.6974C150.285 13.5662 150.411 13.4597 150.555 13.3864C150.7 13.313 150.859 13.2748 151.021 13.2748H153.623C154.175 13.2748 154.704 13.0523 155.095 12.6561C155.485 12.2599 155.704 11.7225 155.704 11.1622V2.71174C155.704 2.15144 155.485 1.61409 155.095 1.21789C154.704 0.8217 154.175 0.599121 153.623 0.599121L141.132 0.599121Z" fill="#094B59"/>
<g clip-path="url(#clip2_1801_4581)">
<path d="M144.448 7.54567V9.79956H143.13V3.40255H145.625C146.106 3.40255 146.527 3.49042 146.891 3.66616C147.257 3.8419 147.538 4.09234 147.734 4.41746C147.93 4.73965 148.029 5.10725 148.029 5.52024C148.029 6.14705 147.813 6.64206 147.383 7.00526C146.955 7.36553 146.362 7.54567 145.603 7.54567H144.448ZM144.448 6.47803H145.625C145.974 6.47803 146.239 6.39602 146.421 6.232C146.605 6.06797 146.697 5.83365 146.697 5.52903C146.697 5.21562 146.605 4.96226 146.421 4.76894C146.236 4.57563 145.981 4.47604 145.656 4.47018H144.448V6.47803ZM152.738 7.39189H153.463V8.41559H152.738V9.79956H151.469V8.41559H148.846L148.788 7.61596L151.455 3.40255H152.738V7.39189ZM150.054 7.39189H151.469V5.13361L151.385 5.27859L150.054 7.39189Z" fill="white"/>
</g>
<path d="M187.019 0.599121C186.467 0.599121 185.938 0.8217 185.547 1.21789C185.157 1.61409 184.938 2.15144 184.938 2.71174V11.1622C184.938 11.7225 185.157 12.2599 185.547 12.6561C185.938 13.0523 186.467 13.2748 187.019 13.2748H189.621C189.783 13.2748 189.942 13.313 190.087 13.3864C190.231 13.4597 190.357 13.5662 190.454 13.6974L192.432 16.373C192.529 16.5042 192.654 16.6107 192.799 16.684C192.943 16.7573 193.103 16.7955 193.264 16.7955C193.426 16.7955 193.585 16.7573 193.73 16.684C193.874 16.6107 194 16.5042 194.097 16.373L196.075 13.6974C196.172 13.5662 196.297 13.4597 196.442 13.3864C196.586 13.313 196.746 13.2748 196.907 13.2748H199.509C200.061 13.2748 200.591 13.0523 200.981 12.6561C201.372 12.2599 201.591 11.7225 201.591 11.1622V2.71174C201.591 2.15144 201.372 1.61409 200.981 1.21789C200.591 0.8217 200.061 0.599121 199.509 0.599121L187.019 0.599121Z" fill="#094B59"/>
<g clip-path="url(#clip3_1801_4581)">
<path d="M190.335 7.54567V9.79956H189.016V3.40255H191.512C191.992 3.40255 192.414 3.49042 192.777 3.66616C193.143 3.8419 193.425 4.09234 193.621 4.41746C193.817 4.73965 193.915 5.10725 193.915 5.52024C193.915 6.14705 193.7 6.64206 193.269 7.00526C192.842 7.36553 192.249 7.54567 191.49 7.54567H190.335ZM190.335 6.47803H191.512C191.861 6.47803 192.126 6.39602 192.307 6.232C192.492 6.06797 192.584 5.83365 192.584 5.52903C192.584 5.21562 192.492 4.96226 192.307 4.76894C192.123 4.57563 191.868 4.47604 191.543 4.47018H190.335V6.47803ZM195.057 6.65378L195.426 3.40255H199.012V4.46139H196.468L196.31 5.83658C196.611 5.67548 196.932 5.59493 197.272 5.59493C197.881 5.59493 198.358 5.78385 198.704 6.1617C199.05 6.53954 199.223 7.06824 199.223 7.74777C199.223 8.16077 199.135 8.53129 198.959 8.85934C198.786 9.18446 198.537 9.43782 198.212 9.61942C197.887 9.7981 197.503 9.88743 197.061 9.88743C196.674 9.88743 196.315 9.80981 195.984 9.65457C195.653 9.49641 195.391 9.27526 195.198 8.99115C195.008 8.70703 194.907 8.38337 194.895 8.02017H196.151C196.178 8.28671 196.27 8.49468 196.428 8.64406C196.589 8.79051 196.799 8.86373 197.057 8.86373C197.344 8.86373 197.565 8.76122 197.72 8.55619C197.875 8.34822 197.953 8.05532 197.953 7.67747C197.953 7.31427 197.863 7.03602 197.685 6.8427C197.506 6.64938 197.253 6.55272 196.925 6.55272C196.623 6.55272 196.378 6.63181 196.191 6.78998L196.068 6.90421L195.057 6.65378Z" fill="white"/>
</g>
<path d="M257.207 0.599121C256.655 0.599121 256.125 0.8217 255.735 1.21789C255.344 1.61409 255.125 2.15144 255.125 2.71174V11.1622C255.125 11.7225 255.344 12.2599 255.735 12.6561C256.125 13.0523 256.655 13.2748 257.207 13.2748H259.809C259.97 13.2748 260.13 13.313 260.274 13.3864C260.419 13.4597 260.545 13.5662 260.641 13.6974L262.619 16.373C262.716 16.5042 262.842 16.6107 262.986 16.684C263.131 16.7573 263.29 16.7955 263.452 16.7955C263.613 16.7955 263.773 16.7573 263.917 16.684C264.062 16.6107 264.188 16.5042 264.284 16.373L266.262 13.6974C266.359 13.5662 266.485 13.4597 266.629 13.3864C266.774 13.313 266.933 13.2748 267.095 13.2748H269.697C270.249 13.2748 270.778 13.0523 271.169 12.6561C271.559 12.2599 271.779 11.7225 271.779 11.1622V2.71174C271.779 2.15144 271.559 1.61409 271.169 1.21789C270.778 0.8217 270.249 0.599121 269.697 0.599121L257.207 0.599121Z" fill="#094B59"/>
<g clip-path="url(#clip4_1801_4581)">
<path d="M260.522 7.54567V9.79956H259.204V3.40255H261.7C262.18 3.40255 262.602 3.49042 262.965 3.66616C263.331 3.8419 263.612 4.09234 263.808 4.41746C264.005 4.73965 264.103 5.10725 264.103 5.52024C264.103 6.14705 263.888 6.64206 263.457 7.00526C263.029 7.36553 262.436 7.54567 261.678 7.54567H260.522ZM260.522 6.47803H261.7C262.048 6.47803 262.313 6.39602 262.495 6.232C262.679 6.06797 262.772 5.83365 262.772 5.52903C262.772 5.21562 262.679 4.96226 262.495 4.76894C262.31 4.57563 262.055 4.47604 261.73 4.47018H260.522V6.47803ZM268.501 3.33664V4.38231H268.378C267.803 4.3911 267.341 4.54048 266.989 4.83045C266.641 5.12043 266.431 5.52317 266.361 6.03868C266.701 5.69305 267.13 5.52024 267.648 5.52024C268.205 5.52024 268.647 5.71941 268.975 6.11776C269.303 6.51611 269.467 7.04041 269.467 7.69066C269.467 8.10658 269.376 8.48296 269.195 8.8198C269.016 9.15664 268.761 9.41879 268.43 9.60624C268.102 9.7937 267.73 9.88743 267.314 9.88743C266.641 9.88743 266.096 9.65311 265.68 9.18446C265.267 8.71582 265.06 8.09047 265.06 7.30842V6.85149C265.06 6.15731 265.191 5.54514 265.451 5.01498C265.715 4.4819 266.091 4.07037 266.581 3.78039C267.073 3.48749 267.642 3.33957 268.29 3.33664H268.501ZM267.262 6.53954C267.057 6.53954 266.871 6.59373 266.704 6.70211C266.537 6.80755 266.414 6.94814 266.335 7.12389V7.51052C266.335 7.93523 266.418 8.26768 266.585 8.50786C266.752 8.74511 266.986 8.86373 267.288 8.86373C267.56 8.86373 267.78 8.75682 267.947 8.543C268.117 8.32626 268.202 8.04653 268.202 7.70384C268.202 7.35528 268.117 7.07409 267.947 6.86027C267.777 6.64645 267.549 6.53954 267.262 6.53954Z" fill="white"/>
</g>
<path d="M95.2419 0.599121C94.6898 0.599121 94.1603 0.8217 93.7699 1.21789C93.3795 1.61409 93.1602 2.15144 93.1602 2.71174V11.1622C93.1602 11.7225 93.3795 12.2599 93.7699 12.6561C94.1603 13.0523 94.6898 13.2748 95.2419 13.2748H97.844C98.0056 13.2748 98.1649 13.313 98.3095 13.3864C98.454 13.4597 98.5797 13.5662 98.6767 13.6974L100.654 16.373C100.751 16.5042 100.877 16.6107 101.021 16.684C101.166 16.7573 101.325 16.7955 101.487 16.7955C101.649 16.7955 101.808 16.7573 101.952 16.684C102.097 16.6107 102.223 16.5042 102.32 16.373L104.297 13.6974C104.394 13.5662 104.52 13.4597 104.664 13.3864C104.809 13.313 104.968 13.2748 105.13 13.2748H107.732C108.284 13.2748 108.814 13.0523 109.204 12.6561C109.594 12.2599 109.814 11.7225 109.814 11.1622V2.71174C109.814 2.15144 109.594 1.61409 109.204 1.21789C108.814 0.8217 108.284 0.599121 107.732 0.599121L95.2419 0.599121Z" fill="#094B59"/>
<g clip-path="url(#clip5_1801_4581)">
<path d="M98.5572 7.54567V9.79956H97.2391V3.40255H99.7347C100.215 3.40255 100.637 3.49042 101 3.66616C101.366 3.8419 101.647 4.09234 101.844 4.41746C102.04 4.73965 102.138 5.10725 102.138 5.52024C102.138 6.14705 101.923 6.64206 101.492 7.00526C101.064 7.36553 100.471 7.54567 99.7127 7.54567H98.5572ZM98.5572 6.47803H99.7347C100.083 6.47803 100.348 6.39602 100.53 6.232C100.714 6.06797 100.807 5.83365 100.807 5.52903C100.807 5.21562 100.714 4.96226 100.53 4.76894C100.345 4.57563 100.091 4.47604 99.7654 4.47018H98.5572V6.47803ZM104.383 6.03868H105.059C105.382 6.03868 105.62 5.95813 105.776 5.79703C105.931 5.63594 106.008 5.42212 106.008 5.15558C106.008 4.89782 105.931 4.69718 105.776 4.55366C105.623 4.41014 105.412 4.33837 105.143 4.33837C104.9 4.33837 104.696 4.40574 104.532 4.54048C104.368 4.67228 104.286 4.8451 104.286 5.05892H103.016C103.016 4.72501 103.106 4.42625 103.284 4.16263C103.466 3.89609 103.718 3.68813 104.04 3.53875C104.365 3.38937 104.723 3.31468 105.112 3.31468C105.789 3.31468 106.319 3.47724 106.703 3.80236C107.086 4.12455 107.278 4.56977 107.278 5.138C107.278 5.4309 107.189 5.70038 107.01 5.94641C106.832 6.19245 106.597 6.38138 106.307 6.51318C106.668 6.64206 106.936 6.83538 107.111 7.09313C107.29 7.35089 107.379 7.65551 107.379 8.00699C107.379 8.57522 107.171 9.03069 106.755 9.37339C106.342 9.71608 105.795 9.88743 105.112 9.88743C104.474 9.88743 103.951 9.71901 103.544 9.38217C103.139 9.04533 102.937 8.60012 102.937 8.04653H104.207C104.207 8.28671 104.296 8.48296 104.475 8.63527C104.657 8.78758 104.879 8.86373 105.143 8.86373C105.445 8.86373 105.68 8.78465 105.85 8.62648C106.023 8.46538 106.11 8.25303 106.11 7.98942C106.11 7.35089 105.758 7.03162 105.055 7.03162H104.383V6.03868Z" fill="white"/>
</g>
<defs>
<clipPath id="clip0_1801_4581">
<rect width="14.0241" height="14.3968" fill="white" transform="translate(2.23438 1.49902)"/>
</clipPath>
<clipPath id="clip1_1801_4581">
<rect width="14.0241" height="14.3968" fill="white" transform="translate(48.125 1.49902)"/>
</clipPath>
<clipPath id="clip2_1801_4581">
<rect width="14.0241" height="14.3968" fill="white" transform="translate(140.805 1.49902)"/>
</clipPath>
<clipPath id="clip3_1801_4581">
<rect width="14.0241" height="14.3968" fill="white" transform="translate(186.691 1.49902)"/>
</clipPath>
<clipPath id="clip4_1801_4581">
<rect width="14.0241" height="14.3968" fill="white" transform="translate(256.879 1.49902)"/>
</clipPath>
<clipPath id="clip5_1801_4581">
<rect width="14.0241" height="14.3968" fill="white" transform="translate(94.9141 1.49902)"/>
</clipPath>
</defs>
</svg>
