<svg width="272" height="29" viewBox="0 0 272 29" fill="none" xmlns="http://www.w3.org/2000/svg">
<rect x="8.37109" y="16.4424" width="0.9625" height="12.0505" fill="#094B59"/>
<rect x="100.77" y="16.4424" width="0.9625" height="12.0505" fill="#094B59"/>
<rect x="193.172" y="16.4424" width="0.9625" height="12.0505" fill="#094B59"/>
<rect x="54.5703" y="16.4424" width="0.9625" height="12.0505" fill="#094B59"/>
<rect x="146.973" y="16.4424" width="0.9625" height="12.0505" fill="#094B59"/>
<rect x="239.371" y="16.4424" width="0.9625" height="12.0505" fill="#094B59"/>
<rect x="31.4727" y="16.4424" width="0.9625" height="12.0505" fill="#094B59"/>
<rect x="123.871" y="16.4424" width="0.9625" height="12.0505" fill="#094B59"/>
<rect x="216.27" y="16.4424" width="0.9625" height="12.0505" fill="#094B59"/>
<rect x="77.6719" y="16.4424" width="0.9625" height="12.0505" fill="#094B59"/>
<rect x="170.07" y="16.4424" width="0.9625" height="12.0505" fill="#094B59"/>
<rect x="262.473" y="16.4424" width="0.9625" height="12.0505" fill="#094B59"/>
<rect x="8.37109" y="23.3589" width="255.063" height="0.988082" fill="#094B59"/>
<path d="M2.56217 0.599121C2.01007 0.599121 1.48058 0.8217 1.09018 1.21789C0.69979 1.61409 0.480469 2.15144 0.480469 2.71174L0.480469 11.1622C0.480469 11.7225 0.69979 12.2599 1.09018 12.6561C1.48058 13.0523 2.01007 13.2748 2.56217 13.2748H5.16429C5.32587 13.2748 5.48524 13.313 5.62977 13.3864C5.7743 13.4597 5.90001 13.5662 5.99697 13.6974L7.97458 16.373C8.07153 16.5042 8.19725 16.6107 8.34177 16.684C8.4863 16.7573 8.64567 16.7955 8.80726 16.7955C8.96884 16.7955 9.12821 16.7573 9.27274 16.684C9.41726 16.6107 9.54298 16.5042 9.63993 16.373L11.6175 13.6974C11.7145 13.5662 11.8402 13.4597 11.9847 13.3864C12.1293 13.313 12.2886 13.2748 12.4502 13.2748H15.0523C15.6044 13.2748 16.1339 13.0523 16.5243 12.6561C16.9147 12.2599 17.134 11.7225 17.134 11.1622V2.71174C17.134 2.15144 16.9147 1.61409 16.5243 1.21789C16.1339 0.8217 15.6044 0.599121 15.0523 0.599121L2.56217 0.599121Z" fill="#094B59"/>
<g clip-path="url(#clip0_1801_1262)">
<path d="M5.87751 7.54567V9.79956H4.55944V3.40255H7.05498C7.53534 3.40255 7.95712 3.49042 8.32032 3.66616C8.68645 3.8419 8.96764 4.09234 9.16389 4.41746C9.36013 4.73965 9.45825 5.10725 9.45825 5.52024C9.45825 6.14705 9.24297 6.64206 8.8124 7.00526C8.38476 7.36553 7.79163 7.54567 7.03301 7.54567H5.87751ZM5.87751 6.47803H7.05498C7.40354 6.47803 7.66861 6.39602 7.85021 6.232C8.03474 6.06797 8.12701 5.83365 8.12701 5.52903C8.12701 5.21562 8.03474 4.96226 7.85021 4.76894C7.66569 4.57563 7.41086 4.47604 7.08574 4.47018H5.87751V6.47803ZM13.4958 9.79956H12.226V4.90514L10.7102 5.37525V4.34277L13.3596 3.39376H13.4958V9.79956Z" fill="white"/>
</g>
<path d="M94.3434 0.599121C93.7913 0.599121 93.2618 0.8217 92.8714 1.21789C92.481 1.61409 92.2617 2.15144 92.2617 2.71174V11.1622C92.2617 11.7225 92.481 12.2599 92.8714 12.6561C93.2618 13.0523 93.7913 13.2748 94.3434 13.2748H96.9455C97.1071 13.2748 97.2665 13.313 97.411 13.3864C97.5555 13.4597 97.6813 13.5662 97.7782 13.6974L99.7558 16.373C99.8528 16.5042 99.9785 16.6107 100.123 16.684C100.268 16.7573 100.427 16.7955 100.589 16.7955C100.75 16.7955 100.909 16.7573 101.054 16.684C101.199 16.6107 101.324 16.5042 101.421 16.373L103.399 13.6974C103.496 13.5662 103.621 13.4597 103.766 13.3864C103.911 13.313 104.07 13.2748 104.231 13.2748H106.834C107.386 13.2748 107.915 13.0523 108.306 12.6561C108.696 12.2599 108.915 11.7225 108.915 11.1622V2.71174C108.915 2.15144 108.696 1.61409 108.306 1.21789C107.915 0.8217 107.386 0.599121 106.834 0.599121L94.3434 0.599121Z" fill="#094B59"/>
<g clip-path="url(#clip1_1801_1262)">
<path d="M97.6588 7.54567V9.79956H96.3407V3.40255H98.8362C99.3166 3.40255 99.7384 3.49042 100.102 3.66616C100.468 3.8419 100.749 4.09234 100.945 4.41746C101.141 4.73965 101.24 5.10725 101.24 5.52024C101.24 6.14705 101.024 6.64206 100.594 7.00526C100.166 7.36553 99.5729 7.54567 98.8143 7.54567H97.6588ZM97.6588 6.47803H98.8362C99.1848 6.47803 99.4499 6.39602 99.6315 6.232C99.816 6.06797 99.9083 5.83365 99.9083 5.52903C99.9083 5.21562 99.816 4.96226 99.6315 4.76894C99.4469 4.57563 99.1921 4.47604 98.867 4.47018H97.6588V6.47803ZM106.577 9.79956H102.193V8.92964L104.262 6.72407C104.546 6.4136 104.756 6.14266 104.89 5.91127C105.028 5.67987 105.097 5.46019 105.097 5.25223C105.097 4.96812 105.025 4.74551 104.882 4.58441C104.738 4.42039 104.533 4.33837 104.266 4.33837C103.979 4.33837 103.752 4.43796 103.585 4.63714C103.421 4.83338 103.339 5.0926 103.339 5.41479H102.065C102.065 5.02523 102.158 4.66936 102.342 4.34716C102.53 4.02497 102.793 3.77307 103.133 3.59147C103.473 3.40694 103.858 3.31468 104.288 3.31468C104.947 3.31468 105.459 3.47284 105.822 3.78918C106.188 4.10552 106.371 4.55219 106.371 5.12921C106.371 5.44555 106.289 5.76774 106.125 6.0958C105.961 6.42385 105.68 6.80609 105.281 7.24251L103.827 8.77586H106.577V9.79956Z" fill="white"/>
</g>
<path d="M256.75 0.599121C256.198 0.599121 255.668 0.8217 255.278 1.21789C254.887 1.61409 254.668 2.15144 254.668 2.71174V11.1622C254.668 11.7225 254.887 12.2599 255.278 12.6561C255.668 13.0523 256.198 13.2748 256.75 13.2748H259.352C259.513 13.2748 259.673 13.313 259.817 13.3864C259.962 13.4597 260.088 13.5662 260.184 13.6974L262.162 16.373C262.259 16.5042 262.385 16.6107 262.529 16.684C262.674 16.7573 262.833 16.7955 262.995 16.7955C263.156 16.7955 263.316 16.7573 263.46 16.684C263.605 16.6107 263.73 16.5042 263.827 16.373L265.805 13.6974C265.902 13.5662 266.028 13.4597 266.172 13.3864C266.317 13.313 266.476 13.2748 266.638 13.2748H269.24C269.792 13.2748 270.321 13.0523 270.712 12.6561C271.102 12.2599 271.322 11.7225 271.322 11.1622V2.71174C271.322 2.15144 271.102 1.61409 270.712 1.21789C270.321 0.8217 269.792 0.599121 269.24 0.599121L256.75 0.599121Z" fill="#094B59"/>
<g clip-path="url(#clip2_1801_1262)">
<path d="M260.065 7.54567V9.79956H258.747V3.40255H261.242C261.723 3.40255 262.145 3.49042 262.508 3.66616C262.874 3.8419 263.155 4.09234 263.351 4.41746C263.548 4.73965 263.646 5.10725 263.646 5.52024C263.646 6.14705 263.43 6.64206 263 7.00526C262.572 7.36553 261.979 7.54567 261.221 7.54567H260.065ZM260.065 6.47803H261.242C261.591 6.47803 261.856 6.39602 262.038 6.232C262.222 6.06797 262.315 5.83365 262.315 5.52903C262.315 5.21562 262.222 4.96226 262.038 4.76894C261.853 4.57563 261.598 4.47604 261.273 4.47018H260.065V6.47803ZM268.355 7.39189H269.08V8.41559H268.355V9.79956H267.086V8.41559H264.463L264.406 7.61596L267.073 3.40255H268.355V7.39189ZM265.671 7.39189H267.086V5.13361L267.002 5.27859L265.671 7.39189Z" fill="white"/>
</g>
<path d="M187.019 0.599121C186.467 0.599121 185.938 0.8217 185.547 1.21789C185.157 1.61409 184.938 2.15144 184.938 2.71174V11.1622C184.938 11.7225 185.157 12.2599 185.547 12.6561C185.938 13.0523 186.467 13.2748 187.019 13.2748H189.621C189.783 13.2748 189.942 13.313 190.087 13.3864C190.231 13.4597 190.357 13.5662 190.454 13.6974L192.432 16.373C192.529 16.5042 192.654 16.6107 192.799 16.684C192.943 16.7573 193.103 16.7955 193.264 16.7955C193.426 16.7955 193.585 16.7573 193.73 16.684C193.874 16.6107 194 16.5042 194.097 16.373L196.075 13.6974C196.172 13.5662 196.297 13.4597 196.442 13.3864C196.586 13.313 196.746 13.2748 196.907 13.2748H199.509C200.061 13.2748 200.591 13.0523 200.981 12.6561C201.372 12.2599 201.591 11.7225 201.591 11.1622V2.71174C201.591 2.15144 201.372 1.61409 200.981 1.21789C200.591 0.8217 200.061 0.599121 199.509 0.599121L187.019 0.599121Z" fill="#094B59"/>
<g clip-path="url(#clip3_1801_1262)">
<path d="M190.335 7.54567V9.79956H189.016V3.40255H191.512C191.992 3.40255 192.414 3.49042 192.777 3.66616C193.143 3.8419 193.425 4.09234 193.621 4.41746C193.817 4.73965 193.915 5.10725 193.915 5.52024C193.915 6.14705 193.7 6.64206 193.269 7.00526C192.842 7.36553 192.249 7.54567 191.49 7.54567H190.335ZM190.335 6.47803H191.512C191.861 6.47803 192.126 6.39602 192.307 6.232C192.492 6.06797 192.584 5.83365 192.584 5.52903C192.584 5.21562 192.492 4.96226 192.307 4.76894C192.123 4.57563 191.868 4.47604 191.543 4.47018H190.335V6.47803ZM196.16 6.03868H196.837C197.159 6.03868 197.398 5.95813 197.553 5.79703C197.708 5.63594 197.786 5.42212 197.786 5.15558C197.786 4.89782 197.708 4.69718 197.553 4.55366C197.401 4.41014 197.19 4.33837 196.92 4.33837C196.677 4.33837 196.474 4.40574 196.31 4.54048C196.146 4.67228 196.064 4.8451 196.064 5.05892H194.794C194.794 4.72501 194.883 4.42625 195.062 4.16263C195.243 3.89609 195.495 3.68813 195.818 3.53875C196.143 3.38937 196.5 3.31468 196.89 3.31468C197.566 3.31468 198.096 3.47724 198.48 3.80236C198.864 4.12455 199.056 4.56977 199.056 5.138C199.056 5.4309 198.966 5.70038 198.788 5.94641C198.609 6.19245 198.375 6.38138 198.085 6.51318C198.445 6.64206 198.713 6.83538 198.889 7.09313C199.067 7.35089 199.157 7.65551 199.157 8.00699C199.157 8.57522 198.949 9.03069 198.533 9.37339C198.12 9.71608 197.572 9.88743 196.89 9.88743C196.251 9.88743 195.728 9.71901 195.321 9.38217C194.917 9.04533 194.715 8.60012 194.715 8.04653H195.984C195.984 8.28671 196.074 8.48296 196.252 8.63527C196.434 8.78758 196.657 8.86373 196.92 8.86373C197.222 8.86373 197.458 8.78465 197.628 8.62648C197.8 8.46538 197.887 8.25303 197.887 7.98942C197.887 7.35089 197.535 7.03162 196.832 7.03162H196.16V6.03868Z" fill="white"/>
</g>
<defs>
<clipPath id="clip0_1801_1262">
<rect width="14.0241" height="14.3968" fill="white" transform="translate(2.23438 1.49902)"/>
</clipPath>
<clipPath id="clip1_1801_1262">
<rect width="14.0241" height="14.3968" fill="white" transform="translate(94.0156 1.49902)"/>
</clipPath>
<clipPath id="clip2_1801_1262">
<rect width="14.0241" height="14.3968" fill="white" transform="translate(256.422 1.49902)"/>
</clipPath>
<clipPath id="clip3_1801_1262">
<rect width="14.0241" height="14.3968" fill="white" transform="translate(186.691 1.49902)"/>
</clipPath>
</defs>
</svg>
