<svg width="272" height="29" viewBox="0 0 272 29" fill="none" xmlns="http://www.w3.org/2000/svg">
<rect x="8.37109" y="16.4424" width="0.9625" height="12.0505" fill="#094B59"/>
<rect x="100.77" y="16.4424" width="0.9625" height="12.0505" fill="#094B59"/>
<rect x="193.172" y="16.4424" width="0.9625" height="12.0505" fill="#094B59"/>
<rect x="54.5703" y="16.4424" width="0.9625" height="12.0505" fill="#094B59"/>
<rect x="146.973" y="16.4424" width="0.9625" height="12.0505" fill="#094B59"/>
<rect x="239.371" y="16.4424" width="0.9625" height="12.0505" fill="#094B59"/>
<rect x="31.4727" y="16.4424" width="0.9625" height="12.0505" fill="#094B59"/>
<rect x="123.871" y="16.4424" width="0.9625" height="12.0505" fill="#094B59"/>
<rect x="216.27" y="16.4424" width="0.9625" height="12.0505" fill="#094B59"/>
<rect x="77.6719" y="16.4424" width="0.9625" height="12.0505" fill="#094B59"/>
<rect x="170.07" y="16.4424" width="0.9625" height="12.0505" fill="#094B59"/>
<rect x="262.473" y="16.4424" width="0.9625" height="12.0505" fill="#094B59"/>
<rect x="8.37109" y="23.3589" width="255.063" height="0.988082" fill="#094B59"/>
<path d="M2.56217 0.599121C2.01007 0.599121 1.48058 0.8217 1.09018 1.21789C0.69979 1.61409 0.480469 2.15144 0.480469 2.71174L0.480469 11.1622C0.480469 11.7225 0.69979 12.2599 1.09018 12.6561C1.48058 13.0523 2.01007 13.2748 2.56217 13.2748H5.16429C5.32587 13.2748 5.48524 13.313 5.62977 13.3864C5.7743 13.4597 5.90001 13.5662 5.99697 13.6974L7.97458 16.373C8.07153 16.5042 8.19725 16.6107 8.34177 16.684C8.4863 16.7573 8.64567 16.7955 8.80726 16.7955C8.96884 16.7955 9.12821 16.7573 9.27274 16.684C9.41726 16.6107 9.54298 16.5042 9.63993 16.373L11.6175 13.6974C11.7145 13.5662 11.8402 13.4597 11.9847 13.3864C12.1293 13.313 12.2886 13.2748 12.4502 13.2748H15.0523C15.6044 13.2748 16.1339 13.0523 16.5243 12.6561C16.9147 12.2599 17.134 11.7225 17.134 11.1622V2.71174C17.134 2.15144 16.9147 1.61409 16.5243 1.21789C16.1339 0.8217 15.6044 0.599121 15.0523 0.599121L2.56217 0.599121Z" fill="#094B59"/>
<g clip-path="url(#clip0_1801_4542)">
<path d="M5.87751 7.54567V9.79956H4.55944V3.40255H7.05498C7.53534 3.40255 7.95712 3.49042 8.32032 3.66616C8.68645 3.8419 8.96764 4.09234 9.16389 4.41746C9.36013 4.73965 9.45825 5.10725 9.45825 5.52024C9.45825 6.14705 9.24297 6.64206 8.8124 7.00526C8.38476 7.36553 7.79163 7.54567 7.03301 7.54567H5.87751ZM5.87751 6.47803H7.05498C7.40354 6.47803 7.66861 6.39602 7.85021 6.232C8.03474 6.06797 8.12701 5.83365 8.12701 5.52903C8.12701 5.21562 8.03474 4.96226 7.85021 4.76894C7.66569 4.57563 7.41086 4.47604 7.08574 4.47018H5.87751V6.47803ZM13.4958 9.79956H12.226V4.90514L10.7102 5.37525V4.34277L13.3596 3.39376H13.4958V9.79956Z" fill="white"/>
</g>
<path d="M118.261 0.599121C117.709 0.599121 117.18 0.8217 116.789 1.21789C116.399 1.61409 116.18 2.15144 116.18 2.71174V11.1622C116.18 11.7225 116.399 12.2599 116.789 12.6561C117.18 13.0523 117.709 13.2748 118.261 13.2748H120.864C121.025 13.2748 121.184 13.313 121.329 13.3864C121.474 13.4597 121.599 13.5662 121.696 13.6974L123.674 16.373C123.771 16.5042 123.896 16.6107 124.041 16.684C124.186 16.7573 124.345 16.7955 124.506 16.7955C124.668 16.7955 124.827 16.7573 124.972 16.684C125.116 16.6107 125.242 16.5042 125.339 16.373L127.317 13.6974C127.414 13.5662 127.539 13.4597 127.684 13.3864C127.828 13.313 127.988 13.2748 128.149 13.2748H130.752C131.304 13.2748 131.833 13.0523 132.224 12.6561C132.614 12.2599 132.833 11.7225 132.833 11.1622V2.71174C132.833 2.15144 132.614 1.61409 132.224 1.21789C131.833 0.8217 131.304 0.599121 130.752 0.599121L118.261 0.599121Z" fill="#094B59"/>
<g clip-path="url(#clip1_1801_4542)">
<path d="M121.577 7.54567V9.79956H120.259V3.40255H122.754C123.235 3.40255 123.656 3.49042 124.02 3.66616C124.386 3.8419 124.667 4.09234 124.863 4.41746C125.059 4.73965 125.157 5.10725 125.157 5.52024C125.157 6.14705 124.942 6.64206 124.512 7.00526C124.084 7.36553 123.491 7.54567 122.732 7.54567H121.577ZM121.577 6.47803H122.754C123.103 6.47803 123.368 6.39602 123.549 6.232C123.734 6.06797 123.826 5.83365 123.826 5.52903C123.826 5.21562 123.734 4.96226 123.549 4.76894C123.365 4.57563 123.11 4.47604 122.785 4.47018H121.577V6.47803ZM130.495 9.79956H126.111V8.92964L128.18 6.72407C128.464 6.4136 128.674 6.14266 128.808 5.91127C128.946 5.67987 129.015 5.46019 129.015 5.25223C129.015 4.96812 128.943 4.74551 128.8 4.58441C128.656 4.42039 128.451 4.33837 128.184 4.33837C127.897 4.33837 127.67 4.43796 127.503 4.63714C127.339 4.83338 127.257 5.0926 127.257 5.41479H125.983C125.983 5.02523 126.076 4.66936 126.26 4.34716C126.448 4.02497 126.711 3.77307 127.051 3.59147C127.391 3.40694 127.776 3.31468 128.206 3.31468C128.865 3.31468 129.377 3.47284 129.74 3.78918C130.106 4.10552 130.289 4.55219 130.289 5.12921C130.289 5.44555 130.207 5.76774 130.043 6.0958C129.879 6.42385 129.598 6.80609 129.199 7.24251L127.745 8.77586H130.495V9.79956Z" fill="white"/>
</g>
<path d="M256.75 0.599121C256.198 0.599121 255.668 0.8217 255.278 1.21789C254.887 1.61409 254.668 2.15144 254.668 2.71174V11.1622C254.668 11.7225 254.887 12.2599 255.278 12.6561C255.668 13.0523 256.198 13.2748 256.75 13.2748H259.352C259.513 13.2748 259.673 13.313 259.817 13.3864C259.962 13.4597 260.088 13.5662 260.184 13.6974L262.162 16.373C262.259 16.5042 262.385 16.6107 262.529 16.684C262.674 16.7573 262.833 16.7955 262.995 16.7955C263.156 16.7955 263.316 16.7573 263.46 16.684C263.605 16.6107 263.73 16.5042 263.827 16.373L265.805 13.6974C265.902 13.5662 266.028 13.4597 266.172 13.3864C266.317 13.313 266.476 13.2748 266.638 13.2748H269.24C269.792 13.2748 270.321 13.0523 270.712 12.6561C271.102 12.2599 271.322 11.7225 271.322 11.1622V2.71174C271.322 2.15144 271.102 1.61409 270.712 1.21789C270.321 0.8217 269.792 0.599121 269.24 0.599121L256.75 0.599121Z" fill="#094B59"/>
<g clip-path="url(#clip2_1801_4542)">
<path d="M260.065 7.54567V9.79956H258.747V3.40255H261.242C261.723 3.40255 262.145 3.49042 262.508 3.66616C262.874 3.8419 263.155 4.09234 263.351 4.41746C263.548 4.73965 263.646 5.10725 263.646 5.52024C263.646 6.14705 263.43 6.64206 263 7.00526C262.572 7.36553 261.979 7.54567 261.221 7.54567H260.065ZM260.065 6.47803H261.242C261.591 6.47803 261.856 6.39602 262.038 6.232C262.222 6.06797 262.315 5.83365 262.315 5.52903C262.315 5.21562 262.222 4.96226 262.038 4.76894C261.853 4.57563 261.598 4.47604 261.273 4.47018H260.065V6.47803ZM265.891 6.03868H266.567C266.889 6.03868 267.128 5.95813 267.283 5.79703C267.439 5.63594 267.516 5.42212 267.516 5.15558C267.516 4.89782 267.439 4.69718 267.283 4.55366C267.131 4.41014 266.92 4.33837 266.651 4.33837C266.408 4.33837 266.204 4.40574 266.04 4.54048C265.876 4.67228 265.794 4.8451 265.794 5.05892H264.524C264.524 4.72501 264.614 4.42625 264.792 4.16263C264.974 3.89609 265.226 3.68813 265.548 3.53875C265.873 3.38937 266.23 3.31468 266.62 3.31468C267.297 3.31468 267.827 3.47724 268.21 3.80236C268.594 4.12455 268.786 4.56977 268.786 5.138C268.786 5.4309 268.697 5.70038 268.518 5.94641C268.339 6.19245 268.105 6.38138 267.815 6.51318C268.175 6.64206 268.443 6.83538 268.619 7.09313C268.798 7.35089 268.887 7.65551 268.887 8.00699C268.887 8.57522 268.679 9.03069 268.263 9.37339C267.85 9.71608 267.302 9.88743 266.62 9.88743C265.981 9.88743 265.459 9.71901 265.052 9.38217C264.647 9.04533 264.445 8.60012 264.445 8.04653H265.715C265.715 8.28671 265.804 8.48296 265.983 8.63527C266.165 8.78758 266.387 8.86373 266.651 8.86373C266.952 8.86373 267.188 8.78465 267.358 8.62648C267.531 8.46538 267.617 8.25303 267.617 7.98942C267.617 7.35089 267.266 7.03162 266.563 7.03162H265.891V6.03868Z" fill="white"/>
</g>
<defs>
<clipPath id="clip0_1801_4542">
<rect width="14.0241" height="14.3968" fill="white" transform="translate(2.23438 1.49902)"/>
</clipPath>
<clipPath id="clip1_1801_4542">
<rect width="14.0241" height="14.3968" fill="white" transform="translate(117.934 1.49902)"/>
</clipPath>
<clipPath id="clip2_1801_4542">
<rect width="14.0241" height="14.3968" fill="white" transform="translate(256.422 1.49902)"/>
</clipPath>
</defs>
</svg>
