<svg width="108" height="68" viewBox="0 0 108 68" fill="none" xmlns="http://www.w3.org/2000/svg">
<g clip-path="url(#clip0_514_6178)">
<path d="M6.36071 67.6679C2.17899 67.6679 -0.856122 63.7151 0.217542 59.6845C1.93175 53.2492 5.80333 43.3525 16.5411 40.5286C34.9394 35.6902 33.7491 13.1851 48.3097 13.1851C62.8703 13.1851 62.9471 24.3109 67.2883 25.4424C71.6296 26.5738 86.1822 23.2137 89.4331 33.1319C95.4422 51.4657 104.558 42.8143 107.555 59.4615C108.311 63.6609 105.754 67.6676 101.476 67.6676L6.36071 67.6679Z" fill="#F3F5FD"/>
<path d="M93.7489 7.77026H63.832V46.472H93.7489V7.77026Z" fill="#DEE8F5"/>
<path d="M91.0123 20.7971H66.5664V26.7152H91.0123V20.7971Z" fill="white"/>
<path d="M91.0122 28.7866H66.5664V29.9387H91.0122V28.7866Z" fill="white"/>
<path d="M91.0123 31.6279H66.5664V32.78H91.0123V31.6279Z" fill="white"/>
<path d="M91.0123 34.4692H66.5664V35.6213H91.0123V34.4692Z" fill="white"/>
<path d="M91.0123 37.0164H66.5664V38.1684H91.0123V37.0164Z" fill="white"/>
<path d="M74.877 14.7097C74.877 15.5293 74.6333 16.3304 74.1767 17.0119C73.7201 17.6933 73.0711 18.2244 72.3119 18.538C71.5526 18.8517 70.7171 18.9337 69.911 18.7739C69.105 18.614 68.3646 18.2193 67.7835 17.6398C67.2023 17.0603 66.8066 16.3219 66.6463 15.5181C66.4859 14.7143 66.5682 13.8811 66.8827 13.124C67.1972 12.3668 67.7298 11.7196 68.4131 11.2643C69.0965 10.809 69.8999 10.5659 70.7217 10.5659C71.2678 10.5643 71.8089 10.6703 72.3138 10.878C72.8187 11.0856 73.2775 11.3908 73.6637 11.7759C74.0499 12.161 74.3559 12.6185 74.5641 13.122C74.7723 13.6255 74.8787 14.1651 74.877 14.7097Z" fill="white"/>
<path d="M70.7232 15.1367C71.6317 15.1367 72.3682 14.4022 72.3682 13.4962C72.3682 12.5902 71.6317 11.8557 70.7232 11.8557C69.8146 11.8557 69.0781 12.5902 69.0781 13.4962C69.0781 14.4022 69.8146 15.1367 70.7232 15.1367Z" fill="white"/>
<path d="M73.7152 17.583C73.3275 17.9847 72.8625 18.3043 72.348 18.5226C71.8335 18.7409 71.2801 18.8535 70.7209 18.8535C70.1618 18.8535 69.6084 18.7409 69.0939 18.5226C68.5793 18.3043 68.1143 17.9847 67.7266 17.583C68.2868 16.3343 69.4179 15.481 70.7209 15.481C72.0239 15.481 73.155 16.3348 73.7152 17.583Z" fill="white"/>
<path d="M84.9594 10.5916H76.5703V13.1197H84.9594V10.5916Z" fill="white"/>
<path d="M91.0124 14.6836H76.5703V15.6034H91.0124V14.6836Z" fill="white"/>
<path d="M91.0124 17.1672H76.5703V18.087H91.0124V17.1672Z" fill="white"/>
<path d="M75.6009 40.3997H66.5664V43.753H75.6009V40.3997Z" fill="white"/>
<path d="M84.3947 3.9541H48.5781V50.288H84.3947V3.9541Z" fill="#DEE8F5"/>
<path d="M81.1182 19.5496H51.8516V26.6347H81.1182V19.5496Z" fill="white"/>
<path d="M81.1182 29.115H51.8516V30.4943H81.1182V29.115Z" fill="white"/>
<path d="M81.1182 32.5166H51.8516V33.8959H81.1182V32.5166Z" fill="white"/>
<path d="M81.1182 35.9182H51.8516V37.2976H81.1182V35.9182Z" fill="white"/>
<path d="M81.1182 38.9675H51.8516V40.3469H81.1182V38.9675Z" fill="white"/>
<path d="M61.8011 12.2618C61.8011 13.2429 61.5093 14.2021 60.9627 15.0179C60.4161 15.8337 59.6391 16.4696 58.7301 16.8451C57.8211 17.2206 56.8208 17.3188 55.8558 17.1274C54.8908 16.936 54.0044 16.4635 53.3087 15.7697C52.6129 15.0759 52.1391 14.192 51.9472 13.2296C51.7552 12.2673 51.8537 11.2698 52.2302 10.3633C52.6067 9.45685 53.2443 8.68205 54.0624 8.13692C54.8805 7.59179 55.8423 7.30082 56.8262 7.3008C57.4801 7.29887 58.1278 7.42587 58.7323 7.6745C59.3367 7.92313 59.8859 8.28847 60.3483 8.74952C60.8106 9.21057 61.177 9.75823 61.4263 10.361C61.6756 10.9638 61.803 11.6097 61.8011 12.2618Z" fill="white"/>
<path d="M56.825 12.7731C57.9127 12.7731 58.7945 11.8937 58.7945 10.809C58.7945 9.7243 57.9127 8.84497 56.825 8.84497C55.7372 8.84497 54.8555 9.7243 54.8555 10.809C54.8555 11.8937 55.7372 12.7731 56.825 12.7731Z" fill="white"/>
<path d="M60.412 15.7017C59.9477 16.1826 59.391 16.5652 58.775 16.8266C58.159 17.0879 57.4965 17.2226 56.8271 17.2226C56.1577 17.2226 55.4951 17.0879 54.8792 16.8266C54.2632 16.5652 53.7064 16.1826 53.2422 15.7017C53.913 14.2067 55.2671 13.1851 56.827 13.1851C58.3869 13.1851 59.7412 14.2067 60.412 15.7017Z" fill="white"/>
<path d="M73.8716 7.33154H63.8281V10.3582H73.8716V7.33154Z" fill="white"/>
<path d="M81.1182 12.2305H63.8281V13.3317H81.1182V12.2305Z" fill="white"/>
<path d="M81.1182 15.2039H63.8281V16.305H81.1182V15.2039Z" fill="white"/>
<path d="M62.6677 43.0181H51.8516V47.0327H62.6677V43.0181Z" fill="white"/>
<path d="M67.1992 0H25.2695V54.2422H67.1992V0Z" fill="#C1D8ED"/>
<path d="M63.3634 18.2576H29.1016V26.5521H63.3634V18.2576Z" fill="white"/>
<path d="M63.3634 29.4553H29.1016V31.07H63.3634V29.4553Z" fill="white"/>
<path d="M63.3634 33.4375H29.1016V35.0522H63.3634V33.4375Z" fill="white"/>
<path d="M63.3634 37.4197H29.1016V39.0344H63.3634V37.4197Z" fill="white"/>
<path d="M63.3634 40.9895H29.1016V42.6042H63.3634V40.9895Z" fill="white"/>
<path d="M40.7493 9.72564C40.7494 10.8743 40.4078 11.9972 39.7679 12.9523C39.128 13.9074 38.2184 14.6518 37.1542 15.0914C36.09 15.5309 34.9191 15.646 33.7893 15.4219C32.6596 15.1978 31.6219 14.6447 30.8074 13.8325C29.9929 13.0202 29.4382 11.9854 29.2135 10.8588C28.9888 9.73221 29.1041 8.56446 29.5449 7.50323C29.9857 6.442 30.7321 5.53495 31.6899 4.89678C32.6476 4.25861 33.7736 3.91799 34.9255 3.91799C35.6909 3.91572 36.4492 4.06438 37.1568 4.35544C37.8645 4.64649 38.5074 5.07419 39.0486 5.61394C39.5899 6.15368 40.0188 6.79481 40.3107 7.50046C40.6025 8.2061 40.7516 8.96233 40.7493 9.72564Z" fill="white"/>
<path d="M34.9267 10.3243C36.2 10.3243 37.2323 9.29487 37.2323 8.02505C37.2323 6.75522 36.2 5.72583 34.9267 5.72583C33.6533 5.72583 32.6211 6.75522 32.6211 8.02505C32.6211 9.29487 33.6533 10.3243 34.9267 10.3243Z" fill="#DEE8F5"/>
<path d="M39.1239 13.7528C38.5805 14.3159 37.9287 14.7638 37.2076 15.0698C36.4865 15.3757 35.7109 15.5334 34.9272 15.5334C34.1435 15.5334 33.3679 15.3757 32.6468 15.0698C31.9257 14.7638 31.2739 14.3159 30.7305 13.7528C31.5157 12.0028 33.101 10.8066 34.9271 10.8066C36.7533 10.8066 38.3387 12.0028 39.1239 13.7528Z" fill="#DEE8F5"/>
<path d="M54.8788 3.9541H43.1211V7.49746H54.8788V3.9541Z" fill="white"/>
<path d="M63.3623 9.68896H43.1211V10.9781H63.3623V9.68896Z" fill="white"/>
<path d="M63.3623 13.1699H43.1211V14.4591H63.3623V13.1699Z" fill="white"/>
<path d="M41.7637 45.7314H29.1016V50.4313H41.7637V45.7314Z" fill="white"/>
<path d="M91.2178 66.927H100.395V57.1396H91.2178V66.927Z" fill="#D7E8F4"/>
<path d="M88.374 66.927H97.5508V57.1396H88.374V66.927Z" fill="white"/>
<path d="M91.0469 59.4729V61.3829V67.2948H101.091V61.3829V59.4729H91.0469Z" fill="#C1D8ED"/>
<path d="M98.0442 59.4729H88V67.2948H98.0442V59.4729Z" fill="#DEE8F5"/>
<path d="M98.0442 59.4729H88V60.0592H98.0442V59.4729Z" fill="#C1D8ED"/>
<path d="M94.0733 61.0439H91.9674C91.8063 61.0439 91.6758 61.1741 91.6758 61.3347V61.9276C91.6758 62.0882 91.8063 62.2184 91.9674 62.2184H94.0733C94.2344 62.2184 94.3649 62.0882 94.3649 61.9276V61.3347C94.3649 61.1741 94.2344 61.0439 94.0733 61.0439Z" fill="white"/>
<path d="M91.0264 57.7862L101.004 58.9385L101.224 57.0412L91.2468 55.8889L91.0264 57.7862Z" fill="#C1D8ED"/>
<path d="M87.9991 57.4366L97.9766 58.5889L98.1969 56.6916L88.2194 55.5393L87.9991 57.4366Z" fill="#DEE8F5"/>
<path d="M91.6688 58.6221H88.3736C88.1971 58.7689 88.0673 58.9638 88 59.1829C88 59.1829 89.1371 58.837 91.6688 58.6221Z" fill="#DEE8F5"/>
<path d="M17.6123 45.5287L16.6797 45.3088L15.5104 50.2408L16.4431 50.4607L17.6123 45.5287Z" fill="#F0F6FF"/>
<path d="M15.6546 44.9267L15.1367 45.0215L15.9417 49.3497L16.4595 49.2549L15.6546 44.9267Z" fill="#C1D8ED"/>
<path d="M15.654 44.9253L15.1367 45.0229L15.2283 45.5004L15.7456 45.4027L15.654 44.9253Z" fill="#DEE8F5"/>
<path d="M17.256 46.0266L15.5781 50.2739L15.8657 50.3869L17.5436 46.1396L17.256 46.0266Z" fill="#0CBC8B"/>
<path d="M17.623 47.8848H15.0938V51.1084H17.623V47.8848Z" fill="#C1D8ED"/>
<path d="M20.6161 67.6677H21.6523V57.5012H20.6161V67.6677Z" fill="#C1D8ED"/>
<path d="M21.4715 67.6677H22.5078V57.5012H21.4715V67.6677Z" fill="#DEE8F5"/>
<path d="M7.70981 67.668H8.74609L8.74609 57.5014H7.70981L7.70981 67.668Z" fill="#C1D8ED"/>
<path d="M8.56527 67.668H9.60156L9.60156 57.5014H8.56527L8.56527 67.668Z" fill="#DEE8F5"/>
<path d="M17.7762 67.6677H18.8125V57.5012H17.7762V67.6677Z" fill="#C1D8ED"/>
<path d="M18.6317 67.6677H19.668V57.5012H18.6317V67.6677Z" fill="#DEE8F5"/>
<path d="M4.86605 67.668H5.90234L5.90234 57.5014H4.86605L4.86605 67.668Z" fill="#C1D8ED"/>
<path d="M5.72152 67.668H6.75781L6.75781 57.5014H5.72152L5.72152 67.668Z" fill="#DEE8F5"/>
<path d="M18.8053 50.9937H4.86719V57.7451H18.8053V50.9937Z" fill="#C1D8ED"/>
<path d="M22.5084 50.9937H8.57031V57.7451H22.5084V50.9937Z" fill="#DEE8F5"/>
<g opacity="0.53">
<path opacity="0.53" d="M21.7587 51.9534H9.32031V56.7554H21.7587V51.9534Z" fill="#F3F5FD"/>
</g>
<path d="M15.5368 54.9052C15.8419 54.9052 16.0892 54.6586 16.0892 54.3543C16.0892 54.0501 15.8419 53.8035 15.5368 53.8035C15.2317 53.8035 14.9844 54.0501 14.9844 54.3543C14.9844 54.6586 15.2317 54.9052 15.5368 54.9052Z" fill="white"/>
</g>
<defs>
<clipPath id="clip0_514_6178">
<rect width="107.687" height="67.6679" fill="white"/>
</clipPath>
</defs>
</svg>
