<svg width="16" height="16" viewBox="0 0 16 16" fill="none" xmlns="http://www.w3.org/2000/svg">
<path d="M11.0003 2.50007C11.0002 1.9135 11.2064 1.34559 11.5827 0.895681C11.9591 0.445776 12.4817 0.142533 13.059 0.039007C13.6364 -0.0645194 14.2318 0.0382633 14.741 0.329372C15.2502 0.620481 15.6409 1.08138 15.8446 1.63143C16.0484 2.18148 16.0522 2.78565 15.8555 3.33824C15.6587 3.89084 15.274 4.35666 14.7685 4.65421C14.263 4.95177 13.669 5.06211 13.0903 4.96592C12.5117 4.86974 11.9853 4.57316 11.6033 4.12807L4.88527 7.24807C5.03971 7.73751 5.03971 8.26263 4.88527 8.75207L11.6033 11.8721C12.0071 11.4024 12.5709 11.0994 13.1855 11.0217C13.8 10.9441 14.4215 11.0973 14.9294 11.4518C15.4374 11.8062 15.7957 12.3366 15.9349 12.9402C16.0741 13.5438 15.9843 14.1775 15.6829 14.7186C15.3814 15.2598 14.8898 15.6697 14.3033 15.869C13.7169 16.0683 13.0773 16.0429 12.5085 15.7975C11.9398 15.5521 11.4824 15.1043 11.225 14.5409C10.9676 13.9775 10.9285 13.3386 11.1153 12.7481L4.39727 9.62807C4.0647 10.0156 3.62142 10.2921 3.12704 10.4202C2.63267 10.5482 2.11093 10.5219 1.632 10.3445C1.15308 10.1672 0.739941 9.8475 0.448173 9.42836C0.156404 9.00921 0 8.51077 0 8.00007C0 7.48937 0.156404 6.99093 0.448173 6.57178C0.739941 6.15264 1.15308 5.8329 1.632 5.65559C2.11093 5.47828 2.63267 5.45189 3.12704 5.57998C3.62142 5.70808 4.0647 5.9845 4.39727 6.37207L11.1153 3.25207C11.0388 3.00874 11 2.75514 11.0003 2.50007Z" fill="black"/>
</svg>
