<svg width="43" height="43" viewBox="0 0 43 43" fill="none" xmlns="http://www.w3.org/2000/svg">
<path d="M19.4844 33.9565H23.5156V41.6562H19.4844V33.9565Z" fill="#CAC2C2"/>
<path d="M19.4844 1.34375H23.5156V9.04344H19.4844V1.34375Z" fill="#CAC2C2"/>
<path d="M33.9561 19.4844H41.6564V23.5156H33.9561V19.4844Z" fill="#CAC2C2"/>
<path d="M1.34375 19.4844H9.04411V23.5156H1.34375V19.4844Z" fill="#CAC2C2"/>
<path d="M8.67334 37.1782L5.82324 34.3274L11.2681 28.8839L14.1182 31.7347L8.67334 37.1782Z" fill="#CAC2C2"/>
<path d="M34.3267 5.82251L37.1768 8.67328L31.7319 14.1168L28.8818 11.266L34.3267 5.82251Z" fill="#CAC2C2"/>
<path d="M34.3243 37.1782L28.8794 31.7333L31.7302 28.8826L37.175 34.3274L34.3243 37.1782Z" fill="#CAC2C2"/>
<path d="M11.2667 14.1182L5.82178 8.67328L8.67187 5.82251L14.1167 11.2674L11.2667 14.1182Z" fill="#CAC2C2"/>
<path d="M21.5 11.4219C15.9342 11.4219 11.4219 15.9342 11.4219 21.5C11.4219 27.0658 15.9342 31.5781 21.5 31.5781C27.0658 31.5781 31.5781 27.0658 31.5781 21.5C31.5781 15.9342 27.0658 11.4219 21.5 11.4219ZM21.5 28.2188C17.7899 28.2188 14.7812 25.2101 14.7812 21.5C14.7812 17.7899 17.7899 14.7812 21.5 14.7812C25.2101 14.7812 28.2188 17.7899 28.2188 21.5C28.2188 25.2101 25.2101 28.2188 21.5 28.2188Z" fill="#CAC2C2"/>
</svg>
