<svg width="166" height="103" viewBox="0 0 166 103" fill="none" xmlns="http://www.w3.org/2000/svg">
<g clip-path="url(#clip0_1353_3033)">
<path d="M9.76546 102.037C3.34536 102.037 -1.31439 96.0768 0.333988 89.9991C2.96578 80.2952 8.90974 65.3718 25.3952 61.1137C53.6418 53.8178 51.8143 19.882 74.1689 19.882C96.5236 19.882 96.6414 36.6588 103.306 38.3649C109.971 40.071 132.314 35.0043 137.305 49.9601C146.53 77.6059 160.526 64.5603 165.127 89.6628C166.288 95.9952 162.362 102.037 155.794 102.037L9.76546 102.037Z" fill="#F3F5FD"/>
<path d="M143.929 11.7168H97.9985V70.0756H143.929V11.7168Z" fill="#DEE8F5"/>
<path d="M139.73 31.36H102.199V40.284H139.73V31.36Z" fill="white"/>
<path d="M139.73 43.4077H102.199V45.145H139.73V43.4077Z" fill="white"/>
<path d="M139.729 47.6921H102.198V49.4294H139.729V47.6921Z" fill="white"/>
<path d="M139.729 51.9767H102.198V53.7139H139.729V51.9767Z" fill="white"/>
<path d="M139.729 55.8174H102.198V57.5546H139.729V55.8174Z" fill="white"/>
<path d="M114.958 22.1807C114.958 23.4165 114.584 24.6246 113.883 25.6522C113.182 26.6797 112.185 27.4806 111.02 27.9535C109.854 28.4265 108.571 28.5502 107.334 28.3091C106.096 28.068 104.959 27.4729 104.067 26.599C103.175 25.7252 102.567 24.6118 102.321 23.3997C102.075 22.1877 102.201 20.9313 102.684 19.7895C103.167 18.6478 103.985 17.6719 105.034 16.9853C106.083 16.2987 107.317 15.9323 108.578 15.9323C109.417 15.9298 110.247 16.0897 111.023 16.4028C111.798 16.7159 112.502 17.1761 113.095 17.7568C113.688 18.3375 114.158 19.0273 114.477 19.7866C114.797 20.5458 114.96 21.3595 114.958 22.1807Z" fill="white"/>
<path d="M108.578 22.8246C109.973 22.8246 111.104 21.717 111.104 20.3508C111.104 18.9846 109.973 17.8771 108.578 17.8771C107.184 17.8771 106.053 18.9846 106.053 20.3508C106.053 21.717 107.184 22.8246 108.578 22.8246Z" fill="white"/>
<path d="M113.175 26.5134C112.579 27.1192 111.866 27.6012 111.076 27.9303C110.286 28.2595 109.436 28.4292 108.578 28.4292C107.719 28.4292 106.87 28.2595 106.08 27.9303C105.29 27.6012 104.576 27.1192 103.98 26.5134C104.841 24.6306 106.577 23.3438 108.578 23.3438C110.578 23.3438 112.315 24.6312 113.175 26.5134Z" fill="white"/>
<path d="M130.437 15.9711H117.557V19.7833H130.437V15.9711Z" fill="white"/>
<path d="M139.73 22.1412H117.557V23.5282H139.73V22.1412Z" fill="white"/>
<path d="M139.73 25.8865H117.557V27.2735H139.73V25.8865Z" fill="white"/>
<path d="M116.069 60.9191H102.199V65.9757H116.069V60.9191Z" fill="white"/>
<path d="M129.571 5.96252H74.583V75.83H129.571V5.96252Z" fill="#DEE8F5"/>
<path d="M124.543 29.4795H79.6108V40.1633H124.543V29.4795Z" fill="white"/>
<path d="M124.543 43.9032H79.6108V45.9831H124.543V43.9032Z" fill="white"/>
<path d="M124.543 49.0326H79.6108V51.1125H124.543V49.0326Z" fill="white"/>
<path d="M124.543 54.1619H79.6108V56.2418H124.543V54.1619Z" fill="white"/>
<path d="M124.543 58.7599H79.6108V60.8398H124.543V58.7599Z" fill="white"/>
<path d="M94.8866 18.49C94.8866 19.9695 94.4387 21.4158 93.5994 22.646C92.7602 23.8762 91.5674 24.835 90.1718 25.4012C88.7762 25.9674 87.2405 26.1156 85.759 25.827C84.2774 25.5383 82.9165 24.8259 81.8484 23.7797C80.7802 22.7335 80.0528 21.4006 79.7581 19.9495C79.4634 18.4984 79.6146 16.9943 80.1927 15.6274C80.7707 14.2604 81.7496 13.0921 83.0056 12.2701C84.2616 11.4481 85.7383 11.0093 87.2488 11.0093C88.2527 11.0064 89.2472 11.1979 90.1752 11.5728C91.1032 11.9477 91.9463 12.4986 92.6561 13.1939C93.3659 13.8891 93.9284 14.7149 94.3112 15.6238C94.694 16.5327 94.8896 17.5068 94.8866 18.49Z" fill="white"/>
<path d="M87.2488 19.261C88.9188 19.261 90.2726 17.935 90.2726 16.2994C90.2726 14.6637 88.9188 13.3378 87.2488 13.3378C85.5789 13.3378 84.2251 14.6637 84.2251 16.2994C84.2251 17.935 85.5789 19.261 87.2488 19.261Z" fill="white"/>
<path d="M92.7527 23.6773C92.04 24.4025 91.1852 24.9794 90.2395 25.3735C89.2938 25.7676 88.2767 25.9707 87.2489 25.9707C86.2212 25.9707 85.204 25.7676 84.2583 25.3735C83.3126 24.9794 82.4578 24.4025 81.7451 23.6773C82.7749 21.4231 84.8539 19.8824 87.2488 19.8824C89.6437 19.8824 91.7229 21.4231 92.7527 23.6773Z" fill="white"/>
<path d="M113.418 11.0558H97.9985V15.6198H113.418V11.0558Z" fill="white"/>
<path d="M124.544 18.443H97.9985V20.1035H124.544V18.443Z" fill="white"/>
<path d="M124.544 22.9265H97.9985V24.587H124.544V22.9265Z" fill="white"/>
<path d="M96.2166 64.8678H79.6108V70.9215H96.2166V64.8678Z" fill="white"/>
<path d="M103.171 0H38.7969V81.7924H103.171V0Z" fill="#C1D8ED"/>
<path d="M97.2842 27.5308H44.6826V40.0381H97.2842V27.5308Z" fill="white"/>
<path d="M97.2842 44.4163H44.6826V46.8511H97.2842V44.4163Z" fill="white"/>
<path d="M97.2842 50.4211H44.6826V52.8559H97.2842V50.4211Z" fill="white"/>
<path d="M97.2842 56.426H44.6826V58.8608H97.2842V56.426Z" fill="white"/>
<path d="M97.2842 61.8088H44.6826V64.2437H97.2842V61.8088Z" fill="white"/>
<path d="M62.5652 14.6655C62.5652 16.3976 62.0409 18.0908 61.0584 19.531C60.0759 20.9712 58.6795 22.0937 57.0457 22.7566C55.4119 23.4194 53.6141 23.5929 51.8796 23.255C50.1452 22.9171 48.552 22.083 47.3015 20.8583C46.051 19.6335 45.1994 18.0731 44.8544 16.3743C44.5094 14.6754 44.6865 12.9146 45.3632 11.3143C46.04 9.7141 47.186 8.34634 48.6564 7.38404C50.1268 6.42175 51.8555 5.90812 53.6239 5.90812C54.7991 5.90469 55.9633 6.12886 57.0497 6.56775C58.1361 7.00663 59.1232 7.65157 59.9541 8.46545C60.7851 9.27934 61.4436 10.2461 61.8917 11.3102C62.3398 12.3742 62.5687 13.5145 62.5652 14.6655Z" fill="white"/>
<path d="M53.6242 15.5681C55.5792 15.5681 57.164 14.0158 57.164 12.1011C57.164 10.1863 55.5792 8.63403 53.6242 8.63403C51.6693 8.63403 50.0845 10.1863 50.0845 12.1011C50.0845 14.0158 51.6693 15.5681 53.6242 15.5681Z" fill="#DEE8F5"/>
<path d="M60.0675 20.7381C59.2332 21.5872 58.2325 22.2626 57.1254 22.724C56.0182 23.1853 54.8275 23.4231 53.6243 23.4231C52.4212 23.4231 51.2304 23.1853 50.1233 22.724C49.0162 22.2626 48.0155 21.5872 47.1812 20.7381C48.3867 18.0992 50.8205 16.2955 53.6242 16.2955C56.4278 16.2955 58.8619 18.0992 60.0675 20.7381Z" fill="#DEE8F5"/>
<path d="M84.2599 5.96252H66.2085V11.3056H84.2599V5.96252Z" fill="white"/>
<path d="M97.2843 14.6104H66.2085V16.5543H97.2843V14.6104Z" fill="white"/>
<path d="M97.2843 19.8594H66.2085V21.8033H97.2843V19.8594Z" fill="white"/>
<path d="M64.1226 68.9592H44.6826V76.0462H64.1226V68.9592Z" fill="white"/>
<path d="M140.043 100.92H154.132V86.1613H140.043V100.92Z" fill="#D7E8F4"/>
<path d="M135.679 100.92H149.768V86.1613H135.679V100.92Z" fill="white"/>
<path d="M139.784 89.6797V92.5598V101.474H155.204V92.5598V89.6797H139.784Z" fill="#C1D8ED"/>
<path d="M150.526 89.6797H135.105V101.474H150.526V89.6797Z" fill="#DEE8F5"/>
<path d="M150.526 89.6797H135.105V90.5638H150.526V89.6797Z" fill="#C1D8ED"/>
<path d="M144.432 92.0486H141.199C140.952 92.0486 140.751 92.2449 140.751 92.4871V93.3811C140.751 93.6233 140.952 93.8196 141.199 93.8196H144.432C144.68 93.8196 144.88 93.6233 144.88 93.3811V92.4871C144.88 92.2449 144.68 92.0486 144.432 92.0486Z" fill="white"/>
<path d="M139.753 87.1367L155.071 88.8743L155.409 86.0133L140.091 84.2758L139.753 87.1367Z" fill="#C1D8ED"/>
<path d="M135.105 86.6094L150.423 88.3469L150.762 85.486L135.443 83.7484L135.105 86.6094Z" fill="#DEE8F5"/>
<path d="M140.738 88.3971H135.679C135.408 88.6186 135.209 88.9124 135.105 89.2428C135.105 89.2428 136.851 88.7212 140.738 88.3971Z" fill="#DEE8F5"/>
<path d="M27.0354 68.6534L25.6035 68.3218L23.8083 75.7587L25.2402 76.0903L27.0354 68.6534Z" fill="#F0F6FF"/>
<path d="M24.029 67.7457L23.2339 67.8885L24.4697 74.4151L25.2648 74.2722L24.029 67.7457Z" fill="#C1D8ED"/>
<path d="M24.0286 67.7435L23.2344 67.8907L23.375 68.6106L24.1692 68.4634L24.0286 67.7435Z" fill="#DEE8F5"/>
<path d="M26.4891 69.4041L23.9131 75.8087L24.3545 75.9791L26.9306 69.5745L26.4891 69.4041Z" fill="#0CBC8B"/>
<path d="M27.0535 72.2061H23.1704V77.067H27.0535V72.2061Z" fill="#C1D8ED"/>
<path d="M31.6527 102.037H33.2437V86.7072H31.6527L31.6527 102.037Z" fill="#C1D8ED"/>
<path d="M32.9617 102.037H34.5527V86.7072H32.9617V102.037Z" fill="#DEE8F5"/>
<path d="M11.8343 102.037H13.4253L13.4253 86.7072H11.8343L11.8343 102.037Z" fill="#C1D8ED"/>
<path d="M13.1439 102.037H14.7349L14.7349 86.7072H13.1439L13.1439 102.037Z" fill="#DEE8F5"/>
<path d="M27.2879 102.037H28.8789L28.8789 86.7072H27.2879L27.2879 102.037Z" fill="#C1D8ED"/>
<path d="M28.5975 102.037H30.1885L30.1885 86.7072H28.5975L28.5975 102.037Z" fill="#DEE8F5"/>
<path d="M7.47053 102.037H9.06152L9.06152 86.7072H7.47053L7.47053 102.037Z" fill="#C1D8ED"/>
<path d="M8.7801 102.037H10.3711L10.3711 86.7072H8.7801L8.7801 102.037Z" fill="#DEE8F5"/>
<path d="M28.8691 76.894H7.47021V87.0746H28.8691V76.894Z" fill="#C1D8ED"/>
<path d="M34.5527 76.894H13.1538V87.0747H34.5527V76.894Z" fill="#DEE8F5"/>
<g opacity="0.53">
<path opacity="0.53" d="M33.4011 78.3413H14.3047V85.5824H33.4011V78.3413Z" fill="#F3F5FD"/>
</g>
<path d="M23.853 82.7926C24.3214 82.7926 24.7011 82.4207 24.7011 81.9619C24.7011 81.5031 24.3214 81.1312 23.853 81.1312C23.3846 81.1312 23.0049 81.5031 23.0049 81.9619C23.0049 82.4207 23.3846 82.7926 23.853 82.7926Z" fill="white"/>
</g>
<defs>
<clipPath id="clip0_1353_3033">
<rect width="165.329" height="102.037" fill="white"/>
</clipPath>
</defs>
</svg>
