<svg width="155" height="97" viewBox="0 0 155 97" fill="none" xmlns="http://www.w3.org/2000/svg">
<g clip-path="url(#clip0_1353_3226)">
<path d="M132.276 62.7697L131.986 62.8008L135.557 94.8709L135.847 94.8398L132.276 62.7697Z" fill="#292A2E"/>
<path d="M141.524 76.7701L139.768 93.85L140.057 93.8787L141.814 76.7989L141.524 76.7701Z" fill="#292A2E"/>
<path d="M144.545 91.7855H131.51V95.943H144.545V91.7855Z" fill="#292A2E"/>
<path opacity="0.2" d="M144.545 91.7855H131.51V95.943H144.545V91.7855Z" fill="white"/>
<path d="M152.403 84.1304C154.872 80.9051 153.695 75.9397 149.774 73.04C145.852 70.1402 140.671 70.4042 138.202 73.6296C135.732 76.8549 136.91 81.8203 140.831 84.72C144.753 87.6198 149.934 87.3558 152.403 84.1304Z" fill="#0CBC8B"/>
<path opacity="0.2" d="M152.403 84.1304C154.872 80.9051 153.695 75.9397 149.774 73.04C145.852 70.1402 140.671 70.4042 138.202 73.6296C135.732 76.8549 136.91 81.8203 140.831 84.72C144.753 87.6198 149.934 87.3558 152.403 84.1304Z" fill="white"/>
<path opacity="0.5" d="M152.403 84.1309C152.237 84.3484 152.056 84.5545 151.861 84.7476C149.143 86.4543 145.131 86.1855 141.948 83.8316C138.026 80.9324 136.85 75.967 139.319 72.7418C139.485 72.5247 139.666 72.3187 139.859 72.1251C142.58 70.4171 146.59 70.687 149.774 73.04C153.696 75.9401 154.872 80.9055 152.403 84.1309Z" fill="white"/>
<path d="M134.212 71.8939C138.097 68.9468 139.153 63.8925 136.57 60.6048C133.988 57.317 128.745 57.0409 124.86 59.988C120.976 62.935 119.92 67.9893 122.502 71.277C125.084 74.5648 130.327 74.8409 134.212 71.8939Z" fill="#0CBC8B"/>
<path opacity="0.2" d="M132.98 71.0479C129.972 73.3317 126.148 73.6796 123.376 72.1929C123.056 71.9153 122.763 71.6081 122.502 71.2756C119.919 67.9889 120.974 62.934 124.859 59.9875C127.868 57.7051 131.691 57.3558 134.462 58.8412C134.783 59.1189 135.076 59.4266 135.338 59.7598C137.921 63.0465 136.865 68.1014 132.98 71.0479Z" fill="white"/>
<path d="M15.2667 37.7774C23.0813 37.7774 29.4163 31.5517 29.4163 23.8719C29.4163 16.1921 23.0813 9.96643 15.2667 9.96643C7.45216 9.96643 1.11719 16.1921 1.11719 23.8719C1.11719 31.5517 7.45216 37.7774 15.2667 37.7774Z" fill="#F4F4F4"/>
<g opacity="0.05">
<path opacity="0.05" d="M15.2664 34.8956C21.4614 34.8956 26.4835 29.9602 26.4835 23.872C26.4835 17.7838 21.4614 12.8484 15.2664 12.8484C9.07138 12.8484 4.04932 17.7838 4.04932 23.872C4.04932 29.9602 9.07138 34.8956 15.2664 34.8956Z" fill="#292A2E"/>
</g>
<path d="M11.5947 27.8094L12.6412 26.2148C13.4703 26.8394 14.196 27.1583 14.9673 27.1583C15.8922 27.1583 16.299 26.7813 16.299 26.0516C16.299 24.4019 11.9921 24.4317 11.9921 21.5382C11.9921 19.6781 13.3031 18.4934 15.3706 18.4934C16.7662 18.4934 17.7145 19.0594 18.4766 19.8537L17.2765 21.2047C16.6835 20.6746 16.1806 20.3955 15.4993 20.3955C14.7138 20.3955 14.2886 20.7065 14.2886 21.4268C14.2886 22.9564 18.5954 22.8225 18.5954 25.8869C18.5954 27.7282 17.3556 29.0604 14.9673 29.0604C13.9369 29.06 12.5162 28.63 11.5947 27.8094ZM14.4645 16.9216H16.0561V19.2308H14.4645V16.9216ZM14.4645 28.0976H16.0561V30.6313H14.4645V28.0976Z" fill="white"/>
<path d="M140.009 28.4427C147.824 28.4427 154.158 22.217 154.158 14.5372C154.158 6.85741 147.824 0.631714 140.009 0.631714C132.194 0.631714 125.859 6.85741 125.859 14.5372C125.859 22.217 132.194 28.4427 140.009 28.4427Z" fill="#F4F4F4"/>
<g opacity="0.05">
<path opacity="0.05" d="M140.009 25.5607C146.204 25.5607 151.226 20.6253 151.226 14.5372C151.226 8.44898 146.204 3.51355 140.009 3.51355C133.814 3.51355 128.792 8.44898 128.792 14.5372C128.792 20.6253 133.814 25.5607 140.009 25.5607Z" fill="#292A2E"/>
</g>
<path d="M136.338 18.4746L137.384 16.8801C138.213 17.5045 138.939 17.8236 139.711 17.8236C140.635 17.8236 141.042 17.4465 141.042 16.7167C141.042 15.0671 136.735 15.0968 136.735 12.2033C136.735 10.3434 138.046 9.15851 140.114 9.15851C141.509 9.15851 142.458 9.72445 143.22 10.5187L142.02 11.8697C141.426 11.3396 140.924 11.0606 140.242 11.0606C139.457 11.0606 139.032 11.3717 139.032 12.092C139.032 13.6216 143.339 13.4875 143.339 16.552C143.339 18.3932 142.099 19.7255 139.711 19.7255C138.68 19.7252 137.259 19.2952 136.338 18.4746ZM139.208 7.58691H140.799V9.89599H139.208V7.58691ZM139.208 18.7628H140.799V21.2965H139.208V18.7628Z" fill="white"/>
<path d="M127.932 7.78833H29.7925C27.3824 7.78833 25.4287 9.70836 25.4287 12.0768V82.6906C25.4287 85.0591 27.3824 86.9791 29.7925 86.9791H127.932C130.342 86.9791 132.296 85.0591 132.296 82.6906V12.0768C132.296 9.70836 130.342 7.78833 127.932 7.78833Z" fill="white"/>
<path d="M127.932 87.122H29.7924C28.5969 87.1206 27.4508 86.6533 26.6055 85.8225C25.7601 84.9917 25.2846 83.8654 25.2832 82.6905V12.0768C25.2846 10.902 25.7601 9.77556 26.6054 8.94479C27.4508 8.11402 28.5969 7.64671 29.7924 7.64539H127.932C129.127 7.64667 130.274 8.11397 131.119 8.94475C131.964 9.77553 132.44 10.9019 132.441 12.0768V82.6905C132.44 83.8654 131.964 84.9918 131.119 85.8225C130.273 86.6533 129.127 87.1206 127.932 87.122ZM29.7924 7.93129C28.6741 7.9325 27.6018 8.36965 26.811 9.14683C26.0202 9.92401 25.5754 10.9777 25.5741 12.0768V82.6905C25.5754 83.7896 26.0202 84.8433 26.811 85.6205C27.6018 86.3977 28.6741 86.8348 29.7924 86.8361H127.932C129.05 86.8348 130.122 86.3977 130.913 85.6205C131.704 84.8433 132.149 83.7896 132.15 82.6905V12.0768C132.149 10.9777 131.704 9.92401 130.913 9.14683C130.122 8.36965 129.05 7.9325 127.932 7.93129H29.7924Z" fill="#292A2E"/>
<path d="M44.5055 46.4931C44.4482 46.4932 44.3915 46.4821 44.3385 46.4606C44.2856 46.439 44.2375 46.4074 44.197 46.3675L42.1606 44.3662C42.0811 44.2853 42.0371 44.177 42.0381 44.0645C42.0391 43.9521 42.085 43.8445 42.1659 43.765C42.2468 43.6855 42.3563 43.6404 42.4707 43.6394C42.5851 43.6384 42.6953 43.6817 42.7776 43.7598L44.8141 45.7611C44.8751 45.8211 44.9166 45.8975 44.9334 45.9807C44.9503 46.0638 44.9416 46.15 44.9086 46.2284C44.8756 46.3067 44.8197 46.3737 44.7479 46.4208C44.6762 46.468 44.5918 46.4931 44.5055 46.4931Z" fill="#0CBC8B"/>
<path d="M42.4675 46.4931C42.3812 46.4931 42.2969 46.468 42.2251 46.4208C42.1534 46.3737 42.0975 46.3067 42.0645 46.2284C42.0314 46.15 42.0228 46.0638 42.0396 45.9807C42.0565 45.8975 42.098 45.8211 42.159 45.7611L44.1955 43.7598C44.2778 43.6817 44.388 43.6384 44.5024 43.6394C44.6168 43.6404 44.7263 43.6855 44.8072 43.765C44.8881 43.8445 44.934 43.9521 44.935 44.0645C44.936 44.177 44.892 44.2853 44.8125 44.3662L42.7761 46.3675C42.7356 46.4074 42.6875 46.439 42.6346 46.4606C42.5816 46.4822 42.5249 46.4932 42.4675 46.4931Z" fill="#0CBC8B"/>
<path d="M102.811 65.6214L102.229 66.9318L105.807 68.4644L106.388 67.154L102.811 65.6214Z" fill="#0CBC8B"/>
<path d="M103.941 30.49L100.576 32.433L101.313 33.6655L104.678 31.7225L103.941 30.49Z" fill="#0CBC8B"/>
<path d="M47.8735 33.8173L47.4229 35.1765L51.1335 36.3647L51.5842 35.0055L47.8735 33.8173Z" fill="#0CBC8B"/>
<path d="M52.2167 56.6138L49.0205 58.8114L49.854 59.9822L53.0502 57.7846L52.2167 56.6138Z" fill="#0CBC8B"/>
<path d="M110.839 51.5764L110.705 52.9999L114.506 53.3442L114.64 51.9208L110.839 51.5764Z" fill="#0CBC8B"/>
<path d="M114.711 41.3371C114.653 41.3371 114.596 41.3261 114.544 41.3045C114.491 41.2829 114.443 41.2513 114.402 41.2114L112.366 39.2101C112.324 39.1705 112.291 39.1232 112.268 39.0709C112.245 39.0186 112.233 38.9623 112.232 38.9054C112.232 38.8484 112.243 38.7919 112.265 38.7392C112.287 38.6865 112.319 38.6387 112.36 38.5984C112.401 38.5581 112.45 38.5263 112.504 38.5047C112.557 38.4832 112.615 38.4723 112.673 38.4728C112.731 38.4733 112.788 38.4851 112.841 38.5076C112.894 38.5301 112.942 38.5627 112.983 38.6037L115.019 40.605C115.08 40.665 115.122 40.7414 115.138 40.8246C115.155 40.9077 115.147 40.994 115.114 41.0723C115.081 41.1507 115.025 41.2176 114.953 41.2648C114.881 41.3119 114.797 41.337 114.711 41.3371Z" fill="#0CBC8B"/>
<path d="M112.677 41.3371C112.59 41.337 112.506 41.3119 112.434 41.2648C112.362 41.2176 112.306 41.1507 112.273 41.0723C112.24 40.994 112.232 40.9077 112.249 40.8246C112.265 40.7414 112.307 40.665 112.368 40.605L114.404 38.6037C114.445 38.5627 114.493 38.5301 114.546 38.5076C114.599 38.4851 114.657 38.4733 114.714 38.4728C114.772 38.4723 114.83 38.4832 114.884 38.5047C114.937 38.5263 114.986 38.5581 115.027 38.5984C115.068 38.6387 115.1 38.6865 115.122 38.7392C115.144 38.7919 115.155 38.8484 115.155 38.9054C115.154 38.9623 115.142 39.0186 115.119 39.0709C115.096 39.1232 115.063 39.1705 115.021 39.2101L112.985 41.2114C112.945 41.2513 112.896 41.2829 112.844 41.3045C112.791 41.326 112.734 41.3371 112.677 41.3371Z" fill="#0CBC8B"/>
<path opacity="0.4" d="M78.8612 72.2623C91.677 72.2623 102.066 62.0523 102.066 49.4576C102.066 36.863 91.677 26.653 78.8612 26.653C66.0455 26.653 55.6562 36.863 55.6562 49.4576C55.6562 62.0523 66.0455 72.2623 78.8612 72.2623Z" fill="#0CBC8B"/>
<path d="M78.8613 65.4062C87.824 65.4062 95.0897 58.2658 95.0897 49.4577C95.0897 40.6496 87.824 33.5092 78.8613 33.5092C69.8985 33.5092 62.6328 40.6496 62.6328 49.4577C62.6328 58.2658 69.8985 65.4062 78.8613 65.4062Z" fill="#0CBC8B"/>
<path d="M75.5432 56.2998C75.4158 56.2999 75.2896 56.2746 75.1724 56.2255C75.0552 56.1763 74.9494 56.1044 74.8613 56.0139L69.6959 50.7309C69.6082 50.6432 69.5392 50.5394 69.4926 50.4253C69.4461 50.3112 69.4231 50.1892 69.4249 50.0663C69.4267 49.9435 69.4533 49.8222 69.5031 49.7094C69.5529 49.5967 69.625 49.4949 69.7152 49.4097C69.8053 49.3246 69.9118 49.2578 70.0284 49.2134C70.145 49.169 70.2694 49.1477 70.3944 49.1508C70.5194 49.1539 70.6425 49.1814 70.7566 49.2316C70.8708 49.2818 70.9736 49.3538 71.0593 49.4433L75.5918 54.0789L87.4414 43.6323C87.5336 43.5494 87.6416 43.4854 87.7591 43.4438C87.8767 43.4022 88.0014 43.3839 88.1262 43.3899C88.2509 43.396 88.3732 43.4263 88.486 43.4791C88.5988 43.5319 88.6998 43.6061 88.7832 43.6975C88.8667 43.7888 88.9308 43.8956 88.972 44.0115C89.0133 44.1273 89.0307 44.2501 89.0233 44.3727C89.016 44.4952 88.984 44.6151 88.9292 44.7255C88.8744 44.8358 88.7979 44.9344 88.7042 45.0155L76.1745 56.0618C76.0012 56.2151 75.7763 56.2999 75.5432 56.2998Z" fill="white"/>
<path d="M132.295 12.0763V16.3916H25.4287V12.0763C25.4287 10.939 25.8885 9.84817 26.7068 9.04392C27.5252 8.23966 28.6351 7.78784 29.7925 7.78784H127.931C129.089 7.78784 130.199 8.23966 131.017 9.04392C131.835 9.84817 132.295 10.939 132.295 12.0763Z" fill="#292A2E"/>
<path d="M5.45387 87.4965C4.57512 87.4963 3.70941 87.2875 2.93042 86.8879C2.15143 86.4883 1.48222 85.9096 0.979744 85.2011C0.477267 84.4926 0.156399 83.6753 0.0444481 82.8188C-0.0675029 81.9622 0.0327772 81.0918 0.336754 80.2815C0.645273 79.4588 8.55884 59.3832 9.93707 55.8942L19.4604 61.3406C18.6859 63.3026 15.8794 70.7388 13.6248 76.7293L17.3705 76.3291L18.5494 86.1299L6.04487 87.4659C5.84857 87.4865 5.65128 87.4967 5.45387 87.4965Z" fill="#367CFF"/>
<path d="M11.9905 87.8065L10.3271 95.943H42.6335L40.7727 87.6519L11.9905 87.8065Z" fill="#262626"/>
<path d="M36.6033 51.7192C36.5698 51.7149 35.6534 55.1043 28.5012 54.5768C23.5498 54.2123 22.3425 50.9001 22.229 50.9001C22.7628 50.7886 23.6298 50.6728 23.8669 50.5485C24.6465 50.1368 25.2144 49.6356 25.5004 48.56C25.724 47.7189 25.8378 44.481 25.8378 42.8563L33.457 44.5388C33.3508 46.3715 32.6075 50.6199 35.2127 51.3719C35.6462 51.4962 36.1131 51.6106 36.6033 51.7192Z" fill="#E98862"/>
<path d="M33.1936 48.1417C30.19 48.3747 26.3315 47.1283 25.5986 43.1901L24.9373 39.6366C24.2043 35.6983 25.7151 32.1275 29.4883 31.4493C33.2614 30.7711 36.6759 33.4567 37.4087 37.395L37.7015 38.9683C37.9823 40.4793 38.5523 47.7263 33.1936 48.1417Z" fill="#E98862"/>
<path d="M18.9754 51.4453C16.2763 51.6422 13.524 51.9294 11.5379 53.7364C9.14601 55.9127 8.71254 58.5886 10.2386 65.9525C11.5515 72.2888 11.0307 75.0576 11.909 86.7497C11.9349 87.0943 11.9903 87.8066 11.9903 87.8066L40.864 87.7595C40.864 87.7595 43.5695 72.247 45.0633 65.0922C46.1992 59.6528 49.1828 53.0495 36.6028 51.7188C36.5696 51.7152 26.4801 50.8981 18.9754 51.4453Z" fill="#367CFF"/>
<path d="M11.9904 87.8782C11.9716 87.8782 11.9535 87.8711 11.9399 87.8583C11.9263 87.8455 11.9184 87.828 11.9176 87.8095L11.0127 64.7266C11.012 64.7077 11.019 64.6892 11.0321 64.6754C11.0452 64.6615 11.0634 64.6533 11.0827 64.6526C11.0923 64.6518 11.102 64.653 11.1112 64.6561C11.1203 64.6592 11.1287 64.6641 11.1358 64.6706C11.1429 64.677 11.1485 64.6849 11.1524 64.6936C11.1563 64.7023 11.1582 64.7117 11.1582 64.7212L12.0631 87.804C12.0638 87.823 12.0568 87.8414 12.0437 87.8553C12.0306 87.8692 12.0124 87.8774 11.9931 87.8781L11.9904 87.8782Z" fill="#0C0C0C"/>
<path d="M58.3212 59.6871L60.3497 55.2152C60.3943 55.1169 60.4592 55.0288 60.5404 54.9566C60.6215 54.8843 60.717 54.8295 60.8209 54.7955C60.9248 54.7616 61.0347 54.7492 61.1437 54.7593C61.2527 54.7694 61.3583 54.8017 61.4539 54.8541C61.6275 54.9562 61.7563 55.1181 61.8153 55.3083C61.8742 55.4985 61.8592 55.7034 61.7731 55.8833L61.3381 56.8421L64.1144 54.4437C64.4182 54.1721 64.9682 54.0291 65.2562 54.3842C65.3761 54.5138 65.4478 54.6794 65.4596 54.8542C65.4713 55.0289 65.4225 55.2024 65.321 55.3464C65.3243 55.3485 65.3274 55.351 65.3301 55.3538C65.3319 55.3563 65.3334 55.3589 65.3348 55.3616L65.8034 54.9423C65.8903 54.8647 65.9937 54.807 66.106 54.7737C66.2184 54.7403 66.3369 54.732 66.453 54.7493C66.569 54.7666 66.6797 54.8092 66.7769 54.8739C66.8741 54.9386 66.9554 55.0238 67.0148 55.1232C67.1053 55.2818 67.1376 55.466 67.1063 55.6452C67.0751 55.8243 66.9822 55.9874 66.8432 56.1073L66.6438 56.2857C66.6463 56.2938 66.6473 56.3022 66.647 56.3106C66.8102 56.2208 67.0006 56.191 67.1841 56.2265C67.3677 56.2619 67.5324 56.3604 67.6489 56.5043C67.7716 56.6654 67.8279 56.8661 67.8067 57.0662C67.7855 57.2664 67.6882 57.4513 67.5344 57.5841L67.0398 58.0273C67.0513 58.0259 67.063 58.0272 67.0739 58.0311C67.0848 58.035 67.0945 58.0414 67.1024 58.0497C67.1112 58.0601 67.1168 58.0728 67.1185 58.0862C67.2865 58.0459 67.4632 58.0609 67.6217 58.1289C67.7801 58.197 67.9114 58.3142 67.9954 58.4627C68.0804 58.6205 68.1087 58.8019 68.0757 58.9775C68.0428 59.1531 67.9504 59.3126 67.8137 59.4302L63.6339 63.1699C63.0492 63.6931 62.3188 64.0327 61.5363 64.1453C60.7539 64.2579 59.955 64.1383 59.2422 63.8018C58.6276 63.5117 58.1523 62.9974 57.9173 62.3684C57.6823 61.7393 57.7062 61.045 57.9839 60.433L58.3212 59.6871Z" fill="#E98862"/>
<g opacity="0.2">
<path opacity="0.2" d="M62.5852 57.7333C62.5981 57.7471 62.616 57.7554 62.635 57.7563C62.6541 57.7573 62.6728 57.7509 62.687 57.7384L65.3243 55.4542C65.3315 55.448 65.3374 55.4405 65.3416 55.432C65.3458 55.4236 65.3482 55.4144 65.3488 55.4051C65.3494 55.3957 65.3481 55.3863 65.345 55.3774C65.3419 55.3685 65.3371 55.3603 65.3307 55.3533C65.3244 55.3462 65.3168 55.3405 65.3082 55.3364C65.2996 55.3322 65.2903 55.3298 65.2807 55.3292C65.2712 55.3287 65.2616 55.3299 65.2526 55.333C65.2436 55.336 65.2352 55.3408 65.228 55.347L62.591 57.6311C62.5839 57.6373 62.578 57.6448 62.5738 57.6532C62.5696 57.6617 62.5671 57.6709 62.5665 57.6802C62.566 57.6896 62.5672 57.699 62.5703 57.7079C62.5734 57.7168 62.5783 57.725 62.5846 57.732L62.5852 57.7333Z" fill="#0C0C0C"/>
</g>
<g opacity="0.2">
<path opacity="0.2" d="M63.5777 58.9041C63.5906 58.9179 63.6085 58.9261 63.6276 58.9271C63.6466 58.928 63.6653 58.9215 63.6795 58.9091L66.6227 56.36C66.6299 56.3538 66.6358 56.3463 66.64 56.3378C66.6442 56.3294 66.6466 56.3202 66.6472 56.3109C66.6478 56.3015 66.6465 56.2921 66.6434 56.2832C66.6403 56.2743 66.6355 56.2661 66.6291 56.2591C66.616 56.2454 66.5981 56.2372 66.5791 56.236C66.56 56.2348 66.5412 56.2408 66.5264 56.2528L63.5832 58.8019C63.576 58.8081 63.5702 58.8156 63.566 58.8241C63.5618 58.8325 63.5593 58.8417 63.5587 58.851C63.5581 58.8604 63.5594 58.8698 63.5625 58.8787C63.5656 58.8876 63.5705 58.8958 63.5768 58.9028L63.5777 58.9041Z" fill="#0C0C0C"/>
</g>
<g opacity="0.2">
<path opacity="0.2" d="M64.646 60.1783C64.6589 60.1921 64.6768 60.2004 64.6959 60.2013C64.7149 60.2023 64.7336 60.1959 64.7479 60.1835L67.0956 58.1501C67.1101 58.1376 67.1189 58.1199 67.1201 58.101C67.1213 58.082 67.1148 58.0634 67.1021 58.0491C67.0893 58.0349 67.0713 58.0262 67.052 58.025C67.0327 58.0239 67.0138 58.0302 66.9993 58.0428L64.6516 60.0762C64.6444 60.0825 64.6386 60.09 64.6344 60.0984C64.6302 60.1069 64.6277 60.116 64.6271 60.1254C64.6265 60.1348 64.6278 60.1442 64.6309 60.1531C64.634 60.1619 64.6388 60.1701 64.6452 60.1772L64.646 60.1783Z" fill="#0C0C0C"/>
</g>
<path d="M35.9784 44.526C35.4393 41.8637 35.192 40.0875 35.2207 38.2136C35.9801 36.9045 35.7804 35.402 35.6078 34.7528C36.3521 35.1519 36.6634 35.1959 37.3639 35.1959C37.3639 35.1959 36.108 30.2425 31.8394 28.9097C31.0539 28.6095 29.0503 28.2302 26.3893 28.5889C24.1259 28.894 18.5467 30.557 17.749 36.7299V36.7335C17.7225 36.9382 17.1869 42.6255 16.119 45.3542C14.6832 49.0226 12.6677 50.1624 12.7187 54.3947C12.7845 59.8388 22.9687 60.5636 29.112 60.1556C35.2553 59.7476 38.6832 57.7635 38.728 53.84C38.7775 49.4442 37.0571 49.8525 35.9784 44.526Z" fill="#0A0A0A"/>
<path d="M35.9797 42.2944C34.833 42.5004 33.6791 41.4619 33.4695 40.3352C33.2599 39.2084 34.0736 38.4196 35.2203 38.2136L35.9797 42.2944Z" fill="#E98862"/>
<path d="M48.3128 86.6849C47.1595 86.6847 46.0358 86.3254 45.1031 85.6586C44.1704 84.9918 43.4766 84.0517 43.1214 82.9733L35.543 59.9392L45.9232 56.6407L49.9088 68.7563L56.7968 57.9915L66.0321 63.6985L52.9293 84.1775C52.4382 84.9449 51.7572 85.5774 50.9499 86.0159C50.1426 86.4544 49.2353 86.6846 48.3128 86.6849Z" fill="#367CFF"/>
<path d="M42.1978 80.3251C42.1933 80.3252 42.1888 80.3248 42.1844 80.324C42.1654 80.3205 42.1487 80.3098 42.1378 80.2942C42.1268 80.2785 42.1227 80.2593 42.1262 80.2406L44.7024 66.4973C44.7059 66.4786 44.7168 66.4621 44.7327 66.4514C44.7486 66.4406 44.7682 66.4365 44.7872 66.4399C44.8061 66.4433 44.823 66.454 44.8339 66.4696C44.8449 66.4853 44.8491 66.5045 44.8456 66.5232L42.2694 80.2667C42.2663 80.2831 42.2574 80.2979 42.2443 80.3086C42.2313 80.3193 42.2148 80.3251 42.1978 80.3251Z" fill="#0C0C0C"/>
<path d="M50.8364 72.0005C50.8202 72.0005 50.8045 71.9953 50.7918 71.9856C50.779 71.9759 50.7699 71.9623 50.7658 71.947L49.9076 68.6983C49.9052 68.6892 49.9047 68.6798 49.906 68.6705C49.9073 68.6612 49.9105 68.6522 49.9153 68.6441C49.9202 68.636 49.9266 68.629 49.9342 68.6233C49.9418 68.6177 49.9505 68.6135 49.9597 68.6112C49.969 68.6088 49.9786 68.6083 49.9881 68.6096C49.9975 68.6109 50.0066 68.614 50.0149 68.6188C50.0231 68.6235 50.0303 68.6298 50.0361 68.6373C50.0418 68.6448 50.046 68.6533 50.0484 68.6624L50.9066 71.9111C50.9114 71.9295 50.9086 71.949 50.8988 71.9653C50.889 71.9816 50.8731 71.9934 50.8544 71.9982C50.8485 71.9998 50.8424 72.0005 50.8364 72.0005Z" fill="#0C0C0C"/>
<path d="M3.31147 96.0859H148.719C148.757 96.0859 148.794 96.0709 148.821 96.0441C148.849 96.0172 148.864 95.9809 148.864 95.943C148.864 95.9051 148.849 95.8687 148.821 95.8419C148.794 95.8151 148.757 95.8 148.719 95.8H3.31147C3.2729 95.8 3.2359 95.8151 3.20862 95.8419C3.18134 95.8687 3.16602 95.9051 3.16602 95.943C3.16602 95.9809 3.18134 96.0172 3.20862 96.0441C3.2359 96.0709 3.2729 96.0859 3.31147 96.0859Z" fill="#292A2E"/>
<path d="M114.619 48.0963L142.452 48.0963C143.92 48.0963 145.11 46.9265 145.11 45.4835V27.5575C145.11 26.1145 143.92 24.9447 142.452 24.9447L114.619 24.9447C113.151 24.9447 111.96 26.1145 111.96 27.5575V45.4835C111.96 46.9265 113.151 48.0963 114.619 48.0963Z" fill="#292A2E"/>
<path d="M119.497 28.1699H116.021C115.421 28.1699 114.934 28.6485 114.934 29.2389V31.228C114.934 31.8184 115.421 32.297 116.021 32.297H119.497C120.097 32.297 120.584 31.8184 120.584 31.228V29.2389C120.584 28.6485 120.097 28.1699 119.497 28.1699Z" fill="white"/>
<path d="M120.585 28.6277V29.5962H118.67L118.361 29.2933V28.1705H120.119C120.18 28.1705 120.24 28.1823 120.297 28.2052C120.353 28.2282 120.405 28.2619 120.448 28.3043C120.491 28.3468 120.526 28.3972 120.549 28.4527C120.572 28.5081 120.585 28.5676 120.585 28.6277Z" fill="#0CBC8B"/>
<path d="M120.585 30.8708V31.8393C120.585 31.9606 120.536 32.0769 120.448 32.1627C120.361 32.2485 120.243 32.2967 120.119 32.2967H118.361V31.1435L118.67 30.8705L120.585 30.8708Z" fill="#0CBC8B"/>
<path d="M117.126 28.1699V29.2932L116.848 29.5967H114.934V28.6282C114.934 28.5681 114.946 28.5087 114.969 28.4532C114.992 28.3977 115.027 28.3472 115.07 28.3048C115.113 28.2623 115.164 28.2286 115.221 28.2056C115.277 28.1826 115.338 28.1708 115.399 28.1708L117.126 28.1699Z" fill="#0CBC8B"/>
<path d="M117.127 31.1437V32.2969H115.4C115.339 32.2969 115.278 32.2851 115.222 32.2621C115.165 32.2391 115.114 32.2054 115.071 32.1629C115.028 32.1204 114.993 32.07 114.97 32.0145C114.947 31.959 114.935 31.8995 114.935 31.8395V30.871H116.849L117.127 31.1437Z" fill="#0CBC8B"/>
<path d="M142.533 43.4995C142.533 44.1434 142.273 44.7609 141.81 45.2162C141.347 45.6715 140.718 45.9273 140.063 45.9273C139.408 45.9273 138.78 45.6715 138.316 45.2162C137.853 44.7609 137.593 44.1434 137.593 43.4995C137.593 43.1376 137.677 42.7805 137.837 42.4547C137.997 42.129 138.231 41.843 138.519 41.6182C138.88 41.328 139.318 41.1447 139.781 41.0897C140.244 41.0347 140.713 41.1103 141.134 41.3075C141.555 41.5047 141.91 41.8156 142.158 42.2037C142.406 42.5918 142.536 43.0413 142.534 43.4995H142.533Z" fill="white"/>
<path d="M137.593 45.3809C137.231 45.6712 136.792 45.8545 136.329 45.9097C135.865 45.9648 135.394 45.8895 134.972 45.6925C134.55 45.4955 134.193 45.1849 133.944 44.7967C133.694 44.4086 133.562 43.9587 133.562 43.4995C133.562 43.0403 133.694 42.5905 133.944 42.2023C134.193 41.8141 134.55 41.5035 134.972 41.3065C135.394 41.1095 135.865 41.0342 136.329 41.0893C136.792 41.1445 137.231 41.3278 137.593 41.6181C137.037 42.0732 136.789 42.7408 136.789 43.4994C136.789 44.2581 137.037 44.9561 137.593 45.3809Z" fill="#0CBC8B"/>
<path d="M120.314 35.6272H115.388C115.137 35.6272 114.934 35.8271 114.934 36.0738V36.0739C114.934 36.3206 115.137 36.5205 115.388 36.5205H120.314C120.565 36.5205 120.769 36.3206 120.769 36.0739V36.0738C120.769 35.8271 120.565 35.6272 120.314 35.6272Z" fill="white"/>
<path d="M127.569 35.6272H122.643C122.392 35.6272 122.188 35.8271 122.188 36.0738V36.0739C122.188 36.3206 122.392 36.5205 122.643 36.5205H127.569C127.82 36.5205 128.023 36.3206 128.023 36.0739V36.0738C128.023 35.8271 127.82 35.6272 127.569 35.6272Z" fill="white"/>
<path d="M134.824 35.6272H129.898C129.647 35.6272 129.443 35.8271 129.443 36.0738V36.0739C129.443 36.3206 129.647 36.5205 129.898 36.5205H134.824C135.075 36.5205 135.278 36.3206 135.278 36.0739V36.0738C135.278 35.8271 135.075 35.6272 134.824 35.6272Z" fill="white"/>
<path d="M142.08 35.6272H137.154C136.903 35.6272 136.699 35.8271 136.699 36.0738V36.0739C136.699 36.3206 136.903 36.5205 137.154 36.5205H142.08C142.331 36.5205 142.534 36.3206 142.534 36.0739V36.0738C142.534 35.8271 142.331 35.6272 142.08 35.6272Z" fill="white"/>
</g>
<defs>
<clipPath id="clip0_1353_3226">
<rect width="154.158" height="95.4542" fill="white" transform="translate(0 0.631714)"/>
</clipPath>
</defs>
</svg>
