<svg width="181" height="101" viewBox="0 0 181 101" fill="none" xmlns="http://www.w3.org/2000/svg">
<g clip-path="url(#clip0_1353_3123)">
<path d="M168.612 18.2592H165.862C165.644 18.2595 165.431 18.1934 165.252 18.0701C165.074 17.9467 164.939 17.7722 164.867 17.5708C164.656 16.9804 164.407 16.4038 164.121 15.8444C164.023 15.6509 163.989 15.4319 164.025 15.2186C164.061 15.0052 164.165 14.8084 164.322 14.656L166.276 12.7467C166.474 12.5525 166.586 12.2892 166.586 12.0148C166.586 11.7403 166.474 11.477 166.276 11.2829L162.054 7.15971C161.855 6.96569 161.586 6.8567 161.305 6.8567C161.024 6.8567 160.755 6.96569 160.556 7.15971L158.567 9.1035C158.412 9.25537 158.212 9.35619 157.996 9.3919C157.78 9.42761 157.557 9.39642 157.36 9.30269C156.798 9.03474 156.22 8.80178 155.628 8.60524C155.42 8.53583 155.239 8.40432 155.111 8.22919C154.983 8.05407 154.914 7.84413 154.914 7.62891V4.87527C154.914 4.73941 154.887 4.60489 154.834 4.47937C154.781 4.35385 154.703 4.23981 154.604 4.14375C154.506 4.04768 154.389 3.97149 154.261 3.91951C154.132 3.86753 153.995 3.8408 153.856 3.84082H147.887C147.748 3.8408 147.611 3.86753 147.482 3.91951C147.354 3.97149 147.237 4.04768 147.139 4.14375C147.041 4.23981 146.963 4.35385 146.909 4.47937C146.856 4.60489 146.829 4.73941 146.829 4.87527V7.62891C146.829 7.84413 146.761 8.05407 146.633 8.22919C146.504 8.40432 146.323 8.53583 146.115 8.60524C145.523 8.80175 144.945 9.0347 144.383 9.30269C144.186 9.39642 143.964 9.42761 143.747 9.3919C143.531 9.35619 143.331 9.25537 143.176 9.1035L141.187 7.15971C140.988 6.96572 140.719 6.85676 140.438 6.85676C140.157 6.85676 139.888 6.96572 139.689 7.15971L135.467 11.2829C135.268 11.477 135.157 11.7403 135.157 12.0148C135.157 12.2892 135.268 12.5525 135.467 12.7467L137.421 14.656C137.578 14.8084 137.682 15.0053 137.718 15.2186C137.754 15.432 137.72 15.6509 137.621 15.8444C137.335 16.4034 137.087 16.9801 136.878 17.5708C136.805 17.7722 136.67 17.9466 136.491 18.0699C136.313 18.1932 136.099 18.2593 135.88 18.2592H133.131C132.992 18.2591 132.854 18.2858 132.726 18.3378C132.597 18.3898 132.481 18.466 132.382 18.562C132.284 18.6581 132.206 18.7722 132.153 18.8977C132.1 19.0232 132.072 19.1577 132.072 19.2936V25.1269C132.072 25.2628 132.1 25.3973 132.153 25.5228C132.206 25.6484 132.284 25.7624 132.382 25.8585C132.481 25.9546 132.597 26.0308 132.726 26.0827C132.854 26.1347 132.992 26.1614 133.131 26.1614H135.808C136.031 26.1612 136.248 26.2298 136.428 26.3573C136.609 26.4849 136.743 26.6648 136.813 26.8715C137.019 27.4779 137.267 28.0703 137.553 28.645C137.65 28.8386 137.683 29.0569 137.647 29.2696C137.611 29.4823 137.508 29.6788 137.352 29.8317L135.467 31.674C135.368 31.77 135.29 31.884 135.237 32.0095C135.184 32.135 135.156 32.2695 135.156 32.4054C135.156 32.5412 135.184 32.6758 135.237 32.8012C135.29 32.9267 135.368 33.0407 135.467 33.1367L139.689 37.261C139.887 37.455 140.157 37.564 140.438 37.564C140.719 37.564 140.988 37.455 141.187 37.261L143.035 35.4548C143.193 35.3013 143.395 35.2002 143.615 35.1656C143.835 35.1311 144.06 35.1649 144.259 35.2624C144.857 35.5543 145.474 35.8061 146.107 36.016C146.317 36.0854 146.5 36.2172 146.629 36.393C146.758 36.5688 146.828 36.7797 146.828 36.9962V39.5431C146.828 39.6791 146.855 39.8139 146.908 39.9396C146.962 40.0653 147.04 40.1795 147.138 40.2758C147.236 40.3721 147.353 40.4484 147.482 40.5005C147.61 40.5527 147.748 40.5795 147.887 40.5795H153.855C153.994 40.5795 154.132 40.5527 154.261 40.5005C154.389 40.4484 154.506 40.3721 154.604 40.2758C154.703 40.1795 154.781 40.0653 154.834 39.9396C154.887 39.8139 154.914 39.6791 154.914 39.5431V36.9966C154.914 36.7801 154.984 36.5692 155.113 36.3934C155.243 36.2177 155.425 36.0858 155.635 36.0164C156.268 35.8065 156.886 35.5547 157.484 35.2628C157.682 35.1653 157.908 35.1315 158.127 35.166C158.347 35.2006 158.55 35.3017 158.707 35.4552L160.556 37.2614C160.754 37.4554 161.024 37.5644 161.305 37.5644C161.586 37.5644 161.855 37.4554 162.054 37.2614L166.275 33.1363C166.374 33.0403 166.452 32.9263 166.505 32.8009C166.559 32.6754 166.586 32.5408 166.586 32.405C166.586 32.2691 166.559 32.1346 166.505 32.0091C166.452 31.8836 166.374 31.7696 166.275 31.6737L164.39 29.8313C164.234 29.6784 164.131 29.4819 164.096 29.2692C164.06 29.0565 164.093 28.8382 164.19 28.6446C164.476 28.0699 164.723 27.4775 164.929 26.8711C164.999 26.6644 165.133 26.4845 165.314 26.3569C165.494 26.2294 165.711 26.1608 165.934 26.161H168.611C168.75 26.161 168.888 26.1343 169.016 26.0823C169.145 26.0304 169.262 25.9542 169.36 25.8581C169.458 25.762 169.536 25.648 169.589 25.5225C169.643 25.3969 169.67 25.2624 169.67 25.1265V19.2936C169.67 19.1578 169.643 19.0233 169.589 18.8979C169.536 18.7724 169.458 18.6584 169.36 18.5623C169.262 18.4662 169.145 18.39 169.017 18.338C168.888 18.286 168.751 18.2592 168.612 18.2592V18.2592ZM150.872 30.8299C149.127 30.8301 147.421 30.3246 145.97 29.3775C144.52 28.4303 143.389 27.084 142.721 25.5088C142.053 23.9335 141.878 22.2002 142.219 20.5279C142.559 18.8556 143.399 17.3196 144.633 16.1139C145.867 14.9083 147.439 14.0872 149.151 13.7547C150.862 13.4221 152.636 13.5928 154.248 14.2454C155.86 14.8979 157.238 16.003 158.208 17.4207C159.177 18.8385 159.694 20.5052 159.694 22.2103C159.694 24.4963 158.764 26.6886 157.11 28.305C155.456 29.9215 153.212 30.8297 150.872 30.8299V30.8299Z" fill="#F4F4F4"/>
<path d="M51.6854 81.1889H49.6659C49.5054 81.1892 49.3487 81.1406 49.2177 81.05C49.0867 80.9594 48.9877 80.8312 48.9346 80.6832C48.7799 80.2495 48.597 79.8259 48.387 79.4151C48.3146 79.2729 48.2898 79.1121 48.3162 78.9554C48.3426 78.7987 48.4189 78.6541 48.5341 78.5421L49.9702 77.1393C50.1161 76.9967 50.198 76.8033 50.198 76.6017C50.198 76.4001 50.1161 76.2067 49.9702 76.0641L46.8694 73.0356C46.7234 72.8931 46.5255 72.813 46.3192 72.813C46.1128 72.813 45.9149 72.8931 45.7689 73.0356L44.3078 74.4634C44.1941 74.5749 44.0475 74.6489 43.8886 74.6751C43.7297 74.7014 43.5664 74.6785 43.4215 74.6097C43.009 74.4128 42.5843 74.2417 42.1497 74.0974C41.9965 74.0464 41.8636 73.9498 41.7695 73.8212C41.6755 73.6925 41.6251 73.5384 41.6254 73.3803V71.358C41.6254 71.2582 41.6053 71.1594 41.5662 71.0672C41.5271 70.975 41.4699 70.8912 41.3977 70.8206C41.3254 70.7501 41.2397 70.6941 41.1454 70.6559C41.051 70.6178 40.9499 70.5981 40.8477 70.5981H36.4627C36.3605 70.5981 36.2594 70.6178 36.1651 70.6559C36.0707 70.6941 35.985 70.7501 35.9128 70.8206C35.8405 70.8912 35.7833 70.975 35.7442 71.0672C35.7051 71.1594 35.685 71.2582 35.6851 71.358V73.3807C35.6854 73.5387 35.6349 73.6929 35.5409 73.8216C35.4468 73.9502 35.3139 74.0468 35.1607 74.0977C34.7261 74.2421 34.3014 74.4132 33.8889 74.6101C33.744 74.6789 33.5807 74.7018 33.4218 74.6756C33.2629 74.6494 33.1163 74.5753 33.0026 74.4638L31.5413 73.036C31.3953 72.8934 31.1974 72.8134 30.991 72.8134C30.7847 72.8134 30.5868 72.8934 30.4408 73.036L27.34 76.0644C27.1941 76.2071 27.1122 76.4004 27.1122 76.6021C27.1122 76.8037 27.1941 76.9971 27.34 77.1397L28.7753 78.5421C28.8906 78.6541 28.9668 78.7987 28.9932 78.9554C29.0197 79.1121 28.9949 79.2729 28.9224 79.4151C28.7123 79.8257 28.5299 80.2493 28.3762 80.6832C28.3226 80.8311 28.2234 80.9592 28.0922 81.0498C27.9611 81.1404 27.8043 81.189 27.6437 81.1889H25.6238C25.5217 81.1889 25.4206 81.2086 25.3262 81.2467C25.2318 81.2849 25.1461 81.3409 25.0739 81.4114C25.0017 81.482 24.9444 81.5658 24.9053 81.658C24.8663 81.7501 24.8462 81.849 24.8462 81.9488V86.2334C24.8462 86.3332 24.8663 86.432 24.9053 86.5242C24.9444 86.6164 25.0017 86.7001 25.0739 86.7707C25.1461 86.8413 25.2318 86.8972 25.3262 86.9354C25.4206 86.9736 25.5217 86.9932 25.6238 86.9932H27.5903C27.7539 86.993 27.9134 87.0433 28.0459 87.137C28.1785 87.2307 28.2773 87.3629 28.3284 87.5147C28.4802 87.9601 28.6617 88.3953 28.8718 88.8175C28.9431 88.9597 28.9673 89.12 28.9409 89.2763C28.9145 89.4325 28.8389 89.5768 28.7247 89.6891L27.3398 91.0424C27.2676 91.1129 27.2103 91.1966 27.1712 91.2887C27.1321 91.3808 27.112 91.4796 27.112 91.5793C27.112 91.679 27.1321 91.7778 27.1712 91.8699C27.2103 91.962 27.2676 92.0457 27.3398 92.1161L30.4406 95.1462C30.5866 95.2887 30.7845 95.3687 30.9909 95.3687C31.1972 95.3687 31.3951 95.2887 31.5411 95.1462L32.8988 93.8194C33.0145 93.7067 33.1636 93.6324 33.3249 93.6071C33.4862 93.5819 33.6515 93.6068 33.7975 93.6785C34.2368 93.8929 34.6904 94.0778 35.1554 94.232C35.3096 94.2829 35.4435 94.3797 35.5385 94.5088C35.6335 94.6379 35.6847 94.7928 35.6851 94.9518V96.8228C35.6849 96.9227 35.7049 97.0216 35.7439 97.1139C35.7829 97.2063 35.8402 97.2902 35.9124 97.3608C35.9846 97.4315 36.0704 97.4876 36.1648 97.5258C36.2592 97.5641 36.3605 97.5838 36.4627 97.5838H40.8466C40.9488 97.5838 41.05 97.5641 41.1444 97.5258C41.2388 97.4876 41.3246 97.4315 41.3968 97.3608C41.4691 97.2902 41.5263 97.2063 41.5653 97.1139C41.6043 97.0216 41.6243 96.9227 41.6242 96.8228V94.9518C41.6245 94.7928 41.6757 94.6379 41.7707 94.5088C41.8657 94.3797 41.9997 94.2829 42.1538 94.232C42.6188 94.0778 43.0725 93.8929 43.5117 93.6785C43.6577 93.6068 43.823 93.5819 43.9844 93.6071C44.1457 93.6324 44.2947 93.7067 44.4105 93.8194L45.7681 95.1462C45.9141 95.2887 46.112 95.3687 46.3184 95.3687C46.5247 95.3687 46.7226 95.2887 46.8686 95.1462L49.9702 92.1161C50.0425 92.0457 50.0998 91.962 50.1388 91.8699C50.1779 91.7778 50.1981 91.679 50.1981 91.5793C50.1981 91.4796 50.1779 91.3808 50.1388 91.2887C50.0998 91.1966 50.0425 91.1129 49.9702 91.0424L48.5854 89.6891C48.4711 89.5768 48.3955 89.4325 48.3691 89.2763C48.3428 89.12 48.3669 88.9597 48.4382 88.8175C48.6483 88.3953 48.8298 87.9601 48.9817 87.5147C49.0327 87.3629 49.1316 87.2307 49.2641 87.137C49.3966 87.0433 49.5561 86.993 49.7197 86.9932H51.6862C51.7883 86.9932 51.8895 86.9736 51.9838 86.9354C52.0782 86.8972 52.1639 86.8413 52.2361 86.7707C52.3083 86.7001 52.3656 86.6164 52.4047 86.5242C52.4438 86.432 52.4638 86.3332 52.4638 86.2334V81.9488C52.4638 81.8489 52.4437 81.75 52.4046 81.6578C52.3655 81.5655 52.3081 81.4817 52.2358 81.4112C52.1635 81.3406 52.0777 81.2846 51.9833 81.2465C51.8888 81.2084 51.7876 81.1888 51.6854 81.1889ZM38.6553 90.4223C37.3736 90.4223 36.1208 90.051 35.0551 89.3553C33.9894 88.6595 33.1589 87.6706 32.6684 86.5136C32.1779 85.3567 32.0496 84.0836 32.2996 82.8553C32.5497 81.6271 33.1668 80.4989 34.0731 79.6133C34.9794 78.7278 36.134 78.1248 37.3911 77.8805C38.6481 77.6362 39.9511 77.7616 41.1352 78.2408C42.3193 78.72 43.3313 79.5316 44.0434 80.5728C44.7554 81.6141 45.1355 82.8383 45.1355 84.0906C45.1355 84.9221 44.9679 85.7454 44.6422 86.5136C44.3166 87.2819 43.8392 87.9799 43.2375 88.5678C42.6357 89.1558 41.9214 89.6222 41.1352 89.9404C40.349 90.2586 39.5063 90.4223 38.6553 90.4223V90.4223Z" fill="#F4F4F4"/>
<path d="M36.5398 46.1765H33.7902C33.5716 46.1768 33.3584 46.1107 33.18 45.9874C33.0016 45.864 32.8669 45.6895 32.7945 45.4881C32.584 44.8976 32.335 44.3209 32.0492 43.7615C31.9505 43.568 31.9167 43.349 31.9526 43.1357C31.9886 42.9223 32.0925 42.7255 32.2495 42.5731L34.2036 40.6638C34.4021 40.4696 34.5137 40.2064 34.5137 39.9319C34.5137 39.6574 34.4021 39.3942 34.2036 39.2L29.982 35.0768C29.7833 34.8828 29.5139 34.7739 29.233 34.7739C28.9521 34.7739 28.6826 34.8828 28.4839 35.0768L26.4945 37.0206C26.3397 37.1726 26.1401 37.2734 25.9237 37.3091C25.7073 37.3449 25.4849 37.3136 25.2875 37.2198C24.7259 36.9518 24.1475 36.7189 23.5558 36.5223C23.3473 36.4529 23.1663 36.3214 23.0383 36.1463C22.9102 35.9712 22.8416 35.7612 22.842 35.546V32.7924C22.842 32.6565 22.8147 32.522 22.7615 32.3965C22.7083 32.2709 22.6303 32.1569 22.532 32.0608C22.4337 31.9647 22.317 31.8885 22.1885 31.8366C22.06 31.7846 21.9223 31.7579 21.7833 31.7579H15.8152C15.6762 31.7579 15.5385 31.7847 15.4101 31.8366C15.2816 31.8886 15.1649 31.9648 15.0666 32.0609C14.9683 32.1569 14.8904 32.271 14.8372 32.3965C14.784 32.522 14.7567 32.6565 14.7567 32.7924V35.546C14.7571 35.7612 14.6884 35.9712 14.5604 36.1463C14.4324 36.3214 14.2514 36.4529 14.0429 36.5223C13.4512 36.7188 12.8728 36.9518 12.3112 37.2198C12.1138 37.3136 11.8914 37.3449 11.675 37.3091C11.4586 37.2734 11.259 37.1726 11.1042 37.0206L9.11482 35.0768C8.91608 34.8828 8.64666 34.7739 8.36575 34.7739C8.08484 34.7739 7.81542 34.8828 7.61669 35.0768L3.39472 39.2C3.19618 39.3942 3.08467 39.6574 3.08467 39.9319C3.08467 40.2064 3.19618 40.4696 3.39472 40.6638L5.34902 42.5731C5.50601 42.7255 5.60985 42.9224 5.64578 43.1357C5.6817 43.3491 5.64789 43.568 5.54913 43.7615C5.2631 44.3206 5.01479 44.8973 4.80578 45.4881C4.73273 45.6895 4.59757 45.8639 4.41891 45.9871C4.24025 46.1104 4.02687 46.1766 3.80815 46.1765H1.05869C0.91966 46.1764 0.781972 46.2031 0.653503 46.255C0.525035 46.307 0.408303 46.3832 0.309981 46.4792C0.211659 46.5753 0.133675 46.6893 0.0804869 46.8148C0.0272984 46.9403 -5.16194e-05 47.0749 1.65102e-07 47.2107V53.044C-7.75101e-05 53.1799 0.0272534 53.3144 0.0804303 53.44C0.133607 53.5655 0.211587 53.6796 0.309911 53.7757C0.408236 53.8717 0.524976 53.9479 0.653458 53.9999C0.78194 54.0518 0.919643 54.0785 1.05869 54.0785H3.73586C3.95851 54.0784 4.17551 54.147 4.3559 54.2745C4.53629 54.402 4.67085 54.582 4.74039 54.7886C4.947 55.395 5.19413 55.9875 5.4802 56.5623C5.57725 56.7559 5.61011 56.9742 5.57421 57.1868C5.53831 57.3995 5.43542 57.5959 5.27988 57.7488L3.39432 59.5912C3.29594 59.6871 3.21789 59.8011 3.16463 59.9266C3.11138 60.0521 3.08397 60.1866 3.08397 60.3225C3.08397 60.4583 3.11138 60.5928 3.16463 60.7183C3.21789 60.8438 3.29594 60.9578 3.39432 61.0538L7.6161 65.1787C7.81483 65.3727 8.08425 65.4816 8.36516 65.4816C8.64607 65.4816 8.91549 65.3727 9.11423 65.1787L10.9626 63.3725C11.12 63.219 11.323 63.1178 11.5426 63.0832C11.7623 63.0487 11.9875 63.0826 12.1863 63.18C12.7843 63.4719 13.4019 63.7237 14.0348 63.9335C14.2447 64.0029 14.4272 64.1347 14.5565 64.3105C14.6859 64.4862 14.7557 64.6972 14.7561 64.9137V67.4608C14.7559 67.5968 14.7831 67.7315 14.8362 67.8572C14.8893 67.9829 14.9672 68.0971 15.0655 68.1933C15.1638 68.2896 15.2806 68.3659 15.4091 68.418C15.5377 68.4701 15.6755 68.497 15.8146 68.497H21.7827C21.9219 68.497 22.0597 68.4702 22.1883 68.4181C22.3168 68.366 22.4336 68.2897 22.5319 68.1934C22.6303 68.0972 22.7082 67.9829 22.7613 67.8572C22.8144 67.7315 22.8416 67.5968 22.8414 67.4608V64.9137C22.8419 64.6972 22.9117 64.4862 23.041 64.3105C23.1704 64.1347 23.3528 64.0029 23.5627 63.9335C24.1956 63.7237 24.8131 63.4719 25.411 63.18C25.6099 63.0826 25.8351 63.0487 26.0547 63.0832C26.2744 63.1178 26.4773 63.219 26.6348 63.3725L28.4833 65.1787C28.682 65.3727 28.9515 65.4816 29.2324 65.4816C29.5133 65.4816 29.7827 65.3727 29.9814 65.1787L34.203 61.0538C34.3014 60.9578 34.3795 60.8438 34.4327 60.7183C34.486 60.5928 34.5134 60.4583 34.5134 60.3225C34.5134 60.1866 34.486 60.0521 34.4327 59.9266C34.3795 59.8011 34.3014 59.6871 34.203 59.5912L32.3175 57.7488C32.1619 57.5959 32.059 57.3995 32.0231 57.1868C31.9872 56.9742 32.0201 56.7559 32.1171 56.5623C32.4033 55.9876 32.6504 55.3951 32.857 54.7886C32.9265 54.582 33.0611 54.402 33.2414 54.2745C33.4218 54.147 33.6388 54.0784 33.8615 54.0785H36.5388C36.6779 54.0785 36.8156 54.0518 36.944 53.9998C37.0725 53.9479 37.1892 53.8717 37.2875 53.7756C37.3858 53.6795 37.4638 53.5655 37.5169 53.4399C37.5701 53.3144 37.5974 53.1799 37.5973 53.044V47.2107C37.5974 46.9366 37.4861 46.6736 37.2878 46.4796C37.0895 46.2857 36.8204 46.1766 36.5398 46.1765V46.1765ZM18.8 58.747C17.0551 58.7472 15.3492 58.2417 13.8982 57.2946C12.4472 56.3474 11.3163 55.0011 10.6485 53.4259C9.98061 51.8506 9.80583 50.1173 10.1462 48.445C10.4866 46.7728 11.3269 45.2367 12.5608 44.031C13.7947 42.8254 15.3668 42.0044 17.0783 41.6718C18.7897 41.3392 20.5637 41.5099 22.1759 42.1625C23.788 42.8151 25.1659 43.9201 26.1352 45.3378C27.1046 46.7556 27.6219 48.4223 27.6218 50.1274C27.6215 52.4134 26.692 54.6057 25.0377 56.2221C23.3833 57.8386 21.1396 58.7468 18.8 58.747V58.747Z" fill="#F4F4F4"/>
<path d="M27.8335 84.1431L131.395 84.1431C133.938 84.1431 136 82.1286 136 79.6437V5.55737C136 3.07242 133.938 1.05797 131.395 1.05797L27.8335 1.05797C25.2903 1.05797 23.2287 3.07242 23.2287 5.55737L23.2287 79.6437C23.2287 82.1286 25.2903 84.1431 27.8335 84.1431Z" fill="white"/>
<path d="M23.0757 79.6436V5.55728C23.0772 4.32463 23.579 3.14288 24.4711 2.27128C25.3632 1.39968 26.5726 0.909385 27.8342 0.907959L131.396 0.907959C132.658 0.909385 133.867 1.39968 134.759 2.27128C135.651 3.14288 136.153 4.32463 136.155 5.55728V79.6436C136.153 80.8762 135.651 82.058 134.759 82.9296C133.867 83.8012 132.658 84.2915 131.396 84.2929H27.8342C26.5726 84.2915 25.3631 83.8012 24.471 82.9296C23.579 82.058 23.0771 80.8762 23.0757 79.6436V79.6436ZM27.8342 1.208C26.654 1.20932 25.5226 1.66799 24.688 2.48339C23.8535 3.29879 23.3841 4.40433 23.3828 5.55748V79.6436C23.3841 80.7967 23.8535 81.9023 24.688 82.7177C25.5226 83.5331 26.654 83.9917 27.8342 83.9931H131.396C132.576 83.9917 133.708 83.5331 134.542 82.7177C135.377 81.9023 135.846 80.7967 135.848 79.6436V5.55728C135.846 4.40412 135.377 3.29855 134.542 2.48314C133.708 1.66773 132.576 1.20908 131.396 1.2078L27.8342 1.208Z" fill="#292A2E"/>
<path d="M23.2295 5.55751V10.085H136V5.55751C136 4.36433 135.515 3.22 134.652 2.37622C133.789 1.53244 132.618 1.05831 131.396 1.05811H27.8344C26.6131 1.05811 25.4418 1.53215 24.5782 2.37595C23.7146 3.21975 23.2295 4.36419 23.2295 5.55751V5.55751Z" fill="#292A2E"/>
<path d="M43.0788 51.319C40.6129 51.319 38.2023 50.6045 36.152 49.2659C34.1016 47.9273 32.5036 46.0247 31.5599 43.7986C30.6162 41.5726 30.3693 39.1231 30.8504 36.76C31.3315 34.3968 32.519 32.2261 34.2626 30.5224C36.0063 28.8186 38.2279 27.6584 40.6464 27.1883C43.065 26.7183 45.5719 26.9595 47.8501 27.8816C50.1283 28.8036 52.0755 30.3651 53.4455 32.3684C54.8155 34.3718 55.5468 36.7272 55.5468 39.1366C55.543 42.3665 54.2281 45.4629 51.8908 47.7468C49.5534 50.0306 46.3843 51.3153 43.0788 51.319V51.319ZM43.0788 27.3391C40.6908 27.3391 38.3564 28.031 36.3708 29.3274C34.3853 30.6237 32.8377 32.4662 31.9239 34.6219C31.01 36.7776 30.7709 39.1497 31.2368 41.4382C31.7027 43.7267 32.8526 45.8288 34.5412 47.4787C36.2298 49.1286 38.3811 50.2522 40.7233 50.7074C43.0654 51.1626 45.4931 50.929 47.6993 50.0361C49.9056 49.1432 51.7913 47.631 53.118 45.691C54.4447 43.7509 55.1528 41.47 55.1528 39.1366C55.1493 36.0087 53.8762 33.0099 51.6126 30.798C49.3491 28.5862 46.28 27.342 43.0788 27.3384V27.3391Z" fill="#292A2E"/>
<path d="M79.614 51.319C77.148 51.319 74.7375 50.6045 72.6871 49.2659C70.6368 47.9273 69.0387 46.0247 68.0951 43.7986C67.1514 41.5726 66.9045 39.1231 67.3856 36.76C67.8666 34.3968 69.0541 32.2261 70.7978 30.5224C72.5415 28.8186 74.763 27.6584 77.1816 27.1883C79.6001 26.7183 82.107 26.9595 84.3853 27.8816C86.6635 28.8036 88.6107 30.3651 89.9807 32.3684C91.3507 34.3718 92.082 36.7272 92.082 39.1366C92.0781 42.3665 90.7633 45.4629 88.426 47.7468C86.0886 50.0306 82.9195 51.3153 79.614 51.319V51.319ZM79.614 27.3391C77.226 27.3391 74.8916 28.031 72.906 29.3274C70.9204 30.6237 69.3729 32.4662 68.459 34.6219C67.5452 36.7776 67.3061 39.1497 67.7719 41.4382C68.2378 43.7267 69.3878 45.8288 71.0763 47.4787C72.7649 49.1286 74.9163 50.2522 77.2584 50.7074C79.6006 51.1626 82.0283 50.929 84.2345 50.0361C86.4408 49.1432 88.3265 47.631 89.6532 45.691C90.9799 43.7509 91.688 41.4699 91.688 39.1366C91.6845 36.0087 90.4113 33.0099 88.1478 30.798C85.8843 28.5862 82.8152 27.342 79.614 27.3384V27.3391Z" fill="#292A2E"/>
<path d="M116.15 51.319C113.684 51.319 111.274 50.6045 109.223 49.2659C107.173 47.9273 105.575 46.0247 104.631 43.7986C103.688 41.5726 103.441 39.1231 103.922 36.76C104.403 34.3968 105.59 32.2261 107.334 30.5224C109.078 28.8186 111.299 27.6584 113.718 27.1883C116.136 26.7183 118.643 26.9595 120.921 27.8816C123.2 28.8036 125.147 30.3651 126.517 32.3684C127.887 34.3718 128.618 36.7272 128.618 39.1366C128.614 42.3665 127.299 45.4629 124.962 47.7468C122.625 50.0306 119.456 51.3153 116.15 51.319ZM116.15 27.3391C113.762 27.3391 111.428 28.031 109.442 29.3274C107.457 30.6237 105.909 32.4662 104.995 34.6219C104.081 36.7776 103.842 39.1497 104.308 41.4382C104.774 43.7267 105.924 45.8288 107.612 47.4787C109.301 49.1286 111.452 50.2522 113.795 50.7074C116.137 51.1626 118.564 50.929 120.771 50.0361C122.977 49.1432 124.863 47.631 126.189 45.691C127.516 43.7509 128.224 41.4699 128.224 39.1366C128.221 36.0087 126.948 33.0099 124.684 30.798C122.42 28.5862 119.351 27.342 116.15 27.3384V27.3391Z" fill="#292A2E"/>
<path opacity="0.6" d="M123.912 40.8916V33.3064H114.955V39.2579H121.578L123.912 40.8916Z" fill="#0CBC8B"/>
<path d="M108.389 46.4039V36.1453H120.503V44.1943H111.546L108.389 46.4039Z" fill="#0CBC8B"/>
<path d="M111.135 41.2745C111.715 41.2745 112.185 40.8152 112.185 40.2487C112.185 39.6822 111.715 39.2229 111.135 39.2229C110.555 39.2229 110.085 39.6822 110.085 40.2487C110.085 40.8152 110.555 41.2745 111.135 41.2745Z" fill="white"/>
<path d="M114.446 41.2745C115.026 41.2745 115.496 40.8152 115.496 40.2487C115.496 39.6822 115.026 39.2229 114.446 39.2229C113.867 39.2229 113.396 39.6822 113.396 40.2487C113.396 40.8152 113.867 41.2745 114.446 41.2745Z" fill="white"/>
<path d="M117.757 41.2745C118.337 41.2745 118.807 40.8152 118.807 40.2487C118.807 39.6822 118.337 39.2229 117.757 39.2229C117.178 39.2229 116.708 39.6822 116.708 40.2487C116.708 40.8152 117.178 41.2745 117.757 41.2745Z" fill="white"/>
<path d="M49.2904 42.8641C49.411 42.9428 49.496 43.0638 49.5278 43.202C49.5596 43.3403 49.5357 43.4852 49.4611 43.6068L48.782 44.7124C48.6019 45.0115 48.3109 45.2313 47.9693 45.3264C46.8405 45.6289 44.3512 45.6897 40.3611 41.7915C36.371 37.8934 36.4338 35.4598 36.7434 34.3574C36.8406 34.0236 37.0654 33.7392 37.3714 33.5629L38.5033 32.8995C38.6277 32.8267 38.776 32.8034 38.9174 32.8345C39.0589 32.8657 39.1827 32.9488 39.263 33.0668L41.0676 35.7117C41.1465 35.8275 41.1776 35.9682 41.1548 36.1055C41.1319 36.2428 41.0568 36.3666 40.9445 36.4521L39.9309 37.2219C39.8246 37.3021 39.7512 37.4168 39.724 37.5453C39.6969 37.6739 39.7177 37.8076 39.7828 37.9224C40.0802 38.4451 40.3621 39.0612 41.7578 40.4266C43.1535 41.7921 43.7865 42.0658 44.3207 42.3564C44.4382 42.42 44.5751 42.4404 44.7066 42.4137C44.8381 42.387 44.9554 42.3151 45.0373 42.2111L45.8251 41.2213C45.9126 41.1114 46.0393 41.0379 46.1799 41.0156C46.3205 40.9933 46.4645 41.0238 46.5831 41.101L49.2904 42.8641Z" fill="#0CBC8B"/>
<path opacity="0.6" d="M86.0396 43.4199H73.2397C73.0958 43.4206 72.9575 43.3655 72.8551 43.2665C72.7528 43.1676 72.6949 43.033 72.6941 42.8924L72.6494 35.3965C72.649 35.3344 72.6612 35.2728 72.6852 35.2153C72.7091 35.1578 72.7445 35.1055 72.7892 35.0613C72.8339 35.0172 72.887 34.9821 72.9456 34.958C73.0042 34.934 73.0671 34.9214 73.1306 34.9211L86.0487 34.8565C86.1769 34.8558 86.3001 34.9049 86.3913 34.993C86.4824 35.0811 86.5341 35.201 86.5348 35.3262L86.5795 42.8868C86.5799 42.9565 86.5662 43.0255 86.5393 43.09C86.5124 43.1545 86.4727 43.2132 86.4226 43.2627C86.3724 43.3122 86.3128 43.3515 86.2471 43.3785C86.1814 43.4055 86.1109 43.4196 86.0396 43.4199V43.4199Z" fill="#0CBC8B"/>
<path d="M86.3975 34.9965C85.6333 35.545 80.083 39.5366 80.0771 39.5404C79.9263 39.623 79.7558 39.6648 79.583 39.6614C79.4102 39.658 79.2415 39.6096 79.0942 39.5212L72.7812 35.0697C72.8262 35.0226 72.8805 34.9851 72.9408 34.9593C73.0011 34.9334 73.0662 34.9199 73.132 34.9196L86.0489 34.8541C86.1138 34.8539 86.1781 34.8664 86.238 34.8909C86.2978 34.9153 86.3521 34.9513 86.3975 34.9965V34.9965Z" fill="#0CBC8B"/>
<path d="M139.377 44.2424C141.856 44.2424 143.866 42.2787 143.866 39.8564C143.866 37.434 141.856 35.4703 139.377 35.4703C136.898 35.4703 134.888 37.434 134.888 39.8564C134.888 42.2787 136.898 44.2424 139.377 44.2424Z" fill="#367CFF"/>
<path d="M137.273 39.441C137.158 39.441 137.045 39.408 136.948 39.3461C136.852 39.2841 136.776 39.1958 136.73 39.0923C136.649 38.9088 134.77 34.527 136.811 28.099C139.022 21.1362 146.723 21.0552 146.8 21.0552C146.957 21.0552 147.107 21.116 147.218 21.2243C147.329 21.3326 147.391 21.4794 147.391 21.6325C147.391 21.7857 147.329 21.9325 147.218 22.0408C147.107 22.1491 146.957 22.2099 146.8 22.2099V22.2099C146.519 22.2099 139.889 22.3006 137.939 28.4408C136.026 34.4647 137.796 38.5934 137.814 38.6344C137.853 38.7222 137.869 38.8181 137.861 38.9134C137.852 39.0087 137.82 39.1004 137.766 39.1803C137.712 39.2603 137.639 39.3259 137.553 39.3713C137.466 39.4168 137.37 39.4406 137.272 39.4406L137.273 39.441Z" fill="#367CFF"/>
<path d="M137.752 44.2424C140.231 44.2424 142.24 42.2787 142.24 39.8564C142.24 37.434 140.231 35.4703 137.752 35.4703C135.272 35.4703 133.263 37.434 133.263 39.8564C133.263 42.2787 135.272 44.2424 137.752 44.2424Z" fill="#367CFF"/>
<path opacity="0.3" d="M137.752 44.2424C140.231 44.2424 142.24 42.2787 142.24 39.8564C142.24 37.434 140.231 35.4703 137.752 35.4703C135.272 35.4703 133.263 37.434 133.263 39.8564C133.263 42.2787 135.272 44.2424 137.752 44.2424Z" fill="white"/>
<path d="M138.828 44.2424C141.307 44.2424 143.317 42.2787 143.317 39.8564C143.317 37.434 141.307 35.4703 138.828 35.4703C136.349 35.4703 134.339 37.434 134.339 39.8564C134.339 42.2787 136.349 44.2424 138.828 44.2424Z" fill="#367CFF"/>
<path d="M160.002 31.9646C160.002 31.9646 161.445 38.7169 163.167 40.7598C168.126 46.6406 170.302 53.7051 166.744 58.0141C163.186 62.3232 138.398 65.8036 135.229 57.3877C132.562 50.3025 135.423 49.0479 135.458 42.9085C135.474 40.1305 135.867 34.2717 135.867 34.2717" fill="#0A0A0A"/>
<path d="M139.286 53.8153C139.331 53.8096 139.834 61.9619 149.527 61.2512C156.237 60.7601 158.63 53.8032 158.785 53.8032C158.061 53.6531 156.843 53.4345 156.522 53.267C155.465 52.7122 154.158 52.135 153.817 50.13C153.62 48.9753 153.954 43.0627 153.851 41.8929L143.551 44.1393C143.695 46.6085 144.702 52.333 141.172 53.3461C140.583 53.5149 139.951 53.6691 139.286 53.8153Z" fill="#E98862"/>
<path opacity="0.5" d="M143.406 51.0079C143.567 50.4998 143.671 49.976 143.716 49.4459C143.829 48.2361 143.806 47.0177 143.648 45.8127C145.742 45.5367 147.714 44.6924 149.341 43.3759C149.532 44.066 150.584 47.0818 150.293 47.7377C149.742 48.9776 147.156 51.0079 143.406 51.0079Z" fill="#0C0C0C"/>
<path d="M145.239 49.2171C149.316 49.0674 154.306 46.8083 154.662 41.4294L154.984 36.5761C155.339 31.1974 152.737 26.6543 147.554 26.3267C142.37 25.9995 138.208 30.1148 137.852 35.4937L137.709 37.6423C137.573 39.7069 137.965 49.4836 145.239 49.2171Z" fill="#E98862"/>
<path opacity="0.1" d="M146.85 42.0187C147.523 42.0087 148.062 41.6096 148.055 41.1273C148.047 40.645 147.495 40.2622 146.822 40.2722C146.15 40.2823 145.61 40.6814 145.618 41.1637C145.625 41.646 146.177 42.0288 146.85 42.0187Z" fill="#0C0C0C"/>
<path opacity="0.1" d="M139.589 41.0422C139.595 41.5233 139.056 41.9226 138.383 41.9336C138.267 41.9352 138.151 41.9251 138.036 41.9034C137.928 41.3424 137.851 40.7989 137.798 40.2933C137.976 40.2242 138.165 40.1881 138.357 40.1869C139.03 40.1759 139.582 40.5587 139.589 41.0422Z" fill="#0C0C0C"/>
<path d="M139.406 37.4192C139.758 37.4192 140.044 37.1402 140.044 36.7962C140.044 36.4521 139.758 36.1732 139.406 36.1732C139.054 36.1732 138.769 36.4521 138.769 36.7962C138.769 37.1402 139.054 37.4192 139.406 37.4192Z" fill="#0C0C0C"/>
<path d="M145.715 37.8796C146.067 37.8796 146.352 37.6007 146.352 37.2566C146.352 36.9126 146.067 36.6337 145.715 36.6337C145.363 36.6337 145.077 36.9126 145.077 37.2566C145.077 37.6007 145.363 37.8796 145.715 37.8796Z" fill="#0C0C0C"/>
<path opacity="0.5" d="M142.718 42.1216H142.708C142.498 42.1067 142.289 42.0806 142.082 42.0434C141.772 41.9857 141.363 41.8775 141.38 41.6087C141.4 41.3021 142.479 38.0496 142.602 37.6797C142.613 37.6486 142.637 37.6231 142.667 37.6086C142.698 37.5941 142.733 37.5917 142.765 37.602C142.798 37.6122 142.825 37.6343 142.841 37.6635C142.856 37.6928 142.86 37.7269 142.851 37.7588C142.391 39.1445 141.656 41.4189 141.642 41.6252C141.688 41.7145 142.204 41.8327 142.726 41.8658C142.759 41.8682 142.791 41.8832 142.813 41.9077C142.836 41.9321 142.848 41.9641 142.847 41.997C142.846 42.0299 142.832 42.0612 142.808 42.0845C142.784 42.1077 142.752 42.121 142.719 42.1218L142.718 42.1216Z" fill="#0C0C0C"/>
<path opacity="0.5" d="M143.754 44.3007C142.915 44.2955 142.089 44.0978 141.342 43.7233C141.327 43.7159 141.313 43.7056 141.301 43.693C141.29 43.6804 141.281 43.6657 141.276 43.6498C141.264 43.6177 141.267 43.5825 141.282 43.552C141.297 43.5215 141.324 43.4982 141.357 43.4872C141.39 43.4762 141.426 43.4784 141.457 43.4933C143.068 44.2631 144.569 44.2385 145.798 43.4221C145.823 43.4048 145.848 43.3889 145.875 43.3742C145.906 43.3605 145.941 43.3589 145.973 43.3699C146.005 43.3809 146.031 43.4035 146.046 43.4331C146.061 43.4626 146.064 43.4968 146.055 43.5284C146.045 43.5601 146.023 43.5867 145.993 43.6028C145.983 43.6082 145.967 43.619 145.945 43.634C145.299 44.0642 144.536 44.2964 143.754 44.3007V44.3007Z" fill="#0C0C0C"/>
<path d="M159.18 37.7369L154.537 37.4696C150.927 36.5235 149.154 30.832 149.154 30.832C149.154 30.832 146.266 35.3122 135.859 34.2672C135.859 34.2672 135.352 20.0317 150.823 22.442C155.798 23.2172 159.866 27.4872 160.234 33.8844C160.492 38.3676 159.18 37.7369 159.18 37.7369Z" fill="#0A0A0A"/>
<path d="M154.232 43.0477C155.807 43.1474 157.193 41.5814 157.295 40.0423C157.396 38.5032 156.176 37.5739 154.601 37.4744L153.721 38.4543L152.877 42.9622L154.232 43.0477Z" fill="#E98862"/>
<path d="M141.178 35.3872C140.758 35.1727 140.287 35.0707 139.813 35.0916C139.575 35.1007 139.339 35.1447 139.115 35.2223C138.888 35.2995 138.672 35.4042 138.472 35.5339L138.466 35.5377C138.443 35.5511 138.416 35.5554 138.391 35.5497C138.365 35.544 138.343 35.5288 138.329 35.5073C138.315 35.4858 138.31 35.4598 138.315 35.4347C138.32 35.4097 138.335 35.3876 138.357 35.3732C138.568 35.2263 138.796 35.1059 139.038 35.0148C139.281 34.922 139.537 34.8655 139.797 34.847C140.324 34.8065 140.853 34.9049 141.327 35.1319C141.363 35.1493 141.39 35.1799 141.403 35.2169C141.415 35.2538 141.413 35.2942 141.395 35.3291C141.377 35.364 141.346 35.3905 141.308 35.4029C141.27 35.4152 141.228 35.4124 141.193 35.3949L141.189 35.393L141.178 35.3872Z" fill="#0C0C0C"/>
<path d="M145.388 35.4007C145.888 35.2333 146.425 35.2 146.942 35.3045C147.198 35.3544 147.445 35.4416 147.674 35.5631C147.903 35.6828 148.114 35.8301 148.305 36.0016C148.324 36.0185 148.336 36.0422 148.338 36.0674C148.339 36.0927 148.331 36.1177 148.314 36.1371C148.298 36.1565 148.274 36.1689 148.248 36.1716C148.222 36.1743 148.197 36.1672 148.176 36.1517L148.17 36.147C147.988 35.994 147.787 35.8638 147.572 35.7596C147.359 35.6553 147.131 35.583 146.896 35.5452C146.428 35.4668 145.948 35.5107 145.504 35.6725L145.493 35.6767C145.474 35.6837 145.455 35.6871 145.435 35.6867C145.415 35.6863 145.396 35.6821 145.378 35.6744C145.36 35.6666 145.343 35.6555 145.33 35.6415C145.316 35.6276 145.305 35.6112 145.298 35.5932C145.291 35.5752 145.287 35.556 145.288 35.5367C145.288 35.5173 145.292 35.4983 145.3 35.4806C145.308 35.4629 145.32 35.4469 145.334 35.4335C145.348 35.4202 145.365 35.4097 145.383 35.4026L145.388 35.4007Z" fill="#0C0C0C"/>
<path opacity="0.52" d="M143.729 45.5154C143.578 45.5166 143.426 45.5054 143.276 45.4817C143.259 45.479 143.243 45.4731 143.229 45.4644C143.214 45.4556 143.201 45.444 143.191 45.4304C143.181 45.4168 143.174 45.4014 143.17 45.385C143.166 45.3687 143.165 45.3517 143.168 45.3351C143.17 45.3185 143.176 45.3026 143.185 45.2883C143.194 45.2739 143.206 45.2615 143.22 45.2516C143.234 45.2417 143.25 45.2346 143.267 45.2307C143.283 45.2268 143.301 45.2261 143.318 45.2288C144.219 45.3689 144.673 44.9849 144.692 44.9686C144.718 44.9458 144.752 44.934 144.787 44.9357C144.821 44.9374 144.854 44.9525 144.877 44.9777C144.901 45.0029 144.913 45.0361 144.911 45.07C144.909 45.1039 144.894 45.1358 144.868 45.1585C144.542 45.4024 144.14 45.5285 143.729 45.5154V45.5154Z" fill="#0C0C0C"/>
<path d="M154.588 37.4021C151.394 36.6972 150.102 34.7778 149.581 33.2917C149.239 32.2999 149.113 31.2492 149.211 30.207L149.31 30.2199C149.213 31.2485 149.338 32.2853 149.676 33.264C150.19 34.7255 151.463 36.6127 154.611 37.3084L154.588 37.4021Z" fill="#0C0C0C"/>
<path d="M105.478 56.9536L102.318 51.1301C102.248 51.0022 102.152 50.8899 102.036 50.8002C101.919 50.7105 101.785 50.6455 101.642 50.6093C101.498 50.5731 101.348 50.5665 101.202 50.5899C101.056 50.6133 100.916 50.6662 100.792 50.7452C100.567 50.898 100.409 51.1269 100.347 51.3875C100.285 51.6481 100.324 51.9219 100.457 52.1557L101.135 53.4044L97.1591 50.4334C96.723 50.0955 95.9666 49.9535 95.6109 50.4565C95.4612 50.6414 95.3799 50.8704 95.3805 51.1061C95.381 51.3418 95.4633 51.5705 95.6139 51.7547C95.6096 51.7579 95.6057 51.7615 95.602 51.7654C95.5995 51.7689 95.5989 51.7729 95.5967 51.7764L94.9243 51.2543C94.7997 51.1578 94.6546 51.0898 94.4996 51.055C94.3447 51.0203 94.1837 51.0198 94.0286 51.0536C93.8734 51.0873 93.7279 51.1545 93.6026 51.2502C93.4774 51.3459 93.3756 51.4677 93.3046 51.6067C93.1974 51.8278 93.1711 52.0781 93.2302 52.3159C93.2892 52.5536 93.43 52.7643 93.629 52.9128L93.9154 53.1346C93.9126 53.1456 93.9119 53.1571 93.9132 53.1684C93.6843 53.0625 93.4243 53.0396 93.1797 53.1037C92.9351 53.1679 92.7218 53.315 92.578 53.5187C92.4274 53.7462 92.3701 54.0208 92.4176 54.2877C92.465 54.5547 92.6137 54.7943 92.8341 54.9588L93.5449 55.5094C93.5292 55.5085 93.5136 55.5113 93.4992 55.5176C93.4848 55.5238 93.4722 55.5333 93.4624 55.5452C93.4515 55.56 93.4452 55.5775 93.4443 55.5957C93.2136 55.5567 92.9761 55.5928 92.7685 55.6985C92.5608 55.8042 92.3945 55.9736 92.295 56.1807C92.195 56.4003 92.1738 56.6465 92.2348 56.8793C92.2958 57.1121 92.4355 57.318 92.6312 57.4636L98.6294 62.1097C99.4686 62.7596 100.487 63.1499 101.555 63.2304C102.622 63.311 103.69 63.0783 104.622 62.562V62.562C105.425 62.1168 106.018 61.3833 106.277 60.5172C106.535 59.6511 106.438 58.7208 106.005 57.9238L105.478 56.9536Z" fill="#E98862"/>
<g opacity="0.2">
<path opacity="0.2" d="M99.5347 54.7141C99.5186 54.7336 99.4953 54.7463 99.4697 54.7493C99.4442 54.7523 99.4185 54.7453 99.3981 54.73L95.6206 51.9C95.6103 51.8923 95.6017 51.8827 95.5952 51.8718C95.5888 51.8608 95.5846 51.8487 95.5829 51.8362C95.5812 51.8236 95.582 51.8109 95.5854 51.7987C95.5887 51.7865 95.5945 51.775 95.6024 51.765C95.6103 51.755 95.6201 51.7465 95.6313 51.7402C95.6425 51.7339 95.6549 51.7298 95.6677 51.7281C95.6805 51.7265 95.6936 51.7273 95.7061 51.7306C95.7186 51.7338 95.7303 51.7395 95.7406 51.7472L99.518 54.5774C99.5387 54.593 99.5522 54.6159 99.5556 54.6411C99.559 54.6664 99.552 54.6919 99.5361 54.7121L99.5347 54.7141Z" fill="#0C0C0C"/>
</g>
<g opacity="0.2">
<path opacity="0.2" d="M98.3029 56.3763C98.2868 56.3958 98.2635 56.4085 98.2379 56.4115C98.2124 56.4144 98.1866 56.4075 98.1662 56.3922L93.9511 53.2338C93.9304 53.2183 93.9169 53.1954 93.9135 53.1702C93.91 53.1449 93.917 53.1194 93.9328 53.0991C93.9492 53.0797 93.9726 53.0671 93.9981 53.0637C94.0237 53.0604 94.0496 53.0667 94.0707 53.0812L98.2864 56.2388C98.3071 56.2544 98.3206 56.2772 98.324 56.3025C98.3275 56.3278 98.3205 56.3533 98.3047 56.3736L98.3029 56.3763Z" fill="#0C0C0C"/>
</g>
<g opacity="0.2">
<path opacity="0.2" d="M96.9805 58.1842C96.9643 58.2038 96.941 58.2164 96.9154 58.2194C96.8899 58.2224 96.8642 58.2155 96.8438 58.2002L93.481 55.6808C93.4602 55.6652 93.4466 55.6423 93.4432 55.6169C93.4398 55.5916 93.4468 55.566 93.4627 55.5457C93.4786 55.5255 93.5021 55.5122 93.528 55.5089C93.554 55.5055 93.5802 55.5124 93.6009 55.5279L96.9635 58.0479C96.9842 58.0634 96.9977 58.0863 97.0012 58.1116C97.0046 58.1368 96.9976 58.1624 96.9818 58.1827L96.9805 58.1842Z" fill="#0C0C0C"/>
</g>
<path d="M127.991 57.2762L117.77 74.7806L107.325 56.1444L94.8423 62.9542L111.647 91.8071C112.191 92.7342 112.95 93.5237 113.863 94.1125C115.394 95.0929 117.261 95.4389 119.053 95.0744C120.846 94.7099 122.416 93.6647 123.42 92.1687L123.506 92.04L141.43 65.3147L127.991 57.2762Z" fill="#367CFF"/>
<path d="M105.478 56.9535L102.317 51.13C102.248 51.0021 102.152 50.8897 102.035 50.8001C101.919 50.7104 101.785 50.6454 101.641 50.6092C101.498 50.573 101.348 50.5664 101.202 50.5898C101.056 50.6132 100.916 50.666 100.792 50.7451C100.567 50.8979 100.408 51.1268 100.346 51.3874C100.285 51.648 100.324 51.9217 100.457 52.1556L101.135 53.4042L102.188 55.659" fill="#E98862"/>
<path d="M149.708 59.2134C156.423 58.9041 156.706 53.3352 156.706 53.3352C156.706 53.3352 160.033 53.5452 162.245 53.8377C165.866 54.3163 168.255 55.5161 170.156 57.3735C171.924 59.1015 173.001 60.9709 171.861 72.9067C171.036 81.5479 171.617 100.558 171.617 100.558H131.091C131.091 100.558 128.661 75.6423 128.322 71.752C127.676 64.3253 125.028 60.1393 128.729 56.3136C131.412 53.5392 138.341 53.3352 141.129 53.3356C141.175 53.3356 140.563 59.6346 149.708 59.2134Z" fill="#367CFF"/>
<path d="M128.558 70.51C128.556 70.4845 128.544 70.4607 128.525 70.4438C128.505 70.4269 128.479 70.4183 128.453 70.4199C128.427 70.4215 128.403 70.4332 128.385 70.4523C128.368 70.4715 128.359 70.4966 128.361 70.5222L129.185 83.3835C129.187 83.4066 129.197 83.4284 129.213 83.4449C129.23 83.4615 129.252 83.4716 129.276 83.4734C129.28 83.4737 129.285 83.4737 129.29 83.4734C129.302 83.4726 129.315 83.4694 129.327 83.4638C129.338 83.4582 129.349 83.4505 129.357 83.441C129.366 83.4315 129.372 83.4205 129.377 83.4085C129.381 83.3965 129.383 83.3838 129.382 83.3712" fill="#0C0C0C"/>
<path d="M137.487 89.2846L130.931 87.7282C130.787 87.694 130.638 87.6895 130.492 87.715C130.346 87.7405 130.207 87.7954 130.084 87.8761C129.961 87.9569 129.856 88.0619 129.777 88.1843C129.698 88.3067 129.646 88.4439 129.624 88.5871C129.591 88.8527 129.661 89.1206 129.82 89.3388C129.978 89.5569 130.214 89.7098 130.481 89.7678L131.887 90.1015L126.973 91.0346C126.425 91.1289 125.814 91.5873 125.963 92.1812C126.005 92.4134 126.127 92.6248 126.307 92.7809C126.488 92.937 126.718 93.0287 126.959 93.0409C126.958 93.0461 126.958 93.0513 126.959 93.0565C126.959 93.0607 126.962 93.0638 126.963 93.0679L126.118 93.2134C125.962 93.2404 125.813 93.3013 125.684 93.3915C125.555 93.4817 125.447 93.599 125.37 93.7348C125.293 93.8706 125.248 94.0215 125.238 94.1766C125.228 94.3316 125.254 94.4868 125.313 94.631C125.411 94.8561 125.585 95.0415 125.806 95.1562C126.027 95.2708 126.282 95.3078 126.528 95.2609L126.888 95.1989C126.894 95.2083 126.903 95.2164 126.912 95.223C126.679 95.3199 126.489 95.4947 126.376 95.7161C126.262 95.9374 126.233 96.1909 126.294 96.4312C126.368 96.6924 126.54 96.9168 126.776 97.0595C127.012 97.2022 127.294 97.2527 127.566 97.201L128.459 97.0471C128.448 97.0579 128.44 97.0712 128.435 97.0858C128.431 97.1004 128.429 97.1159 128.432 97.131C128.436 97.1488 128.445 97.1651 128.459 97.1779C128.276 97.3206 128.146 97.518 128.089 97.7399C128.032 97.9618 128.051 98.1958 128.144 98.406C128.245 98.6248 128.419 98.8037 128.638 98.9137C128.857 99.0237 129.107 99.0584 129.349 99.012L136.887 97.7128C137.941 97.5311 138.916 97.0458 139.687 96.3192C140.457 95.5925 140.988 94.6576 141.211 93.6343C141.403 92.7519 141.236 91.831 140.745 91.0672C140.253 90.3035 139.476 89.757 138.579 89.544L137.487 89.2846Z" fill="#E98862"/>
<g opacity="0.2">
<path opacity="0.2" d="M131.828 92.141C131.832 92.1659 131.826 92.1914 131.811 92.2121C131.797 92.2328 131.774 92.247 131.749 92.2517L127.075 93.1332C127.062 93.1355 127.049 93.1355 127.037 93.1329C127.024 93.1304 127.012 93.1254 127.001 93.1183C126.991 93.1113 126.981 93.1022 126.974 93.0916C126.967 93.0811 126.962 93.0693 126.96 93.0568C126.957 93.0444 126.957 93.0317 126.96 93.0193C126.963 93.0069 126.968 92.9952 126.975 92.9847C126.982 92.9742 126.991 92.9653 127.002 92.9583C127.013 92.9514 127.025 92.9465 127.038 92.9442L131.712 92.0625C131.724 92.0601 131.738 92.0602 131.75 92.0628C131.763 92.0654 131.775 92.0704 131.786 92.0775C131.797 92.0847 131.806 92.0939 131.813 92.1045C131.82 92.1151 131.825 92.127 131.827 92.1395L131.828 92.141Z" fill="#0C0C0C"/>
</g>
<g opacity="0.2">
<path opacity="0.2" d="M132.283 94.1445C132.287 94.1693 132.281 94.1948 132.267 94.2155C132.252 94.2361 132.229 94.2503 132.204 94.255L126.988 95.2388C126.975 95.2412 126.962 95.2411 126.95 95.2385C126.937 95.2359 126.925 95.2309 126.914 95.2237C126.903 95.2165 126.894 95.2074 126.887 95.1968C126.88 95.1862 126.875 95.1743 126.873 95.1618C126.869 95.1368 126.875 95.1112 126.889 95.0902C126.904 95.0693 126.926 95.0546 126.952 95.0492L132.168 94.0654C132.18 94.063 132.194 94.0632 132.206 94.0658C132.219 94.0683 132.231 94.0734 132.242 94.0805C132.252 94.0877 132.262 94.0968 132.269 94.1074C132.276 94.1181 132.281 94.1299 132.283 94.1424V94.1445Z" fill="#0C0C0C"/>
</g>
<g opacity="0.2">
<path opacity="0.2" d="M132.787 96.3116C132.792 96.3364 132.786 96.3619 132.771 96.3825C132.756 96.4032 132.734 96.4174 132.709 96.422L128.548 97.2069C128.535 97.2093 128.522 97.2092 128.509 97.2067C128.497 97.2041 128.485 97.1992 128.474 97.1921C128.463 97.185 128.454 97.176 128.447 97.1654C128.44 97.1549 128.435 97.1431 128.432 97.1306C128.43 97.1182 128.43 97.1055 128.433 97.0931C128.435 97.0807 128.44 97.0689 128.448 97.0585C128.455 97.048 128.464 97.039 128.475 97.0321C128.486 97.0251 128.498 97.0203 128.51 97.0179L132.671 96.2331C132.684 96.2307 132.697 96.2308 132.71 96.2333C132.723 96.2359 132.735 96.2409 132.745 96.2481C132.756 96.2552 132.765 96.2644 132.772 96.275C132.779 96.2857 132.784 96.2976 132.787 96.31L132.787 96.3116Z" fill="#0C0C0C"/>
</g>
<path d="M136.833 100.232L172.059 100.42C173.193 100.541 174.341 100.403 175.412 100.017C176.482 99.6318 177.447 99.0091 178.23 98.198C179.014 97.3869 179.594 96.4095 179.925 95.3425C180.257 94.2755 180.331 93.148 180.142 92.0484L172.294 61.3325C172.138 60.3935 171.794 59.4938 171.281 58.6852C170.768 57.8767 170.097 57.1752 169.305 56.6211C168.514 56.067 167.618 55.6712 166.67 55.4565C165.721 55.2419 164.739 55.2125 163.779 55.3702C162.818 55.5279 161.9 55.8696 161.075 56.3754C160.251 56.8813 159.537 57.5415 158.974 58.318C158.412 59.0944 158.012 59.9719 157.798 60.8999C157.584 61.8279 157.559 62.7881 157.726 63.7253L163.745 86.8653L137.004 87.7245L136.833 100.232Z" fill="#367CFF"/>
<path d="M168.35 86.7683C168.374 86.7681 168.398 86.7588 168.416 86.7423C168.434 86.7258 168.445 86.7032 168.447 86.6791C168.449 86.655 168.441 86.6312 168.426 86.6122C168.41 86.5933 168.388 86.5808 168.364 86.577L163.802 86.7389C163.789 86.7368 163.776 86.7373 163.763 86.7402C163.751 86.7432 163.739 86.7486 163.728 86.7561C163.718 86.7637 163.709 86.7732 163.703 86.7841C163.696 86.795 163.692 86.8071 163.69 86.8197C163.686 86.8449 163.693 86.8706 163.708 86.8911C163.724 86.9115 163.747 86.9252 163.773 86.929L168.335 86.7672C168.34 86.7679 168.345 86.7683 168.35 86.7683Z" fill="#0C0C0C"/>
<path d="M171.034 100.559C171.06 100.56 171.086 100.552 171.106 100.535C171.126 100.518 171.138 100.494 171.139 100.469C171.141 100.443 171.132 100.418 171.115 100.399C171.098 100.379 171.073 100.368 171.047 100.366L137.04 100.159L137.189 87.8417L163.77 86.9289C163.786 86.9308 163.801 86.9293 163.816 86.9243C163.83 86.9194 163.843 86.9111 163.854 86.9003C163.865 86.8895 163.873 86.8763 163.877 86.8619C163.882 86.8475 163.883 86.8323 163.88 86.8174L160.982 72.9087C160.98 72.8962 160.975 72.8841 160.968 72.8733C160.961 72.8625 160.952 72.8532 160.942 72.8458C160.931 72.8385 160.919 72.8333 160.907 72.8305C160.894 72.8278 160.881 72.8275 160.868 72.8298C160.842 72.834 160.819 72.8481 160.804 72.8689C160.789 72.8897 160.783 72.9155 160.787 72.9406L163.663 86.7204L137.114 87.6373C137.101 87.6356 137.088 87.6365 137.075 87.6399C137.063 87.6433 137.051 87.6491 137.041 87.6571C137.03 87.665 137.022 87.6749 137.015 87.6861C137.009 87.6974 137.005 87.7098 137.003 87.7225L136.833 100.232C136.83 100.257 136.838 100.282 136.854 100.302C136.869 100.322 136.893 100.335 136.918 100.338L171.021 100.558C171.025 100.558 171.03 100.559 171.034 100.559V100.559Z" fill="#0C0C0C"/>
<path d="M120.242 96.9443L110.605 68.0012C110.436 67.4926 110.106 67.0494 109.663 66.7351C109.22 66.4208 108.687 66.2516 108.14 66.2516H68.8809C68.4716 66.2516 68.0682 66.3462 67.7036 66.5278C67.339 66.7093 67.0235 66.9726 66.783 67.2962C66.5425 67.6197 66.3838 67.9942 66.3199 68.3892C66.256 68.7842 66.2887 69.1883 66.4153 69.5685L76.0516 98.5118C76.2209 99.0204 76.5506 99.4636 76.9935 99.7779C77.4364 100.092 77.9697 100.261 78.5171 100.261H117.776C118.185 100.261 118.589 100.167 118.953 99.9852C119.318 99.8036 119.633 99.5403 119.874 99.2167C120.114 98.8932 120.273 98.5186 120.337 98.1236C120.401 97.7287 120.368 97.3245 120.242 96.9443Z" fill="#292A2E"/>
<path d="M138.661 97.9147H112.381C111.726 97.9147 111.195 98.4334 111.195 99.0733V99.1029C111.195 99.7428 111.726 100.261 112.381 100.261H138.661C139.316 100.261 139.846 99.7428 139.846 99.1029V99.0733C139.846 98.4334 139.316 97.9147 138.661 97.9147Z" fill="#292A2E"/>
<path d="M92.7377 88.1142C95.0118 88.1142 96.8553 86.3129 96.8553 84.0909C96.8553 81.8689 95.0118 80.0676 92.7377 80.0676C90.4636 80.0676 88.6201 81.8689 88.6201 84.0909C88.6201 86.3129 90.4636 88.1142 92.7377 88.1142Z" fill="white"/>
<path d="M156.91 39.1982C156.753 39.1982 156.603 39.1374 156.492 39.0291C156.381 38.9208 156.319 38.774 156.319 38.6208V32.0439C156.319 28.6971 155.371 26.0453 153.577 24.3751C151.877 22.792 149.438 22.0639 146.329 22.2096C146.251 22.2137 146.173 22.2027 146.1 22.1773C146.027 22.1518 145.959 22.1125 145.901 22.0615C145.844 22.0105 145.797 21.9488 145.763 21.8801C145.73 21.8113 145.711 21.7368 145.707 21.6608C145.703 21.5848 145.715 21.5088 145.742 21.4373C145.768 21.3657 145.809 21.2999 145.861 21.2438C145.914 21.1876 145.977 21.1421 146.047 21.1099C146.118 21.0777 146.194 21.0595 146.272 21.0562C149.717 20.8936 152.45 21.7298 154.393 23.5389C156.427 25.4325 157.502 28.3734 157.502 32.0437V38.6206C157.502 38.6965 157.486 38.7717 157.457 38.8418C157.427 38.912 157.383 38.9757 157.328 39.0293C157.273 39.0829 157.208 39.1255 157.136 39.1545C157.065 39.1834 156.988 39.1983 156.91 39.1982V39.1982Z" fill="#367CFF"/>
<path d="M156.027 44.2424C158.507 44.2424 160.516 42.2787 160.516 39.8564C160.516 37.434 158.507 35.4703 156.027 35.4703C153.548 35.4703 151.539 37.434 151.539 39.8564C151.539 42.2787 153.548 44.2424 156.027 44.2424Z" fill="#367CFF"/>
<path d="M156.201 43.142C156.17 43.1198 156.134 43.1038 156.096 43.095C156.058 43.0862 156.019 43.0848 155.981 43.0908C155.943 43.0968 155.906 43.1101 155.873 43.13C155.84 43.1499 155.811 43.1759 155.788 43.2067L155.445 43.6703C155.024 44.237 154.472 44.6985 153.834 45.017C153.195 45.3355 152.489 45.5021 151.772 45.503H146.307V45.3901C146.307 45.2369 146.245 45.0901 146.134 44.9818C146.023 44.8735 145.873 44.8127 145.716 44.8127H143.867C143.71 44.8127 143.56 44.8735 143.449 44.9818C143.338 45.0901 143.276 45.2369 143.276 45.3901V46.2353C143.276 46.3885 143.338 46.5353 143.449 46.6436C143.56 46.7519 143.71 46.8127 143.867 46.8127H145.716C145.873 46.8127 146.023 46.7519 146.134 46.6436C146.245 46.5353 146.307 46.3885 146.307 46.2353V46.0814H151.772C152.582 46.0803 153.381 45.892 154.102 45.532C154.824 45.172 155.448 44.6504 155.924 44.0098L156.267 43.5462C156.29 43.5154 156.307 43.4805 156.316 43.4436C156.325 43.4066 156.326 43.3682 156.32 43.3306C156.314 43.2931 156.3 43.2571 156.28 43.2247C156.259 43.1923 156.233 43.1642 156.201 43.142V43.142Z" fill="#367CFF"/>
<path d="M157.105 44.2424C159.584 44.2424 161.594 42.2787 161.594 39.8564C161.594 37.434 159.584 35.4703 157.105 35.4703C154.626 35.4703 152.616 37.434 152.616 39.8564C152.616 42.2787 154.626 44.2424 157.105 44.2424Z" fill="#367CFF"/>
<path opacity="0.3" d="M157.105 44.2424C159.584 44.2424 161.594 42.2787 161.594 39.8564C161.594 37.434 159.584 35.4703 157.105 35.4703C154.626 35.4703 152.616 37.434 152.616 39.8564C152.616 42.2787 154.626 44.2424 157.105 44.2424Z" fill="white"/>
<path d="M71.8488 100.751H180.771C180.823 100.751 180.874 100.731 180.911 100.694C180.947 100.658 180.968 100.609 180.968 100.558C180.968 100.507 180.947 100.458 180.911 100.422C180.874 100.386 180.823 100.366 180.771 100.366H71.8488C71.7966 100.366 71.7465 100.386 71.7095 100.422C71.6726 100.458 71.6519 100.507 71.6519 100.558C71.6519 100.609 71.6726 100.658 71.7095 100.694C71.7465 100.731 71.7966 100.751 71.8488 100.751Z" fill="#292A2E"/>
</g>
<defs>
<clipPath id="clip0_1353_3123">
<rect width="180.968" height="99.8429" fill="white" transform="translate(0 0.907959)"/>
</clipPath>
</defs>
</svg>
