<svg width="93" height="60" viewBox="0 0 93 60" fill="none" xmlns="http://www.w3.org/2000/svg">
<path d="M53.3611 31.5061L53.4571 32.3461C53.4571 32.6501 53.1691 32.8021 52.5931 32.8021C51.4251 32.8021 50.8411 32.3621 50.8411 31.4821C50.8411 31.2741 50.8971 30.9861 51.0091 30.6181C51.1211 30.2501 51.1771 29.9301 51.1771 29.6581C51.1771 29.3861 51.0971 29.1541 50.9371 28.9621C50.7771 28.7541 50.5451 28.6501 50.2411 28.6501C49.9371 28.6501 49.6731 28.7621 49.4491 28.9861C49.2411 29.1941 49.1131 29.4101 49.0651 29.6341L48.9691 29.9701C48.8731 30.4661 48.8251 31.2981 48.8251 32.4661C48.8251 33.6181 48.8411 34.5301 48.8731 35.2021C48.9051 35.8581 48.9371 36.3141 48.9691 36.5701C49.0011 36.8101 49.0171 36.9541 49.0171 37.0021C49.0171 37.4021 48.7691 37.7221 48.2731 37.9621C47.7771 38.2181 47.2811 38.3461 46.7851 38.3461C46.2891 38.3461 46.0411 38.2421 46.0411 38.0341L46.1611 37.2901C46.3851 35.8981 46.4971 34.0821 46.4971 31.8421C46.4971 29.6021 46.4171 28.0821 46.2571 27.2821C46.2571 27.0901 46.4251 26.9941 46.7611 26.9941C47.6251 26.9941 48.2011 27.2901 48.4891 27.8821C48.5051 27.9461 48.5291 27.9781 48.5611 27.9781C48.6091 27.9781 48.7211 27.9061 48.8971 27.7621C49.4251 27.3301 50.0491 27.1141 50.7691 27.1141C51.2171 27.1141 51.6651 27.2021 52.1131 27.3781C53.0251 27.7461 53.4811 28.5141 53.4811 29.6821L53.3611 31.5061ZM57.0523 31.8421L57.0763 32.4421C57.0763 32.5381 57.1403 32.5861 57.2683 32.5861C57.7803 32.5381 58.2283 32.4101 58.6123 32.2021C58.9963 31.9781 59.2843 31.7301 59.4763 31.4581C59.8603 30.8661 60.0683 30.3541 60.1003 29.9221L60.1243 29.6341C60.1243 28.7701 59.7803 28.3381 59.0923 28.3381C58.5803 28.3381 58.1643 28.5621 57.8443 29.0101C57.3163 29.7141 57.0523 30.6581 57.0523 31.8421ZM62.2843 35.0341C62.2843 35.6421 62.1563 36.1781 61.9003 36.6421C61.6603 37.0901 61.3803 37.4261 61.0603 37.6501C60.7563 37.8581 60.3963 38.0261 59.9803 38.1541C59.4523 38.3141 58.9483 38.3941 58.4683 38.3941C57.1243 38.3941 56.1323 37.8901 55.4923 36.8821C54.8523 35.8741 54.5323 34.5941 54.5323 33.0421C54.5323 31.4741 54.9243 30.0821 55.7083 28.8661C56.5083 27.6501 57.7003 27.0421 59.2843 27.0421C60.7243 27.0421 61.7003 27.5461 62.2123 28.5541C62.4203 28.9381 62.5243 29.3061 62.5243 29.6581C62.5243 29.9941 62.5083 30.2661 62.4763 30.4741C62.4443 30.6661 62.3323 30.9621 62.1403 31.3621C61.9483 31.7621 61.6923 32.1221 61.3723 32.4421C61.0523 32.7621 60.5483 33.0661 59.8603 33.3541C59.1723 33.6421 58.3643 33.8341 57.4363 33.9301C57.3083 33.9301 57.2443 33.9861 57.2443 34.0981C57.2443 34.2421 57.2923 34.4581 57.3883 34.7461C57.5003 35.0181 57.6203 35.2501 57.7483 35.4421C58.1003 35.8901 58.6203 36.1141 59.3083 36.1141C59.9963 36.1141 60.5803 35.8901 61.0603 35.4421C61.3163 35.2021 61.5243 34.9061 61.6843 34.5541C61.7483 34.4261 61.8283 34.3621 61.9243 34.3621C62.0363 34.3621 62.1243 34.4501 62.1883 34.6261C62.2523 34.8021 62.2843 34.9381 62.2843 35.0341ZM71.1043 34.6501C71.1043 35.3381 70.9683 35.9381 70.6963 36.4501C70.4403 36.9621 70.1443 37.3381 69.8083 37.5781C69.4723 37.8181 69.0723 38.0101 68.6083 38.1541C68.0003 38.3461 67.4483 38.4421 66.9523 38.4421C65.9123 38.4421 65.0483 38.2421 64.3603 37.8421C63.6723 37.4261 63.3283 36.7701 63.3283 35.8741C63.3283 35.3461 63.4723 34.9141 63.7603 34.5781C64.2083 34.0821 64.7443 33.8341 65.3683 33.8341C65.5603 33.8341 65.6563 33.9221 65.6563 34.0981C65.6563 34.1141 65.6163 34.2421 65.5363 34.4821C65.4723 34.7061 65.4403 34.9941 65.4403 35.3461C65.4403 35.6981 65.5763 36.0101 65.8483 36.2821C66.1363 36.5541 66.4803 36.6901 66.8803 36.6901C67.2803 36.6901 67.6003 36.6261 67.8403 36.4981C68.0803 36.3541 68.2483 36.1781 68.3443 35.9701C68.4883 35.6821 68.5603 35.4101 68.5603 35.1541C68.5603 34.6901 68.3283 34.2901 67.8643 33.9541C67.4003 33.6181 66.8883 33.3541 66.3283 33.1621C65.7683 32.9701 65.2563 32.6501 64.7923 32.2021C64.3283 31.7541 64.0963 31.1941 64.0963 30.5221C64.0963 29.3701 64.4563 28.5061 65.1763 27.9301C65.9123 27.3541 66.9043 27.0661 68.1523 27.0661C68.6963 27.0661 69.2643 27.1461 69.8563 27.3061C70.4643 27.4501 70.7683 27.7061 70.7683 28.0741C70.7683 28.4261 70.7043 28.7541 70.5763 29.0581C70.4643 29.3621 70.3203 29.5141 70.1443 29.5141C70.0483 29.5141 69.9843 29.4821 69.9523 29.4181C69.9203 29.3381 69.8643 29.2501 69.7843 29.1541C69.7043 29.0581 69.5123 28.9381 69.2083 28.7941C68.9043 28.6341 68.6403 28.5541 68.4163 28.5541C68.2083 28.5541 68.0643 28.5621 67.9843 28.5781C67.9203 28.5781 67.8003 28.6021 67.6243 28.6501C67.4483 28.6821 67.2883 28.7381 67.1443 28.8181C66.7763 29.0261 66.5923 29.3301 66.5923 29.7301C66.5923 29.9861 66.6483 30.1781 66.7603 30.3061C66.8723 30.4181 66.9603 30.5061 67.0243 30.5701C67.0883 30.6341 67.2003 30.7141 67.3603 30.8101C67.5203 30.8901 67.6323 30.9461 67.6963 30.9781C67.7603 31.0101 67.9043 31.0821 68.1283 31.1941C68.3523 31.2901 68.4963 31.3541 68.5603 31.3861C70.2563 32.1861 71.1043 33.2741 71.1043 34.6501ZM71.8983 28.5781L71.9703 27.6181C71.9863 27.4741 72.0983 27.4021 72.3063 27.4021H73.1463L73.0503 25.4821V25.3861C73.0503 25.0181 73.3303 24.6661 73.8903 24.3301C74.4503 23.9941 74.9623 23.8261 75.4263 23.8261C75.5703 23.8261 75.6423 23.8901 75.6423 24.0181V24.0421C75.5783 24.4741 75.5143 25.5861 75.4503 27.3781C76.1543 27.3781 76.6023 27.3621 76.7943 27.3301C76.9863 27.2981 77.0903 27.2821 77.1063 27.2821C77.2183 27.2821 77.2743 27.3781 77.2743 27.5701C77.2743 27.7621 77.1863 28.0101 77.0103 28.3141C76.8343 28.6021 76.6423 28.7541 76.4343 28.7701H75.4263C75.4103 29.3141 75.4023 30.2341 75.4023 31.5301C75.4023 32.8101 75.4103 33.8661 75.4263 34.6981C75.4583 35.5301 75.4903 36.1621 75.5223 36.5941C75.5543 37.0101 75.5863 37.3461 75.6183 37.6021C75.6663 37.8581 75.6983 38.0421 75.7143 38.1541C75.7463 38.2661 75.7623 38.3381 75.7623 38.3701C75.7623 38.5301 75.6583 38.6181 75.4503 38.6341C74.8263 38.6341 74.2023 38.5461 73.5783 38.3701C72.9703 38.1941 72.6663 37.8901 72.6663 37.4581C73.0023 34.7701 73.1703 31.8821 73.1703 28.7941C72.7383 28.7941 72.4103 28.8101 72.1863 28.8421H72.1623C72.0183 28.8421 71.9303 28.7541 71.8983 28.5781Z" fill="#72266E"/>
<path d="M32.0742 50.5789C37.6428 49.8857 42.7083 47.0103 46.158 42.5845C46.368 42.3091 46.4611 41.962 46.4168 41.6184C46.3726 41.2748 46.1948 40.9627 45.9219 40.7494C45.6489 40.5359 45.3031 40.4387 44.9589 40.4789C44.6148 40.5188 44.3005 40.693 44.0839 40.9633C41.0598 44.8411 36.6199 47.3602 31.7399 47.967C29.3469 48.2922 26.913 48.135 24.5816 47.5043C22.2504 46.8737 20.0691 45.7826 18.1664 44.2953C16.2637 42.808 14.6781 40.9547 13.5031 38.8448C12.3283 36.7347 11.588 34.4108 11.3257 32.01C10.742 27.128 12.114 22.2134 15.142 18.3396C18.17 14.4657 22.608 11.9476 27.4865 11.3351C29.8636 11.0143 32.2807 11.1685 34.5978 11.7889C36.9148 12.4093 39.0856 13.4835 40.9844 14.9491C41.378 15.2771 41.6279 15.746 41.6808 16.2557C41.7337 16.7654 41.5853 17.2755 41.2673 17.6773C40.9495 18.0792 40.4872 18.341 39.979 18.4069C39.4709 18.4727 38.9571 18.3374 38.5473 18.0299C38.5098 18.0007 38.4708 17.9736 38.4306 17.9487C35.4831 15.7939 31.8167 14.862 28.198 15.3478C24.4041 15.8256 20.9531 17.7846 18.5981 20.7973C16.2431 23.8101 15.1755 27.6319 15.628 31.429C15.8347 33.3024 16.414 35.1155 17.3319 36.7616C18.2497 38.4077 19.4876 39.8536 20.9724 41.0143C22.4572 42.1749 24.1593 43.027 25.9784 43.5202C27.7973 44.0133 29.6966 44.1377 31.5645 43.8859C35.36 43.413 38.8126 41.453 41.164 38.4361C41.5393 37.9649 41.8177 37.4238 41.9829 36.8444C42.1479 36.2649 42.1967 35.6586 42.1261 35.0602C42.0555 34.4617 41.8671 33.8833 41.5718 33.3582C41.2764 32.833 40.88 32.3717 40.4052 32.0006C39.9305 31.6295 39.387 31.3562 38.8061 31.1964C38.2252 31.0366 37.6184 30.9934 37.0206 31.0695C36.4229 31.1454 35.8463 31.3392 35.3238 31.6392C34.8014 31.9394 34.3435 32.3403 33.9769 32.8183C33.9533 32.8486 33.933 32.8786 33.9127 32.9095C33.8876 32.9367 33.8629 32.9642 33.8397 32.9939C33.1997 33.8267 32.3265 34.4506 31.3311 34.7865C30.3359 35.1223 29.2633 35.1548 28.2494 34.8802C27.2357 34.6054 26.3262 34.0356 25.6367 33.2433C24.9471 32.4508 24.5084 31.4715 24.3764 30.4294C24.2444 29.3873 24.4248 28.3295 24.895 27.3902C25.3651 26.4508 26.1037 25.6723 27.0169 25.1534C27.9303 24.6344 28.9771 24.3985 30.0247 24.4754C31.0723 24.5524 32.0735 24.9389 32.9011 25.5858C33.037 25.6947 33.1933 25.7756 33.3607 25.8237C33.5281 25.8718 33.7034 25.8862 33.8764 25.866C34.0495 25.8459 34.2169 25.7917 34.3687 25.7063C34.5207 25.621 34.6541 25.5065 34.7614 25.3692C34.8687 25.2319 34.9477 25.0748 34.9937 24.9067C35.0399 24.7388 35.0521 24.5632 35.0299 24.3904C35.0076 24.2177 34.9514 24.051 34.8642 23.9002C34.7771 23.7493 34.6609 23.6172 34.5224 23.5116C33.2889 22.5584 31.8006 21.9919 30.2455 21.8835C28.6904 21.7752 27.138 22.1299 25.7842 22.9029C24.4304 23.6758 23.3359 24.8325 22.6387 26.2268C21.9416 27.6212 21.6731 29.1907 21.867 30.7375C22.0609 32.2843 22.7087 33.739 23.7284 34.9182C24.7482 36.0971 26.0945 36.9478 27.5971 37.3626C29.0997 37.7774 30.6916 37.7381 32.1719 37.2492C33.6522 36.7603 34.9545 35.8438 35.9145 34.6156C35.9381 34.5854 35.9584 34.5554 35.9787 34.5244C36.0038 34.4972 36.0285 34.4697 36.0517 34.4401C36.2056 34.2348 36.3989 34.0624 36.6204 33.9327C36.8417 33.8031 37.0869 33.719 37.341 33.6853C37.5953 33.6515 37.8539 33.6688 38.1013 33.7362C38.3488 33.8036 38.5806 33.9198 38.7826 34.0777C38.9846 34.2356 39.1534 34.4325 39.2785 34.6563C39.4036 34.8802 39.4829 35.1269 39.5115 35.3819C39.5401 35.6367 39.5177 35.8949 39.4454 36.1409C39.3731 36.3872 39.2524 36.6164 39.0904 36.8153C37.1646 39.2846 34.3375 40.8885 31.23 41.2748C29.7076 41.4824 28.1591 41.3826 26.6758 40.9816C25.1926 40.5807 23.8047 39.8865 22.5941 38.9402C21.3837 37.994 20.3749 36.8149 19.6276 35.4723C18.8804 34.1298 18.4097 32.6512 18.2434 31.1237C17.8714 28.0152 18.7449 24.8857 20.6729 22.4191C22.601 19.9525 25.4269 18.3492 28.5333 17.9595C30.0555 17.7537 31.6036 17.8541 33.0864 18.2549C34.5693 18.6557 35.9571 19.3488 37.1684 20.2936C37.2617 20.3661 37.3644 20.4256 37.4737 20.4707C38.4625 21.0255 39.6211 21.1955 40.7275 20.9484C41.834 20.7013 42.8102 20.0544 43.469 19.1318C44.1277 18.2092 44.4225 17.0757 44.297 15.949C44.1715 14.8223 43.6344 13.7816 42.7888 13.0266C42.7547 12.9934 42.7188 12.962 42.6813 12.9326C42.6604 12.9163 42.6397 12.9001 42.6188 12.8838C42.6085 12.8757 42.5985 12.8679 42.5885 12.8601C42.5785 12.8523 42.5673 12.8454 42.5571 12.8379C40.3878 11.1696 37.9097 9.94718 35.2657 9.24113C32.6217 8.53507 29.8641 8.35938 27.1519 8.72417C21.5859 9.42473 16.523 12.2985 13.0681 16.7185C9.61325 21.1383 8.04709 26.7453 8.71127 32.3158C9.01389 35.0624 9.8628 37.7208 11.2083 40.1343C12.5537 42.5479 14.3683 44.668 16.5454 46.3697C18.7225 48.0714 21.2179 49.3203 23.8851 50.0432C26.552 50.7661 29.3367 50.9479 32.0751 50.5784L32.0742 50.5789Z" fill="url(#paint0_linear_1353_4621)"/>
<defs>
<linearGradient id="paint0_linear_1353_4621" x1="8.69243" y1="32.2053" x2="45.8061" y2="28.0633" gradientUnits="userSpaceOnUse">
<stop stop-color="#41287B"/>
<stop offset="0.123" stop-color="#462779"/>
<stop offset="0.284" stop-color="#572775"/>
<stop offset="0.465" stop-color="#72266E"/>
<stop offset="0.663" stop-color="#982565"/>
<stop offset="0.87" stop-color="#C82459"/>
<stop offset="0.99" stop-color="#E72452"/>
</linearGradient>
</defs>
</svg>
