<svg width="9" height="12" viewBox="0 0 9 12" fill="none" xmlns="http://www.w3.org/2000/svg">
<path d="M8.296 4.35443C8.27224 4.24643 8.22851 4.15154 8.1702 4.08146C8.11189 4.01138 8.04156 3.96919 7.96789 3.96009L5.81286 3.69584L4.88032 0.510258C4.85062 0.407657 4.80231 0.320513 4.74123 0.259342C4.68014 0.198171 4.60889 0.165589 4.53607 0.165527C4.46326 0.165466 4.39198 0.197927 4.33085 0.258994C4.26973 0.320062 4.22136 0.407124 4.19159 0.509675L3.25904 3.69584L1.10401 3.96009C1.03161 3.96894 0.96239 4.0098 0.904636 4.07777C0.846883 4.14574 0.803042 4.23795 0.778358 4.34336C0.753674 4.44877 0.749193 4.56293 0.76545 4.67217C0.781707 4.78141 0.818014 4.88111 0.870028 4.95934L2.46258 7.35509L1.89934 11.1188C1.88224 11.2327 1.88772 11.3519 1.91508 11.461C1.94243 11.57 1.99039 11.6639 2.05274 11.7303C2.11509 11.7968 2.18894 11.8328 2.26472 11.8337C2.3405 11.8346 2.4147 11.8003 2.4777 11.7353L4.53595 9.61784L6.59421 11.7353C6.65859 11.8013 6.73453 11.8353 6.8118 11.8327C6.88907 11.83 6.96397 11.791 7.02642 11.7207C7.08887 11.6505 7.13588 11.5524 7.16113 11.4396C7.18638 11.3269 7.18865 11.205 7.16764 11.0902L6.47627 7.35684L8.19091 4.97568C8.30318 4.81934 8.34438 4.57551 8.296 4.35443Z" fill="#A71E1E"/>
</svg>
