<svg width="222" height="207" viewBox="0 0 222 207" fill="none" xmlns="http://www.w3.org/2000/svg">
<path d="M161.225 144.146L173.517 116.466L192.232 108.021L221.411 120.98L202.901 162.654L161.225 144.146Z" fill="#F4F4F4"/>
<path opacity="0.05" d="M206.419 139.422L176.585 126.089C176.294 125.959 175.953 126.089 175.823 126.38L175.823 126.38C175.693 126.671 175.824 127.012 176.114 127.141L205.949 140.475C206.239 140.605 206.58 140.475 206.71 140.184L206.71 140.184C206.84 139.893 206.71 139.552 206.419 139.422Z" fill="#292A2E"/>
<path opacity="0.05" d="M203.913 145.407L174.079 132.074C173.788 131.944 173.447 132.074 173.318 132.365L173.317 132.365C173.188 132.655 173.318 132.996 173.609 133.126L203.443 146.46C203.734 146.59 204.074 146.46 204.204 146.169L204.204 146.169C204.334 145.878 204.204 145.537 203.913 145.407Z" fill="#292A2E"/>
<path opacity="0.05" d="M188.908 145.911L171.519 138.195C171.379 138.132 171.221 138.128 171.078 138.183C170.935 138.237 170.82 138.346 170.757 138.486C170.726 138.555 170.709 138.629 170.707 138.705C170.705 138.781 170.718 138.856 170.745 138.927C170.772 138.998 170.813 139.062 170.865 139.117C170.917 139.172 170.979 139.216 171.048 139.247L188.437 146.964C188.577 147.027 188.736 147.031 188.879 146.976C189.021 146.922 189.137 146.813 189.199 146.673C189.261 146.533 189.266 146.375 189.211 146.232C189.157 146.089 189.048 145.974 188.908 145.911Z" fill="#292A2E"/>
<path opacity="0.4" d="M192.232 108.021L186.186 122.077L173.518 116.466L192.232 108.021Z" fill="white"/>
<path d="M12.5257 76.2377L5.70312 46.7292L15.5778 28.7276L46.6847 21.5361L56.9548 65.9652L12.5257 76.2377Z" fill="#F4F4F4"/>
<path opacity="0.05" d="M45.7946 45.2871L13.9389 52.5736C13.6285 52.6446 13.4345 52.9537 13.5055 53.2641L13.5055 53.2643C13.5765 53.5746 13.8856 53.7687 14.196 53.6977L46.0517 46.4111C46.362 46.3401 46.5561 46.031 46.4851 45.7207L46.485 45.7204C46.414 45.4101 46.1049 45.2161 45.7946 45.2871Z" fill="#292A2E"/>
<path opacity="0.05" d="M47.3922 51.5756L15.5365 58.8622C15.2262 58.9332 15.0322 59.2423 15.1031 59.5526L15.1032 59.5529C15.1742 59.8632 15.4833 60.0572 15.7936 59.9863L47.6494 52.6997C47.9597 52.6287 48.1537 52.3196 48.0827 52.0093L48.0827 52.009C48.0117 51.6987 47.7026 51.5047 47.3922 51.5756Z" fill="#292A2E"/>
<path opacity="0.05" d="M35.7052 61.0027L17.171 65.294C17.0219 65.328 16.8925 65.4199 16.8111 65.5494C16.7297 65.6788 16.7031 65.8354 16.7371 65.9845C16.7539 66.0583 16.7851 66.1282 16.8289 66.19C16.8728 66.2518 16.9283 66.3043 16.9925 66.3446C17.0566 66.3849 17.1281 66.4122 17.2028 66.4248C17.2775 66.4375 17.3539 66.4353 17.4278 66.4184L35.9619 62.1271C36.1111 62.0931 36.2406 62.0012 36.3219 61.8716C36.4033 61.7421 36.4299 61.5856 36.3959 61.4364C36.3618 61.2874 36.2698 61.1579 36.1403 61.0766C36.0108 60.9953 35.8543 60.9687 35.7052 61.0027Z" fill="#292A2E"/>
<path opacity="0.4" d="M15.5778 28.7275L19.1996 43.5948L5.70312 46.7291L15.5778 28.7275Z" fill="white"/>
<path d="M160.631 166.696H35.9879C34.3055 166.696 32.6921 166.028 31.5025 164.838C30.3129 163.648 29.6446 162.035 29.6445 160.353L33.984 19.6489H171.073L166.975 160.353C166.975 161.186 166.81 162.011 166.492 162.78C166.173 163.55 165.706 164.249 165.116 164.838C164.527 165.427 163.828 165.895 163.058 166.213C162.289 166.532 161.464 166.696 160.631 166.696Z" fill="#292A2E"/>
<path opacity="0.9" d="M160.631 166.696H35.9879C34.3055 166.696 32.6921 166.028 31.5025 164.838C30.3129 163.648 29.6446 162.035 29.6445 160.353L33.984 19.6489H171.073L166.975 160.353C166.975 161.186 166.81 162.011 166.492 162.78C166.173 163.55 165.706 164.249 165.116 164.838C164.527 165.427 163.828 165.895 163.058 166.213C162.289 166.532 161.464 166.696 160.631 166.696Z" fill="white"/>
<path d="M160.632 166.937H35.989C34.2432 166.935 32.5695 166.241 31.3351 165.007C30.1007 163.772 29.4063 162.098 29.4043 160.353L33.7438 19.4082H171.315L167.216 160.353C167.214 162.098 166.52 163.772 165.286 165.007C164.051 166.241 162.378 166.935 160.632 166.937ZM34.2257 19.8904L29.8862 160.353C29.8881 161.971 30.5316 163.522 31.6757 164.666C32.8199 165.81 34.371 166.453 35.989 166.455H160.632C162.25 166.453 163.801 165.81 164.945 164.666C166.089 163.522 166.732 161.971 166.734 160.353L170.832 19.8904H34.2257Z" fill="#292A2E"/>
<path d="M165.217 5.69775H40.5738C38.828 5.69967 37.1543 6.39402 35.9198 7.62847C34.6854 8.86293 33.991 10.5367 33.9891 12.2824L33.748 19.8903H171.319L171.801 12.2824C171.799 10.5367 171.105 8.86293 169.871 7.62847C168.636 6.39402 166.962 5.69967 165.217 5.69775Z" fill="#0C0C0C"/>
<path d="M167.627 5.69775H41.5378C39.792 5.69967 38.1183 6.39402 36.8838 7.62847C35.6494 8.86293 34.955 10.5367 34.9531 12.2824V19.8903H174.212V12.2824C174.21 10.5367 173.516 8.86293 172.281 7.62847C171.047 6.39402 169.373 5.69967 167.627 5.69775Z" fill="#292A2E"/>
<path d="M35.1934 19.647H173.97V162.763C173.97 164.445 173.302 166.059 172.112 167.248C170.922 168.438 169.309 169.106 167.627 169.106H41.5372C39.8548 169.106 38.2414 168.438 37.0518 167.248C35.8622 166.059 35.1938 164.445 35.1938 162.763V19.647H35.1934Z" fill="white"/>
<path d="M167.627 169.347H41.5378C39.7921 169.345 38.1184 168.651 36.8839 167.416C35.6495 166.182 34.9551 164.508 34.9531 162.763V19.4072H174.212V162.763C174.21 164.508 173.515 166.182 172.281 167.416C171.047 168.651 169.373 169.345 167.627 169.347ZM35.4351 19.8894V162.763C35.4369 164.381 36.0805 165.932 37.2246 167.076C38.3687 168.22 39.9199 168.863 41.5378 168.865H167.627C169.245 168.863 170.796 168.22 171.94 167.076C173.084 165.932 173.728 164.38 173.729 162.763V19.8894H35.4351Z" fill="#292A2E"/>
<path d="M59.7763 49.37H45.924C45.1519 49.3692 44.4117 49.0621 43.8657 48.5162C43.3197 47.9703 43.0126 47.2301 43.0117 46.458V32.6054C43.0126 31.8333 43.3197 31.0931 43.8657 30.5472C44.4117 30.0012 45.1519 29.6942 45.924 29.6934H59.7763C60.5484 29.6943 61.2885 30.0013 61.8345 30.5473C62.3804 31.0932 62.6875 31.8333 62.6884 32.6054V46.458C62.6875 47.23 62.3804 47.9702 61.8345 48.5161C61.2885 49.062 60.5484 49.3691 59.7763 49.37ZM45.924 30.1755C45.2797 30.1762 44.6621 30.4324 44.2065 30.888C43.7509 31.3435 43.4946 31.9611 43.4939 32.6054V46.458C43.4946 47.1022 43.7509 47.7199 44.2065 48.1754C44.6621 48.6309 45.2797 48.8871 45.924 48.8878H59.7763C60.4205 48.8871 61.0381 48.6308 61.4937 48.1753C61.9492 47.7198 62.2054 47.1022 62.2062 46.458V32.6054C62.2054 31.9612 61.9492 31.3436 61.4937 30.8881C61.0381 30.4325 60.4205 30.1763 59.7763 30.1755H45.924Z" fill="#292A2E"/>
<path d="M59.7763 76.8138H45.924C45.1519 76.813 44.4117 76.5059 43.8657 75.96C43.3197 75.4141 43.0126 74.6739 43.0117 73.9018V60.0495C43.0124 59.2772 43.3194 58.5367 43.8654 57.9905C44.4113 57.4444 45.1517 57.1371 45.924 57.1362H59.7763C60.5484 57.1371 61.2886 57.4442 61.8345 57.9902C62.3805 58.5362 62.6875 59.2764 62.6884 60.0485V73.9008C62.6877 74.6731 62.3807 75.4135 61.8348 75.9596C61.2889 76.5057 60.5485 76.8129 59.7763 76.8138ZM45.924 57.6184C45.2797 57.6192 44.6621 57.8754 44.2065 58.331C43.7509 58.7866 43.4946 59.4042 43.4939 60.0485V73.9008C43.4946 74.5451 43.7509 75.1627 44.2065 75.6183C44.6621 76.0738 45.2797 76.33 45.924 76.3307H59.7763C60.4206 76.33 61.0382 76.0738 61.4937 75.6182C61.9493 75.1627 62.2055 74.5451 62.2062 73.9008V60.0495C62.2057 59.4051 61.9496 58.7871 61.4941 58.3314C61.0385 57.8756 60.4207 57.6192 59.7763 57.6184H45.924Z" fill="#292A2E"/>
<path d="M59.7763 104.258H45.924C45.1519 104.257 44.4117 103.95 43.8657 103.404C43.3197 102.858 43.0126 102.118 43.0117 101.346V87.4936C43.0126 86.7215 43.3197 85.9813 43.8657 85.4354C44.4117 84.8894 45.1519 84.5824 45.924 84.5815H59.7763C60.5484 84.5824 61.2885 84.8895 61.8345 85.4354C62.3804 85.9814 62.6875 86.7215 62.6884 87.4936V101.346C62.6875 102.118 62.3804 102.858 61.8345 103.404C61.2885 103.95 60.5484 104.257 59.7763 104.258ZM45.924 85.0637C45.2797 85.0644 44.6621 85.3206 44.2065 85.7762C43.7509 86.2317 43.4946 86.8493 43.4939 87.4936V101.346C43.4946 101.99 43.7509 102.608 44.2065 103.063C44.6621 103.519 45.2797 103.775 45.924 103.776H59.7763C60.4206 103.775 61.0382 103.519 61.4937 103.063C61.9493 102.608 62.2055 101.99 62.2062 101.346V87.4936C62.2055 86.8494 61.9493 86.2317 61.4937 85.7762C61.0382 85.3206 60.4206 85.0644 59.7763 85.0637H45.924Z" fill="#292A2E"/>
<path d="M59.7763 131.326H45.924C45.1519 131.325 44.4117 131.018 43.8657 130.472C43.3197 129.926 43.0126 129.186 43.0117 128.414V114.562C43.0126 113.79 43.3197 113.05 43.8657 112.504C44.4117 111.958 45.1519 111.651 45.924 111.65H59.7763C60.5484 111.651 61.2886 111.958 61.8345 112.504C62.3805 113.05 62.6875 113.79 62.6884 114.562V128.415C62.6872 129.186 62.38 129.926 61.8341 130.472C61.2882 131.018 60.5482 131.325 59.7763 131.326ZM45.924 112.131C45.2797 112.132 44.662 112.388 44.2064 112.844C43.7508 113.299 43.4946 113.917 43.4939 114.561V128.414C43.4946 129.058 43.7509 129.675 44.2065 130.131C44.6621 130.586 45.2797 130.843 45.924 130.843H59.7763C60.4205 130.843 61.0381 130.586 61.4937 130.131C61.9492 129.675 62.2054 129.058 62.2062 128.414V114.562C62.2056 113.918 61.9494 113.3 61.4938 112.845C61.0383 112.389 60.4206 112.133 59.7763 112.132L45.924 112.131Z" fill="#292A2E"/>
<path d="M59.7763 158.393H45.924C45.1519 158.392 44.4117 158.085 43.8657 157.539C43.3197 156.993 43.0126 156.253 43.0117 155.48V141.628C43.0126 140.856 43.3197 140.116 43.8657 139.57C44.4117 139.024 45.1519 138.717 45.924 138.716H59.7763C60.5484 138.717 61.2886 139.024 61.8345 139.57C62.3805 140.116 62.6875 140.856 62.6884 141.628V155.48C62.6875 156.253 62.3805 156.993 61.8345 157.539C61.2886 158.085 60.5484 158.392 59.7763 158.393ZM45.924 139.198C45.2797 139.199 44.6621 139.455 44.2065 139.911C43.7509 140.366 43.4946 140.984 43.4939 141.628V155.48C43.4946 156.125 43.7509 156.742 44.2065 157.198C44.6621 157.653 45.2797 157.91 45.924 157.911H59.7763C60.4206 157.91 61.0382 157.653 61.4937 157.198C61.9493 156.742 62.2055 156.125 62.2062 155.48V141.628C62.2055 140.984 61.9493 140.366 61.4937 139.911C61.0382 139.455 60.4206 139.199 59.7763 139.198H45.924Z" fill="#292A2E"/>
<path d="M50.3853 45.0728C50.1361 45.0731 49.8966 44.9766 49.7172 44.8035L45.6796 40.9221C45.5869 40.8347 45.5125 40.7298 45.4606 40.6134C45.4087 40.497 45.3804 40.3716 45.3772 40.2442C45.3741 40.1168 45.3963 39.9901 45.4424 39.8713C45.4886 39.7526 45.5578 39.6441 45.6461 39.5523C45.7344 39.4604 45.84 39.387 45.9569 39.3362C46.0737 39.2854 46.1995 39.2583 46.3269 39.2564C46.4542 39.2545 46.5808 39.2778 46.6991 39.3251C46.8174 39.3724 46.9252 39.4426 47.0162 39.5318L50.3689 42.7543L58.7749 34.2745C58.8637 34.1831 58.9698 34.1101 59.0869 34.0599C59.2041 34.0097 59.3301 33.9832 59.4575 33.982C59.585 33.9808 59.7114 34.0048 59.8295 34.0528C59.9476 34.1007 60.0551 34.1716 60.1456 34.2613C60.2362 34.351 60.308 34.4578 60.357 34.5755C60.406 34.6932 60.4312 34.8194 60.4311 34.9469C60.4311 35.0743 60.4057 35.2005 60.3566 35.3181C60.3074 35.4357 60.2354 35.5424 60.1448 35.632L51.0719 44.7871C50.9821 44.8779 50.8752 44.95 50.7573 44.999C50.6394 45.0481 50.513 45.0732 50.3853 45.0728Z" fill="#367CFF"/>
<path d="M50.3865 72.5175C50.1374 72.5177 49.8979 72.4212 49.7185 72.2482L45.6809 68.3668C45.4965 68.1896 45.39 67.9464 45.385 67.6906C45.3799 67.4349 45.4766 67.1877 45.6539 67.0033C45.8311 66.8189 46.0743 66.7124 46.33 66.7074C46.5858 66.7023 46.833 66.799 47.0174 66.9763L50.3701 70.1988L58.7762 61.7195C58.9569 61.5409 59.2007 61.4408 59.4548 61.4409C59.7088 61.4411 59.9525 61.5415 60.133 61.7203C60.3134 61.8991 60.416 62.1419 60.4184 62.396C60.4209 62.65 60.323 62.8947 60.146 63.077L51.0731 72.2321C50.9834 72.3229 50.8764 72.3948 50.7585 72.4438C50.6407 72.4928 50.5142 72.5179 50.3865 72.5175Z" fill="#367CFF"/>
<path d="M50.3865 99.9616C50.1374 99.9619 49.8979 99.8654 49.7185 99.6926L45.6809 95.8112C45.4965 95.6339 45.39 95.3907 45.385 95.135C45.3799 94.8792 45.4766 94.632 45.6539 94.4476C45.8311 94.2632 46.0743 94.1568 46.33 94.1517C46.5858 94.1466 46.833 94.2434 47.0174 94.4206L50.3701 97.6431L58.7762 89.1633C58.9569 88.9847 59.2007 88.8846 59.4548 88.8848C59.7088 88.8849 59.9525 88.9853 60.133 89.1641C60.3134 89.343 60.416 89.5858 60.4184 89.8398C60.4209 90.0938 60.323 90.3386 60.146 90.5208L51.0731 99.6759C50.9834 99.7668 50.8765 99.8388 50.7586 99.8878C50.6407 99.9369 50.5142 99.962 50.3865 99.9616Z" fill="#367CFF"/>
<path opacity="0.5" d="M163.555 35.2422H70.2588C69.8872 35.2422 69.5859 35.5434 69.5859 35.915C69.5859 36.2867 69.8872 36.5879 70.2588 36.5879H163.555C163.926 36.5879 164.228 36.2867 164.228 35.915C164.228 35.5434 163.926 35.2422 163.555 35.2422Z" fill="#262626"/>
<path opacity="0.5" d="M124.982 42.4746H70.2588C69.8872 42.4746 69.5859 42.7759 69.5859 43.1475C69.5859 43.5191 69.8872 43.8203 70.2588 43.8203H124.982C125.353 43.8203 125.654 43.5191 125.654 43.1475C125.654 42.7759 125.353 42.4746 124.982 42.4746Z" fill="#262626"/>
<path opacity="0.5" d="M163.555 62.6865H70.2588C69.8872 62.6865 69.5859 62.9878 69.5859 63.3594C69.5859 63.731 69.8872 64.0322 70.2588 64.0322H163.555C163.926 64.0322 164.228 63.731 164.228 63.3594C164.228 62.9878 163.926 62.6865 163.555 62.6865Z" fill="#262626"/>
<path opacity="0.5" d="M124.982 69.9185H70.2588C69.8872 69.9185 69.5859 70.2197 69.5859 70.5913C69.5859 70.9629 69.8872 71.2642 70.2588 71.2642H124.982C125.353 71.2642 125.654 70.9629 125.654 70.5913C125.654 70.2197 125.353 69.9185 124.982 69.9185Z" fill="#262626"/>
<path opacity="0.5" d="M163.555 90.1304H70.2588C69.8872 90.1304 69.5859 90.4316 69.5859 90.8032C69.5859 91.1748 69.8872 91.4761 70.2588 91.4761H163.555C163.926 91.4761 164.228 91.1748 164.228 90.8032C164.228 90.4316 163.926 90.1304 163.555 90.1304Z" fill="#262626"/>
<path opacity="0.5" d="M124.982 97.3633H70.2588C69.8872 97.3633 69.5859 97.6645 69.5859 98.0361C69.5859 98.4078 69.8872 98.709 70.2588 98.709H124.982C125.353 98.709 125.654 98.4078 125.654 98.0361C125.654 97.6645 125.353 97.3633 124.982 97.3633Z" fill="#262626"/>
<path opacity="0.5" d="M163.555 117.198H70.2588C69.8872 117.198 69.5859 117.499 69.5859 117.871C69.5859 118.243 69.8872 118.544 70.2588 118.544H163.555C163.926 118.544 164.228 118.243 164.228 117.871C164.228 117.499 163.926 117.198 163.555 117.198Z" fill="#262626"/>
<path opacity="0.5" d="M124.982 124.43H70.2588C69.8872 124.43 69.5859 124.731 69.5859 125.103C69.5859 125.475 69.8872 125.776 70.2588 125.776H124.982C125.353 125.776 125.654 125.475 125.654 125.103C125.654 124.731 125.353 124.43 124.982 124.43Z" fill="#262626"/>
<path opacity="0.5" d="M163.555 144.265H70.2588C69.8872 144.265 69.5859 144.566 69.5859 144.938C69.5859 145.309 69.8872 145.61 70.2588 145.61H163.555C163.926 145.61 164.228 145.309 164.228 144.938C164.228 144.566 163.926 144.265 163.555 144.265Z" fill="#262626"/>
<path opacity="0.5" d="M124.982 151.498H70.2588C69.8872 151.498 69.5859 151.799 69.5859 152.17C69.5859 152.542 69.8872 152.843 70.2588 152.843H124.982C125.353 152.843 125.654 152.542 125.654 152.17C125.654 151.799 125.353 151.498 124.982 151.498Z" fill="#262626"/>
<path d="M51.8718 1.43764e-07C50.3611 0.00172294 48.9128 0.602597 47.8446 1.6708C46.7764 2.73901 46.1756 4.18731 46.1738 5.69798H46.656C46.6559 4.69705 46.9438 3.71723 47.4853 2.87545C48.0268 2.03367 48.7991 1.36549 49.71 0.950641C50.6209 0.535794 51.632 0.391806 52.6225 0.535863C53.613 0.679919 54.5411 1.10593 55.2961 1.76307C56.0511 2.4202 56.6011 3.28069 56.8804 4.24186C57.1597 5.20302 57.1566 6.22425 56.8714 7.18367C56.5861 8.1431 56.0309 9.00019 55.2719 9.65267C54.5128 10.3051 53.5821 10.7254 52.5907 10.8634C52.5072 10.6912 52.3648 10.5547 52.1894 10.4784C52.0139 10.4021 51.8169 10.3911 51.6341 10.4474C51.4512 10.5038 51.2945 10.6237 51.1924 10.7855C51.0903 10.9473 51.0495 11.1403 51.0773 11.3296C51.1052 11.5189 51.1999 11.692 51.3443 11.8176C51.4886 11.9431 51.6732 12.0128 51.8645 12.0141C52.0559 12.0154 52.2414 11.9482 52.3874 11.8246C52.5335 11.701 52.6305 11.5292 52.6609 11.3403C54.0898 11.1408 55.3899 10.4065 56.2986 9.28583C57.2073 8.16511 57.657 6.74136 57.5568 5.30201C57.4567 3.86266 56.8142 2.51491 55.759 1.53084C54.7039 0.546772 53.3146 -0.000323786 51.8718 1.43764e-07Z" fill="#F4F4F4"/>
<path d="M162.996 5.69798C162.996 4.18678 162.395 2.73748 161.327 1.6689C160.258 0.600321 158.809 0 157.298 0C155.786 0 154.337 0.600321 153.269 1.6689C152.2 2.73748 151.6 4.18678 151.6 5.69798H152.082C152.082 4.69705 152.37 3.71723 152.911 2.87545C153.453 2.03367 154.225 1.36549 155.136 0.950641C156.047 0.535794 157.058 0.391806 158.048 0.535863C159.039 0.679919 159.967 1.10593 160.722 1.76307C161.477 2.4202 162.027 3.28069 162.306 4.24186C162.586 5.20302 162.582 6.22425 162.297 7.18367C162.012 8.1431 161.457 9.00019 160.698 9.65267C159.939 10.3051 159.008 10.7254 158.016 10.8634C157.933 10.6912 157.791 10.5547 157.615 10.4784C157.44 10.4021 157.243 10.3911 157.06 10.4474C156.877 10.5038 156.72 10.6237 156.618 10.7855C156.516 10.9473 156.475 11.1403 156.503 11.3296C156.531 11.5189 156.626 11.692 156.77 11.8176C156.914 11.9431 157.099 12.0128 157.29 12.0141C157.482 12.0154 157.667 11.9482 157.813 11.8246C157.959 11.701 158.056 11.5292 158.087 11.3403C159.447 11.1484 160.693 10.472 161.594 9.4355C162.496 8.39898 162.994 7.07188 162.996 5.69798Z" fill="#F4F4F4"/>
<path d="M147.935 5.69826C147.925 4.19345 147.321 2.75361 146.253 1.693C145.186 0.632379 143.742 0.0371094 142.237 0.0371094C140.732 0.0371094 139.289 0.632379 138.221 1.693C137.153 2.75361 136.549 4.19345 136.539 5.69826H137.021C137.021 4.69727 137.309 3.71737 137.85 2.87551C138.392 2.03365 139.164 1.36539 140.075 0.950489C140.986 0.535588 141.997 0.391571 142.988 0.535624C143.978 0.679677 144.907 1.10572 145.662 1.7629C146.417 2.42007 146.967 3.28063 147.246 4.24187C147.525 5.2031 147.522 6.2244 147.237 7.18389C146.952 8.14337 146.396 9.00051 145.637 9.653C144.878 10.3055 143.947 10.7258 142.956 10.8637C142.872 10.6915 142.73 10.5549 142.555 10.4787C142.379 10.4024 142.182 10.3914 141.999 10.4477C141.816 10.504 141.66 10.624 141.558 10.7858C141.456 10.9476 141.415 11.1406 141.443 11.3299C141.47 11.5192 141.565 11.6923 141.709 11.8179C141.854 11.9434 142.038 12.0131 142.23 12.0144C142.421 12.0157 142.607 11.9485 142.753 11.8249C142.899 11.7013 142.996 11.5295 143.026 11.3405C144.387 11.1487 145.632 10.4724 146.534 9.43586C147.436 8.39933 147.933 7.0722 147.935 5.69826Z" fill="#F4F4F4"/>
<path d="M132.873 5.69826C132.863 4.19345 132.258 2.75361 131.191 1.693C130.123 0.632379 128.679 0.0371094 127.175 0.0371094C125.67 0.0371094 124.226 0.632379 123.159 1.693C122.091 2.75361 121.486 4.19345 121.477 5.69826H121.959C121.959 4.69733 122.246 3.71749 122.788 2.87568C123.329 2.03387 124.102 1.36564 125.013 0.95073C125.924 0.535823 126.935 0.391763 127.925 0.535741C128.916 0.679719 129.844 1.10565 130.599 1.76272C131.354 2.41978 131.904 3.28023 132.183 4.24136C132.463 5.2025 132.46 6.22374 132.175 7.18322C131.89 8.14269 131.335 8.99988 130.576 9.65248C129.817 10.3051 128.886 10.7255 127.895 10.8637C127.811 10.6915 127.669 10.5549 127.493 10.4787C127.318 10.4024 127.121 10.3914 126.938 10.4477C126.755 10.504 126.598 10.624 126.496 10.7858C126.394 10.9476 126.353 11.1406 126.381 11.3299C126.409 11.5192 126.504 11.6923 126.648 11.8179C126.793 11.9434 126.977 12.0131 127.168 12.0144C127.36 12.0157 127.545 11.9485 127.691 11.8249C127.837 11.7013 127.934 11.5295 127.965 11.3405C129.325 11.1484 130.57 10.472 131.472 9.4355C132.374 8.399 132.871 7.07202 132.873 5.69826Z" fill="#F4F4F4"/>
<path d="M117.812 5.69798C117.812 4.18678 117.212 2.73748 116.143 1.6689C115.074 0.600321 113.625 0 112.114 0C110.603 0 109.153 0.600321 108.085 1.6689C107.016 2.73748 106.416 4.18678 106.416 5.69798H106.898C106.898 4.69705 107.186 3.71723 107.727 2.87545C108.269 2.03367 109.041 1.36549 109.952 0.950641C110.863 0.535794 111.874 0.391806 112.865 0.535863C113.855 0.679919 114.783 1.10593 115.538 1.76307C116.293 2.4202 116.843 3.28069 117.123 4.24186C117.402 5.20302 117.399 6.22425 117.114 7.18367C116.828 8.1431 116.273 9.00019 115.514 9.65267C114.755 10.3051 113.824 10.7254 112.833 10.8634C112.749 10.6911 112.607 10.5544 112.432 10.478C112.256 10.4016 112.059 10.3905 111.876 10.4467C111.693 10.503 111.536 10.6229 111.434 10.7847C111.332 10.9465 111.291 11.1396 111.319 11.3289C111.347 11.5183 111.441 11.6915 111.586 11.8172C111.73 11.9428 111.915 12.0127 112.106 12.014C112.297 12.0154 112.483 11.9482 112.629 11.8246C112.775 11.701 112.872 11.5292 112.903 11.3403C114.263 11.1484 115.509 10.4721 116.411 9.43557C117.313 8.39904 117.81 7.07191 117.812 5.69798Z" fill="#F4F4F4"/>
<path d="M102.754 5.69826C102.744 4.19345 102.139 2.75361 101.072 1.693C100.004 0.632379 98.5604 0.0371094 97.0555 0.0371094C95.5507 0.0371094 94.1069 0.632379 93.0394 1.693C91.9719 2.75361 91.3672 4.19345 91.3574 5.69826H91.8396C91.8394 4.69727 92.1273 3.71737 92.6688 2.87551C93.2103 2.03365 93.9827 1.36539 94.8936 0.950489C95.8046 0.535588 96.8157 0.391571 97.8063 0.535624C98.7969 0.679677 99.7251 1.10572 100.48 1.7629C101.235 2.42007 101.785 3.28063 102.064 4.24187C102.344 5.2031 102.341 6.2244 102.055 7.18389C101.77 8.14337 101.215 9.00051 100.456 9.653C99.6966 10.3055 98.7658 10.7258 97.7743 10.8637C97.6908 10.6915 97.5484 10.5549 97.373 10.4787C97.1975 10.4024 97.0005 10.3914 96.8176 10.4477C96.6348 10.504 96.4781 10.624 96.376 10.7858C96.2739 10.9476 96.2331 11.1406 96.2609 11.3299C96.2888 11.5192 96.3835 11.6923 96.5278 11.8179C96.6722 11.9434 96.8568 12.0131 97.0481 12.0144C97.2395 12.0157 97.4249 11.9485 97.571 11.8249C97.7171 11.7013 97.8141 11.5295 97.8445 11.3405C99.2049 11.1487 100.451 10.4724 101.352 9.43586C102.254 8.39933 102.752 7.0722 102.754 5.69826Z" fill="#F4F4F4"/>
<path d="M87.6909 5.69798C87.6909 4.18678 87.0906 2.73748 86.022 1.6689C84.9534 0.600321 83.5041 0 81.9929 0C80.4817 0 79.0324 0.600321 77.9638 1.6689C76.8952 2.73748 76.2949 4.18678 76.2949 5.69798H76.7771C76.777 4.69705 77.0649 3.71723 77.6064 2.87545C78.1479 2.03367 78.9202 1.36549 79.8311 0.950641C80.742 0.535793 81.7531 0.391806 82.7436 0.535862C83.7341 0.679919 84.6622 1.10593 85.4172 1.76307C86.1722 2.4202 86.7222 3.28069 87.0015 4.24186C87.2808 5.20302 87.2777 6.22425 86.9925 7.18367C86.7072 8.1431 86.152 9.00019 85.3929 9.65267C84.6339 10.3051 83.7032 10.7254 82.7118 10.8634C82.6284 10.6911 82.486 10.5544 82.3106 10.478C82.1351 10.4016 81.938 10.3905 81.7551 10.4467C81.5721 10.503 81.4153 10.6229 81.3131 10.7847C81.2109 10.9465 81.1699 11.1396 81.1977 11.3289C81.2255 11.5183 81.3201 11.6915 81.4645 11.8172C81.6089 11.9428 81.7934 12.0127 81.9849 12.014C82.1763 12.0154 82.3618 11.9482 82.508 11.8246C82.6542 11.701 82.7513 11.5292 82.7817 11.3403C84.1422 11.1484 85.3878 10.4721 86.2896 9.43557C87.1915 8.39904 87.689 7.07191 87.6909 5.69798Z" fill="#F4F4F4"/>
<path d="M72.6325 5.69826C72.6227 4.19345 72.0181 2.75361 70.9505 1.693C69.883 0.632379 68.4393 0.0371094 66.9344 0.0371094C65.4296 0.0371094 63.9858 0.632379 62.9183 1.693C61.8508 2.75361 61.2461 4.19345 61.2363 5.69826H61.7185C61.7183 4.69727 62.0062 3.71737 62.5477 2.87551C63.0893 2.03365 63.8616 1.36539 64.7726 0.950489C65.6835 0.535588 66.6946 0.391571 67.6852 0.535624C68.6758 0.679677 69.604 1.10572 70.359 1.7629C71.1141 2.42007 71.6641 3.28063 71.9434 4.24187C72.2227 5.2031 72.2196 6.2244 71.9343 7.18389C71.649 8.14337 71.0937 9.00051 70.3346 9.653C69.5755 10.3055 68.6447 10.7258 67.6532 10.8637C67.5697 10.6915 67.4273 10.5549 67.2519 10.4787C67.0764 10.4024 66.8794 10.3914 66.6966 10.4477C66.5137 10.504 66.357 10.624 66.2549 10.7858C66.1528 10.9476 66.112 11.1406 66.1398 11.3299C66.1677 11.5192 66.2624 11.6923 66.4068 11.8179C66.5511 11.9434 66.7357 12.0131 66.927 12.0144C67.1184 12.0157 67.3039 11.9485 67.4499 11.8249C67.596 11.7013 67.693 11.5295 67.7234 11.3405C69.0838 11.1487 70.3294 10.4724 71.2313 9.43586C72.1331 8.39933 72.6307 7.0722 72.6325 5.69826Z" fill="#F4F4F4"/>
<g opacity="0.6">
<path opacity="0.6" d="M51.8718 1.43764e-07C50.3611 0.00172294 48.9128 0.602597 47.8446 1.6708C46.7764 2.73901 46.1756 4.18731 46.1738 5.69798H46.656C46.6559 4.69705 46.9438 3.71723 47.4853 2.87545C48.0268 2.03367 48.7991 1.36549 49.71 0.950641C50.6209 0.535794 51.632 0.391806 52.6225 0.535863C53.613 0.679919 54.5411 1.10593 55.2961 1.76307C56.0511 2.4202 56.6011 3.28069 56.8804 4.24186C57.1597 5.20302 57.1566 6.22425 56.8714 7.18367C56.5861 8.1431 56.0309 9.00019 55.2719 9.65267C54.5128 10.3051 53.5821 10.7254 52.5907 10.8634C52.5072 10.6912 52.3648 10.5547 52.1894 10.4784C52.0139 10.4021 51.8169 10.3911 51.6341 10.4474C51.4512 10.5038 51.2945 10.6237 51.1924 10.7855C51.0903 10.9473 51.0495 11.1403 51.0773 11.3296C51.1052 11.5189 51.1999 11.692 51.3443 11.8176C51.4886 11.9431 51.6732 12.0128 51.8645 12.0141C52.0559 12.0154 52.2414 11.9482 52.3874 11.8246C52.5335 11.701 52.6305 11.5292 52.6609 11.3403C54.0898 11.1408 55.3899 10.4065 56.2986 9.28583C57.2073 8.16511 57.657 6.74136 57.5568 5.30201C57.4567 3.86266 56.8142 2.51491 55.759 1.53084C54.7039 0.546772 53.3146 -0.000323786 51.8718 1.43764e-07Z" fill="#292A2E"/>
<path opacity="0.6" d="M162.996 5.69798C162.996 4.18678 162.395 2.73748 161.327 1.6689C160.258 0.600321 158.809 0 157.298 0C155.786 0 154.337 0.600321 153.269 1.6689C152.2 2.73748 151.6 4.18678 151.6 5.69798H152.082C152.082 4.69705 152.37 3.71723 152.911 2.87545C153.453 2.03367 154.225 1.36549 155.136 0.950641C156.047 0.535794 157.058 0.391806 158.048 0.535863C159.039 0.679919 159.967 1.10593 160.722 1.76307C161.477 2.4202 162.027 3.28069 162.306 4.24186C162.586 5.20302 162.582 6.22425 162.297 7.18367C162.012 8.1431 161.457 9.00019 160.698 9.65267C159.939 10.3051 159.008 10.7254 158.016 10.8634C157.933 10.6912 157.791 10.5547 157.615 10.4784C157.44 10.4021 157.243 10.3911 157.06 10.4474C156.877 10.5038 156.72 10.6237 156.618 10.7855C156.516 10.9473 156.475 11.1403 156.503 11.3296C156.531 11.5189 156.626 11.692 156.77 11.8176C156.914 11.9431 157.099 12.0128 157.29 12.0141C157.482 12.0154 157.667 11.9482 157.813 11.8246C157.959 11.701 158.056 11.5292 158.087 11.3403C159.447 11.1484 160.693 10.472 161.594 9.4355C162.496 8.39898 162.994 7.07188 162.996 5.69798Z" fill="#292A2E"/>
<path opacity="0.6" d="M147.935 5.69826C147.925 4.19345 147.321 2.75361 146.253 1.693C145.186 0.632379 143.742 0.0371094 142.237 0.0371094C140.732 0.0371094 139.289 0.632379 138.221 1.693C137.153 2.75361 136.549 4.19345 136.539 5.69826H137.021C137.021 4.69727 137.309 3.71737 137.85 2.87551C138.392 2.03365 139.164 1.36539 140.075 0.950489C140.986 0.535588 141.997 0.391571 142.988 0.535624C143.978 0.679677 144.907 1.10572 145.662 1.7629C146.417 2.42007 146.967 3.28063 147.246 4.24187C147.525 5.2031 147.522 6.2244 147.237 7.18389C146.952 8.14337 146.396 9.00051 145.637 9.653C144.878 10.3055 143.947 10.7258 142.956 10.8637C142.872 10.6915 142.73 10.5549 142.555 10.4787C142.379 10.4024 142.182 10.3914 141.999 10.4477C141.816 10.504 141.66 10.624 141.558 10.7858C141.456 10.9476 141.415 11.1406 141.443 11.3299C141.47 11.5192 141.565 11.6923 141.709 11.8179C141.854 11.9434 142.038 12.0131 142.23 12.0144C142.421 12.0157 142.607 11.9485 142.753 11.8249C142.899 11.7013 142.996 11.5295 143.026 11.3405C144.387 11.1487 145.632 10.4724 146.534 9.43586C147.436 8.39933 147.933 7.0722 147.935 5.69826Z" fill="#292A2E"/>
<path opacity="0.6" d="M132.873 5.69826C132.863 4.19345 132.258 2.75361 131.191 1.693C130.123 0.632379 128.679 0.0371094 127.175 0.0371094C125.67 0.0371094 124.226 0.632379 123.159 1.693C122.091 2.75361 121.486 4.19345 121.477 5.69826H121.959C121.959 4.69733 122.246 3.71749 122.788 2.87568C123.329 2.03387 124.102 1.36564 125.013 0.95073C125.924 0.535823 126.935 0.391763 127.925 0.535741C128.916 0.679719 129.844 1.10565 130.599 1.76272C131.354 2.41978 131.904 3.28023 132.183 4.24136C132.463 5.2025 132.46 6.22374 132.175 7.18322C131.89 8.14269 131.335 8.99988 130.576 9.65248C129.817 10.3051 128.886 10.7255 127.895 10.8637C127.811 10.6915 127.669 10.5549 127.493 10.4787C127.318 10.4024 127.121 10.3914 126.938 10.4477C126.755 10.504 126.598 10.624 126.496 10.7858C126.394 10.9476 126.353 11.1406 126.381 11.3299C126.409 11.5192 126.504 11.6923 126.648 11.8179C126.793 11.9434 126.977 12.0131 127.168 12.0144C127.36 12.0157 127.545 11.9485 127.691 11.8249C127.837 11.7013 127.934 11.5295 127.965 11.3405C129.325 11.1484 130.57 10.472 131.472 9.4355C132.374 8.399 132.871 7.07202 132.873 5.69826Z" fill="#292A2E"/>
<path opacity="0.6" d="M117.812 5.69798C117.812 4.18678 117.212 2.73748 116.143 1.6689C115.074 0.600321 113.625 0 112.114 0C110.603 0 109.153 0.600321 108.085 1.6689C107.016 2.73748 106.416 4.18678 106.416 5.69798H106.898C106.898 4.69705 107.186 3.71723 107.727 2.87545C108.269 2.03367 109.041 1.36549 109.952 0.950641C110.863 0.535794 111.874 0.391806 112.865 0.535863C113.855 0.679919 114.783 1.10593 115.538 1.76307C116.293 2.4202 116.843 3.28069 117.123 4.24186C117.402 5.20302 117.399 6.22425 117.114 7.18367C116.828 8.1431 116.273 9.00019 115.514 9.65267C114.755 10.3051 113.824 10.7254 112.833 10.8634C112.749 10.6911 112.607 10.5544 112.432 10.478C112.256 10.4016 112.059 10.3905 111.876 10.4467C111.693 10.503 111.536 10.6229 111.434 10.7847C111.332 10.9465 111.291 11.1396 111.319 11.3289C111.347 11.5183 111.441 11.6915 111.586 11.8172C111.73 11.9428 111.915 12.0127 112.106 12.014C112.297 12.0154 112.483 11.9482 112.629 11.8246C112.775 11.701 112.872 11.5292 112.903 11.3403C114.263 11.1484 115.509 10.4721 116.411 9.43557C117.313 8.39904 117.81 7.07191 117.812 5.69798Z" fill="#292A2E"/>
<path opacity="0.6" d="M102.754 5.69826C102.744 4.19345 102.139 2.75361 101.072 1.693C100.004 0.632379 98.5604 0.0371094 97.0555 0.0371094C95.5507 0.0371094 94.1069 0.632379 93.0394 1.693C91.9719 2.75361 91.3672 4.19345 91.3574 5.69826H91.8396C91.8394 4.69727 92.1273 3.71737 92.6688 2.87551C93.2103 2.03365 93.9827 1.36539 94.8936 0.950489C95.8046 0.535588 96.8157 0.391571 97.8063 0.535624C98.7969 0.679677 99.7251 1.10572 100.48 1.7629C101.235 2.42007 101.785 3.28063 102.064 4.24187C102.344 5.2031 102.341 6.2244 102.055 7.18389C101.77 8.14337 101.215 9.00051 100.456 9.653C99.6966 10.3055 98.7658 10.7258 97.7743 10.8637C97.6908 10.6915 97.5484 10.5549 97.373 10.4787C97.1975 10.4024 97.0005 10.3914 96.8176 10.4477C96.6348 10.504 96.4781 10.624 96.376 10.7858C96.2739 10.9476 96.2331 11.1406 96.2609 11.3299C96.2888 11.5192 96.3835 11.6923 96.5278 11.8179C96.6722 11.9434 96.8568 12.0131 97.0481 12.0144C97.2395 12.0157 97.4249 11.9485 97.571 11.8249C97.7171 11.7013 97.8141 11.5295 97.8445 11.3405C99.2049 11.1487 100.451 10.4724 101.352 9.43586C102.254 8.39933 102.752 7.0722 102.754 5.69826Z" fill="#292A2E"/>
<path opacity="0.6" d="M87.6909 5.69798C87.6909 4.18678 87.0906 2.73748 86.022 1.6689C84.9534 0.600321 83.5041 0 81.9929 0C80.4817 0 79.0324 0.600321 77.9638 1.6689C76.8952 2.73748 76.2949 4.18678 76.2949 5.69798H76.7771C76.777 4.69705 77.0649 3.71723 77.6064 2.87545C78.1479 2.03367 78.9202 1.36549 79.8311 0.950641C80.742 0.535793 81.7531 0.391806 82.7436 0.535862C83.7341 0.679919 84.6622 1.10593 85.4172 1.76307C86.1722 2.4202 86.7222 3.28069 87.0015 4.24186C87.2808 5.20302 87.2777 6.22425 86.9925 7.18367C86.7072 8.1431 86.152 9.00019 85.3929 9.65267C84.6339 10.3051 83.7032 10.7254 82.7118 10.8634C82.6284 10.6911 82.486 10.5544 82.3106 10.478C82.1351 10.4016 81.938 10.3905 81.7551 10.4467C81.5721 10.503 81.4153 10.6229 81.3131 10.7847C81.2109 10.9465 81.1699 11.1396 81.1977 11.3289C81.2255 11.5183 81.3201 11.6915 81.4645 11.8172C81.6089 11.9428 81.7934 12.0127 81.9849 12.014C82.1763 12.0154 82.3618 11.9482 82.508 11.8246C82.6542 11.701 82.7513 11.5292 82.7817 11.3403C84.1422 11.1484 85.3878 10.4721 86.2896 9.43557C87.1915 8.39904 87.689 7.07191 87.6909 5.69798Z" fill="#292A2E"/>
<path opacity="0.6" d="M72.6325 5.69826C72.6227 4.19345 72.0181 2.75361 70.9505 1.693C69.883 0.632379 68.4393 0.0371094 66.9344 0.0371094C65.4296 0.0371094 63.9858 0.632379 62.9183 1.693C61.8508 2.75361 61.2461 4.19345 61.2363 5.69826H61.7185C61.7183 4.69727 62.0062 3.71737 62.5477 2.87551C63.0893 2.03365 63.8616 1.36539 64.7726 0.950489C65.6835 0.535588 66.6946 0.391571 67.6852 0.535624C68.6758 0.679677 69.604 1.10572 70.359 1.7629C71.1141 2.42007 71.6641 3.28063 71.9434 4.24187C72.2227 5.2031 72.2196 6.2244 71.9343 7.18389C71.649 8.14337 71.0937 9.00051 70.3346 9.653C69.5755 10.3055 68.6447 10.7258 67.6532 10.8637C67.5697 10.6915 67.4273 10.5549 67.2519 10.4787C67.0764 10.4024 66.8794 10.3914 66.6966 10.4477C66.5137 10.504 66.357 10.624 66.2549 10.7858C66.1528 10.9476 66.112 11.1406 66.1398 11.3299C66.1677 11.5192 66.2624 11.6923 66.4068 11.8179C66.5511 11.9434 66.7357 12.0131 66.927 12.0144C67.1184 12.0157 67.3039 11.9485 67.4499 11.8249C67.596 11.7013 67.693 11.5295 67.7234 11.3405C69.0838 11.1487 70.3294 10.4724 71.2313 9.43586C72.1331 8.39933 72.6307 7.0722 72.6325 5.69826Z" fill="#292A2E"/>
</g>
<path d="M21.004 174.736C20.9723 174.737 20.9409 174.73 20.9117 174.718C20.8824 174.706 20.8559 174.688 20.8335 174.666C20.4938 174.326 19.9401 168.094 18.4487 149.54C17.8386 141.947 17.2621 134.776 16.8415 130.418C16.8116 130.107 16.6908 130.071 16.6512 130.059C16.0753 129.885 14.3243 131.266 13.3467 132.475C13.3268 132.5 13.3022 132.52 13.2744 132.535C13.2466 132.55 13.2161 132.56 13.1846 132.563C13.1531 132.567 13.1212 132.564 13.0908 132.555C13.0605 132.546 13.0322 132.531 13.0075 132.511C12.9829 132.491 12.9624 132.466 12.9473 132.439C12.9322 132.411 12.9226 132.38 12.9193 132.349C12.916 132.317 12.9189 132.285 12.9278 132.255C12.9368 132.225 12.9517 132.196 12.9716 132.172C13.6182 131.372 15.7252 129.277 16.7899 129.597C17.0044 129.662 17.2708 129.848 17.3202 130.372C17.7412 134.734 18.3178 141.907 18.9283 149.501C19.8345 160.776 20.861 173.55 21.1985 174.355C21.2243 174.391 21.2397 174.433 21.2431 174.477C21.2464 174.521 21.2375 174.566 21.2174 174.605C21.1974 174.644 21.1668 174.677 21.1292 174.701C21.0915 174.724 21.0482 174.736 21.004 174.736Z" fill="#494949"/>
<path d="M16.2215 138.414C20.222 135.207 21.5479 130.216 19.183 127.266C16.8181 124.316 11.658 124.524 7.65755 127.73C3.65708 130.937 2.33117 135.928 4.69603 138.879C7.06089 141.829 12.221 141.621 16.2215 138.414Z" fill="#0CBC8B"/>
<path opacity="0.2" d="M16.2215 138.414C20.222 135.207 21.5479 130.216 19.183 127.266C16.8181 124.316 11.658 124.524 7.65755 127.73C3.65708 130.937 2.33117 135.928 4.69603 138.879C7.06089 141.829 12.221 141.621 16.2215 138.414Z" fill="white"/>
<path d="M5.81733 139.628C5.78922 139.628 5.76198 139.618 5.74043 139.6C5.71609 139.58 5.70078 139.551 5.6978 139.519C5.69482 139.487 5.70442 139.456 5.72451 139.431L17.1255 125.683C17.1356 125.671 17.1481 125.66 17.1621 125.653C17.1761 125.646 17.1914 125.641 17.2072 125.64C17.223 125.638 17.2389 125.64 17.254 125.645C17.2691 125.649 17.2832 125.657 17.2954 125.667C17.3076 125.677 17.3176 125.689 17.325 125.703C17.3324 125.718 17.337 125.733 17.3384 125.749C17.3399 125.764 17.3383 125.78 17.3336 125.795C17.3289 125.811 17.3213 125.825 17.3112 125.837L5.91135 139.585C5.89989 139.598 5.8855 139.609 5.86924 139.617C5.85298 139.624 5.83524 139.628 5.81733 139.628Z" fill="white"/>
<path d="M23.489 171.788C23.4506 171.788 23.4127 171.779 23.3785 171.761C23.3443 171.743 23.3149 171.718 23.2926 171.686C23.2703 171.655 23.2559 171.619 23.2504 171.581C23.245 171.543 23.2488 171.504 23.2615 171.468L27.544 159.151C27.6701 158.79 27.885 158.465 28.169 158.208C28.4529 157.951 28.7969 157.769 29.1694 157.679C29.5419 157.589 29.931 157.594 30.301 157.693C30.6711 157.793 31.0103 157.983 31.2876 158.248L33.5518 160.411C33.5981 160.455 33.6249 160.515 33.6264 160.579C33.6278 160.643 33.6038 160.705 33.5597 160.752C33.5155 160.798 33.4547 160.825 33.3908 160.826C33.3268 160.828 33.2649 160.804 33.2186 160.759L30.9546 158.596C30.7357 158.388 30.4679 158.237 30.1758 158.159C29.8836 158.08 29.5765 158.076 29.2824 158.147C28.9883 158.218 28.7168 158.362 28.4926 158.565C28.2684 158.768 28.0988 159.024 27.9992 159.31L23.7169 171.626C23.7004 171.674 23.6696 171.715 23.6287 171.743C23.5879 171.772 23.5391 171.788 23.489 171.788Z" fill="#494949"/>
<path d="M39.8777 167.229C42.8424 164.883 42.6662 159.721 39.4842 155.701C36.3021 151.681 31.3192 150.325 28.3544 152.671C25.3897 155.018 25.5659 160.179 28.748 164.199C31.93 168.22 36.913 169.576 39.8777 167.229Z" fill="#0CBC8B"/>
<path d="M19.059 173.95C19.0048 173.95 18.9522 173.932 18.9097 173.898C18.8672 173.864 18.8372 173.817 18.8247 173.765L11.6378 143.715C11.5886 143.51 11.4839 143.323 11.3353 143.174C11.1866 143.025 10.9997 142.919 10.7951 142.87C10.5905 142.82 10.3761 142.827 10.1755 142.891C9.97486 142.955 9.79581 143.074 9.65799 143.233L7.44245 145.793C7.42183 145.817 7.3966 145.837 7.36823 145.852C7.33985 145.866 7.30889 145.875 7.27713 145.878C7.24537 145.88 7.21343 145.876 7.18318 145.866C7.15293 145.856 7.12495 145.84 7.10086 145.819C7.07678 145.799 7.05707 145.773 7.04286 145.745C7.02866 145.716 7.02025 145.685 7.01812 145.653C7.01599 145.621 7.02017 145.59 7.03044 145.559C7.04071 145.529 7.05685 145.501 7.07793 145.478L9.29323 142.918C9.48915 142.691 9.74371 142.523 10.0289 142.432C10.3141 142.341 10.6189 142.33 10.9098 142.401C11.2007 142.472 11.4663 142.622 11.6775 142.834C11.8887 143.047 12.0373 143.313 12.1069 143.604L19.2928 173.653C19.3077 173.715 19.2972 173.78 19.2638 173.835C19.2303 173.889 19.1766 173.928 19.1144 173.943C19.0963 173.948 19.0777 173.95 19.059 173.95Z" fill="#494949"/>
<path d="M16.4062 152.469C17.2798 147.417 14.9677 142.799 11.2419 142.155C7.51611 141.51 3.78754 145.084 2.9139 150.136C2.04026 155.188 4.35238 159.806 8.07816 160.45C11.8039 161.094 15.5325 157.521 16.4062 152.469Z" fill="#0CBC8B"/>
<path d="M21.0051 174.737C20.9952 174.737 20.9853 174.736 20.9755 174.735C20.944 174.731 20.9136 174.721 20.8861 174.705C20.8585 174.69 20.8343 174.669 20.8148 174.644C20.7953 174.619 20.7809 174.59 20.7724 174.56C20.764 174.529 20.7616 174.497 20.7655 174.466L25.355 137.204C25.405 136.798 25.5712 136.415 25.8335 136.101C26.0959 135.788 26.4433 135.556 26.8339 135.435C27.2246 135.314 27.6419 135.309 28.0356 135.419C28.4294 135.53 28.7829 135.751 29.0536 136.058L34.2991 141.999C34.3201 142.023 34.3361 142.05 34.3464 142.08C34.3567 142.11 34.361 142.142 34.359 142.174C34.357 142.205 34.3489 142.236 34.3349 142.265C34.321 142.293 34.3016 142.318 34.2779 142.339C34.2541 142.36 34.2265 142.376 34.1966 142.387C34.1666 142.397 34.1349 142.401 34.1033 142.399C34.0717 142.397 34.0408 142.389 34.0123 142.375C33.9839 142.361 33.9584 142.342 33.9375 142.318L28.692 136.377C28.4828 136.14 28.2096 135.969 27.9053 135.883C27.601 135.798 27.2784 135.802 26.9765 135.896C26.6746 135.989 26.4061 136.168 26.2033 136.411C26.0005 136.653 25.8721 136.949 25.8335 137.263L21.2443 174.524C21.2374 174.582 21.2092 174.636 21.1651 174.676C21.1211 174.715 21.0641 174.736 21.0051 174.737Z" fill="#494949"/>
<path d="M39.6758 145.301C41.506 141.992 39.3527 137.298 34.8662 134.816C30.3798 132.335 25.2592 133.005 23.429 136.314C21.5989 139.623 23.7522 144.316 28.2386 146.798C32.7251 149.28 37.8457 148.609 39.6758 145.301Z" fill="#0CBC8B"/>
<path opacity="0.2" d="M39.8777 167.229C42.8424 164.883 42.6662 159.721 39.4842 155.701C36.3021 151.681 31.3192 150.325 28.3544 152.671C25.3897 155.018 25.5659 160.179 28.748 164.199C31.93 168.22 36.913 169.576 39.8777 167.229Z" fill="white"/>
<path opacity="0.5" d="M16.4062 152.469C17.2798 147.417 14.9677 142.799 11.2419 142.155C7.51611 141.51 3.78754 145.084 2.9139 150.136C2.04026 155.188 4.35238 159.806 8.07816 160.45C11.8039 161.094 15.5325 157.521 16.4062 152.469Z" fill="white"/>
<path opacity="0.5" d="M39.6758 145.301C41.506 141.992 39.3527 137.298 34.8662 134.816C30.3798 132.335 25.2592 133.005 23.429 136.314C21.5989 139.623 23.7522 144.316 28.2386 146.798C32.7251 149.28 37.8457 148.609 39.6758 145.301Z" fill="white"/>
<path d="M26.8728 206.351H15.1328L13.1875 168.79H28.8181L26.8728 206.351Z" fill="#292A2E"/>
<path opacity="0.3" d="M26.8728 206.351H15.1328L13.1875 168.79H28.8181L26.8728 206.351Z" fill="white"/>
<path d="M39.8767 167.349C39.8585 167.349 39.8406 167.344 39.8242 167.336C39.8078 167.329 39.7935 167.317 39.7822 167.303L28.2585 152.745C28.2486 152.732 28.2414 152.718 28.237 152.703C28.2327 152.688 28.2314 152.672 28.2332 152.656C28.235 152.64 28.24 152.625 28.2477 152.611C28.2554 152.597 28.2657 152.585 28.2781 152.575C28.2905 152.566 28.3048 152.558 28.32 152.554C28.3352 152.55 28.3511 152.548 28.3669 152.55C28.3826 152.552 28.3978 152.557 28.4116 152.565C28.4255 152.572 28.4377 152.583 28.4475 152.595L39.9712 167.153C39.9853 167.171 39.9941 167.192 39.9966 167.215C39.9991 167.237 39.9952 167.26 39.9854 167.28C39.9755 167.301 39.9601 167.318 39.9408 167.33C39.9216 167.342 39.8994 167.349 39.8767 167.349Z" fill="white"/>
<path d="M38.9096 146.467C38.8835 146.467 38.8581 146.459 38.8373 146.443L24.0924 135.677C24.0797 135.668 24.0688 135.656 24.0606 135.642C24.0523 135.629 24.0468 135.614 24.0444 135.598C24.042 135.583 24.0426 135.567 24.0464 135.551C24.0501 135.536 24.0568 135.521 24.0662 135.508C24.0755 135.496 24.0873 135.485 24.1008 135.477C24.1143 135.468 24.1293 135.463 24.145 135.46C24.1606 135.458 24.1766 135.459 24.192 135.462C24.2074 135.466 24.2219 135.473 24.2347 135.482L38.9807 146.25C39.0009 146.265 39.0158 146.286 39.0234 146.31C39.0309 146.334 39.0308 146.36 39.0229 146.384C39.0151 146.408 38.9999 146.428 38.9796 146.443C38.9593 146.458 38.9348 146.466 38.9096 146.467V146.467Z" fill="white"/>
<path d="M7.4799 160.293C7.4694 160.293 7.45895 160.291 7.4488 160.289C7.41792 160.281 7.39158 160.26 7.37557 160.233C7.35957 160.205 7.35521 160.172 7.36345 160.141L12.0576 142.554C12.0665 142.523 12.0868 142.498 12.1142 142.483C12.1415 142.467 12.1738 142.463 12.2041 142.471C12.2344 142.479 12.2604 142.499 12.2766 142.526C12.2927 142.553 12.2977 142.585 12.2904 142.616L7.59754 160.203C7.59064 160.229 7.57533 160.252 7.55403 160.268C7.53273 160.284 7.50665 160.293 7.4799 160.293Z" fill="white"/>
<path d="M205.798 71.5554L206.476 70.997C206.689 70.8141 206.825 70.557 206.856 70.2779C206.886 69.9987 206.81 69.7181 206.643 69.4929C206.552 69.3797 206.439 69.2862 206.311 69.218C206.183 69.1498 206.042 69.1085 205.898 69.0964C205.753 69.0844 205.608 69.102 205.47 69.1481C205.333 69.1941 205.206 69.2677 205.098 69.3644L197.053 76.506L199.277 79.1422C199.967 79.9609 200.887 80.5547 201.917 80.8474C202.948 81.1401 204.042 81.1185 205.06 80.7852L209.669 79.2676C209.91 79.1934 210.118 79.0382 210.257 78.8282C210.397 78.6183 210.46 78.3665 210.435 78.1155C210.372 77.621 205.798 71.5554 205.798 71.5554Z" fill="#E98862"/>
<path d="M200.991 71.6111L178.798 78.4877L165.265 55.5625L153.703 62.3232L170.764 89.895L170.872 90.0329C171.766 91.1424 172.985 91.9454 174.357 92.33C175.729 92.7146 177.187 92.6616 178.528 92.1785L204.982 82.5965L200.991 71.6111Z" fill="#367CFF"/>
<path d="M214.536 192.253L196.033 193.123L188.896 71.6384L207.4 70.769L214.536 192.253Z" fill="#367CFF"/>
<path opacity="0.5" d="M214.536 192.253L196.033 193.123L188.896 71.6384L207.4 70.769L214.536 192.253Z" fill="white"/>
<path d="M206.771 57.3828L188.268 58.2524L188.897 71.637L207.4 70.7673L206.771 57.3828Z" fill="#262626"/>
<path d="M214.537 192.253C214.537 192.253 211.999 196.661 209.711 200.603C207.896 203.73 206.239 206.563 206.132 206.669C206.022 206.778 203.954 204.028 201.718 200.979C199 197.274 196.033 193.123 196.033 193.123L214.537 192.253Z" fill="#367CFF"/>
<path opacity="0.9" d="M214.537 192.253C214.537 192.253 211.999 196.661 209.711 200.603C207.896 203.73 206.239 206.563 206.132 206.669C206.022 206.778 203.954 204.028 201.718 200.979C199 197.274 196.033 193.123 196.033 193.123L214.537 192.253Z" fill="white"/>
<path d="M209.711 200.604C207.897 203.731 206.24 206.564 206.133 206.67C206.023 206.78 203.955 204.03 201.719 200.98L209.711 200.604Z" fill="#262626"/>
<path d="M208.773 192.488L201.311 71.0791L202.155 71.0366L209.617 192.446L208.773 192.488Z" fill="white"/>
<path d="M201.535 192.831L194.072 71.4218L194.917 71.3794L202.379 192.788L201.535 192.831Z" fill="white"/>
<path d="M204.615 77.2206C204.615 76.9873 204.691 76.7604 204.831 76.5743C204.972 76.3881 205.17 76.253 205.394 76.1895C205.386 76.1724 205.355 76.1364 205.385 76.1244L204.506 75.9686C204.246 75.9284 204.009 75.7954 203.84 75.5942C203.67 75.3931 203.579 75.1374 203.584 74.8744C203.597 74.6148 203.705 74.3692 203.889 74.1852C204.072 74.0012 204.318 73.8919 204.577 73.8785C204.571 73.87 204.573 73.8582 204.57 73.8481L204.208 73.7839C203.963 73.745 203.74 73.6227 203.575 73.4377C203.41 73.2527 203.314 73.0164 203.303 72.7687C203.299 72.6133 203.331 72.4591 203.394 72.3171C203.457 72.1752 203.551 72.049 203.669 71.9478C203.787 71.8465 203.926 71.7727 204.076 71.7317C204.226 71.6906 204.383 71.6834 204.536 71.7104L205.37 71.8579C205.37 71.8534 205.366 71.85 205.367 71.8454C205.368 71.8408 205.374 71.8362 205.376 71.8309C205.156 71.7388 204.975 71.575 204.861 71.3662C204.747 71.1574 204.708 70.9162 204.749 70.6819C204.816 70.0706 205.538 69.843 206.077 69.9384L207.752 70.3724C208.01 70.4392 208.248 70.5688 208.444 70.7497C208.64 70.9305 208.789 71.157 208.876 71.4091C209.634 73.5908 211.477 79.3361 209.757 79.0313L205.522 78.2811C205.275 78.2302 205.051 78.0983 204.887 77.9062C204.723 77.7142 204.627 77.473 204.615 77.2206Z" fill="#E98862"/>
<path d="M134.247 33.0507C134.247 33.0507 131.752 30.891 131.407 26.2813C131.14 22.7133 134.247 25.2205 134.247 25.2205C134.247 25.2205 134.08 22.6487 135.919 23.0267C137.759 23.4047 138.619 26.1516 138.619 26.1516" fill="#0C0C0C"/>
<path d="M145.498 23.9688C145.498 23.9688 154.647 25.5741 150.479 37.838H147.997" fill="#0C0C0C"/>
<path d="M152.031 191.741C152.031 191.741 154.958 196.686 151.213 200.425C147.468 204.165 151.117 206.554 151.117 206.554L166.225 193.164L159.535 185.616L152.031 191.741Z" fill="#367CFF"/>
<path d="M126.324 94.2741C126.324 94.2741 124.623 143.327 124.839 145.721C125.658 154.777 152.308 195.811 152.308 195.811L162.231 187.338L149.559 161.67L141.548 143.781C141.548 143.781 142.927 128.397 146.644 114.111C148.546 106.779 149.691 99.2708 150.06 91.7051L126.324 94.2741Z" fill="#262626"/>
<path d="M151.541 196.084C151.541 196.084 150.452 201.726 145.169 202.041C139.886 202.357 141.033 206.564 141.033 206.564H161.221V196.478L151.541 196.084Z" fill="#367CFF"/>
<path d="M162.59 93.1591C162.59 93.1591 162.527 91.4631 162.54 95.3105C162.59 109.662 162.112 199.685 162.112 199.685L148.847 199.574L140.811 92.5752L162.59 93.1591Z" fill="#262626"/>
<path d="M143.535 129.05L142.447 112.413C142.447 112.413 141.33 119.329 141.33 125.291C141.33 128.205 141.93 139.742 141.93 139.742L143.535 129.05Z" fill="#0A0A0A"/>
<path d="M145.306 152.171L148.065 189.153L145.482 184.997L142.842 146.67L145.306 152.171Z" fill="#0A0A0A"/>
<path d="M135.195 50.5881C135.236 50.5828 135.686 58.0595 144.372 57.4078C150.385 56.9572 152.529 50.5775 152.667 50.5775C152.019 50.4398 151.218 50.2306 150.899 50.159C150.205 49.9979 149.577 49.6293 149.097 49.1023C148.618 48.5753 148.311 47.9149 148.216 47.2089C148.04 46.1481 148.338 40.7271 148.246 39.6548L139.016 41.7151C139.145 43.9796 140.048 49.2296 136.884 50.159C136.358 50.3125 135.791 50.4538 135.195 50.5881Z" fill="#E98862"/>
<path opacity="0.52" d="M138.889 48.0128C139.033 47.5468 139.126 47.0665 139.166 46.5803C139.268 45.4707 139.247 44.3534 139.106 43.2483C140.982 42.995 142.749 42.2206 144.207 41.0132C144.379 41.6463 145.321 44.4124 145.06 45.0135C144.567 46.1506 142.249 48.0128 138.889 48.0128Z" fill="#0C0C0C"/>
<path d="M140.526 46.2068C144.181 46.1243 148.683 44.1202 149.077 39.1925L149.431 34.7462C149.825 29.8185 147.555 25.6174 142.916 25.2476C138.276 24.8773 134.489 28.5953 134.096 33.523L133.939 35.4914C133.897 36.1682 133.901 36.847 133.951 37.5233C134.072 39.3116 134.259 42.0315 135.34 43.9344C136.36 45.7309 138.191 46.2593 140.526 46.2068Z" fill="#E98862"/>
<path opacity="0.52" d="M139.141 41.5872C138.389 41.5709 137.651 41.3781 136.987 41.0243C136.973 41.0176 136.96 41.0081 136.95 40.9964C136.939 40.9847 136.931 40.971 136.926 40.9561C136.921 40.9413 136.919 40.9255 136.92 40.9099C136.921 40.8942 136.926 40.8789 136.933 40.8649C136.94 40.8509 136.95 40.8385 136.962 40.8284C136.974 40.8183 136.988 40.8107 137.003 40.806C137.018 40.8013 137.033 40.7997 137.049 40.8013C137.065 40.8028 137.08 40.8075 137.093 40.815C138.526 41.5426 139.871 41.5404 140.984 40.8083C141.006 40.7927 141.029 40.7784 141.053 40.7653C141.081 40.7517 141.114 40.7497 141.143 40.7598C141.172 40.7699 141.197 40.7913 141.21 40.8194C141.224 40.8474 141.226 40.8796 141.216 40.9091C141.206 40.9386 141.184 40.9629 141.156 40.9765C141.148 40.9814 141.132 40.9912 141.113 41.0045C140.528 41.3906 139.841 41.5935 139.141 41.5872Z" fill="#0C0C0C"/>
<path opacity="0.52" d="M139.103 42.6987C138.968 42.6979 138.832 42.6856 138.699 42.6618C138.668 42.6565 138.641 42.6391 138.623 42.6137C138.605 42.5882 138.598 42.5566 138.603 42.5259C138.609 42.4953 138.626 42.4679 138.651 42.45C138.677 42.4321 138.708 42.425 138.739 42.4304C139.545 42.5712 139.957 42.2252 139.974 42.2103C139.998 42.1897 140.029 42.1794 140.06 42.1814C140.091 42.1835 140.12 42.1978 140.14 42.2212C140.161 42.2447 140.171 42.2753 140.169 42.3064C140.167 42.3374 140.153 42.3664 140.129 42.387C139.834 42.6065 139.471 42.7166 139.103 42.6987Z" fill="#0C0C0C"/>
<path d="M135.472 35.8214C135.788 35.8214 136.045 35.5647 136.045 35.2481C136.045 34.9315 135.788 34.6748 135.472 34.6748C135.155 34.6748 134.898 34.9315 134.898 35.2481C134.898 35.5647 135.155 35.8214 135.472 35.8214Z" fill="#0C0C0C"/>
<path d="M140.784 35.858C141.101 35.858 141.358 35.6013 141.358 35.2847C141.358 34.9681 141.101 34.7114 140.784 34.7114C140.468 34.7114 140.211 34.9681 140.211 35.2847C140.211 35.6013 140.468 35.858 140.784 35.858Z" fill="#0C0C0C"/>
<path d="M148.667 40.6711C150.077 40.7834 151.341 39.3663 151.453 37.9562C151.566 36.5461 150.485 35.6775 149.075 35.5649L148.273 36.4521L147.455 40.5746L148.667 40.6711Z" fill="#E98862"/>
<path d="M124.403 67.0477C124.676 70.2618 126.007 90.3145 126.27 94.2736H162.522C162.727 90.7029 163.647 75.0892 164.423 68.1068C165.164 61.4437 166.619 57.8668 165.553 55.8969C163.811 52.6775 159.05 51.0582 155.804 50.6187C153.822 50.3506 150.841 50.1582 150.841 50.1582C150.841 50.1582 150.589 55.2643 144.57 55.5486C136.377 55.9343 136.924 50.1582 136.883 50.1582C133.909 50.1582 128.279 50.8699 126.118 52.339C121.26 55.6426 123.822 60.2364 124.403 67.0477Z" fill="#367CFF"/>
<path d="M147.414 38.3082C147.414 38.3082 147.405 31.2978 145.317 30.7249C143.927 30.3435 140.374 32.1136 137.25 31.2978C135.883 30.9407 134.545 31.1955 134.367 31.8407C134.297 32.0962 133.684 28.316 136.042 25.6364C137.919 23.5031 143.612 23.2466 146.134 24.1564C153.115 26.6755 149.343 35.8908 149.343 35.8908L148.864 38.2756L147.414 38.3082Z" fill="#0C0C0C"/>
<g opacity="0.52">
<path opacity="0.52" d="M138.394 39.8816H138.385C137.931 39.8466 137.172 39.7369 137.198 39.397C137.22 39.1154 138.226 36.1342 138.34 35.7952C138.345 35.7808 138.353 35.7674 138.363 35.756C138.373 35.7445 138.385 35.7351 138.399 35.7284C138.413 35.7216 138.427 35.7176 138.443 35.7166C138.458 35.7155 138.473 35.7175 138.487 35.7224C138.502 35.7273 138.515 35.735 138.527 35.745C138.538 35.755 138.548 35.7672 138.554 35.7809C138.561 35.7945 138.565 35.8094 138.566 35.8246C138.567 35.8398 138.565 35.855 138.56 35.8695C138.114 37.1899 137.445 39.2236 137.43 39.4148C137.468 39.4987 137.932 39.6137 138.403 39.6501C138.432 39.6528 138.46 39.6667 138.479 39.6891C138.499 39.7114 138.509 39.7405 138.508 39.7702C138.507 39.7999 138.495 39.8281 138.473 39.8489C138.452 39.8697 138.424 39.8816 138.394 39.882V39.8816Z" fill="#0C0C0C"/>
</g>
<path d="M137.08 33.489C136.901 33.4139 136.713 33.3633 136.52 33.3384C136.321 33.3107 136.119 33.3107 135.92 33.3384C135.719 33.3634 135.524 33.4188 135.34 33.5025C135.152 33.5869 134.976 33.6945 134.815 33.8227L134.803 33.8323C134.761 33.863 134.709 33.8765 134.658 33.87C134.607 33.8635 134.56 33.8374 134.527 33.7973C134.495 33.7572 134.479 33.7061 134.483 33.6546C134.487 33.6031 134.511 33.5552 134.55 33.5208C134.728 33.3553 134.926 33.2129 135.14 33.097C135.357 32.9784 135.591 32.8929 135.833 32.8437C136.328 32.7395 136.841 32.7714 137.319 32.936C137.357 32.9492 137.391 32.9696 137.42 32.996C137.45 33.0225 137.474 33.0545 137.491 33.0903C137.508 33.126 137.518 33.1648 137.52 33.2044C137.522 33.244 137.517 33.2836 137.504 33.321C137.49 33.3584 137.47 33.3928 137.444 33.4223C137.417 33.4518 137.385 33.4758 137.349 33.4929C137.314 33.5101 137.275 33.52 137.235 33.5221C137.196 33.5243 137.156 33.5186 137.119 33.5054C137.111 33.5028 137.104 33.5001 137.097 33.497L137.08 33.489Z" fill="#0C0C0C"/>
<path d="M140.445 32.9829C140.685 32.8984 140.937 32.8487 141.192 32.8353C141.44 32.8199 141.688 32.8385 141.931 32.8905C142.173 32.9399 142.407 33.0253 142.623 33.1439C142.837 33.26 143.036 33.4025 143.214 33.5682C143.253 33.6023 143.278 33.6503 143.283 33.7022C143.287 33.754 143.271 33.8057 143.239 33.8461C143.206 33.8866 143.159 33.9128 143.107 33.9191C143.055 33.9254 143.003 33.9114 142.962 33.8799L142.948 33.8698C142.787 33.7416 142.611 33.634 142.424 33.5497C142.24 33.4659 142.045 33.4105 141.845 33.3852C141.646 33.3576 141.444 33.3576 141.245 33.3852C141.052 33.4102 140.864 33.4608 140.685 33.5359L140.668 33.5434C140.632 33.5594 140.593 33.5682 140.553 33.5691C140.514 33.5701 140.474 33.5632 140.437 33.5489C140.4 33.5346 140.366 33.5132 140.338 33.4858C140.309 33.4584 140.286 33.4257 140.27 33.3895C140.254 33.3532 140.245 33.3142 140.244 33.2745C140.243 33.2349 140.25 33.1955 140.264 33.1585C140.279 33.1215 140.3 33.0877 140.328 33.0591C140.355 33.0304 140.388 33.0074 140.424 32.9913C140.43 32.9884 140.437 32.9853 140.445 32.9829Z" fill="#0C0C0C"/>
<path d="M140.935 25.9971C141.359 24.4812 140.868 23.0186 139.839 22.7304C138.809 22.4422 137.63 23.4375 137.206 24.9534C136.781 26.4693 137.272 27.9319 138.302 28.2201C139.332 28.5083 140.511 27.5131 140.935 25.9971Z" fill="#0C0C0C"/>
<path d="M122.99 99.5126C123.14 99.4614 123.276 99.3775 123.39 99.2672C123.503 99.1568 123.59 99.0227 123.646 98.8744C123.701 98.7262 123.722 98.5676 123.709 98.41C123.695 98.2524 123.647 98.0998 123.567 97.9632L124.266 99.1592C124.403 99.4045 124.628 99.5888 124.895 99.6749C125.162 99.7609 125.453 99.7423 125.707 99.6228C125.836 99.5565 125.95 99.4646 126.042 99.3527C126.135 99.2408 126.203 99.1113 126.244 98.972C126.284 98.8328 126.296 98.6867 126.278 98.5427C126.261 98.3987 126.214 98.2599 126.141 98.1346L126.457 98.6761C126.58 98.8959 126.776 99.0664 127.01 99.1587C127.245 99.2509 127.504 99.2593 127.744 99.1824C127.894 99.1311 128.03 99.0472 128.144 98.9368C128.257 98.8264 128.344 98.6923 128.399 98.544C128.455 98.3958 128.476 98.2371 128.463 98.0795C128.449 97.9219 128.401 97.7693 128.321 97.6327L127.766 96.6845C127.909 96.929 128.143 97.1068 128.417 97.1788C128.691 97.2507 128.982 97.2109 129.227 97.0681C129.787 96.7889 129.75 96.0194 129.469 95.5384L128.427 93.5975L129.116 94.1425C129.34 94.3124 129.619 94.3911 129.899 94.3626C130.178 94.3341 130.437 94.2007 130.621 93.9892C130.713 93.8767 130.781 93.7467 130.82 93.6072C130.86 93.4677 130.871 93.3215 130.852 93.1777C130.834 93.0338 130.786 92.8953 130.712 92.7705C130.638 92.6457 130.539 92.5373 130.422 92.4518L124.158 88.5015L119.638 88.8195C118.983 89.667 118.596 90.6909 118.527 91.7598C118.458 92.8287 118.709 93.8939 119.249 94.819L121.703 99.0052C121.826 99.2252 122.022 99.3959 122.256 99.4884C122.491 99.5809 122.75 99.5894 122.99 99.5126Z" fill="#E98862"/>
<path d="M127.061 95.4981C127.059 95.4749 127.064 95.4515 127.077 95.4319C127.09 95.4124 127.109 95.3979 127.132 95.3911C127.154 95.3843 127.178 95.3855 127.2 95.3945C127.221 95.4035 127.239 95.4198 127.25 95.4405L127.94 96.7551C127.946 96.7668 127.95 96.7795 127.951 96.7927C127.952 96.8058 127.951 96.819 127.947 96.8316C127.943 96.8442 127.937 96.8559 127.928 96.866C127.92 96.8761 127.909 96.8845 127.898 96.8906C127.886 96.8967 127.873 96.9005 127.86 96.9017C127.847 96.9029 127.834 96.9015 127.821 96.8976C127.809 96.8937 127.797 96.8873 127.787 96.8789C127.777 96.8704 127.768 96.8601 127.762 96.8484L127.072 95.5338C127.066 95.5226 127.063 95.5105 127.061 95.4981Z" fill="#E98862"/>
<path d="M125.202 96.4775C125.199 96.4544 125.205 96.4312 125.218 96.4118C125.231 96.3924 125.25 96.3781 125.272 96.3712C125.294 96.3643 125.318 96.3653 125.34 96.3741C125.361 96.3828 125.379 96.3987 125.39 96.4191L126.351 98.2154C126.357 98.2271 126.361 98.2398 126.362 98.2529C126.364 98.266 126.362 98.2793 126.359 98.2919C126.355 98.3045 126.348 98.3162 126.34 98.3264C126.332 98.3366 126.321 98.3451 126.31 98.3513C126.298 98.3575 126.285 98.3614 126.272 98.3627C126.259 98.364 126.246 98.3627 126.233 98.3589C126.221 98.355 126.209 98.3488 126.199 98.3404C126.189 98.3321 126.18 98.3218 126.174 98.3102L125.213 96.5139C125.207 96.5026 125.203 96.4902 125.202 96.4775Z" fill="#E98862"/>
<path d="M123.182 97.5264C123.18 97.503 123.185 97.4795 123.198 97.4599C123.211 97.4403 123.231 97.4259 123.253 97.4192C123.276 97.4125 123.3 97.4139 123.322 97.4233C123.343 97.4326 123.361 97.4492 123.372 97.4702L123.805 98.3292C123.817 98.3529 123.82 98.3805 123.811 98.4058C123.803 98.4311 123.785 98.4521 123.761 98.4641C123.737 98.4761 123.71 98.4782 123.685 98.4699C123.659 98.4616 123.638 98.4436 123.626 98.4198L123.192 97.5606C123.187 97.5499 123.184 97.5383 123.182 97.5264Z" fill="#E98862"/>
<path opacity="0.2" d="M127.061 95.4981C127.059 95.4749 127.064 95.4515 127.077 95.4319C127.09 95.4124 127.109 95.3979 127.132 95.3911C127.154 95.3843 127.178 95.3855 127.2 95.3945C127.221 95.4035 127.239 95.4198 127.25 95.4405L127.94 96.7551C127.946 96.7668 127.95 96.7795 127.951 96.7927C127.952 96.8058 127.951 96.819 127.947 96.8316C127.943 96.8442 127.937 96.8559 127.928 96.866C127.92 96.8761 127.909 96.8845 127.898 96.8906C127.886 96.8967 127.873 96.9005 127.86 96.9017C127.847 96.9029 127.834 96.9015 127.821 96.8976C127.809 96.8937 127.797 96.8873 127.787 96.8789C127.777 96.8704 127.768 96.8601 127.762 96.8484L127.072 95.5338C127.066 95.5226 127.063 95.5105 127.061 95.4981Z" fill="#0C0C0C"/>
<path opacity="0.2" d="M125.202 96.4775C125.199 96.4544 125.205 96.4312 125.218 96.4118C125.231 96.3924 125.25 96.3781 125.272 96.3712C125.294 96.3643 125.318 96.3653 125.34 96.3741C125.361 96.3828 125.379 96.3987 125.39 96.4191L126.351 98.2154C126.357 98.2271 126.361 98.2398 126.362 98.2529C126.364 98.266 126.362 98.2793 126.359 98.2919C126.355 98.3045 126.348 98.3162 126.34 98.3264C126.332 98.3366 126.321 98.3451 126.31 98.3513C126.298 98.3575 126.285 98.3614 126.272 98.3627C126.259 98.364 126.246 98.3627 126.233 98.3589C126.221 98.355 126.209 98.3488 126.199 98.3404C126.189 98.3321 126.18 98.3218 126.174 98.3102L125.213 96.5139C125.207 96.5026 125.203 96.4902 125.202 96.4775Z" fill="#0C0C0C"/>
<path opacity="0.2" d="M123.182 97.5264C123.18 97.503 123.185 97.4795 123.198 97.4599C123.211 97.4403 123.231 97.4259 123.253 97.4192C123.276 97.4125 123.3 97.4139 123.322 97.4233C123.343 97.4326 123.361 97.4492 123.372 97.4702L123.805 98.3292C123.817 98.3529 123.82 98.3805 123.811 98.4058C123.803 98.4311 123.785 98.4521 123.761 98.4641C123.737 98.4761 123.71 98.4782 123.685 98.4699C123.659 98.4616 123.638 98.4436 123.626 98.4198L123.192 97.5606C123.187 97.5499 123.184 97.5383 123.182 97.5264Z" fill="#0C0C0C"/>
<path d="M132.534 64.7169C132.534 64.7169 129.624 51.0758 126.323 52.2117C123.704 53.1129 104.026 69.3286 103.429 69.9166C102.114 71.2113 101.366 72.9756 101.352 74.8212C101.337 76.6669 102.056 78.4428 103.351 79.7583L118.667 97.2825L127.506 88.997L115.883 76.4366L132.534 64.7169Z" fill="#367CFF"/>
<path d="M124.605 70.6256C124.582 70.6255 124.559 70.6166 124.542 70.6006C124.525 70.5846 124.514 70.5627 124.512 70.5393L124.123 65.1461C124.122 65.1339 124.124 65.1217 124.128 65.11C124.132 65.0984 124.138 65.0877 124.146 65.0784C124.154 65.0691 124.163 65.0615 124.174 65.056C124.185 65.0505 124.197 65.0472 124.209 65.0463C124.221 65.0452 124.234 65.0465 124.245 65.0502C124.257 65.054 124.268 65.06 124.277 65.068C124.287 65.076 124.294 65.0858 124.3 65.0968C124.305 65.1078 124.309 65.1198 124.309 65.1321L124.698 70.5254C124.699 70.5376 124.698 70.5498 124.694 70.5614C124.69 70.5731 124.684 70.5838 124.676 70.5931C124.668 70.6024 124.658 70.61 124.648 70.6155C124.637 70.621 124.625 70.6243 124.612 70.6252L124.605 70.6256Z" fill="#0C0C0C"/>
<path d="M163.603 78.8489H163.596C163.572 78.8478 163.549 78.837 163.532 78.8189C163.516 78.8009 163.507 78.777 163.508 78.7525L164.151 65.8358C164.153 65.8114 164.165 65.7888 164.183 65.7724C164.201 65.756 164.225 65.7471 164.249 65.7476C164.261 65.7482 164.273 65.7512 164.284 65.7564C164.296 65.7616 164.305 65.769 164.314 65.778C164.322 65.7871 164.328 65.7977 164.332 65.8092C164.337 65.8208 164.338 65.833 164.338 65.8452L163.694 78.7612C163.693 78.7846 163.683 78.8066 163.666 78.8229C163.649 78.8391 163.627 78.8484 163.603 78.8489Z" fill="#0C0C0C"/>
<path d="M215.662 206.857H7.97737C7.92795 206.857 7.88055 206.837 7.8456 206.803C7.81065 206.768 7.79102 206.72 7.79102 206.671C7.79102 206.621 7.81065 206.574 7.8456 206.539C7.88055 206.504 7.92795 206.484 7.97737 206.484H215.662C215.712 206.484 215.759 206.504 215.794 206.539C215.829 206.574 215.848 206.621 215.848 206.671C215.848 206.72 215.829 206.768 215.794 206.803C215.759 206.837 215.712 206.857 215.662 206.857Z" fill="#3F3F3F"/>
</svg>
