<svg width="81" height="81" viewBox="0 0 81 81" fill="none" xmlns="http://www.w3.org/2000/svg">
<circle cx="40.5" cy="40.5" r="40.5" fill="white"/>
<path d="M59.75 34.125C60.5788 34.125 61.3737 34.4542 61.9597 35.0403C62.5458 35.6263 62.875 36.4212 62.875 37.25V62.25C62.875 63.0788 62.5458 63.8737 61.9597 64.4597C61.3737 65.0458 60.5788 65.375 59.75 65.375H51.9375C50.9672 65.375 50.0103 65.6009 49.1424 66.0348C48.2746 66.4688 47.5197 67.0988 46.9375 67.875L41 75.7906L35.0625 67.875C34.4803 67.0988 33.7254 66.4688 32.8576 66.0348C31.9897 65.6009 31.0328 65.375 30.0625 65.375H22.25C21.4212 65.375 20.6263 65.0458 20.0403 64.4597C19.4542 63.8737 19.125 63.0788 19.125 62.25V37.25C19.125 36.4212 19.4542 35.6263 20.0403 35.0403C20.6263 34.4542 21.4212 34.125 22.25 34.125H59.75ZM22.25 31C20.5924 31 19.0027 31.6585 17.8306 32.8306C16.6585 34.0027 16 35.5924 16 37.25V62.25C16 63.9076 16.6585 65.4973 17.8306 66.6694C19.0027 67.8415 20.5924 68.5 22.25 68.5H30.0625C30.5476 68.5 31.0261 68.613 31.46 68.8299C31.894 69.0469 32.2714 69.3619 32.5625 69.75L38.5 77.6656C38.7911 78.0537 39.1685 78.3687 39.6025 78.5857C40.0364 78.8027 40.5149 78.9156 41 78.9156C41.4851 78.9156 41.9636 78.8027 42.3975 78.5857C42.8315 78.3687 43.2089 78.0537 43.5 77.6656L49.4375 69.75C49.7286 69.3619 50.106 69.0469 50.54 68.8299C50.9739 68.613 51.4524 68.5 51.9375 68.5H59.75C61.4076 68.5 62.9973 67.8415 64.1694 66.6694C65.3415 65.4973 66 63.9076 66 62.25V37.25C66 35.5924 65.3415 34.0027 64.1694 32.8306C62.9973 31.6585 61.4076 31 59.75 31H22.25Z" fill="#0CBC8B"/>
<path d="M53.1249 47.176V43.3333C53.1249 42.6482 52.8527 41.9911 52.3683 41.5066C51.8838 41.0222 51.2267 40.75 50.5416 40.75H42.7916V39.0553C43.1855 38.7014 43.4374 38.1925 43.4374 37.6216C43.4374 37.1077 43.2333 36.6149 42.8699 36.2516C42.5066 35.8882 42.0138 35.6841 41.4999 35.6841C40.9861 35.6841 40.4932 35.8882 40.1299 36.2516C39.7665 36.6149 39.5624 37.1077 39.5624 37.6216C39.5624 38.1925 39.8143 38.7014 40.2083 39.0553V40.75H32.4583C31.7731 40.75 31.116 41.0222 30.6316 41.5066C30.1471 41.9911 29.8749 42.6482 29.8749 43.3333V47.2057L29.7819 47.2122C29.4563 47.2354 29.1515 47.3812 28.9291 47.6202C28.7067 47.8591 28.5831 48.1735 28.5833 48.5V51.0833C28.5833 51.4259 28.7193 51.7544 28.9616 51.9967C29.2038 52.2389 29.5323 52.375 29.8749 52.375V58.8333C29.8749 59.5185 30.1471 60.1756 30.6316 60.66C31.116 61.1445 31.7731 61.4167 32.4583 61.4167H50.5416C51.2267 61.4167 51.8838 61.1445 52.3683 60.66C52.8527 60.1756 53.1249 59.5185 53.1249 58.8333V52.375C53.4675 52.375 53.796 52.2389 54.0383 51.9967C54.2805 51.7544 54.4166 51.4259 54.4166 51.0833V48.5801C54.4316 48.3796 54.3997 48.1784 54.3236 47.9924C54.0627 47.362 53.5034 47.2109 53.1249 47.176ZM35.0416 48.5C35.0416 47.074 35.9096 45.9167 36.9791 45.9167C38.0486 45.9167 38.9166 47.074 38.9166 48.5C38.9166 49.926 38.0486 51.0833 36.9791 51.0833C35.9096 51.0833 35.0416 49.926 35.0416 48.5ZM46.664 56.25C45.371 56.2461 36.3345 56.25 36.3333 56.25V53.6667C36.3333 53.6667 45.3762 53.6641 46.6692 53.6667L46.664 56.25ZM46.0208 51.0833C44.9513 51.0833 44.0833 49.926 44.0833 48.5C44.0833 47.074 44.9513 45.9167 46.0208 45.9167C47.0903 45.9167 47.9583 47.074 47.9583 48.5C47.9583 49.926 47.0903 51.0833 46.0208 51.0833Z" fill="#367CFF"/>
</svg>
