<svg width="405" height="315" viewBox="0 0 405 315" fill="none" xmlns="http://www.w3.org/2000/svg">
<path d="M0.75 24.0833H404.25V307C404.25 311.004 401.004 314.25 397 314.25H8C3.99594 314.25 0.75 311.004 0.75 307V24.0833Z" fill="white" stroke="#3C64B1" stroke-width="1.5"/>
<path opacity="0.1" d="M0 32H405V307C405 311.418 401.418 315 397 315H8C3.58173 315 0 311.418 0 307V32Z" fill="#3C64B1"/>
<path d="M0.75 8C0.75 3.99594 3.99594 0.75 8 0.75H397C401.004 0.75 404.25 3.99594 404.25 8V39.25H0.75V8Z" fill="white" stroke="#3C64B1" stroke-width="1.5"/>
<path fill-rule="evenodd" clip-rule="evenodd" d="M53 25C55.7614 25 58 22.7614 58 20C58 17.2386 55.7614 15 53 15C50.2386 15 48 17.2386 48 20C48 22.7614 50.2386 25 53 25Z" fill="white" stroke="#3C64B1" stroke-width="1.5"/>
<path fill-rule="evenodd" clip-rule="evenodd" d="M35 25C37.7614 25 40 22.7614 40 20C40 17.2386 37.7614 15 35 15C32.2386 15 30 17.2386 30 20C30 22.7614 32.2386 25 35 25Z" fill="white" stroke="#3C64B1" stroke-width="1.5"/>
<path fill-rule="evenodd" clip-rule="evenodd" d="M17 25C19.7614 25 22 22.7614 22 20C22 17.2386 19.7614 15 17 15C14.2386 15 12 17.2386 12 20C12 22.7614 14.2386 25 17 25Z" fill="white" stroke="#3C64B1" stroke-width="1.5"/>
<path d="M138.993 142.128C137.211 142.128 135.793 141.648 134.737 140.688L135.233 139.68C135.798 140.16 136.374 140.501 136.961 140.704C137.547 140.907 138.23 141.008 139.009 141.008C139.926 141.008 140.63 140.832 141.121 140.48C141.622 140.117 141.873 139.611 141.873 138.96C141.873 138.576 141.75 138.267 141.505 138.032C141.27 137.787 140.955 137.595 140.561 137.456C140.177 137.317 139.659 137.173 139.009 137.024C138.134 136.832 137.414 136.624 136.849 136.4C136.283 136.176 135.825 135.856 135.473 135.44C135.121 135.013 134.945 134.459 134.945 133.776C134.945 133.125 135.115 132.555 135.457 132.064C135.798 131.563 136.278 131.173 136.897 130.896C137.526 130.619 138.257 130.48 139.089 130.48C139.878 130.48 140.614 130.603 141.297 130.848C141.979 131.093 142.555 131.451 143.025 131.92L142.513 132.928C141.979 132.469 141.435 132.133 140.881 131.92C140.337 131.707 139.739 131.6 139.089 131.6C138.203 131.6 137.51 131.792 137.009 132.176C136.507 132.549 136.257 133.067 136.257 133.728C136.257 134.304 136.475 134.736 136.913 135.024C137.35 135.312 138.022 135.563 138.929 135.776C139.91 136.011 140.678 136.229 141.233 136.432C141.798 136.624 142.267 136.923 142.641 137.328C143.014 137.723 143.201 138.251 143.201 138.912C143.201 139.552 143.03 140.117 142.689 140.608C142.347 141.088 141.857 141.461 141.217 141.728C140.587 141.995 139.846 142.128 138.993 142.128ZM148.813 142.112C148.056 142.112 147.389 141.941 146.813 141.6C146.237 141.259 145.789 140.773 145.469 140.144C145.16 139.515 145.005 138.779 145.005 137.936C145.005 137.093 145.16 136.357 145.469 135.728C145.789 135.099 146.237 134.613 146.813 134.272C147.389 133.931 148.056 133.76 148.813 133.76C149.571 133.76 150.237 133.931 150.813 134.272C151.389 134.613 151.832 135.099 152.141 135.728C152.461 136.357 152.622 137.093 152.622 137.936C152.622 138.779 152.461 139.515 152.141 140.144C151.832 140.773 151.389 141.259 150.813 141.6C150.237 141.941 149.571 142.112 148.813 142.112ZM148.813 141.04C149.613 141.04 150.227 140.779 150.653 140.256C151.08 139.723 151.293 138.949 151.293 137.936C151.293 136.955 151.075 136.197 150.637 135.664C150.2 135.12 149.592 134.848 148.813 134.848C148.024 134.848 147.411 135.12 146.973 135.664C146.536 136.197 146.317 136.955 146.317 137.936C146.317 138.949 146.531 139.723 146.957 140.256C147.395 140.779 148.013 141.04 148.813 141.04ZM163.87 133.76C165.651 133.76 166.542 134.821 166.542 136.944V142H165.246V137.008C165.246 136.251 165.112 135.701 164.846 135.36C164.59 135.019 164.168 134.848 163.582 134.848C162.899 134.848 162.366 135.077 161.982 135.536C161.598 135.995 161.406 136.619 161.406 137.408V142H160.11V137.008C160.11 136.261 159.976 135.717 159.71 135.376C159.443 135.024 159.016 134.848 158.43 134.848C157.747 134.848 157.208 135.077 156.814 135.536C156.43 135.995 156.238 136.619 156.238 137.408V142H154.942V136.208C154.942 135.376 154.899 134.624 154.814 133.952H156.046L156.174 135.36C156.398 134.848 156.728 134.453 157.166 134.176C157.614 133.899 158.131 133.76 158.718 133.76C159.358 133.76 159.88 133.888 160.286 134.144C160.691 134.4 160.99 134.795 161.182 135.328C161.427 134.848 161.784 134.469 162.254 134.192C162.734 133.904 163.272 133.76 163.87 133.76ZM176.04 137.936H170.136C170.147 138.96 170.382 139.733 170.84 140.256C171.31 140.779 171.987 141.04 172.872 141.04C173.811 141.04 174.675 140.725 175.464 140.096L175.896 141.04C175.544 141.371 175.091 141.632 174.536 141.824C173.992 142.016 173.432 142.112 172.856 142.112C171.598 142.112 170.611 141.744 169.896 141.008C169.182 140.261 168.824 139.243 168.824 137.952C168.824 137.131 168.984 136.405 169.304 135.776C169.624 135.136 170.072 134.64 170.648 134.288C171.224 133.936 171.88 133.76 172.616 133.76C173.683 133.76 174.52 134.112 175.128 134.816C175.736 135.509 176.04 136.469 176.04 137.696V137.936ZM172.632 134.768C171.96 134.768 171.411 134.971 170.984 135.376C170.568 135.781 170.302 136.352 170.184 137.088H174.872C174.808 136.331 174.584 135.755 174.2 135.36C173.827 134.965 173.304 134.768 172.632 134.768ZM186.555 142.128C184.774 142.128 183.355 141.648 182.299 140.688L182.795 139.68C183.361 140.16 183.937 140.501 184.523 140.704C185.11 140.907 185.793 141.008 186.571 141.008C187.489 141.008 188.193 140.832 188.683 140.48C189.185 140.117 189.435 139.611 189.435 138.96C189.435 138.576 189.313 138.267 189.067 138.032C188.833 137.787 188.518 137.595 188.123 137.456C187.739 137.317 187.222 137.173 186.571 137.024C185.697 136.832 184.977 136.624 184.411 136.4C183.846 136.176 183.387 135.856 183.035 135.44C182.683 135.013 182.507 134.459 182.507 133.776C182.507 133.125 182.678 132.555 183.019 132.064C183.361 131.563 183.841 131.173 184.459 130.896C185.089 130.619 185.819 130.48 186.651 130.48C187.441 130.48 188.177 130.603 188.859 130.848C189.542 131.093 190.118 131.451 190.587 131.92L190.075 132.928C189.542 132.469 188.998 132.133 188.443 131.92C187.899 131.707 187.302 131.6 186.651 131.6C185.766 131.6 185.073 131.792 184.571 132.176C184.07 132.549 183.819 133.067 183.819 133.728C183.819 134.304 184.038 134.736 184.475 135.024C184.913 135.312 185.585 135.563 186.491 135.776C187.473 136.011 188.241 136.229 188.795 136.432C189.361 136.624 189.83 136.923 190.203 137.328C190.577 137.723 190.763 138.251 190.763 138.912C190.763 139.552 190.593 140.117 190.251 140.608C189.91 141.088 189.419 141.461 188.779 141.728C188.15 141.995 187.409 142.128 186.555 142.128ZM196.424 142.112C195.645 142.112 194.963 141.941 194.376 141.6C193.8 141.259 193.352 140.779 193.032 140.16C192.723 139.531 192.568 138.8 192.568 137.968C192.568 137.136 192.728 136.405 193.048 135.776C193.368 135.136 193.821 134.64 194.408 134.288C195.005 133.936 195.699 133.76 196.488 133.76C197.032 133.76 197.555 133.856 198.056 134.048C198.568 134.229 198.989 134.485 199.32 134.816L198.888 135.776C198.483 135.456 198.088 135.221 197.704 135.072C197.331 134.923 196.947 134.848 196.552 134.848C195.731 134.848 195.085 135.125 194.616 135.68C194.147 136.224 193.912 136.987 193.912 137.968C193.912 138.939 194.141 139.696 194.6 140.24C195.069 140.773 195.72 141.04 196.552 141.04C196.947 141.04 197.331 140.965 197.704 140.816C198.088 140.667 198.483 140.432 198.888 140.112L199.32 141.072C198.979 141.392 198.547 141.648 198.024 141.84C197.512 142.021 196.979 142.112 196.424 142.112ZM205.014 133.76C205.281 133.76 205.526 133.792 205.75 133.856L205.718 135.04C205.473 134.955 205.19 134.912 204.87 134.912C204.091 134.912 203.51 135.157 203.126 135.648C202.753 136.128 202.566 136.715 202.566 137.408V142H201.27V136.208C201.27 135.376 201.227 134.624 201.142 133.952H202.374L202.502 135.44C202.705 134.896 203.03 134.48 203.478 134.192C203.926 133.904 204.438 133.76 205.014 133.76ZM213.947 137.936H208.043C208.053 138.96 208.288 139.733 208.747 140.256C209.216 140.779 209.893 141.04 210.779 141.04C211.717 141.04 212.581 140.725 213.371 140.096L213.803 141.04C213.451 141.371 212.997 141.632 212.443 141.824C211.899 142.016 211.339 142.112 210.763 142.112C209.504 142.112 208.517 141.744 207.803 141.008C207.088 140.261 206.731 139.243 206.731 137.952C206.731 137.131 206.891 136.405 207.211 135.776C207.531 135.136 207.979 134.64 208.555 134.288C209.131 133.936 209.787 133.76 210.523 133.76C211.589 133.76 212.427 134.112 213.035 134.816C213.643 135.509 213.947 136.469 213.947 137.696V137.936ZM210.539 134.768C209.867 134.768 209.317 134.971 208.891 135.376C208.475 135.781 208.208 136.352 208.091 137.088H212.779C212.715 136.331 212.491 135.755 212.107 135.36C211.733 134.965 211.211 134.768 210.539 134.768ZM222.95 137.936H217.046C217.056 138.96 217.291 139.733 217.75 140.256C218.219 140.779 218.896 141.04 219.782 141.04C220.72 141.04 221.584 140.725 222.374 140.096L222.806 141.04C222.454 141.371 222 141.632 221.446 141.824C220.902 142.016 220.342 142.112 219.766 142.112C218.507 142.112 217.52 141.744 216.806 141.008C216.091 140.261 215.734 139.243 215.734 137.952C215.734 137.131 215.894 136.405 216.214 135.776C216.534 135.136 216.982 134.64 217.558 134.288C218.134 133.936 218.79 133.76 219.526 133.76C220.592 133.76 221.43 134.112 222.038 134.816C222.646 135.509 222.95 136.469 222.95 137.696V137.936ZM219.542 134.768C218.87 134.768 218.32 134.971 217.894 135.376C217.478 135.781 217.211 136.352 217.094 137.088H221.782C221.718 136.331 221.494 135.755 221.11 135.36C220.736 134.965 220.214 134.768 219.542 134.768ZM229.233 133.76C231.163 133.76 232.129 134.821 232.129 136.944V142H230.833V137.008C230.833 136.261 230.683 135.717 230.385 135.376C230.086 135.024 229.617 134.848 228.977 134.848C228.23 134.848 227.633 135.077 227.185 135.536C226.737 135.995 226.513 136.613 226.513 137.392V142H225.217V136.208C225.217 135.376 225.174 134.624 225.089 133.952H226.321L226.449 135.392C226.694 134.869 227.062 134.469 227.553 134.192C228.043 133.904 228.603 133.76 229.233 133.76ZM237.596 142.112C236.241 142.112 235.169 141.765 234.38 141.072L234.812 140.112C235.249 140.453 235.692 140.699 236.14 140.848C236.588 140.997 237.089 141.072 237.644 141.072C238.252 141.072 238.711 140.971 239.02 140.768C239.34 140.555 239.5 140.251 239.5 139.856C239.5 139.536 239.393 139.28 239.18 139.088C238.967 138.896 238.615 138.747 238.124 138.64L236.764 138.32C236.092 138.171 235.569 137.904 235.196 137.52C234.833 137.136 234.652 136.677 234.652 136.144C234.652 135.44 234.935 134.869 235.5 134.432C236.065 133.984 236.812 133.76 237.74 133.76C238.305 133.76 238.839 133.851 239.34 134.032C239.841 134.213 240.263 134.475 240.604 134.816L240.172 135.76C239.415 135.131 238.604 134.816 237.74 134.816C237.164 134.816 236.716 134.928 236.396 135.152C236.087 135.365 235.932 135.669 235.932 136.064C235.932 136.395 236.028 136.656 236.22 136.848C236.423 137.04 236.743 137.189 237.18 137.296L238.54 137.632C239.287 137.803 239.841 138.069 240.204 138.432C240.567 138.784 240.748 139.248 240.748 139.824C240.748 140.517 240.465 141.072 239.9 141.488C239.335 141.904 238.567 142.112 237.596 142.112ZM247.13 133.76C249.06 133.76 250.026 134.821 250.026 136.944V142H248.73V137.008C248.73 136.261 248.58 135.717 248.282 135.376C247.983 135.024 247.514 134.848 246.874 134.848C246.127 134.848 245.53 135.077 245.082 135.536C244.634 135.995 244.41 136.613 244.41 137.392V142H243.114V130.224H244.41V135.264C244.666 134.773 245.028 134.4 245.498 134.144C245.978 133.888 246.522 133.76 247.13 133.76ZM256.101 142.112C255.344 142.112 254.677 141.941 254.101 141.6C253.525 141.259 253.077 140.773 252.757 140.144C252.448 139.515 252.293 138.779 252.293 137.936C252.293 137.093 252.448 136.357 252.757 135.728C253.077 135.099 253.525 134.613 254.101 134.272C254.677 133.931 255.344 133.76 256.101 133.76C256.858 133.76 257.525 133.931 258.101 134.272C258.677 134.613 259.12 135.099 259.429 135.728C259.749 136.357 259.909 137.093 259.909 137.936C259.909 138.779 259.749 139.515 259.429 140.144C259.12 140.773 258.677 141.259 258.101 141.6C257.525 141.941 256.858 142.112 256.101 142.112ZM256.101 141.04C256.901 141.04 257.514 140.779 257.941 140.256C258.368 139.723 258.581 138.949 258.581 137.936C258.581 136.955 258.362 136.197 257.925 135.664C257.488 135.12 256.88 134.848 256.101 134.848C255.312 134.848 254.698 135.12 254.261 135.664C253.824 136.197 253.605 136.955 253.605 137.936C253.605 138.949 253.818 139.723 254.245 140.256C254.682 140.779 255.301 141.04 256.101 141.04ZM263.942 134.976V139.376C263.942 139.973 264.064 140.395 264.31 140.64C264.555 140.875 264.902 140.992 265.35 140.992C265.648 140.992 265.936 140.944 266.214 140.848V141.952C265.883 142.059 265.51 142.112 265.094 142.112C264.326 142.112 263.723 141.899 263.286 141.472C262.859 141.035 262.646 140.395 262.646 139.552V134.976H261.078V133.952H262.646V131.888L263.942 131.424V133.952H266.246V134.976H263.942ZM197.212 164.128C196.156 164.128 195.239 163.893 194.46 163.424C193.681 162.955 193.079 162.283 192.652 161.408C192.236 160.523 192.028 159.488 192.028 158.304C192.028 157.109 192.236 156.075 192.652 155.2C193.068 154.325 193.665 153.653 194.444 153.184C195.223 152.715 196.145 152.48 197.212 152.48C198.279 152.48 199.201 152.715 199.98 153.184C200.759 153.653 201.356 154.325 201.772 155.2C202.188 156.075 202.396 157.104 202.396 158.288C202.396 159.483 202.183 160.517 201.756 161.392C201.34 162.267 200.743 162.944 199.964 163.424C199.185 163.893 198.268 164.128 197.212 164.128ZM197.212 163.008C198.417 163.008 199.356 162.597 200.028 161.776C200.7 160.955 201.036 159.792 201.036 158.288C201.036 156.784 200.7 155.627 200.028 154.816C199.367 154.005 198.428 153.6 197.212 153.6C195.996 153.6 195.052 154.011 194.38 154.832C193.708 155.643 193.372 156.795 193.372 158.288C193.372 159.792 193.708 160.955 194.38 161.776C195.052 162.597 195.996 163.008 197.212 163.008ZM208.687 155.76C208.954 155.76 209.199 155.792 209.423 155.856L209.391 157.04C209.146 156.955 208.863 156.912 208.543 156.912C207.765 156.912 207.183 157.157 206.799 157.648C206.426 158.128 206.239 158.715 206.239 159.408V164H204.943V158.208C204.943 157.376 204.901 156.624 204.815 155.952H206.047L206.175 157.44C206.378 156.896 206.703 156.48 207.151 156.192C207.599 155.904 208.111 155.76 208.687 155.76ZM118.302 174.608L113.326 186H112.174L107.198 174.608H108.59L112.766 184.336L116.942 174.608H118.302ZM119.87 177.952H121.166V186H119.87V177.952ZM121.326 174.544V176.016H119.742V174.544H121.326ZM131.07 174.224V186H129.79V184.544C129.556 185.045 129.198 185.435 128.718 185.712C128.249 185.979 127.7 186.112 127.07 186.112C126.366 186.112 125.742 185.936 125.198 185.584C124.665 185.232 124.249 184.741 123.95 184.112C123.652 183.472 123.502 182.736 123.502 181.904C123.502 181.072 123.646 180.347 123.934 179.728C124.233 179.099 124.654 178.613 125.198 178.272C125.742 177.931 126.366 177.76 127.07 177.76C127.7 177.76 128.249 177.899 128.718 178.176C129.188 178.443 129.54 178.821 129.774 179.312V174.224H131.07ZM127.326 185.04C128.116 185.04 128.724 184.773 129.15 184.24C129.577 183.696 129.79 182.928 129.79 181.936C129.79 180.955 129.577 180.197 129.15 179.664C128.724 179.12 128.116 178.848 127.326 178.848C126.537 178.848 125.918 179.115 125.47 179.648C125.033 180.181 124.814 180.933 124.814 181.904C124.814 182.896 125.033 183.669 125.47 184.224C125.918 184.768 126.537 185.04 127.326 185.04ZM140.612 181.936H134.708C134.719 182.96 134.953 183.733 135.412 184.256C135.881 184.779 136.559 185.04 137.444 185.04C138.383 185.04 139.247 184.725 140.036 184.096L140.468 185.04C140.116 185.371 139.663 185.632 139.108 185.824C138.564 186.016 138.004 186.112 137.428 186.112C136.169 186.112 135.183 185.744 134.468 185.008C133.753 184.261 133.396 183.243 133.396 181.952C133.396 181.131 133.556 180.405 133.876 179.776C134.196 179.136 134.644 178.64 135.22 178.288C135.796 177.936 136.452 177.76 137.188 177.76C138.255 177.76 139.092 178.112 139.7 178.816C140.308 179.509 140.612 180.469 140.612 181.696V181.936ZM137.204 178.768C136.532 178.768 135.983 178.971 135.556 179.376C135.14 179.781 134.873 180.352 134.756 181.088H139.444C139.38 180.331 139.156 179.755 138.772 179.36C138.399 178.965 137.876 178.768 137.204 178.768ZM146.207 186.112C145.45 186.112 144.783 185.941 144.207 185.6C143.631 185.259 143.183 184.773 142.863 184.144C142.554 183.515 142.399 182.779 142.399 181.936C142.399 181.093 142.554 180.357 142.863 179.728C143.183 179.099 143.631 178.613 144.207 178.272C144.783 177.931 145.45 177.76 146.207 177.76C146.965 177.76 147.631 177.931 148.207 178.272C148.783 178.613 149.226 179.099 149.535 179.728C149.855 180.357 150.015 181.093 150.015 181.936C150.015 182.779 149.855 183.515 149.535 184.144C149.226 184.773 148.783 185.259 148.207 185.6C147.631 185.941 146.965 186.112 146.207 186.112ZM146.207 185.04C147.007 185.04 147.621 184.779 148.047 184.256C148.474 183.723 148.687 182.949 148.687 181.936C148.687 180.955 148.469 180.197 148.031 179.664C147.594 179.12 146.986 178.848 146.207 178.848C145.418 178.848 144.805 179.12 144.367 179.664C143.93 180.197 143.711 180.955 143.711 181.936C143.711 182.949 143.925 183.723 144.351 184.256C144.789 184.779 145.407 185.04 146.207 185.04ZM163.543 181.936H157.639C157.65 182.96 157.885 183.733 158.343 184.256C158.813 184.779 159.49 185.04 160.375 185.04C161.314 185.04 162.178 184.725 162.967 184.096L163.399 185.04C163.047 185.371 162.594 185.632 162.039 185.824C161.495 186.016 160.935 186.112 160.359 186.112C159.101 186.112 158.114 185.744 157.399 185.008C156.685 184.261 156.327 183.243 156.327 181.952C156.327 181.131 156.487 180.405 156.807 179.776C157.127 179.136 157.575 178.64 158.151 178.288C158.727 177.936 159.383 177.76 160.119 177.76C161.186 177.76 162.023 178.112 162.631 178.816C163.239 179.509 163.543 180.469 163.543 181.696V181.936ZM160.135 178.768C159.463 178.768 158.914 178.971 158.487 179.376C158.071 179.781 157.805 180.352 157.687 181.088H162.375C162.311 180.331 162.087 179.755 161.703 179.36C161.33 178.965 160.807 178.768 160.135 178.768ZM172.821 186H171.269L168.725 182.832L166.213 186H164.629L167.973 181.856L164.821 177.952H166.389L168.725 180.912L171.061 177.952H172.645L169.509 181.856L172.821 186ZM178.58 177.76C179.284 177.76 179.908 177.936 180.452 178.288C180.996 178.64 181.417 179.136 181.716 179.776C182.014 180.405 182.164 181.136 182.164 181.968C182.164 182.8 182.014 183.531 181.716 184.16C181.417 184.779 180.996 185.259 180.452 185.6C179.918 185.941 179.294 186.112 178.58 186.112C177.95 186.112 177.401 185.973 176.932 185.696C176.462 185.419 176.105 185.024 175.86 184.512V189.456H174.564V180.208C174.564 179.376 174.521 178.624 174.436 177.952H175.668L175.796 179.504C176.02 178.949 176.372 178.523 176.852 178.224C177.342 177.915 177.918 177.76 178.58 177.76ZM178.34 185.04C179.129 185.04 179.737 184.773 180.164 184.24C180.601 183.707 180.82 182.949 180.82 181.968C180.82 180.987 180.601 180.224 180.164 179.68C179.726 179.125 179.118 178.848 178.34 178.848C177.54 178.848 176.926 179.115 176.5 179.648C176.073 180.181 175.86 180.944 175.86 181.936C175.86 182.928 176.073 183.696 176.5 184.24C176.926 184.773 177.54 185.04 178.34 185.04ZM184.457 174.224H185.753V186H184.457V174.224ZM195.658 177.952V186H194.378V184.544C194.143 185.045 193.786 185.435 193.306 185.712C192.837 185.979 192.287 186.112 191.658 186.112C190.943 186.112 190.314 185.941 189.77 185.6C189.237 185.259 188.821 184.779 188.522 184.16C188.234 183.531 188.09 182.8 188.09 181.968C188.09 181.136 188.239 180.405 188.538 179.776C188.837 179.136 189.253 178.64 189.786 178.288C190.33 177.936 190.954 177.76 191.658 177.76C192.287 177.76 192.837 177.899 193.306 178.176C193.775 178.453 194.133 178.843 194.378 179.344V177.952H195.658ZM191.914 185.04C192.703 185.04 193.311 184.773 193.738 184.24C194.165 183.696 194.378 182.928 194.378 181.936C194.378 180.944 194.165 180.181 193.738 179.648C193.311 179.115 192.703 178.848 191.914 178.848C191.125 178.848 190.506 179.125 190.058 179.68C189.621 180.224 189.402 180.987 189.402 181.968C189.402 182.949 189.621 183.707 190.058 184.24C190.495 184.773 191.114 185.04 191.914 185.04ZM198.464 177.952H199.76V186H198.464V177.952ZM199.92 174.544V176.016H198.336V174.544H199.92ZM206.592 177.76C208.523 177.76 209.488 178.821 209.488 180.944V186H208.192V181.008C208.192 180.261 208.043 179.717 207.744 179.376C207.445 179.024 206.976 178.848 206.336 178.848C205.589 178.848 204.992 179.077 204.544 179.536C204.096 179.995 203.872 180.613 203.872 181.392V186H202.576V180.208C202.576 179.376 202.533 178.624 202.448 177.952H203.68L203.808 179.392C204.053 178.869 204.421 178.469 204.912 178.192C205.403 177.904 205.963 177.76 206.592 177.76ZM212.236 177.952H213.532V186H212.236V177.952ZM213.692 174.544V176.016H212.108V174.544H213.692ZM220.364 177.76C222.295 177.76 223.26 178.821 223.26 180.944V186H221.964V181.008C221.964 180.261 221.815 179.717 221.516 179.376C221.217 179.024 220.748 178.848 220.108 178.848C219.361 178.848 218.764 179.077 218.316 179.536C217.868 179.995 217.644 180.613 217.644 181.392V186H216.348V180.208C216.348 179.376 216.305 178.624 216.22 177.952H217.452L217.58 179.392C217.825 178.869 218.193 178.469 218.684 178.192C219.175 177.904 219.735 177.76 220.364 177.76ZM233.175 177.952V185.936C233.175 187.131 232.866 188.032 232.247 188.64C231.639 189.259 230.738 189.568 229.543 189.568C228.317 189.568 227.261 189.291 226.375 188.736L226.599 187.68C227.111 187.968 227.591 188.176 228.039 188.304C228.498 188.432 228.999 188.496 229.543 188.496C230.322 188.496 230.909 188.288 231.303 187.872C231.698 187.467 231.895 186.859 231.895 186.048V184.144C231.65 184.656 231.287 185.056 230.807 185.344C230.338 185.621 229.778 185.76 229.127 185.76C228.423 185.76 227.794 185.595 227.239 185.264C226.695 184.933 226.274 184.464 225.975 183.856C225.677 183.248 225.527 182.549 225.527 181.76C225.527 180.971 225.677 180.272 225.975 179.664C226.274 179.056 226.695 178.587 227.239 178.256C227.794 177.925 228.423 177.76 229.127 177.76C229.767 177.76 230.322 177.899 230.791 178.176C231.271 178.453 231.634 178.843 231.879 179.344V177.952H233.175ZM229.383 184.672C230.162 184.672 230.77 184.416 231.207 183.904C231.655 183.381 231.879 182.667 231.879 181.76C231.879 180.853 231.655 180.144 231.207 179.632C230.77 179.109 230.162 178.848 229.383 178.848C228.594 178.848 227.97 179.109 227.511 179.632C227.063 180.144 226.839 180.853 226.839 181.76C226.839 182.667 227.063 183.381 227.511 183.904C227.97 184.416 228.594 184.672 229.383 184.672ZM248.052 183.072H242.1L240.836 186H239.476L244.484 174.608H245.636L250.644 186H249.3L248.052 183.072ZM247.588 181.984L245.076 176.128L242.564 181.984H247.588ZM259.573 174.224V186H258.293V184.544C258.059 185.045 257.701 185.435 257.221 185.712C256.752 185.979 256.203 186.112 255.573 186.112C254.869 186.112 254.245 185.936 253.701 185.584C253.168 185.232 252.752 184.741 252.453 184.112C252.155 183.472 252.005 182.736 252.005 181.904C252.005 181.072 252.149 180.347 252.437 179.728C252.736 179.099 253.157 178.613 253.701 178.272C254.245 177.931 254.869 177.76 255.573 177.76C256.203 177.76 256.752 177.899 257.221 178.176C257.691 178.443 258.043 178.821 258.277 179.312V174.224H259.573ZM255.829 185.04C256.619 185.04 257.227 184.773 257.653 184.24C258.08 183.696 258.293 182.928 258.293 181.936C258.293 180.955 258.08 180.197 257.653 179.664C257.227 179.12 256.619 178.848 255.829 178.848C255.04 178.848 254.421 179.115 253.973 179.648C253.536 180.181 253.317 180.933 253.317 181.904C253.317 182.896 253.536 183.669 253.973 184.224C254.421 184.768 255.04 185.04 255.829 185.04ZM269.451 177.968L265.979 186H264.747L261.323 177.968H262.683L265.403 184.592L268.155 177.968H269.451ZM271.179 177.952H272.475V186H271.179V177.952ZM272.635 174.544V176.016H271.051V174.544H272.635ZM278.012 186.112C276.657 186.112 275.585 185.765 274.796 185.072L275.228 184.112C275.665 184.453 276.108 184.699 276.556 184.848C277.004 184.997 277.505 185.072 278.06 185.072C278.668 185.072 279.126 184.971 279.436 184.768C279.756 184.555 279.916 184.251 279.916 183.856C279.916 183.536 279.809 183.28 279.596 183.088C279.382 182.896 279.03 182.747 278.54 182.64L277.18 182.32C276.508 182.171 275.985 181.904 275.612 181.52C275.249 181.136 275.068 180.677 275.068 180.144C275.068 179.44 275.35 178.869 275.916 178.432C276.481 177.984 277.228 177.76 278.156 177.76C278.721 177.76 279.254 177.851 279.756 178.032C280.257 178.213 280.678 178.475 281.02 178.816L280.588 179.76C279.83 179.131 279.02 178.816 278.156 178.816C277.58 178.816 277.132 178.928 276.812 179.152C276.502 179.365 276.348 179.669 276.348 180.064C276.348 180.395 276.444 180.656 276.636 180.848C276.838 181.04 277.158 181.189 277.596 181.296L278.956 181.632C279.702 181.803 280.257 182.069 280.62 182.432C280.982 182.784 281.164 183.248 281.164 183.824C281.164 184.517 280.881 185.072 280.316 185.488C279.75 185.904 278.982 186.112 278.012 186.112ZM286.857 186.112C286.1 186.112 285.433 185.941 284.857 185.6C284.281 185.259 283.833 184.773 283.513 184.144C283.204 183.515 283.049 182.779 283.049 181.936C283.049 181.093 283.204 180.357 283.513 179.728C283.833 179.099 284.281 178.613 284.857 178.272C285.433 177.931 286.1 177.76 286.857 177.76C287.615 177.76 288.281 177.931 288.857 178.272C289.433 178.613 289.876 179.099 290.185 179.728C290.505 180.357 290.665 181.093 290.665 181.936C290.665 182.779 290.505 183.515 290.185 184.144C289.876 184.773 289.433 185.259 288.857 185.6C288.281 185.941 287.615 186.112 286.857 186.112ZM286.857 185.04C287.657 185.04 288.271 184.779 288.697 184.256C289.124 183.723 289.337 182.949 289.337 181.936C289.337 180.955 289.119 180.197 288.681 179.664C288.244 179.12 287.636 178.848 286.857 178.848C286.068 178.848 285.455 179.12 285.017 179.664C284.58 180.197 284.361 180.955 284.361 181.936C284.361 182.949 284.575 183.723 285.001 184.256C285.439 184.779 286.057 185.04 286.857 185.04ZM296.729 177.76C296.996 177.76 297.241 177.792 297.465 177.856L297.433 179.04C297.188 178.955 296.905 178.912 296.585 178.912C295.807 178.912 295.225 179.157 294.841 179.648C294.468 180.128 294.281 180.715 294.281 181.408V186H292.985V180.208C292.985 179.376 292.943 178.624 292.857 177.952H294.089L294.217 179.44C294.42 178.896 294.745 178.48 295.193 178.192C295.641 177.904 296.153 177.76 296.729 177.76Z" fill="black" fill-opacity="0.39"/>
</svg>
