<svg width="85" height="85" viewBox="0 0 85 85" fill="none" xmlns="http://www.w3.org/2000/svg">
<path d="M64.1928 35.1616C63.9011 34.6025 63.3227 34.2522 62.6918 34.2522H48.0366L56.9234 2.14492C57.0646 1.63509 56.9593 1.08873 56.6392 0.667881C56.319 0.247031 55.8204 0 55.2917 0H35.4169C34.6558 0 33.9882 0.508008 33.7852 1.24146L20.6763 48.6026C20.5351 49.1124 20.6404 49.6588 20.9605 50.0796C21.2807 50.5006 21.7789 50.7477 22.308 50.7477H36.9632L28.0764 82.8549C27.8563 83.6505 28.2414 84.4883 28.9883 84.8391C29.2197 84.9479 29.465 85 29.7075 85C30.2471 85 30.7723 84.7417 31.0979 84.2743L64.0815 36.9132C64.442 36.3954 64.4846 35.7208 64.1928 35.1616ZM33.9847 74.203L40.8206 49.5062C40.9617 48.9964 40.8564 48.45 40.5364 48.0291C40.2161 47.6081 39.7179 47.3611 39.1888 47.3611H24.5336L36.7052 3.38639H53.0664L44.1792 35.4936C44.0381 36.0035 44.1434 36.5498 44.4635 36.9707C44.7839 37.3917 45.2823 37.6387 45.811 37.6387H59.449L33.9847 74.203Z" fill="black"/>
<path d="M44.0383 22.9558C43.1382 22.7045 42.2035 23.2306 41.9521 24.1312L41.7159 24.9767C41.4644 25.8774 41.9907 26.8116 42.8913 27.0629C43.0435 27.1054 43.1968 27.1257 43.3477 27.1257C44.0883 27.1257 44.7684 26.6357 44.9776 25.8873L45.2139 25.0418C45.4654 24.1415 44.9389 23.2073 44.0383 22.9558Z" fill="black"/>
<path d="M49.0511 5.00668C48.1512 4.756 47.2163 5.28144 46.965 6.18207L43.3709 19.0508C43.1192 19.9514 43.6457 20.8854 44.5463 21.1369C44.6985 21.1794 44.8518 21.1997 45.0027 21.1997C45.7433 21.1997 46.4236 20.7098 46.6326 19.9614L50.2267 7.09267C50.4782 6.1922 49.9518 5.25836 49.0511 5.00668Z" fill="black"/>
</svg>
