<svg width="64" height="64" viewBox="0 0 64 64" fill="none" xmlns="http://www.w3.org/2000/svg">
<path d="M58.6667 16C59.3067 16 59.7333 15.5733 59.7333 14.9333V10.6666C59.7333 10.0266 59.3067 9.59998 58.6667 9.59998H39.4667C38.8267 9.59998 38.4 10.0266 38.4 10.6666V14.9333C38.4 15.5733 38.8267 16 39.4667 16H40.5333V18.1333H25.6V16C25.6 15.36 25.1733 14.9333 24.5333 14.9333H9.6C8.96 14.9333 8.53333 15.36 8.53333 16V18.1333H5.33333C4.69333 18.1333 4.26666 18.56 4.26666 19.2V23.4666C4.26666 24.1066 4.69333 24.5333 5.33333 24.5333H8.53333V26.6666C8.53333 27.3066 8.96 27.7333 9.6 27.7333H24.5333C25.1733 27.7333 25.6 27.3066 25.6 26.6666V24.5333H40.5333V26.6666H39.4667C38.8267 26.6666 38.4 27.0933 38.4 27.7333V32C38.4 32.64 38.8267 33.0666 39.4667 33.0666H58.6667C59.3067 33.0666 59.7333 32.64 59.7333 32V27.7333C59.7333 27.0933 59.3067 26.6666 58.6667 26.6666H57.6V16H58.6667ZM40.5333 11.7333H57.6V13.8666H56.5333H41.6H40.5333V11.7333ZM6.4 22.4V20.2666H8.53333V22.4H6.4ZM23.4667 25.6H10.6667V23.4666V19.2V17.0666H13.8667V22.4H16V17.0666H18.1333V22.4H20.2667V17.0666H23.4667V19.2V23.4666V25.6ZM25.6 22.4V20.2666H40.5333V22.4H25.6ZM57.6 30.9333H40.5333V28.8H41.6H56.5333H57.6V30.9333ZM55.4667 26.6666H42.6667V23.4666V19.2V16H55.4667V26.6666Z" fill="black"/>
<path d="M54.4 50.1334H43.7333C43.0933 50.1334 42.6667 50.56 42.6667 51.2V61.8667H9.60001V30.9333H7.46667V62.9333C7.46667 63.5734 7.89334 64 8.53334 64H43.7333C44.0533 64 44.2667 63.8934 44.48 63.68L56.2133 51.9467C56.32 51.84 56.32 51.7334 56.4267 51.6267V51.52C56.4267 51.4133 56.5333 51.3067 56.5333 51.2V37.3334H54.4V50.1334ZM44.8 52.2667H52.9067L48.8533 56.32L44.8 60.3734V52.2667Z" fill="black"/>
<path d="M9.60001 2.13333H54.4V5.33333H56.5333V1.06667C56.5333 0.426667 56.1067 0 55.4667 0H8.53334C7.89334 0 7.46667 0.426667 7.46667 1.06667V9.6H9.60001V2.13333Z" fill="black"/>
<path d="M24.5333 33.0667H12.8V35.2H24.5333V33.0667Z" fill="black"/>
<path d="M24.5333 38.4H12.8V40.5334H24.5333V38.4Z" fill="black"/>
<path d="M30.9333 33.0667H27.7333V35.2H30.9333V33.0667Z" fill="black"/>
<path d="M30.9333 38.4H27.7333V40.5334H30.9333V38.4Z" fill="black"/>
<path d="M44.8 38.4H33.0667V40.5334H44.8V38.4Z" fill="black"/>
<path d="M51.2 38.4H48V40.5334H51.2V38.4Z" fill="black"/>
<path d="M24.5333 43.7333H12.8V45.8667H24.5333V43.7333Z" fill="black"/>
<path d="M30.9333 43.7333H27.7333V45.8667H30.9333V43.7333Z" fill="black"/>
<path d="M24.5333 49.0667H12.8V51.2H24.5333V49.0667Z" fill="black"/>
<path d="M30.9333 49.0667H27.7333V51.2H30.9333V49.0667Z" fill="black"/>
<path d="M24.5333 54.4H12.8V56.5334H24.5333V54.4Z" fill="black"/>
<path d="M30.9333 54.4H27.7333V56.5334H30.9333V54.4Z" fill="black"/>
<path d="M44.8 43.7333H33.0667V45.8667H44.8V43.7333Z" fill="black"/>
<path d="M39.4667 49.0667H33.0667V51.2H39.4667V49.0667Z" fill="black"/>
<path d="M39.4667 54.4H33.0667V56.5334H39.4667V54.4Z" fill="black"/>
<path d="M51.2 43.7333H48V45.8667H51.2V43.7333Z" fill="black"/>
<path d="M14.9333 5.33331H12.8V7.46665H14.9333V5.33331Z" fill="black"/>
<path d="M19.2 5.33331H17.0667V7.46665H19.2V5.33331Z" fill="black"/>
<path d="M23.4667 5.33331H21.3333V7.46665H23.4667V5.33331Z" fill="black"/>
<path d="M27.7333 5.33331H25.6V7.46665H27.7333V5.33331Z" fill="black"/>
<path d="M32 5.33331H29.8667V7.46665H32V5.33331Z" fill="black"/>
</svg>
