<svg width="109" height="62" viewBox="0 0 109 62" fill="none" xmlns="http://www.w3.org/2000/svg">
<path d="M37.7264 44.6901L29.2748 53.1413C26.4775 55.905 22.7001 57.45 18.7676 57.4382C14.8351 57.4265 11.067 55.8591 8.28629 53.0784C5.50556 50.2977 3.9381 46.5296 3.92625 42.597C3.91437 38.6645 5.45907 34.887 8.22294 32.0897L20.8464 19.4663C20.8398 19.2438 20.8354 19.0211 20.8354 18.7976C20.8341 16.9177 21.0755 15.0454 21.5534 13.2272L5.45848 29.3222C1.95395 32.8518 -0.00885221 37.6266 3.0015e-05 42.6005C0.00891227 47.5744 1.98875 52.3421 5.50587 55.8591C9.02299 59.3762 13.7907 61.3559 18.7646 61.3645C23.7385 61.3735 28.5132 59.4107 32.0427 55.9061L40.494 47.4549L37.7264 44.6901Z" fill="url(#paint0_linear_423_10412)"/>
<path d="M66.3843 61.4046C63.9159 61.4088 61.4709 60.9252 59.19 59.9816C56.9091 59.0384 54.8367 57.6534 53.0926 55.9068L29.2748 32.089C25.7577 28.562 23.7842 23.7833 23.7877 18.8024C23.7912 13.8214 25.7715 9.04553 29.2936 5.52354C32.8158 2.00156 37.5917 0.0214674 42.5728 0.0181317C47.5536 0.0147959 52.3324 1.98849 55.8591 5.50575L79.6768 29.3235C82.3069 31.9512 84.0984 35.3001 84.8244 38.9467C85.5508 42.5929 85.1784 46.3728 83.7555 49.8076C82.3321 53.2425 79.922 56.1776 76.8298 58.2423C73.7376 60.3066 70.1027 61.407 66.3847 61.4046H66.3843ZM55.8591 53.1413C58.6577 55.8995 62.4331 57.4393 66.3626 57.4251C70.2917 57.4109 74.056 55.8436 76.8346 53.065C79.6129 50.2867 81.1803 46.5223 81.1944 42.5932C81.2086 38.6638 79.6689 34.888 76.9106 32.0897L53.0929 8.27194C51.7141 6.87316 50.0725 5.76102 48.262 4.99959C46.4518 4.23815 44.5087 3.84248 42.5448 3.83537C40.5806 3.82822 38.6347 4.2098 36.8191 4.95807C35.0034 5.70635 33.3534 6.80657 31.9647 8.1953C30.576 9.58402 29.4758 11.2338 28.7275 13.0496C27.9792 14.8655 27.5976 16.8114 27.6048 18.7753C27.6119 20.7393 28.0076 22.6824 28.769 24.4928C29.5304 26.3031 30.6426 27.9449 32.0414 29.3235L55.8591 53.1413Z" fill="url(#paint1_linear_423_10412)"/>
<path d="M76.9103 5.50576L68.4591 13.957L71.2253 16.7232L79.6765 8.27195C82.4752 5.51374 86.2506 3.97388 90.18 3.98811C94.1091 4.00237 97.8735 5.56959 100.652 8.34807C103.43 11.1265 104.998 14.8908 105.012 18.8201C105.026 22.7494 103.486 26.525 100.728 29.3235L88.0949 41.9567C88.1588 44.0628 87.9177 46.1673 87.3796 48.2043L103.494 32.0897C107.02 28.5644 109 23.7832 109 18.7977C109 13.8123 107.02 9.03104 103.494 5.50576C99.9689 1.98053 95.1877 6.10352e-05 90.2021 6.10352e-05C85.2168 6.10352e-05 80.4357 1.98053 76.9103 5.50576Z" fill="url(#paint2_linear_423_10412)"/>
<defs>
<linearGradient id="paint0_linear_423_10412" x1="-1.13383" y1="43.1686" x2="114.125" y2="21.8643" gradientUnits="userSpaceOnUse">
<stop stop-color="#E7267A"/>
<stop offset="0.502" stop-color="#64328A"/>
<stop offset="1" stop-color="#2B4B9B"/>
</linearGradient>
<linearGradient id="paint1_linear_423_10412" x1="-0.648932" y1="45.1373" x2="113.181" y2="15.3537" gradientUnits="userSpaceOnUse">
<stop stop-color="#E7267A"/>
<stop offset="0.502" stop-color="#64328A"/>
<stop offset="1" stop-color="#2B4B9B"/>
</linearGradient>
<linearGradient id="paint2_linear_423_10412" x1="-0.217077" y1="47.0473" x2="115.217" y2="25.7231" gradientUnits="userSpaceOnUse">
<stop stop-color="#E7267A"/>
<stop offset="0.502" stop-color="#64328A"/>
<stop offset="1" stop-color="#2B4B9B"/>
</linearGradient>
</defs>
</svg>
