<svg width="80" height="80" viewBox="0 0 80 80" fill="none" xmlns="http://www.w3.org/2000/svg">
<circle cx="40" cy="40" r="40" fill="#EBEBEB"/>
<path d="M57.9132 24.65C57.9132 18.1245 52.5581 12.8169 45.9752 12.8169C39.3922 12.8169 34.0371 18.1245 34.0371 24.65C34.0371 31.1756 39.3922 36.4832 45.9752 36.4832C52.5581 36.4832 57.9132 31.1756 57.9132 24.65ZM45.9752 33.9861C40.77 33.9861 36.5354 29.7978 36.5354 24.6513C36.5354 19.5047 40.77 15.3165 45.9752 15.3165C51.1803 15.3165 55.4149 19.5048 55.4149 24.6513C55.4149 29.7979 51.1803 33.9861 45.9752 33.9861Z" fill="black"/>
<path d="M45.9749 19.1763C42.9333 19.1763 40.46 21.6321 40.46 24.65C40.46 27.6679 42.9333 30.1237 45.9749 30.1237C49.0165 30.1237 51.4911 27.6679 51.4911 24.65C51.4911 21.6321 49.0165 19.1763 45.9749 19.1763ZM45.9749 27.6267C44.3111 27.6267 42.9582 26.2927 42.9582 24.6513C42.9582 23.0099 44.3111 21.6759 45.9749 21.6759C47.6387 21.6759 48.9929 23.0099 48.9929 24.6513C48.9929 26.2927 47.6387 27.6267 45.9749 27.6267Z" fill="black"/>
<path d="M34.9551 33.1043L33.9183 31.7839L26 43.035L33.4299 41.9182L34.9401 49.1832L42.696 38.1645L41.1646 37.6049C38.7113 36.708 36.564 35.1528 34.9551 33.1043ZM36.213 43.0324L35.3936 39.0977L31.4025 39.696L34.0769 35.8961C35.441 37.3114 37.0461 38.4719 38.8224 39.3238L36.213 43.0324Z" fill="black"/>
<path d="M57.0201 33.073C55.4174 35.1253 53.2752 36.6867 50.8231 37.5899L49.2979 38.1507L57.06 49.1832L58.5702 41.9182L66.0001 43.0348L58.0569 31.7451L57.0201 33.073ZM56.6066 39.0975L55.7872 43.0323L53.1652 39.3073C54.939 38.4504 56.5416 37.2862 57.9019 35.8659L60.5963 39.6958L56.6066 39.0975Z" fill="black"/>
<circle cx="22.5" cy="51.5" r="11.5" stroke="#3C64B1" stroke-width="4"/>
<path d="M23 45.75L28.25 47.75V52.75C28.25 55 26.25 57.25 23 58.25C19.75 57.25 17.75 55.25 17.75 52.75V47.75L23 45.75Z" stroke="black" stroke-width="1.5" stroke-linecap="round" stroke-linejoin="round"/>
<path d="M20.75 51.75L22.25 53.25L25.25 49.75" stroke="black" stroke-width="1.5" stroke-linecap="round" stroke-linejoin="round"/>
</svg>
