<svg width="42" height="63" viewBox="0 0 42 63" fill="none" xmlns="http://www.w3.org/2000/svg">
<path d="M21.6121 0.00102332C19.2775 0.00170184 17.0387 0.928007 15.3879 2.57631C13.7371 4.22461 12.8094 6.46001 12.8087 8.79104V12.7842H8.80952C7.65261 12.7832 6.50684 13.0101 5.43781 13.4517C4.36878 13.8933 3.39746 14.5412 2.57942 15.358C1.76138 16.1748 1.11267 17.1447 0.670422 18.2121C0.228171 19.2796 0.00105395 20.4236 0.00206539 21.5788V30.3657H12.8067V38.352H8.80746C6.47221 38.3517 4.23246 39.2776 2.5808 40.926C0.929138 42.5744 0.000815748 44.8102 0 47.1419V62.328H8.81158C9.9674 62.3276 11.1118 62.0998 12.1794 61.6573C13.247 61.2153 14.2168 60.5674 15.0337 59.7509C15.8505 58.9345 16.4982 57.9653 16.9399 56.8986C17.3815 55.8319 17.6085 54.6893 17.6077 53.5353H17.619V47.7336L17.5955 47.7367V10.7748L17.6149 10.7794V8.79258C17.617 7.73316 18.0386 6.71754 18.7879 5.96741C19.5371 5.21728 20.5531 4.79355 21.6141 4.78868H36.908V8.79258C36.9047 9.85152 36.4816 10.8661 35.7312 11.6144C34.9808 12.3627 33.9642 12.7838 32.9037 12.7857H19.4248V17.5785H32.9016C35.2362 17.5786 37.4752 16.6528 39.1261 15.0046C40.7771 13.3565 41.7047 11.1211 41.705 8.79003V0L21.6121 0.00102332ZM12.8087 25.5724H4.80725V21.5793C4.809 20.5186 5.23115 19.5018 5.9815 18.751C6.73181 18.0002 7.74931 17.5764 8.81158 17.5724H12.8108L12.8087 25.5724ZM12.8087 53.5397C12.807 54.5985 12.3852 55.6138 11.6357 56.3626C10.8862 57.1119 9.87 57.5342 8.80952 57.5368H4.80518V47.1446C4.80615 46.0849 5.22851 45.0692 5.97939 44.3203C6.73032 43.5714 7.74826 43.1511 8.80952 43.1515H12.8087V53.5397ZM19.4248 30.3652H29.5254V34.3624C29.5215 35.4212 29.0981 36.4354 28.3479 37.1835C27.5976 37.9317 26.5814 38.353 25.521 38.3556H19.4248V43.1515H25.5231C26.6793 43.1521 27.8244 42.9251 28.8927 42.4836C29.961 42.0421 30.9318 41.3946 31.7493 40.5783C32.5669 39.7619 33.2154 38.7927 33.6576 37.7259C34.0998 36.6592 34.3271 35.5159 34.3265 34.3614H34.3305V25.5714H19.4248V30.3652Z" fill="#18988B"/>
</svg>
