<svg width="54" height="75" viewBox="0 0 54 75" fill="none" xmlns="http://www.w3.org/2000/svg">
<path d="M45.0082 6.04236H41.3841C40.0775 6.04236 39.0186 7.10145 39.0186 8.4079V21.5812C39.0186 22.8877 40.0775 23.9468 41.3841 23.9468H45.0082C46.3148 23.9468 47.3738 22.8877 47.3738 21.5812V8.4079C47.3738 7.10145 46.3148 6.04236 45.0082 6.04236Z" fill="#41529F"/>
<path d="M31.4565 73.2446V60.7648H46.8189L33.4943 74.0897C33.3273 74.2569 33.1145 74.3705 32.8828 74.4164C32.6512 74.4624 32.4111 74.4389 32.1929 74.3484C31.9747 74.2579 31.7883 74.1046 31.6572 73.908C31.5261 73.7119 31.4563 73.4808 31.4565 73.2446Z" fill="#41529F"/>
<path d="M47.642 59.9894H31.4565V61.4852H46.0684L47.642 59.9894Z" fill="#324293"/>
<path d="M50.9695 23.0391L28.8614 0.928929C28.2635 0.333988 27.4543 0 26.6109 0C25.7674 0 24.9582 0.333988 24.3603 0.928929L2.2526 23.0391C0.90352 24.5395 0.108603 26.4565 0 28.4713V32.3658C12.0782 41.3521 26.7372 46.194 41.7916 46.1698C45.6201 46.1705 49.4425 45.8593 53.2207 45.2394V28.4713C53.1109 26.457 52.3168 24.5405 50.9695 23.0391Z" fill="#41529F"/>
<path d="M41.7923 49.7508C26.738 49.7746 12.079 44.9327 0.000732422 35.9468V56.9845C0.00346442 57.8279 0.339668 58.6358 0.935954 59.2319C1.53224 59.8284 2.34018 60.1645 3.18345 60.1672H50.039C50.8821 60.1645 51.69 59.8281 52.2865 59.2319C52.8826 58.6354 53.2187 57.8276 53.2214 56.9845V48.8203C49.4433 49.4403 45.6209 49.7515 41.7923 49.7508Z" fill="#41529F"/>
</svg>
