<svg width="80" height="80" viewBox="0 0 80 80" fill="none" xmlns="http://www.w3.org/2000/svg">
<circle cx="40" cy="40" r="40" fill="#EBEBEB"/>
<path d="M57.2358 13H34.1204C33.5016 13 33 13.5253 33 14.1731V39.2467C33 39.5581 33.1181 39.8564 33.3282 40.0765L40.1967 47.2664C40.4069 47.4863 40.6918 47.6099 40.9889 47.6099H57.2357C57.8545 47.6099 58.3561 47.0845 58.3561 46.4367V14.1731C58.3562 13.5253 57.8545 13 57.2358 13ZM36.826 40.4201H39.8685V43.6049L36.826 40.4201ZM56.1153 45.2637H42.1094V39.2467C42.1094 38.5989 41.6077 38.0737 40.989 38.0737H35.2409V15.3464H56.1154V45.2637H56.1153Z" fill="black"/>
<path d="M37.9728 21.3959H47.604C48.2228 21.3959 48.7243 20.8707 48.7243 20.2229C48.7243 19.575 48.2227 19.0498 47.604 19.0498H37.9728C37.354 19.0498 36.8525 19.575 36.8525 20.2229C36.8524 20.8707 37.354 21.3959 37.9728 21.3959Z" fill="black"/>
<path d="M51.4568 21.3959H53.3832C54.002 21.3959 54.5035 20.8707 54.5035 20.2229C54.5035 19.575 54.0019 19.0498 53.3832 19.0498H51.4568C50.838 19.0498 50.3364 19.575 50.3364 20.2229C50.3363 20.8707 50.838 21.3959 51.4568 21.3959Z" fill="black"/>
<path d="M37.9728 27.4456H47.604C48.2228 27.4456 48.7243 26.9202 48.7243 26.2725C48.7243 25.6244 48.2227 25.0994 47.604 25.0994H37.9728C37.354 25.0994 36.8525 25.6246 36.8525 26.2725C36.8524 26.9202 37.354 27.4456 37.9728 27.4456Z" fill="black"/>
<path d="M51.4568 27.4456H53.3832C54.002 27.4456 54.5035 26.9202 54.5035 26.2725C54.5035 25.6244 54.0019 25.0994 53.3832 25.0994H51.4568C50.838 25.0994 50.3364 25.6246 50.3364 26.2725C50.3363 26.9202 50.838 27.4456 51.4568 27.4456Z" fill="black"/>
<path d="M37.9728 33.4946H47.604C48.2228 33.4946 48.7243 32.9694 48.7243 32.3216C48.7243 31.6738 48.2227 31.1484 47.604 31.1484H37.9728C37.354 31.1484 36.8525 31.6738 36.8525 32.3216C36.8525 32.9694 37.354 33.4946 37.9728 33.4946Z" fill="black"/>
<path d="M51.4568 33.4946H53.3832C54.002 33.4946 54.5035 32.9694 54.5035 32.3216C54.5035 31.6738 54.0019 31.1484 53.3832 31.1484H51.4568C50.838 31.1484 50.3364 31.6738 50.3364 32.3216C50.3364 32.9694 50.838 33.4946 51.4568 33.4946Z" fill="black"/>
<path d="M49.5304 39.5441H53.383C54.0018 39.5441 54.5033 39.0189 54.5033 38.3711C54.5033 37.7231 54.0017 37.198 53.383 37.198H49.5304C48.9116 37.198 48.4102 37.7232 48.4102 38.3711C48.4102 39.0189 48.9118 39.5441 49.5304 39.5441Z" fill="black"/>
<path d="M38 48.4008C38 54.9957 32.803 60.2533 26.5 60.2533C20.197 60.2533 15 54.9957 15 48.4008C15 41.806 20.197 36.5483 26.5 36.5483C32.803 36.5483 38 41.806 38 48.4008Z" stroke="#3C64B1" stroke-width="4"/>
<path d="M25 42.75L30.25 44.75V49.75C30.25 52 28.25 54.25 25 55.25C21.75 54.25 19.75 52.25 19.75 49.75V44.75L25 42.75Z" stroke="black" stroke-width="1.5" stroke-linecap="round" stroke-linejoin="round"/>
<path d="M22.75 48.75L24.25 50.25L27.25 46.75" stroke="black" stroke-width="1.5" stroke-linecap="round" stroke-linejoin="round"/>
</svg>
