<svg width="80" height="80" viewBox="0 0 80 80" fill="none" xmlns="http://www.w3.org/2000/svg">
<circle cx="40" cy="40" r="40" fill="#EBEBEB"/>
<circle cx="26.5" cy="48.5" r="11.5" stroke="#3C64B1" stroke-width="4"/>
<path d="M54.2248 15.9352H50.7333C50.5436 15.3734 50.0119 14.9676 49.3868 14.9676H47.9102C47.4621 14.365 46.7523 14 46.0002 14C45.2482 14 44.5383 14.365 44.0901 14.9676H42.6136C41.9885 14.9676 41.4568 15.3734 41.267 15.9352H37.7756C36.7252 15.9352 35.8706 16.7898 35.8706 17.8402V40.095C35.8706 41.1454 36.7252 42 37.7756 42H54.2248C55.2752 42 56.1298 41.1454 56.1298 40.095V17.8402C56.1298 16.7898 55.2752 15.9352 54.2248 15.9352ZM42.6136 19.2613H49.3868C49.8115 19.2613 50.1931 19.0738 50.4536 18.7775H53.2875V39.1577H38.7129V18.7775H41.5467C41.8073 19.0738 42.1889 19.2613 42.6136 19.2613ZM42.6136 15.8747H44.3334C44.4948 15.8747 44.6442 15.7889 44.7254 15.6493C44.9959 15.1846 45.4724 14.9071 46.0002 14.9071C46.528 14.9071 47.0045 15.1846 47.275 15.6493C47.3562 15.7889 47.5055 15.8747 47.667 15.8747H49.3868C49.6703 15.8747 49.9008 16.1053 49.9008 16.3888V17.8402C49.9008 18.1236 49.6703 18.3542 49.3868 18.3542H42.6136C42.3301 18.3542 42.0995 18.1236 42.0995 17.8402V16.3888C42.0995 16.1053 42.3301 15.8747 42.6136 15.8747ZM55.2227 40.095C55.2227 40.6452 54.775 41.0929 54.2248 41.0929H37.7756C37.2254 41.0929 36.7777 40.6452 36.7777 40.095V17.8402C36.7777 17.29 37.2254 16.8423 37.7756 16.8423H41.1924V17.8402C41.1924 17.8503 41.193 17.8603 41.1932 17.8704H38.2594C38.0088 17.8704 37.8058 18.0735 37.8058 18.324V39.6112C37.8058 39.8617 38.0088 40.0648 38.2594 40.0648H53.741C53.9916 40.0648 54.1946 39.8617 54.1946 39.6112V18.324C54.1946 18.0735 53.9916 17.8704 53.741 17.8704H50.8072C50.8074 17.8603 50.808 17.8503 50.808 17.8402V16.8423H54.2248C54.775 16.8423 55.2227 17.29 55.2227 17.8402V40.095Z" fill="black"/>
<path d="M46 16.8424C46.1196 16.8424 46.2364 16.7941 46.3205 16.7094C46.4051 16.6253 46.4535 16.508 46.4535 16.3889C46.4535 16.2697 46.4051 16.1524 46.3205 16.0683C46.2364 15.9837 46.1197 15.9353 46 15.9353C45.8802 15.9353 45.7635 15.9837 45.6794 16.0683C45.5948 16.1524 45.5464 16.2691 45.5464 16.3889C45.5464 16.5086 45.5948 16.6253 45.6794 16.7094C45.7635 16.7941 45.8802 16.8424 46 16.8424Z" fill="black"/>
<path d="M43.0976 23.6156H51.3222C51.5728 23.6156 51.7758 23.4125 51.7758 23.1621C51.7758 22.9116 51.5728 22.7085 51.3222 22.7085H43.0976C42.8471 22.7085 42.644 22.9116 42.644 23.1621C42.644 23.4125 42.8471 23.6156 43.0976 23.6156Z" fill="black"/>
<path d="M43.0976 28.4535H51.3222C51.5728 28.4535 51.7758 28.2504 51.7758 27.9999C51.7758 27.7495 51.5728 27.5464 51.3222 27.5464H43.0976C42.8471 27.5464 42.644 27.7495 42.644 27.9999C42.644 28.2504 42.8471 28.4535 43.0976 28.4535Z" fill="black"/>
<path d="M43.0976 33.2916H44.549C44.7996 33.2916 45.0026 33.0886 45.0026 32.8381C45.0026 32.5876 44.7996 32.3845 44.549 32.3845H43.0976C42.8471 32.3845 42.644 32.5876 42.644 32.8381C42.644 33.0886 42.8471 33.2916 43.0976 33.2916Z" fill="black"/>
<path d="M43.0976 26.0346H51.3222C51.5728 26.0346 51.7758 25.8315 51.7758 25.581C51.7758 25.3305 51.5728 25.1274 51.3222 25.1274H43.0976C42.8471 25.1274 42.644 25.3305 42.644 25.581C42.644 25.8315 42.8471 26.0346 43.0976 26.0346Z" fill="black"/>
<path d="M43.0976 30.8725H45.0328C45.2834 30.8725 45.4864 30.6694 45.4864 30.4189C45.4864 30.1684 45.2834 29.9653 45.0328 29.9653H43.0976C42.8471 29.9653 42.644 30.1684 42.644 30.4189C42.644 30.6694 42.8471 30.8725 43.0976 30.8725Z" fill="black"/>
<path d="M43.0976 35.7106H45.0328C45.2834 35.7106 45.4864 35.5075 45.4864 35.257C45.4864 35.0065 45.2834 34.8035 45.0328 34.8035H43.0976C42.8471 34.8035 42.644 35.0065 42.644 35.257C42.644 35.5075 42.8471 35.7106 43.0976 35.7106Z" fill="black"/>
<path d="M40.6782 23.6156H41.162C41.4125 23.6156 41.6155 23.4125 41.6155 23.1621C41.6155 22.9116 41.4125 22.7085 41.162 22.7085H40.6782C40.4276 22.7085 40.2246 22.9116 40.2246 23.1621C40.2246 23.4125 40.4276 23.6156 40.6782 23.6156Z" fill="black"/>
<path d="M40.6782 28.4535H41.162C41.4125 28.4535 41.6155 28.2504 41.6155 27.9999C41.6155 27.7495 41.4125 27.5464 41.162 27.5464H40.6782C40.4276 27.5464 40.2246 27.7495 40.2246 27.9999C40.2246 28.2504 40.4276 28.4535 40.6782 28.4535Z" fill="black"/>
<path d="M40.6782 33.2916H41.162C41.4125 33.2916 41.6155 33.0886 41.6155 32.8381C41.6155 32.5876 41.4125 32.3845 41.162 32.3845H40.6782C40.4276 32.3845 40.2246 32.5876 40.2246 32.8381C40.2246 33.0886 40.4276 33.2916 40.6782 33.2916Z" fill="black"/>
<path d="M40.6782 26.0346H41.162C41.4125 26.0346 41.6155 25.8315 41.6155 25.581C41.6155 25.3305 41.4125 25.1274 41.162 25.1274H40.6782C40.4276 25.1274 40.2246 25.3305 40.2246 25.581C40.2246 25.8315 40.4276 26.0346 40.6782 26.0346Z" fill="black"/>
<path d="M40.6782 30.8725H41.162C41.4125 30.8725 41.6155 30.6694 41.6155 30.4189C41.6155 30.1684 41.4125 29.9653 41.162 29.9653H40.6782C40.4276 29.9653 40.2246 30.1684 40.2246 30.4189C40.2246 30.6694 40.4276 30.8725 40.6782 30.8725Z" fill="black"/>
<path d="M40.6782 35.7106H41.162C41.4125 35.7106 41.6155 35.5075 41.6155 35.257C41.6155 35.0065 41.4125 34.8035 41.162 34.8035H40.6782C40.4276 34.8035 40.2246 35.0065 40.2246 35.257C40.2246 35.5075 40.4276 35.7106 40.6782 35.7106Z" fill="black"/>
<path d="M48.9028 29.9653C47.3189 29.9653 46.0303 31.254 46.0303 32.8379C46.0303 34.4218 47.3189 35.7105 48.9028 35.7105C49.5429 35.7105 50.1345 35.4999 50.6126 35.1446C50.6171 35.1415 50.622 35.1393 50.6264 35.136C50.6385 35.1269 50.6499 35.1173 50.6609 35.1073C51.3382 34.5813 51.7754 33.76 51.7754 32.8379C51.7754 31.254 50.4867 29.9653 48.9028 29.9653ZM48.4493 30.9259V32.3843H46.9908C47.1616 31.6643 47.7293 31.0967 48.4493 30.9259ZM46.9908 33.2915H48.6761L49.6871 34.6396C49.4467 34.7446 49.1816 34.8033 48.9028 34.8033C47.9752 34.8033 47.1962 34.1572 46.9908 33.2915ZM50.4125 34.0948L49.3564 32.6867V30.9259C50.2221 31.1312 50.8683 31.9103 50.8683 32.8379C50.8683 33.3155 50.6968 33.7539 50.4125 34.0948Z" fill="black"/>
</svg>
