<svg width="64" height="64" viewBox="0 0 64 64" fill="none" xmlns="http://www.w3.org/2000/svg">
<path d="M6.23168 27.9198C5.97309 26.9549 5.97306 25.939 6.23158 24.9742C6.4901 24.0094 6.99805 23.1296 7.7044 22.4233L22.423 7.70474C23.1292 6.99839 24.009 6.49043 24.9739 6.23191C25.9387 5.97339 26.9546 5.97343 27.9194 6.23202L41.6923 9.92245C41.8357 8.03562 42.4926 6.22394 43.5919 4.68366L27.0035 0.239249C25.8128 -0.0797566 24.5591 -0.07975 23.3685 0.23927C22.1778 0.558292 21.0921 1.18509 20.2205 2.05667L2.05666 20.2204C1.18508 21.0921 0.55829 22.1778 0.239271 23.3685C-0.0797499 24.5591 -0.0797568 25.8128 0.23925 27.0035L4.85463 44.2281C6.36341 43.0759 8.15972 42.3603 10.0475 42.1596L6.23168 27.9198Z" fill="#18CDCA"/>
<path d="M53.4945 21.0332L57.4378 35.749C57.6964 36.714 57.6961 37.7298 57.4378 38.6944C57.1791 39.6594 56.671 40.5391 55.9647 41.2454L41.2461 55.9644C40.5398 56.6707 39.6601 57.1784 38.6951 57.4371C37.7304 57.6954 36.7143 57.6954 35.7497 57.4371L21.5098 53.6213C21.3092 55.5091 20.5936 57.3055 19.4413 58.8141L36.666 63.4295C37.8565 63.7486 39.1103 63.7486 40.3008 63.4295C41.4917 63.1104 42.5772 62.4838 43.449 61.6121L61.6128 43.4483C62.4845 42.5765 63.111 41.491 63.4302 40.3001C63.7493 39.1096 63.7493 37.8558 63.4302 36.6653L58.6407 18.7958C57.1639 20.0012 55.3831 20.7755 53.4945 21.0332Z" fill="#18CDCA"/>
<path d="M5.26871 46.6037C4.10218 47.7701 3.30775 49.2566 2.9859 50.8744C2.66405 52.4925 2.82923 54.1697 3.46056 55.6939C4.09185 57.2177 5.16095 58.5205 6.53261 59.4372C7.90431 60.3535 9.51695 60.8429 11.1667 60.8429C12.8164 60.8429 14.429 60.3535 15.8007 59.4372C17.1724 58.5205 18.2415 57.2177 18.8728 55.6939C19.5041 54.1697 19.6693 52.4925 19.3474 50.8744C19.0256 49.2566 18.2312 47.7701 17.0646 46.6037C15.4992 45.0419 13.3781 44.1646 11.1667 44.1646C8.95528 44.1646 6.83417 45.0419 5.26871 46.6037Z" fill="#4F80E1"/>
<path d="M46.1723 4.83879C45.0059 6.00529 44.2112 7.49151 43.8896 9.10954C43.5677 10.7275 43.7328 12.4046 44.3642 13.9288C44.9956 15.4529 46.0645 16.7556 47.4361 17.6721C48.8079 18.5887 50.4205 19.0779 52.0701 19.0779C53.72 19.0779 55.3326 18.5887 56.7045 17.6721C58.076 16.7556 59.1449 15.4529 59.7763 13.9288C60.4077 12.4046 60.5728 10.7275 60.2509 9.10954C59.9293 7.49151 59.1346 6.00529 57.9682 4.83879C56.4029 3.27685 54.2816 2.39966 52.0701 2.39966C49.8589 2.39966 47.7376 3.27685 46.1723 4.83879Z" fill="#4F80E1"/>
<path d="M36.7305 53.9445C36.3955 53.9445 36.0622 53.9007 35.7386 53.814L22.7038 50.3211C22.2691 48.0001 21.1431 45.8646 19.4734 44.195C17.8037 42.5254 15.6683 41.3991 13.3473 40.9646L9.85477 27.9309C9.68163 27.2807 9.68211 26.5966 9.85626 25.9467C10.0304 25.2968 10.3721 24.7041 10.8471 24.2276L24.2259 10.8485C24.7018 10.3725 25.2946 10.0303 25.9447 9.85607C26.5948 9.68189 27.2794 9.68193 27.9294 9.85617L40.5988 13.251C41.1014 15.5576 42.2888 17.6586 44.0057 19.2789C45.7226 20.8992 47.8889 21.9632 50.2206 22.3315L53.8126 35.74C53.9856 36.3904 53.9853 37.0746 53.8108 37.7242C53.6368 38.3742 53.2952 38.9669 52.8199 39.4436L39.4411 52.8224C39.0861 53.1792 38.6633 53.4624 38.1981 53.6548C37.7328 53.8475 37.2341 53.9459 36.7305 53.9445Z" fill="#4F80E1"/>
</svg>
