<svg width="91" height="59" viewBox="0 0 91 59" fill="none" xmlns="http://www.w3.org/2000/svg">
<path d="M73.4319 14.2361H83.5223C83.839 14.2353 84.1526 14.2971 84.4452 14.4179C84.7377 14.5388 85.0036 14.7162 85.2275 14.9401C85.4516 15.164 85.6288 15.4299 85.7497 15.7226C85.8706 16.0152 85.932 16.3289 85.9314 16.6455L85.9272 41.6493C85.9282 41.966 85.8664 42.2796 85.7455 42.5725C85.625 42.8654 85.4475 43.1313 85.2233 43.3551C84.9995 43.5789 84.7336 43.7565 84.4407 43.8774C84.1478 43.9979 83.8342 44.0597 83.5175 44.0587H73.4277V48.8775L83.5271 48.8685C85.4426 48.8682 87.2797 48.1069 88.6343 46.7527C89.9886 45.3981 90.7498 43.561 90.7502 41.6455V16.6451C90.7505 15.6971 90.564 14.7583 90.2013 13.8824C89.8387 13.0065 89.3068 12.2106 88.6364 11.5403C87.966 10.8699 87.1702 10.3382 86.2944 9.97553C85.4185 9.61287 84.4797 9.42633 83.5316 9.42661L73.4277 9.42212L73.4319 14.2361Z" fill="#422E93"/>
<path d="M69.3419 12.1945L69.3374 6.77403C69.3457 2.7952 66.1063 0 62.1189 0H28.6414C24.6488 0 21.4046 3.05976 21.4087 7.04378L21.4121 10.7763H21.4087L21.4132 16.7639C21.4079 18.6914 22.1628 20.5432 23.5142 21.9177C24.8656 23.2921 26.7044 24.0782 28.6317 24.1054H62.1092C66.1015 24.1054 69.3457 20.4789 69.3415 16.4942L69.3384 12.1945H69.3419ZM64.5179 16.6807C64.5196 16.9981 64.4592 17.3127 64.339 17.6066C64.2191 17.9005 64.0426 18.1678 63.8192 18.3933C63.5961 18.6189 63.3305 18.7981 63.0376 18.9209C62.745 19.0436 62.4311 19.1075 62.1137 19.1088L28.6317 19.1253C27.3061 19.1157 26.2327 17.7438 26.2223 16.4179V12.1945H26.2268L26.232 6.64175C26.2261 5.31133 27.3048 4.38466 28.6362 4.38984L62.1182 4.46064C62.7547 4.46344 63.3643 4.71685 63.8154 5.16602C64.2665 5.61516 64.5224 6.2239 64.5276 6.86038V10.7763H64.5231L64.5179 16.6807Z" fill="#422E93"/>
<path d="M60.5484 9.41724H30.2408V14.2495H60.5484V9.41724Z" fill="#422E93"/>
<path d="M60.5663 44.1074H30.2588V48.9396H60.5663V44.1074Z" fill="#422E93"/>
<path d="M69.3974 47.3602L69.3926 41.6562C69.4012 37.677 66.1619 34.5982 62.174 34.5982H28.6966C27.7495 34.5937 26.8108 34.7761 25.9343 35.135C25.0578 35.4938 24.2608 36.0222 23.5889 36.6899C22.917 37.3575 22.3835 38.1512 22.0189 39.025C21.6543 39.8992 21.4658 40.8369 21.4642 41.784L21.4673 45.6585H21.4642L21.4687 51.3625C21.4601 55.3413 24.6998 58.4201 28.6873 58.4201H62.1647C63.1118 58.4246 64.0502 58.2422 64.9268 57.8837C65.803 57.5249 66.6001 56.9964 67.2719 56.3291C67.944 55.6619 68.4777 54.8685 68.8424 53.9943C69.2068 53.1205 69.3957 52.1831 69.3974 51.2361L69.394 47.3616L69.3974 47.3602ZM64.5734 51.4136C64.5738 51.7272 64.5116 52.0374 64.3904 52.3265C64.2688 52.6156 64.0909 52.8774 63.8671 53.0967C63.643 53.316 63.3774 53.4884 63.0859 53.6034C62.7944 53.7184 62.4825 53.7743 62.1692 53.7671L28.6873 53.7464C28.0473 53.7353 27.4371 53.4742 26.9869 53.0193C26.5367 52.5644 26.2823 51.9514 26.2779 51.3114V47.3602H26.2827L26.2879 41.5166C26.2866 41.2009 26.3479 40.888 26.4684 40.5962C26.5888 40.304 26.766 40.0391 26.9896 39.816C27.2132 39.5932 27.4788 39.4167 27.771 39.2968C28.0633 39.1773 28.3763 39.1169 28.6921 39.119L62.174 39.1172C62.8216 39.1456 63.4337 39.4226 63.8823 39.8906C64.331 40.3586 64.5821 40.9816 64.5831 41.6299V45.6585H64.5786L64.5734 51.4136Z" fill="#422E93"/>
<path d="M17.3186 44.0628H7.22821C6.91163 44.0635 6.59799 44.002 6.30535 43.8812C6.0127 43.7603 5.74679 43.5831 5.52291 43.3589C5.29907 43.1351 5.12164 42.8692 5.00086 42.5766C4.88008 42.2841 4.81833 41.9705 4.81916 41.6538L4.82365 16.6479C4.82268 16.3313 4.88436 16.0175 5.00511 15.7248C5.12586 15.432 5.30328 15.166 5.52719 14.9421C5.75114 14.7181 6.01712 14.5407 6.30987 14.42C6.60262 14.2992 6.91637 14.2375 7.23305 14.2385H17.3228V9.42212L7.22303 9.4311C5.3075 9.43158 3.47057 10.1927 2.11608 11.5472C0.7616 12.9017 0.000457811 14.7386 0 16.6541V41.6538C0 43.5682 0.760529 45.4043 2.11427 46.7582C3.46801 48.1118 5.30408 48.8723 7.21854 48.8723L17.3224 48.8768L17.3186 44.0628Z" fill="#422E93"/>
</svg>
