<svg width="80" height="80" viewBox="0 0 80 80" fill="none" xmlns="http://www.w3.org/2000/svg">
<circle cx="40" cy="40" r="40" fill="#EBEBEB"/>
<path d="M59.8226 26.3226H53.7258C52.5252 26.3226 51.5484 27.2994 51.5484 28.5V32.2151L48.9355 31.635V30.559C50.2062 29.6418 51.0476 28.1703 51.1038 26.5003C52.2312 25.3096 52.8548 23.7628 52.8548 22.1171V20.2258C52.8548 19.1232 52.0305 18.2086 50.9657 18.0675C50.0521 16.1954 48.1534 15 46.0543 15H45.3214C43.9052 15 42.509 15.479 41.3907 16.3487C39.8199 17.5702 38.9194 19.4123 38.9194 21.402V21.9677V22.1171V27.629C38.9194 28.3493 39.5055 28.9355 40.2258 28.9355H41.3681C41.7391 29.5748 42.2412 30.1274 42.8387 30.5585V31.6346L39.4332 32.391C36.8229 32.9715 35 35.2435 35 37.9178V42H53.7258H59.8226C61.0232 42 62 41.0232 62 39.8226V28.5C62 27.2994 61.0232 26.3226 59.8226 26.3226ZM51.5484 33.1074V34.4761L50.6008 32.8966L51.5484 33.1074ZM40.2258 28.0645C39.9854 28.0645 39.7903 27.8694 39.7903 27.629V25.3266C40.0355 25.746 40.329 26.1392 40.6704 26.4998C40.6887 27.0472 40.7915 27.572 40.9661 28.0645H40.2258ZM41.2745 23.2742H40.6613V25.0871C40.0965 24.2083 39.7903 23.1867 39.7903 22.1171V21.9677V21.402C39.7903 19.6828 40.5685 18.0911 41.9255 17.0359C42.8918 16.2847 44.0981 15.871 45.3214 15.871H46.0543C47.8947 15.871 49.5521 16.964 50.2772 18.6555L50.3904 18.9194H50.6774C51.3977 18.9194 51.9839 19.5055 51.9839 20.2258V22.1171C51.9839 23.1867 51.6777 24.2083 51.1129 25.0871V21.5323H50.1583L50.0081 21.5924C47.2184 22.7081 44.2802 23.2742 41.2745 23.2742ZM42.4115 28.9355H44.2253C44.4056 29.4411 44.8846 29.8065 45.4516 29.8065H46.3226C47.0429 29.8065 47.629 29.2203 47.629 28.5C47.629 27.7797 47.0429 27.1935 46.3226 27.1935H45.4516C44.8846 27.1935 44.4056 27.5589 44.2253 28.0645H41.8985C41.6642 27.5306 41.5323 26.9418 41.5323 26.3226V24.1439C44.5271 24.1129 47.4557 23.5385 50.2419 22.4363V26.3226C50.2419 28.7238 48.2884 30.6774 45.8871 30.6774C44.467 30.6774 43.2071 29.9907 42.4115 28.9355ZM45.0161 28.5C45.0161 28.2596 45.2112 28.0645 45.4516 28.0645H46.3226C46.563 28.0645 46.7581 28.2596 46.7581 28.5C46.7581 28.7404 46.563 28.9355 46.3226 28.9355H45.4516C45.2112 28.9355 45.0161 28.7404 45.0161 28.5ZM40.2258 41.129V39.3871H39.3548V41.129H35.871V37.9178C35.871 35.6554 37.4135 33.7323 39.6218 33.242L41.173 32.8971L40.0634 34.7461L42.2883 36.0809L40.9966 39.0945L43.7101 41.129H40.2258ZM45.1611 41.129L42.0675 38.8088L43.3887 35.7255L41.2588 34.4474L42.341 32.6432L42.3335 32.6388L42.9633 32.499L45.317 41.129H45.1611ZM43.7097 31.926V31.0676C44.3734 31.3729 45.1093 31.5484 45.8871 31.5484C46.6649 31.5484 47.4008 31.3729 48.0645 31.0672V31.9255L45.8871 39.9097L43.7097 31.926ZM46.4571 41.129L48.8109 32.499L49.4406 32.6388L49.4328 32.6432L50.515 34.4474L48.385 35.7255L49.7063 38.8088L46.613 41.129H46.4571ZM48.0645 41.129L50.7771 39.0945L49.4855 36.0809L51.5484 34.8433V39.8226C51.5484 40.3147 51.7187 40.7641 51.9952 41.129H48.0645ZM61.129 39.8226C61.129 40.5429 60.5429 41.129 59.8226 41.129H53.7258C53.0055 41.129 52.4194 40.5429 52.4194 39.8226V39.3871H61.129V39.8226ZM61.129 38.5161H52.4194V29.371H61.129V38.5161ZM52.4194 28.5C52.4194 27.7797 53.0055 27.1935 53.7258 27.1935H59.8226C60.5429 27.1935 61.129 27.7797 61.129 28.5H52.4194Z" fill="black"/>
<path d="M58.0807 39.8225H55.4678V40.6935H58.0807V39.8225Z" fill="black"/>
<circle cx="26.5" cy="50.5" r="11.5" stroke="#3C64B1" stroke-width="4"/>
<g clip-path="url(#clip0_1414_3804)">
<path d="M26.5001 58C26.4199 58 26.3397 57.978 26.2689 57.9339C22.1942 55.3931 20.6311 52.1833 20.0374 49.938C19.4025 47.5373 19.7042 45.7305 19.7284 45.5949L19.7354 45.5515C19.7689 45.3421 19.9478 45.1871 20.1598 45.1838C20.1817 45.1832 22.4915 45.1115 24.4224 43.1318C24.5537 42.9973 24.7564 42.9617 24.9256 43.0437C25.4185 43.2823 25.9483 43.4032 26.5001 43.4032C27.052 43.4032 27.5817 43.2822 28.0747 43.0437C28.244 42.9617 28.4465 42.9973 28.5778 43.1318C30.5211 45.1242 32.8175 45.1834 32.8404 45.1838C33.0524 45.1871 33.2314 45.3421 33.2649 45.5515L33.2719 45.5949C33.2961 45.7305 33.5977 47.5373 32.9628 49.938C32.3691 52.1833 30.806 55.3931 26.7313 57.9339C26.6605 57.978 26.5803 58 26.5001 58ZM20.5531 46.0269C20.4948 46.6049 20.4281 48.0233 20.8929 49.7552C21.6845 52.7042 23.5703 55.1558 26.5 57.0458C30.1597 54.6815 31.5759 51.7645 32.118 49.7146C32.5734 47.9926 32.5064 46.5984 32.4478 46.0269C31.6706 45.9322 29.8382 45.544 28.1695 43.9566C27.6397 44.1694 27.0795 44.2771 26.5 44.2771C25.9206 44.2771 25.3604 44.1694 24.8306 43.9566C23.1625 45.5435 21.3307 45.9319 20.5531 46.0269Z" fill="black"/>
<path d="M26.5001 55.2909C26.4198 55.2909 26.3397 55.2688 26.2689 55.2247C23.6642 53.6006 22.6651 51.4585 22.2856 49.9475C21.8733 48.3063 22.081 47.0528 22.0901 47.0002L22.0941 46.9753C22.1276 46.7659 22.3065 46.6109 22.5185 46.6076C22.5305 46.6073 23.9186 46.5593 25.0797 45.3689C25.211 45.2343 25.4136 45.1988 25.5828 45.2807C25.8699 45.4197 26.1785 45.4901 26.5001 45.4901C26.8216 45.4901 27.1302 45.4197 27.4173 45.2807C27.5866 45.1988 27.7892 45.2343 27.9205 45.3689C29.0816 46.5593 30.4697 46.6072 30.4836 46.6076C30.6941 46.6127 30.8729 46.7674 30.9061 46.9753L30.9109 47.0053C30.9192 47.0528 31.1268 48.3063 30.7146 49.9475C30.3351 51.4585 29.3359 53.6006 26.7313 55.2247C26.6605 55.2688 26.5802 55.2909 26.5001 55.2909ZM22.9206 47.4416C22.8894 47.8761 22.8787 48.7439 23.1424 49.7716C23.6228 51.6443 24.7519 53.1785 26.5001 54.3348C28.2481 53.1785 29.3773 51.6443 29.8578 49.7716C30.1217 48.7428 30.1107 47.8742 30.0796 47.4416C29.5289 47.3546 28.4827 47.0765 27.511 46.1883C27.1882 46.305 26.8494 46.364 26.5001 46.364C26.1507 46.364 25.8119 46.305 25.4891 46.1883C24.5174 47.0765 23.4713 47.3546 22.9206 47.4416Z" fill="black"/>
<path d="M26.5003 47.5645L26.9462 48.9369H28.3892L27.2218 49.7851L27.6677 51.1575L26.5003 50.3093L25.3328 51.1575L25.7788 49.7851L24.6113 48.9369H26.0544L26.5003 47.5645Z" fill="black"/>
</g>
<defs>
<clipPath id="clip0_1414_3804">
<rect width="15" height="15" fill="white" transform="translate(19 43)"/>
</clipPath>
</defs>
</svg>
