<svg width="80" height="80" viewBox="0 0 80 80" fill="none" xmlns="http://www.w3.org/2000/svg">
<circle cx="40" cy="40" r="40" fill="#EBEBEB"/>
<path d="M57.2084 33.5466C57.0712 33.2835 56.799 33.1187 56.5021 33.1187H49.6055L53.7876 18.0094C53.854 17.7695 53.8044 17.5123 53.6538 17.3143C53.5031 17.1162 53.2685 17 53.0197 17H43.6669C43.3087 17 42.9945 17.2391 42.899 17.5842L36.7301 39.8718C36.6637 40.1117 36.7132 40.3688 36.8638 40.5669C37.0145 40.765 37.249 40.8812 37.4979 40.8812H44.3945L40.2125 55.9905C40.1089 56.3649 40.2901 56.7592 40.6416 56.9243C40.7505 56.9755 40.8659 57 40.9801 57C41.234 57 41.4812 56.8784 41.6344 56.6585L57.1561 34.3709C57.3257 34.1273 57.3458 33.8098 57.2084 33.5466ZM42.9929 51.9191L46.2097 40.297C46.2762 40.0571 46.2266 39.8 46.076 39.602C45.9253 39.4038 45.6908 39.2876 45.4419 39.2876H38.5453L44.2731 18.5936H51.9725L47.7903 33.7029C47.7239 33.9428 47.7734 34.1999 47.924 34.398C48.0748 34.5961 48.3094 34.7123 48.5582 34.7123H54.9761L42.9929 51.9191Z" fill="black"/>
<path d="M47.724 27.8027C47.3004 27.6844 46.8606 27.932 46.7423 28.3559L46.6311 28.7537C46.5128 29.1776 46.7604 29.6172 47.1843 29.7355C47.2559 29.7555 47.328 29.765 47.399 29.765C47.7475 29.765 48.0676 29.5345 48.1661 29.1823L48.2772 28.7844C48.3956 28.3607 48.1478 27.9211 47.724 27.8027Z" fill="black"/>
<path d="M50.083 19.3561C49.6595 19.2381 49.2196 19.4854 49.1013 19.9092L47.41 25.9651C47.2915 26.3889 47.5393 26.8284 47.9631 26.9468C48.0347 26.9668 48.1068 26.9763 48.1779 26.9763C48.5264 26.9763 48.8465 26.7458 48.9449 26.3936L50.6362 20.3377C50.7546 19.914 50.5068 19.4745 50.083 19.3561Z" fill="black"/>
<circle cx="26.5" cy="51.5" r="11.5" stroke="#3C64B1" stroke-width="4"/>
<path d="M29.75 46.5V45H21.5V46.5H24.125C25.1015 46.5 25.9257 47.1285 26.2362 48H21.5V49.5H26.2362C26.0823 49.9374 25.7967 50.3165 25.4187 50.585C25.0406 50.8536 24.5887 50.9986 24.125 51H21.5V52.8105L25.6895 57H27.8105L23.3105 52.5H24.125C24.989 52.4988 25.8261 52.1998 26.4953 51.6533C27.1645 51.1068 27.6247 50.3463 27.7985 49.5H29.75V48H27.7985C27.6835 47.4542 27.4466 46.9414 27.1055 46.5H29.75Z" fill="black"/>
</svg>
