<svg width="80" height="80" viewBox="0 0 80 80" fill="none" xmlns="http://www.w3.org/2000/svg">
<path d="M80 40C80 62.0914 62.0914 80 40 80C17.9086 80 0 62.0914 0 40C0 17.9086 17.9086 0 40 0C62.0914 0 80 17.9086 80 40Z" fill="#EBEBEB"/>
<path d="M58.5 25.5C58.8 25.5 59 25.3 59 25V23C59 22.7 58.8 22.5 58.5 22.5H49.5C49.2 22.5 49 22.7 49 23V25C49 25.3 49.2 25.5 49.5 25.5H50V26.5H43V25.5C43 25.2 42.8 25 42.5 25H35.5C35.2 25 35 25.2 35 25.5V26.5H33.5C33.2 26.5 33 26.7 33 27V29C33 29.3 33.2 29.5 33.5 29.5H35V30.5C35 30.8 35.2 31 35.5 31H42.5C42.8 31 43 30.8 43 30.5V29.5H50V30.5H49.5C49.2 30.5 49 30.7 49 31V33C49 33.3 49.2 33.5 49.5 33.5H58.5C58.8 33.5 59 33.3 59 33V31C59 30.7 58.8 30.5 58.5 30.5H58V25.5H58.5ZM50 23.5H58V24.5H57.5H50.5H50V23.5ZM34 28.5V27.5H35V28.5H34ZM42 30H36V29V27V26H37.5V28.5H38.5V26H39.5V28.5H40.5V26H42V27V29V30ZM43 28.5V27.5H50V28.5H43ZM58 32.5H50V31.5H50.5H57.5H58V32.5ZM57 30.5H51V29V27V25.5H57V30.5Z" fill="black"/>
<path d="M56.5 41.5H51.5C51.2 41.5 51 41.7 51 42V47H35.5V32.5H34.5V47.5C34.5 47.8 34.7 48 35 48H51.5C51.65 48 51.75 47.95 51.85 47.85L57.35 42.35C57.4 42.3 57.4 42.25 57.45 42.2V42.15C57.45 42.1 57.5 42.05 57.5 42V35.5H56.5V41.5ZM52 42.5H55.8L53.9 44.4L52 46.3V42.5Z" fill="black"/>
<path d="M35.5 19H56.5V20.5H57.5V18.5C57.5 18.2 57.3 18 57 18H35C34.7 18 34.5 18.2 34.5 18.5V22.5H35.5V19Z" fill="black"/>
<path d="M42.5 33.5H37V34.5H42.5V33.5Z" fill="black"/>
<path d="M42.5 36H37V37H42.5V36Z" fill="black"/>
<path d="M45.5 33.5H44V34.5H45.5V33.5Z" fill="black"/>
<path d="M45.5 36H44V37H45.5V36Z" fill="black"/>
<path d="M52 36H46.5V37H52V36Z" fill="black"/>
<path d="M55 36H53.5V37H55V36Z" fill="black"/>
<path d="M42.5 38.5H37V39.5H42.5V38.5Z" fill="black"/>
<path d="M45.5 38.5H44V39.5H45.5V38.5Z" fill="black"/>
<path d="M42.5 41H37V42H42.5V41Z" fill="black"/>
<path d="M45.5 41H44V42H45.5V41Z" fill="black"/>
<path d="M42.5 43.5H37V44.5H42.5V43.5Z" fill="black"/>
<path d="M45.5 43.5H44V44.5H45.5V43.5Z" fill="black"/>
<path d="M52 38.5H46.5V39.5H52V38.5Z" fill="black"/>
<path d="M49.5 41H46.5V42H49.5V41Z" fill="black"/>
<path d="M49.5 43.5H46.5V44.5H49.5V43.5Z" fill="black"/>
<path d="M55 38.5H53.5V39.5H55V38.5Z" fill="black"/>
<path d="M38 20.5H37V21.5H38V20.5Z" fill="black"/>
<path d="M40 20.5H39V21.5H40V20.5Z" fill="black"/>
<path d="M42 20.5H41V21.5H42V20.5Z" fill="black"/>
<path d="M44 20.5H43V21.5H44V20.5Z" fill="black"/>
<path d="M46 20.5H45V21.5H46V20.5Z" fill="black"/>
<circle cx="27.5" cy="50.5" r="11.5" stroke="#3C64B1" stroke-width="4"/>
<path d="M30.75 45.5V44H22.5V45.5H25.125C26.1015 45.5 26.9257 46.1285 27.2362 47H22.5V48.5H27.2362C27.0823 48.9374 26.7967 49.3165 26.4187 49.585C26.0406 49.8536 25.5887 49.9986 25.125 50H22.5V51.8105L26.6895 56H28.8105L24.3105 51.5H25.125C25.989 51.4988 26.8261 51.1998 27.4953 50.6533C28.1645 50.1068 28.6247 49.3463 28.7985 48.5H30.75V47H28.7985C28.6835 46.4542 28.4466 45.9414 28.1055 45.5H30.75Z" fill="black"/>
</svg>
