<svg width="109" height="62" viewBox="0 0 109 62" fill="none" xmlns="http://www.w3.org/2000/svg">
<path d="M37.7264 44.6901L29.2748 53.1413C26.4775 55.905 22.7001 57.45 18.7676 57.4382C14.8351 57.4265 11.067 55.8591 8.28629 53.0784C5.50556 50.2977 3.9381 46.5296 3.92625 42.597C3.91437 38.6645 5.45907 34.887 8.22294 32.0897L20.8464 19.4663C20.8398 19.2438 20.8354 19.0211 20.8354 18.7976C20.8341 16.9177 21.0755 15.0454 21.5534 13.2272L5.45848 29.3222C1.95395 32.8518 -0.00885221 37.6266 3.0015e-05 42.6005C0.00891227 47.5744 1.98875 52.3421 5.50587 55.8591C9.02299 59.3762 13.7907 61.3559 18.7646 61.3645C23.7385 61.3735 28.5132 59.4107 32.0427 55.9061L40.494 47.4549L37.7264 44.6901Z" fill="url(#paint0_linear_1447_1042)"/>
<path d="M66.3842 61.4046C63.9158 61.4088 61.4708 60.9252 59.1899 59.9816C56.9089 59.0384 54.8366 57.6534 53.0924 55.9068L29.2747 32.089C25.7576 28.562 23.7841 23.7833 23.7876 18.8024C23.7911 13.8214 25.7714 9.04553 29.2935 5.52354C32.8156 2.00156 37.5916 0.0214674 42.5727 0.0181317C47.5535 0.0147959 52.3322 1.98849 55.859 5.50575L79.6767 29.3235C82.3068 31.9512 84.0983 35.3001 84.8243 38.9467C85.5507 42.5929 85.1783 46.3728 83.7553 49.8076C82.332 53.2425 79.9219 56.1776 76.8297 58.2423C73.7375 60.3066 70.1026 61.407 66.3846 61.4046H66.3842ZM55.859 53.1413C58.6576 55.8995 62.433 57.4393 66.3625 57.4251C70.2916 57.4109 74.0559 55.8436 76.8345 53.065C79.6128 50.2867 81.1801 46.5223 81.1943 42.5932C81.2085 38.6638 79.6687 34.888 76.9105 32.0897L53.0928 8.27194C51.714 6.87316 50.0724 5.76102 48.2619 4.99959C46.4517 4.23815 44.5086 3.84248 42.5447 3.83537C40.5805 3.82822 38.6346 4.2098 36.8189 4.95807C35.0032 5.70635 33.3533 6.80657 31.9646 8.1953C30.5759 9.58402 29.4756 11.2338 28.7274 13.0496C27.9791 14.8655 27.5975 16.8114 27.6047 18.7753C27.6118 20.7393 28.0074 22.6824 28.7689 24.4928C29.5303 26.3031 30.6425 27.9449 32.0412 29.3235L55.859 53.1413Z" fill="url(#paint1_linear_1447_1042)"/>
<path d="M76.9102 5.50576L68.459 13.957L71.2252 16.7232L79.6764 8.27195C82.475 5.51374 86.2504 3.97388 90.1799 3.98811C94.109 4.00237 97.8733 5.56959 100.652 8.34807C103.43 11.1265 104.998 14.8908 105.012 18.8201C105.026 22.7494 103.486 26.525 100.728 29.3235L88.0948 41.9567C88.1587 44.0628 87.9176 46.1673 87.3795 48.2043L103.494 32.0897C107.019 28.5644 109 23.7832 109 18.7977C109 13.8123 107.019 9.03104 103.494 5.50576C99.9688 1.98053 95.1876 6.10352e-05 90.202 6.10352e-05C85.2167 6.10352e-05 80.4355 1.98053 76.9102 5.50576Z" fill="url(#paint2_linear_1447_1042)"/>
<defs>
<linearGradient id="paint0_linear_1447_1042" x1="-1.13383" y1="43.1686" x2="114.125" y2="21.8643" gradientUnits="userSpaceOnUse">
<stop stop-color="#E7267A"/>
<stop offset="0.502" stop-color="#64328A"/>
<stop offset="1" stop-color="#2B4B9B"/>
</linearGradient>
<linearGradient id="paint1_linear_1447_1042" x1="-0.649054" y1="45.1373" x2="113.181" y2="15.3537" gradientUnits="userSpaceOnUse">
<stop stop-color="#E7267A"/>
<stop offset="0.502" stop-color="#64328A"/>
<stop offset="1" stop-color="#2B4B9B"/>
</linearGradient>
<linearGradient id="paint2_linear_1447_1042" x1="-0.217199" y1="47.0473" x2="115.217" y2="25.7231" gradientUnits="userSpaceOnUse">
<stop stop-color="#E7267A"/>
<stop offset="0.502" stop-color="#64328A"/>
<stop offset="1" stop-color="#2B4B9B"/>
</linearGradient>
</defs>
</svg>
