<svg width="105" height="93" viewBox="0 0 105 93" fill="none" xmlns="http://www.w3.org/2000/svg">
<path d="M90.7651 13.0875L85.6525 38.9815C85.642 39.0333 85.646 39.0869 85.6635 39.1367C85.6806 39.1865 85.7114 39.2308 85.7517 39.2648C85.7921 39.2989 85.8408 39.3214 85.8926 39.3302C85.9449 39.339 85.9984 39.3336 86.0476 39.3147L91.5135 37.2547C91.5267 37.3306 91.5398 37.4092 91.5521 37.482C92.8646 45.7524 91.9028 54.2238 88.77 61.9894C85.6367 69.755 80.4505 76.5219 73.7665 81.566C67.082 86.6096 59.1519 89.7402 50.8244 90.6225C42.4974 91.5048 34.0871 90.1054 26.4944 86.574C34.4559 90.9895 43.4975 93.0798 52.589 92.6066C61.6807 92.1334 70.4567 89.1165 77.9168 83.8986C85.3773 78.6807 91.222 71.4726 94.785 63.0947C98.348 54.7172 99.4867 45.507 98.0702 36.5141L104.365 37.0251C104.419 37.0293 104.472 37.0189 104.52 36.9951C104.568 36.9713 104.608 36.9349 104.637 36.8898C104.666 36.8448 104.682 36.7927 104.684 36.7392C104.685 36.6857 104.673 36.6328 104.646 36.5861L91.3116 12.9979C91.2817 12.9456 91.2365 12.9036 91.1821 12.8777C91.1276 12.8517 91.0666 12.843 91.0074 12.8528C90.9477 12.8625 90.8928 12.8902 90.8493 12.9322C90.8059 12.9741 90.7765 13.0283 90.7651 13.0875Z" fill="url(#paint0_linear_1404_663)"/>
<path d="M81.0006 67.1094C76.8708 72.362 71.5669 76.5733 65.5155 79.4054C59.4636 82.2376 52.8323 83.612 46.1536 83.418C39.4746 83.2239 32.9342 81.4672 27.0571 78.2887C21.1799 75.1098 16.1296 70.5978 12.3116 65.1143C8.49352 59.6313 6.0139 53.3292 5.07168 46.7142C4.12951 40.0994 4.75097 33.3557 6.88628 27.0244C9.02154 20.6931 12.6111 14.9505 17.3671 10.2573C22.123 5.56408 27.9128 2.05102 34.2719 0C26.0776 2.01395 18.6143 6.29051 12.7334 12.3418C6.85257 18.3932 2.79094 25.9755 1.01189 34.224C-0.767173 42.4725 -0.192028 51.055 2.67172 58.9922C5.53548 66.9299 10.5725 73.9023 17.2082 79.1149C23.8439 84.3275 31.8111 87.57 40.2008 88.4725C48.5906 89.375 57.0651 87.9015 64.6578 84.2195C72.2504 80.5375 78.6552 74.796 83.1418 67.6493C87.6279 60.5027 90.0154 52.2389 90.0316 43.8008C89.4289 52.3008 86.2821 60.4223 81.0006 67.1094Z" fill="url(#paint1_linear_1404_663)"/>
<path d="M71.6039 21.9733C68.9706 25.3273 65.976 28.3812 62.6742 31.0799C62.6408 31.1074 62.6136 31.1419 62.5952 31.1811C62.5767 31.2203 62.5671 31.2631 62.5671 31.3064V73.2052C62.5671 73.5423 62.46 73.8707 62.2611 74.1428C62.0623 74.4154 61.7822 74.6173 61.4613 74.72L61.4271 74.731C61.1892 74.8074 60.9368 74.8263 60.6901 74.7863C60.4434 74.7468 60.2094 74.6489 60.008 74.5019C59.806 74.3544 59.6419 74.1617 59.5286 73.9391C59.4154 73.7161 59.3565 73.4699 59.3565 73.2201V34.1574C59.3565 34.1037 59.3421 34.051 59.3144 34.0051C59.2868 33.9591 59.2468 33.9216 59.199 33.8968C59.1516 33.8719 59.098 33.8606 59.0444 33.8641C58.9909 33.8676 58.9391 33.8856 58.8952 33.9165C54.5232 36.9267 49.757 39.3197 44.7314 41.0275C44.6735 41.047 44.623 41.0843 44.587 41.1341C44.5514 41.1839 44.5321 41.2436 44.5321 41.305V75.1436C44.5321 75.3785 44.4799 75.6107 44.3794 75.8227C44.2788 76.0351 44.1327 76.2226 43.9514 76.3718C43.7697 76.5211 43.5574 76.6277 43.3296 76.6852C43.1018 76.7423 42.8641 76.7485 42.6336 76.7028L42.5713 76.6905C42.2119 76.6194 41.8884 76.4254 41.6561 76.1418C41.4239 75.8583 41.2974 75.5031 41.2983 75.1366C41.3067 71.4933 41.315 66.5879 41.3211 66.5914V42.4563C41.3211 42.4113 41.3108 42.3669 41.2909 42.3265C41.2709 42.2862 41.242 42.2509 41.2062 42.2235C41.1705 42.1961 41.1289 42.1774 41.0848 42.1687C41.0406 42.1599 40.995 42.1615 40.9515 42.1732L40.8063 42.2114C36.7063 43.2888 33.0786 45.6936 30.4898 49.0503C27.9009 52.4074 26.4966 56.5271 26.4963 60.7661V66.3237C26.4971 66.634 26.4068 66.9382 26.2366 67.1976C26.0665 67.4575 25.8239 67.6616 25.539 67.785C25.254 67.9079 24.9392 67.9452 24.6334 67.8912C24.3277 67.8376 24.0444 67.6954 23.8186 67.4821C17.5215 61.4298 13.5176 53.3815 12.489 44.7082C11.4603 36.035 13.4706 27.2734 18.1773 19.916C22.884 12.5587 29.996 7.06079 38.3016 4.35895C46.6071 1.6571 55.5925 1.91847 63.7272 5.09853C57.3224 2.05379 50.2197 0.778283 43.1556 1.40432C36.0916 2.03036 29.3238 4.53513 23.5543 8.65877C17.7847 12.7825 13.2237 18.3748 10.3443 24.8556C7.46492 31.3364 6.37205 38.4696 7.17912 45.5154C7.98618 52.5606 10.6638 59.2622 14.9341 64.9238C19.2045 70.5859 24.9119 75.0018 31.4645 77.7142C38.0171 80.426 45.1761 81.3356 52.1985 80.3483C59.2213 79.3607 65.8513 76.5119 71.4019 72.0977C73.3382 70.7615 75.1445 69.2458 76.7958 67.5703L76.9692 67.3846C77.2427 67.0914 77.3946 66.7051 77.3937 66.3039V14.6239C77.3937 14.6239 77.3937 14.4395 77.3937 14.195C77.3941 14.1297 77.3726 14.066 77.3331 14.0141C77.2932 13.9622 77.2374 13.925 77.1742 13.9083C77.111 13.8917 77.0439 13.8966 76.9837 13.9222C76.9236 13.9478 76.874 13.9926 76.8419 14.0497C75.3148 16.8293 73.5629 19.4794 71.6039 21.9733Z" fill="url(#paint2_linear_1404_663)"/>
<defs>
<linearGradient id="paint0_linear_1404_663" x1="26.4944" y1="52.7608" x2="104.684" y2="52.7608" gradientUnits="userSpaceOnUse">
<stop stop-color="#403BEB"/>
<stop offset="1" stop-color="#22B7A0"/>
</linearGradient>
<linearGradient id="paint1_linear_1404_663" x1="-5.49894e-08" y1="44.3653" x2="90.0316" y2="44.3653" gradientUnits="userSpaceOnUse">
<stop stop-color="#403BEB"/>
<stop offset="1" stop-color="#22B7A0"/>
</linearGradient>
<linearGradient id="paint2_linear_1404_663" x1="6.92092" y1="40.9923" x2="77.3937" y2="40.9923" gradientUnits="userSpaceOnUse">
<stop stop-color="#403BEB"/>
<stop offset="1" stop-color="#22B7A0"/>
</linearGradient>
</defs>
</svg>
