<svg width="315" height="193" viewBox="0 0 315 193" fill="none" xmlns="http://www.w3.org/2000/svg">
<path d="M315 193H0C3.45173 184.204 9.8246 176.743 18.8113 174.529C31.9555 171.296 45.8658 180.188 58.981 176.844C66.4321 174.946 72.298 169.417 78.4623 164.825C101.717 147.5 133.585 142.379 161.102 151.549C175.486 156.34 188.592 164.719 203.326 168.281C222.379 172.889 242.304 169.067 261.898 168.438C280.981 167.825 308.323 175.595 315 193Z" fill="#F3F5FD"/>
<path d="M131.252 170.275C129.895 169.831 128.503 170.33 127.172 171.341C128.926 166.915 129.65 162.917 126.651 162.737C124.552 162.611 122.945 164.219 121.724 166.506C121.294 162.485 120.186 159.486 117.704 160.48C114.979 161.572 114.564 165.313 114.978 169.228C113.777 167.229 112.485 166.113 111.311 167.286C107.808 170.786 116.406 180.649 116.406 180.649C116.406 180.649 123.801 183.457 126.68 180.446C130.582 176.365 134.491 171.334 131.252 170.275Z" fill="#8DDBE0"/>
<path d="M127.423 193H115.339L113.316 178.903H129.446L127.423 193Z" fill="#C1D8ED"/>
<path d="M204.657 193H160.96C157.754 190.444 157.533 184.684 160.856 182.112C163.417 180.13 167.288 180.661 169.695 182.722C169.245 181.188 169.235 179.557 169.668 178.017C170.451 175.244 172.191 172.427 174.847 171.306C181.626 168.448 186.443 174.437 187.408 177.784C189.144 175.234 193.026 173.886 195.464 175.603C198.551 177.777 198.412 181.206 195.949 183.666C199.231 183.055 201.701 183.527 203.978 185.968C205.71 187.826 205.975 190.992 204.657 193Z" fill="#8DDBE0"/>
<path d="M77.8693 48.8302L77.1011 48.1173C77.4597 47.7315 77.8214 47.3485 78.1862 46.9683L78.9435 47.692C78.5824 48.0688 78.2243 48.4482 77.8693 48.8302Z" fill="#C1D8ED"/>
<path d="M81.1257 45.4742L80.3893 44.7291C81.1344 43.9937 81.8983 43.2619 82.6592 42.5536L83.3734 43.3201C82.6201 44.0214 81.8649 44.7462 81.1257 45.4742ZM223.918 45.5173C223.184 44.7901 222.43 44.0642 221.677 43.3594L222.393 42.5948C223.153 43.306 223.915 44.0393 224.656 44.7738L223.918 45.5173ZM85.6831 41.2322L84.9914 40.4461C85.7759 39.7573 86.581 39.0713 87.3839 38.4066L88.0525 39.2136C87.2572 39.8706 86.46 40.5505 85.6831 41.2322ZM219.373 41.2679C218.597 40.5835 217.801 39.9026 217.009 39.2448L217.679 38.4394C218.479 39.1038 219.283 39.7912 220.066 40.4824L219.373 41.2679ZM90.4797 37.2639L89.8352 36.4379C90.6566 35.7982 91.5005 35.1604 92.3438 34.5427L92.9636 35.3879C92.1284 35.9991 91.2927 36.6304 90.4797 37.2639ZM214.586 37.2923C213.773 36.6553 212.937 36.0227 212.107 35.4125L212.728 34.5687C213.566 35.1851 214.41 35.824 215.232 36.4675L214.586 37.2923ZM95.5015 33.5861L94.9074 32.7231C95.7689 32.1308 96.6494 31.5448 97.5242 30.981L98.0939 31.8614C97.2264 32.4187 96.3548 32.9996 95.5015 33.5861ZM209.572 33.6075C208.722 33.0212 207.851 32.4398 206.984 31.879L207.553 30.9994C208.429 31.5659 209.309 32.1533 210.167 32.7456L209.572 33.6075ZM100.733 30.215L100.191 29.318C101.087 28.7778 102.001 28.2457 102.907 27.7364L103.421 28.6491C102.525 29.1535 101.621 29.681 100.733 30.215ZM204.345 30.2293C203.458 29.6934 202.555 29.1657 201.657 28.6604L202.172 27.7481C203.078 28.2585 203.992 28.7916 204.888 29.3329L204.345 30.2293ZM106.157 27.1664L105.671 26.2385C106.597 25.755 107.541 25.2792 108.479 24.825L108.936 25.7672C108.008 26.2163 107.073 26.6871 106.157 27.1658V27.1664ZM198.922 27.1748C198.005 26.6944 197.07 26.2228 196.143 25.7728L196.601 24.829C197.538 25.2836 198.482 25.7601 199.409 26.2453L198.922 27.1748ZM111.757 24.4531L111.329 23.497C112.283 23.0704 113.255 22.6538 114.218 22.2583L114.616 23.2271C113.662 23.6185 112.7 24.031 111.757 24.4531ZM193.322 24.4566C192.377 24.0335 191.415 23.6204 190.461 23.2284L190.86 22.2597C191.824 22.6557 192.796 23.0728 193.751 23.5006L193.322 24.4566ZM117.511 22.0913L117.142 21.1106C118.12 20.7442 119.116 20.3883 120.101 20.0535L120.439 21.045C119.464 21.3749 118.478 21.727 117.511 22.0913ZM187.563 22.0913C186.594 21.7276 185.607 21.3752 184.631 21.0431L184.968 20.0513C185.955 20.3869 186.952 20.7431 187.931 21.1106L187.563 22.0913ZM123.398 20.0885L123.091 19.0872C124.089 18.782 125.105 18.4889 126.11 18.2157L126.385 19.2268C125.39 19.497 124.385 19.7873 123.398 20.0885ZM181.667 20.0855C180.678 19.7835 179.671 19.4929 178.674 19.2224L178.949 18.2117C179.956 18.4852 180.974 18.7784 181.973 19.0837L181.667 20.0855ZM129.397 18.4591L129.153 17.4405C130.168 17.1984 131.2 16.9694 132.22 16.7599L132.431 17.7858C131.423 17.9924 130.401 18.219 129.397 18.4591ZM175.655 18.4543C174.65 18.2152 173.627 17.9883 172.613 17.7807L172.824 16.7547C173.848 16.9645 174.882 17.1936 175.898 17.4353L175.655 18.4543ZM135.485 17.2074L135.306 16.1755C136.332 15.9976 137.376 15.8337 138.408 15.6876L138.555 16.7249C137.534 16.8688 136.501 17.0312 135.485 17.2068V17.2074ZM169.552 17.2025C168.532 17.0266 167.496 16.8645 166.473 16.7208L166.619 15.6835C167.653 15.8288 168.7 15.9925 169.73 16.1714L169.552 17.2025ZM141.638 16.3392L141.524 15.298C142.561 15.1847 143.612 15.0863 144.649 15.0058L144.731 16.05C143.704 16.1296 142.664 16.2272 141.638 16.3392ZM163.379 16.3351C162.353 16.2237 161.309 16.1267 160.276 16.0467L160.357 15.0023C161.401 15.0836 162.456 15.1809 163.494 15.294L163.379 16.3351ZM147.83 15.857L147.781 14.8107C148.824 14.7622 149.881 14.7294 150.925 14.7131L150.941 15.7605C149.908 15.7756 148.861 15.809 147.83 15.857ZM157.163 15.8551C156.176 15.8095 155.171 15.7781 154.179 15.7618L154.053 15.7597L154.07 14.7123L154.197 14.7144C155.2 14.731 156.214 14.7627 157.212 14.8088L157.163 15.8551Z" fill="#C1D8ED"/>
<path d="M227.186 48.9023C226.832 48.5192 226.475 48.1388 226.116 47.7611L226.876 47.0396C227.238 47.421 227.598 47.805 227.956 48.1915L227.186 48.9023Z" fill="#C1D8ED"/>
<path d="M251.263 53.3699H194.72C190.391 53.3699 186.88 56.8775 186.88 61.2043V183.399C186.88 187.725 190.391 191.233 194.72 191.233H251.263C255.593 191.233 259.103 187.725 259.103 183.399V61.2043C259.103 56.8775 255.593 53.3699 251.263 53.3699Z" fill="white"/>
<path d="M251.264 193H194.72C192.173 192.997 189.731 191.985 187.929 190.185C186.128 188.385 185.115 185.944 185.112 183.399V61.2051C185.115 58.6595 186.128 56.219 187.929 54.4189C189.731 52.6189 192.173 51.6063 194.72 51.6034H251.264C253.811 51.6067 256.253 52.6194 258.054 54.4194C259.855 56.2194 260.868 58.6597 260.871 61.2051V183.399C260.868 185.944 259.855 188.384 258.054 190.184C256.253 191.984 253.811 192.997 251.264 193ZM194.72 55.1369C193.111 55.1388 191.567 55.7787 190.429 56.9164C189.291 58.054 188.651 59.5964 188.649 61.2051V183.399C188.651 185.007 189.291 186.549 190.429 187.687C191.567 188.824 193.111 189.464 194.72 189.466H251.264C252.873 189.464 254.416 188.824 255.554 187.686C256.692 186.549 257.332 185.007 257.334 183.399V61.2051C257.333 59.5966 256.693 58.0544 255.555 56.9168C254.417 55.7792 252.874 55.1391 251.264 55.1369H194.72Z" fill="#DEE8F5"/>
<path d="M210.611 53.3699H235.372V58.1692C235.372 59.1222 234.993 60.0361 234.319 60.71C233.644 61.3838 232.73 61.7624 231.776 61.7624H214.207C213.254 61.7624 212.339 61.3838 211.665 60.71C210.99 60.0361 210.611 59.1222 210.611 58.1692V53.3688V53.3699Z" fill="#DEE8F5"/>
<path d="M245.927 151.685L245.906 133.069C245.913 132.956 245.896 132.843 245.856 132.737C245.816 132.631 245.754 132.535 245.674 132.454C245.594 132.374 245.498 132.312 245.393 132.271C245.287 132.231 245.174 132.213 245.061 132.219L222.991 132.24L200.922 132.219C200.809 132.213 200.696 132.231 200.59 132.271C200.485 132.312 200.389 132.374 200.309 132.455C200.229 132.535 200.167 132.631 200.127 132.737C200.087 132.843 200.07 132.956 200.077 133.069L200.056 151.685L200.054 154.464C200.047 154.577 200.065 154.69 200.105 154.796C200.145 154.902 200.207 154.999 200.288 155.079C200.368 155.159 200.464 155.222 200.57 155.263C200.676 155.303 200.789 155.321 200.902 155.315L204.777 155.319L217.747 155.331L217.749 155.34L222.991 155.336L228.234 155.34L228.236 155.331L241.206 155.317L245.081 155.313C245.194 155.319 245.307 155.301 245.413 155.261C245.519 155.22 245.615 155.158 245.695 155.077C245.776 154.997 245.838 154.901 245.878 154.795C245.918 154.688 245.936 154.575 245.929 154.462L245.927 151.685Z" fill="#8DDBE0"/>
<path opacity="0.47" d="M243.37 138.14C242.474 138.138 241.615 137.782 240.98 137.15C240.345 136.517 239.986 135.66 239.982 134.764L222.991 134.778L206 134.764C205.995 135.66 205.637 136.517 205.002 137.15C204.367 137.782 203.508 138.138 202.612 138.14L202.6 149.394C202.984 149.393 203.365 149.46 203.726 149.59C204.156 149.743 204.552 149.982 204.888 150.291C205.225 150.6 205.496 150.974 205.686 151.389C205.886 151.826 205.988 152.301 205.984 152.782L217.052 152.792L217.054 152.801L222.99 152.796L228.927 152.801L228.929 152.792L239.996 152.782C239.993 152.301 240.095 151.826 240.295 151.389C240.484 150.974 240.756 150.6 241.092 150.291C241.429 149.982 241.824 149.743 242.255 149.59C242.616 149.46 242.997 149.393 243.381 149.394L243.37 138.14Z" fill="white"/>
<path d="M209.548 145.846C210.716 145.846 211.664 144.9 211.664 143.732C211.664 142.564 210.716 141.617 209.548 141.617C208.379 141.617 207.431 142.564 207.431 143.732C207.431 144.9 208.379 145.846 209.548 145.846Z" fill="#8DDBE0"/>
<path d="M236.435 145.846C237.604 145.846 238.551 144.9 238.551 143.732C238.551 142.564 237.604 141.617 236.435 141.617C235.267 141.617 234.319 142.564 234.319 143.732C234.319 144.9 235.267 145.846 236.435 145.846Z" fill="#8DDBE0"/>
<path d="M226.722 137.505C227.755 138.097 228.62 138.941 229.239 139.957C229.858 140.974 230.209 142.13 230.261 143.319C230.292 144.486 230.261 145.846 229.029 147.824C228.389 148.805 227.505 149.603 226.464 150.14C226.026 150.382 225.562 150.574 225.08 150.712C224.403 150.916 223.699 151.02 222.992 151.018C221.712 151.018 220.455 150.68 219.348 150.039C218.241 149.398 217.323 148.476 216.687 147.366C216.052 146.278 215.717 145.041 215.716 143.781C215.713 143.767 215.716 143.754 215.713 143.741C215.718 141.812 216.488 139.963 217.854 138.6C219.22 137.237 221.071 136.471 223.002 136.47C223.133 136.473 223.264 136.475 223.393 136.484C224.571 136.541 225.715 136.892 226.722 137.505Z" fill="#8DDBE0"/>
<path d="M222.55 148.245V147.175C222.209 147.132 221.876 147.043 221.56 146.912C221.231 146.783 220.928 146.596 220.666 146.36L221.352 145.301C221.59 145.489 221.851 145.645 222.128 145.767C222.367 145.869 222.624 145.922 222.883 145.923C223.117 145.943 223.351 145.878 223.542 145.742C223.615 145.67 223.672 145.583 223.708 145.487C223.745 145.391 223.759 145.288 223.751 145.185C223.752 145.096 223.734 145.008 223.698 144.927C223.662 144.846 223.609 144.773 223.543 144.714C223.383 144.571 223.207 144.447 223.018 144.345C222.808 144.227 222.582 144.109 222.34 143.992C222.1 143.876 221.872 143.734 221.662 143.569C221.455 143.408 221.277 143.213 221.137 142.991C220.992 142.745 220.92 142.463 220.929 142.178C220.912 141.703 221.066 141.238 221.363 140.867C221.67 140.511 222.093 140.275 222.557 140.199V139.097H223.596V140.178C223.914 140.22 224.22 140.326 224.495 140.489C224.751 140.646 224.986 140.837 225.191 141.057L224.397 141.955C224.232 141.796 224.044 141.661 223.841 141.553C223.651 141.461 223.442 141.415 223.231 141.418C223.022 141.404 222.814 141.46 222.642 141.578C222.569 141.644 222.513 141.725 222.478 141.816C222.442 141.907 222.429 142.005 222.438 142.102C222.437 142.185 222.456 142.268 222.492 142.343C222.528 142.418 222.581 142.484 222.646 142.536C222.807 142.668 222.983 142.781 223.171 142.873C223.381 142.98 223.608 143.091 223.85 143.205C224.091 143.319 224.319 143.459 224.528 143.623C224.739 143.787 224.916 143.989 225.053 144.218C225.199 144.481 225.271 144.778 225.261 145.079C225.273 145.554 225.125 146.019 224.842 146.4C224.528 146.789 224.082 147.05 223.589 147.132V148.245L222.55 148.245Z" fill="white"/>
<path d="M48.7997 191.233H105.342C109.672 191.233 113.182 187.725 113.182 183.398L113.182 61.2043C113.182 56.8774 109.672 53.3698 105.342 53.3698H48.7997C44.4697 53.3698 40.9596 56.8774 40.9596 61.2043L40.9596 183.398C40.9596 187.725 44.4697 191.233 48.7997 191.233Z" fill="white"/>
<path d="M39.191 183.398V61.2051C39.1936 58.6594 40.2067 56.2188 42.0079 54.4186C43.8091 52.6184 46.2513 51.6056 48.7988 51.6025H105.342C107.889 51.6055 110.332 52.6182 112.133 54.4184C113.934 56.2186 114.948 58.6593 114.95 61.2051V183.398C114.947 185.944 113.934 188.385 112.133 190.185C110.331 191.985 107.889 192.997 105.342 193H48.7988C46.2515 192.997 43.8094 191.984 42.0082 190.184C40.207 188.384 39.1939 185.944 39.191 183.398ZM48.7988 55.1369C47.1891 55.1389 45.6458 55.7789 44.5077 56.9165C43.3695 58.0542 42.7295 59.5965 42.7279 61.2051V183.398C42.7297 185.007 43.3699 186.549 44.508 187.686C45.6461 188.824 47.1892 189.464 48.7988 189.466H105.342C106.951 189.464 108.495 188.824 109.633 187.687C110.771 186.549 111.411 185.007 111.413 183.398V61.2051C111.411 59.5965 110.771 58.0543 109.633 56.9169C108.495 55.7794 106.951 55.1396 105.342 55.1377L48.7988 55.1369Z" fill="#DEE8F5"/>
<path d="M85.855 61.7634H68.2864C67.3327 61.7634 66.4181 61.3849 65.7438 60.711C65.0694 60.0372 64.6906 59.1232 64.6906 58.1703V53.3698H89.4508V58.1703C89.4508 59.1232 89.072 60.0372 88.3976 60.711C87.7233 61.3849 86.8087 61.7634 85.855 61.7634Z" fill="#DEE8F5"/>
<path d="M91.8748 76.9052H62.2661C60.1823 76.9052 58.493 78.5932 58.493 80.6756V89.7582C58.493 91.8406 60.1823 93.5287 62.2661 93.5287H91.8748C93.9586 93.5287 95.6479 91.8406 95.6479 89.7582V80.6756C95.6479 78.5932 93.9586 76.9052 91.8748 76.9052Z" fill="#262626"/>
<path d="M103.104 113.567H51.0372C49.3036 113.567 47.8983 114.971 47.8983 116.704V146.175C47.8983 147.907 49.3036 149.312 51.0372 149.312H103.104C104.837 149.312 106.243 147.907 106.243 146.175V116.704C106.243 114.971 104.837 113.567 103.104 113.567Z" fill="#0CBC8B"/>
<path d="M59.8752 118.398H54.4347C53.4943 118.398 52.732 119.159 52.732 120.099V123.266C52.732 124.205 53.4943 124.967 54.4347 124.967H59.8752C60.8156 124.967 61.5779 124.205 61.5779 123.266V120.099C61.5779 119.159 60.8156 118.398 59.8752 118.398Z" fill="white"/>
<path d="M61.5779 119.126V120.668H58.5811L58.0975 120.185V118.399H60.8488C61.042 118.399 61.2274 118.475 61.3641 118.612C61.5008 118.748 61.5777 118.933 61.5779 119.126Z" fill="#262626"/>
<path d="M61.5779 122.697V124.238C61.578 124.334 61.5591 124.429 61.5225 124.517C61.4859 124.605 61.4322 124.686 61.3645 124.753C61.2968 124.821 61.2164 124.875 61.1279 124.911C61.0394 124.948 60.9446 124.967 60.8488 124.967H58.0975V123.131L58.5811 122.698L61.5779 122.697Z" fill="#262626"/>
<path d="M56.1639 118.4V120.187L55.7299 120.67H52.732V119.128C52.732 119.032 52.7508 118.938 52.7874 118.849C52.8241 118.761 52.8778 118.681 52.9455 118.613C53.0132 118.545 53.0936 118.492 53.1821 118.455C53.2705 118.418 53.3654 118.4 53.4611 118.4H56.1639Z" fill="#262626"/>
<path d="M56.1639 123.131V124.967H53.4611C53.3654 124.967 53.2705 124.948 53.1821 124.911C53.0936 124.875 53.0132 124.821 52.9455 124.753C52.8778 124.686 52.8241 124.605 52.7874 124.517C52.7508 124.429 52.732 124.334 52.732 124.238V122.697H55.7291L56.1639 123.131Z" fill="#262626"/>
<path d="M62.6358 131.103H53.4823C53.2833 131.103 53.0925 131.024 52.9518 130.884C52.811 130.743 52.732 130.552 52.732 130.354C52.732 130.155 52.811 129.964 52.9518 129.823C53.0925 129.683 53.2833 129.604 53.4823 129.604H62.6358C62.8348 129.604 63.0256 129.683 63.1664 129.823C63.3071 129.964 63.3861 130.155 63.3861 130.354C63.3861 130.552 63.3071 130.743 63.1664 130.884C63.0256 131.024 62.8348 131.103 62.6358 131.103Z" fill="white"/>
<path d="M75.5158 131.103H66.3623C66.1633 131.103 65.9725 131.024 65.8318 130.884C65.6911 130.743 65.612 130.552 65.612 130.354C65.612 130.155 65.6911 129.964 65.8318 129.823C65.9725 129.683 66.1633 129.604 66.3623 129.604H75.5158C75.7148 129.604 75.9056 129.683 76.0464 129.823C76.1871 129.964 76.2661 130.155 76.2661 130.354C76.2661 130.552 76.1871 130.743 76.0464 130.884C75.9056 131.024 75.7148 131.103 75.5158 131.103Z" fill="white"/>
<path d="M88.3961 131.103H79.2424C79.0434 131.103 78.8525 131.024 78.7118 130.884C78.5711 130.743 78.4921 130.552 78.4921 130.354C78.4921 130.155 78.5711 129.964 78.7118 129.823C78.8525 129.683 79.0434 129.604 79.2424 129.604H88.3961C88.5951 129.604 88.786 129.683 88.9267 129.823C89.0674 129.964 89.1464 130.155 89.1464 130.354C89.1464 130.552 89.0674 130.743 88.9267 130.884C88.786 131.024 88.5951 131.103 88.3961 131.103Z" fill="white"/>
<path d="M101.276 131.103H92.1224C91.9234 131.103 91.7325 131.024 91.5918 130.884C91.4511 130.743 91.3721 130.552 91.3721 130.354C91.3721 130.155 91.4511 129.964 91.5918 129.823C91.7325 129.683 91.9234 129.604 92.1224 129.604H101.276C101.475 129.604 101.666 129.683 101.807 129.823C101.947 129.964 102.026 130.155 102.026 130.354C102.026 130.552 101.947 130.743 101.807 130.884C101.666 131.024 101.475 131.103 101.276 131.103Z" fill="white"/>
<path d="M101.409 139.216C101.401 140.235 100.989 141.21 100.265 141.928C99.5408 142.645 98.562 143.048 97.542 143.048C96.5219 143.048 95.5431 142.645 94.8188 141.928C94.0945 141.21 93.6833 140.235 93.6748 139.216C93.6754 138.64 93.8061 138.072 94.0572 137.553C94.3083 137.034 94.6733 136.579 95.1249 136.221C95.6898 135.759 96.3747 135.467 97.0994 135.38C97.8242 135.292 98.559 135.412 99.218 135.726C99.8769 136.04 100.433 136.535 100.821 137.153C101.209 137.771 101.413 138.486 101.409 139.216Z" fill="white"/>
<path d="M93.1914 142.211C92.6245 142.673 91.938 142.965 91.2118 143.052C90.4856 143.14 89.7494 143.02 89.0886 142.707C88.4278 142.393 87.8696 141.899 87.4788 141.281C87.0879 140.663 86.8804 139.947 86.8804 139.216C86.8804 138.485 87.0879 137.769 87.4788 137.151C87.8696 136.533 88.4278 136.039 89.0886 135.725C89.7494 135.412 90.4856 135.292 91.2118 135.379C91.938 135.467 92.6245 135.759 93.1914 136.221C92.7436 136.582 92.3814 137.038 92.1307 137.556C91.88 138.074 91.747 138.641 91.7413 139.216C91.7418 139.792 91.8725 140.361 92.1236 140.879C92.3746 141.398 92.7397 141.853 93.1914 142.211Z" fill="#262626"/>
<path d="M29.6723 80.5368C29.6723 80.5368 31.8537 79.6006 31.8537 73.8739L36.2386 73.4275C36.2386 73.4275 35.3348 78.4876 37.3871 80.2853L29.6723 80.5368Z" fill="#E98862"/>
<path d="M29.5836 71.4673C29.7409 73.2178 30.5493 74.9292 32.0271 75.6115C33.6336 76.4062 35.4104 76.7961 37.2024 76.7469C41.9624 76.7469 41.9086 65.9268 39.8349 63.6561C37.7611 61.3855 31.0647 62.1669 29.9769 65.5918C29.4143 67.3629 29.4336 69.8013 29.5836 71.4673Z" fill="#E98862"/>
<path d="M39.5843 68.0508C40.5084 68.0439 41.4306 67.9664 42.3429 67.819C42.3429 67.819 42.0635 60.7926 34.5961 61.1933C33.6264 61.149 32.6547 61.2062 31.697 61.364C29.4526 61.708 26.2719 64.0012 25.7565 69.7398C25.521 72.3726 24.6126 74.8544 23.9198 76.4257C23.8379 76.6101 23.8033 76.8121 23.8193 77.0133C23.8353 77.2144 23.9012 77.4084 24.0113 77.5776C24.1213 77.7468 24.2718 77.8859 24.4493 77.9823C24.6267 78.0786 24.8254 78.1292 25.0273 78.1293L41.0257 78.0027C41.2149 78.0029 41.4015 77.9589 41.5706 77.874C41.7397 77.7892 41.8866 77.666 41.9995 77.5143C42.1124 77.3625 42.1881 77.1865 42.2207 77.0002C42.2532 76.814 42.2417 76.6227 42.1869 76.4417C41.317 73.5609 39.7256 71.796 39.5843 68.0508Z" fill="#0F1011"/>
<path d="M44.7734 118.25C50.1852 142.073 55.0852 166.055 58.9522 190.18L53.5165 191.297C47.5405 167.607 42.5689 143.638 38.1312 119.615L44.7734 118.25Z" fill="#E98862"/>
<path d="M33.5874 119.727C34.0843 143.394 34.0485 167.114 32.9716 190.764H27.4217C26.3454 167.114 26.3096 143.393 26.806 119.727H33.5874Z" fill="#E98862"/>
<path d="M40.1515 192.95C40.3047 192.949 40.4561 192.917 40.5962 192.855C40.7364 192.793 40.8623 192.703 40.966 192.59C41.0698 192.478 41.1492 192.345 41.1993 192.2C41.2494 192.055 41.2691 191.902 41.2571 191.749C41.2406 191.538 41.164 191.335 41.0363 191.166C40.9085 190.996 40.735 190.867 40.5361 190.793L33.9069 188.574C33.7785 188.531 33.6424 188.517 33.5079 188.532C33.3735 188.547 33.2438 188.591 33.1279 188.66C32.2164 189.292 31.126 189.615 30.0171 189.582C29.1535 189.521 28.3245 189.218 27.6246 188.709C27.5631 188.658 27.4885 188.626 27.4095 188.617C27.3306 188.607 27.2505 188.62 27.1786 188.654C27.1067 188.688 27.046 188.742 27.0036 188.809C26.9611 188.876 26.9387 188.954 26.9389 189.034V192.274C26.9388 192.369 26.9577 192.464 26.9943 192.552C27.0309 192.64 27.0847 192.721 27.1524 192.788C27.2202 192.856 27.3006 192.909 27.3891 192.945C27.4776 192.982 27.5724 193 27.668 193L40.1515 192.95Z" fill="#C1D8ED"/>
<path d="M65.5773 192.95C65.7305 192.949 65.8819 192.917 66.022 192.855C66.1622 192.793 66.288 192.703 66.3918 192.59C66.4955 192.478 66.5749 192.345 66.625 192.2C66.6751 192.055 66.6948 191.902 66.6829 191.749C66.6664 191.538 66.5897 191.335 66.4619 191.166C66.3342 190.996 66.1606 190.867 65.9617 190.793L59.3317 188.574C59.2032 188.531 59.067 188.517 58.9325 188.532C58.798 188.547 58.6683 188.591 58.5523 188.66C57.641 189.292 56.5507 189.615 55.4419 189.582C54.5781 189.521 53.749 189.218 53.0491 188.709C52.9876 188.658 52.913 188.626 52.8341 188.617C52.7551 188.607 52.675 188.62 52.6031 188.654C52.5312 188.688 52.4706 188.742 52.4282 188.809C52.3858 188.876 52.3634 188.954 52.3636 189.034V192.274C52.3636 192.369 52.3825 192.464 52.4192 192.552C52.4558 192.64 52.5096 192.721 52.5774 192.788C52.6452 192.855 52.7256 192.909 52.8141 192.945C52.9026 192.981 52.9974 193 53.0931 192.999L65.5773 192.95Z" fill="#C1D8ED"/>
<path d="M23.3684 109.508C23.3684 109.508 20.2869 123.297 20.2869 134.894C20.2869 146.49 16.7487 164.452 16.7487 164.452C16.7487 164.452 26.7762 162.831 33.5787 164.452C45.2997 167.243 55.8086 161.162 55.8086 161.162L44.0047 110.782L23.3684 109.508Z" fill="#262626"/>
<path d="M17.0329 118.893C17.0329 119.7 17.4596 122.401 16.7733 122.594C16.3616 122.709 15.8755 120.696 15.8755 120.696" fill="#E98862"/>
<path d="M13.792 118.469C13.792 118.469 11.5503 123.921 14.1071 127.053C14.1724 127.132 14.2601 127.191 14.3589 127.22C14.4577 127.249 14.563 127.247 14.661 127.216C14.759 127.184 14.8452 127.124 14.9083 127.042C14.9714 126.961 15.0085 126.862 15.0148 126.76C15.139 124.648 15.5654 120.308 16.9586 120.817V117.411" fill="#E98862"/>
<path d="M44.2528 95.1778C44.1509 96.1978 44.0768 97.1999 44.0657 98.1576C43.9615 106.958 46.3393 108.616 45.1678 111.307C44.0285 113.916 21.6977 115.001 21.3993 110.408C21.2094 107.486 23.7864 104.935 23.7864 99.2413C23.7647 98.1593 23.6216 97.0831 23.3597 96.033L20.8451 102.865L18.3767 119.481L12.526 118.614L15.0392 101.696C15.0693 101.496 15.12 101.3 15.1903 101.111L21.4164 84.1926L21.4538 84.2064C21.7244 83.3735 22.1914 82.6178 22.8155 82.003C24.0549 80.7645 26.2008 79.963 28.8146 79.963C32.7055 79.963 38.0197 79.9714 39.1088 80.0172C42.2933 80.1527 43.8544 81.5246 44.5401 83.5713C44.5401 83.5724 44.8927 87.5808 44.2528 95.1778Z" fill="#367CFF"/>
<path d="M66.9916 92.7445C66.9916 92.7445 70.854 91.7126 71.4131 90.9826C71.9722 90.2527 70.6506 87.7638 70.6506 87.7638C70.6506 87.7638 74.5174 86.2231 74.152 85.5978C73.7209 84.8594 68.8874 87.4437 68.8874 87.4437C68.8874 87.4437 69.9453 86.2177 69.4359 85.8864C69.2268 85.7509 68.9515 85.894 68.161 86.7435C67.2613 87.7115 65.7089 89.082 65.7089 89.082L66.9916 92.7445Z" fill="#E98862"/>
<path d="M50.9529 104.128C50.4267 104.128 49.9101 103.988 49.4563 103.722C49.0024 103.456 48.6278 103.073 48.3708 102.615L38.5744 85.0917L43.7377 82.209L51.5054 96.9164L65.2868 88.4016L68.1987 93.1687C68.1987 93.1687 57.3171 100.648 53.8561 102.713C53.1267 103.148 51.7921 104.128 50.9529 104.128Z" fill="#367CFF"/>
<path d="M152.528 30.5673C160.975 30.5673 167.823 23.7246 167.823 15.2837C167.823 6.84273 160.975 0 152.528 0C144.081 0 137.234 6.84273 137.234 15.2837C137.234 23.7246 144.081 30.5673 152.528 30.5673Z" fill="#F3F5FD"/>
<path d="M158.448 12.5771H157.605V10.6951C157.609 10.0259 157.482 9.36228 157.229 8.74257C156.976 8.12286 156.603 7.55928 156.131 7.08431C155.659 6.60935 155.098 6.23238 154.48 5.97513C153.861 5.71789 153.198 5.58545 152.528 5.58545C151.859 5.58545 151.196 5.71789 150.577 5.97513C149.959 6.23238 149.398 6.60935 148.926 7.08431C148.454 7.55928 148.081 8.12286 147.828 8.74257C147.575 9.36228 147.447 10.0259 147.452 10.6951V12.5771H146.609C146.418 12.5771 146.229 12.6146 146.053 12.6875C145.877 12.7605 145.717 12.8674 145.582 13.0022C145.447 13.1371 145.34 13.2971 145.267 13.4733C145.194 13.6494 145.156 13.8382 145.156 14.0289V23.4929C145.156 23.6836 145.194 23.8724 145.267 24.0485C145.34 24.2247 145.447 24.3847 145.582 24.5196C145.717 24.6544 145.877 24.7613 146.053 24.8343C146.229 24.9072 146.418 24.9447 146.609 24.9447H158.448C158.833 24.9447 159.202 24.7917 159.475 24.5195C159.747 24.2472 159.9 23.8779 159.9 23.4929V14.0289C159.9 13.8382 159.863 13.6494 159.79 13.4733C159.717 13.2972 159.61 13.1371 159.475 13.0023C159.34 12.8675 159.18 12.7606 159.004 12.6876C158.827 12.6146 158.638 12.5771 158.448 12.5771ZM149.102 10.6951C149.102 9.78717 149.463 8.91639 150.106 8.27437C150.748 7.63234 151.62 7.27165 152.528 7.27165C153.437 7.27165 154.308 7.63234 154.951 8.27437C155.593 8.91639 155.954 9.78717 155.954 10.6951V12.5771H149.102V10.6951Z" fill="#0CBC8B"/>
<path d="M152.528 20.9591C153.689 20.9591 154.63 20.0186 154.63 18.8584C154.63 17.6982 153.689 16.7577 152.528 16.7577C151.367 16.7577 150.426 17.6982 150.426 18.8584C150.426 20.0186 151.367 20.9591 152.528 20.9591Z" fill="white"/>
<path d="M222.992 120.478C235.424 120.478 245.502 110.407 245.502 97.9835C245.502 85.5602 235.424 75.4891 222.992 75.4891C210.559 75.4891 200.481 85.5602 200.481 97.9835C200.481 110.407 210.559 120.478 222.992 120.478Z" fill="#C1D8ED"/>
<path d="M219.132 110.265C218.662 110.265 218.211 110.086 217.87 109.764L209.319 101.701C209.138 101.537 208.991 101.339 208.888 101.117C208.784 100.896 208.726 100.656 208.716 100.412C208.707 100.168 208.746 99.9239 208.832 99.6951C208.918 99.4662 209.048 99.2567 209.216 99.0789C209.384 98.9012 209.585 98.7586 209.809 98.6597C210.033 98.5607 210.274 98.5074 210.518 98.5027C210.763 98.4981 211.006 98.5422 211.233 98.6326C211.46 98.7229 211.667 98.8577 211.842 99.029L219.03 105.805L234.041 89.2763C234.369 88.9154 234.826 88.6995 235.313 88.6759C235.8 88.6523 236.277 88.8229 236.638 89.1504C236.999 89.4778 237.215 89.9351 237.239 90.4218C237.262 90.9084 237.092 91.3845 236.764 91.7453L220.493 109.662C220.329 109.843 220.13 109.99 219.909 110.093C219.687 110.196 219.447 110.254 219.203 110.264C219.179 110.265 219.155 110.265 219.132 110.265Z" fill="white"/>
<path d="M264.92 190.748C264.92 190.748 264.901 184.853 264.901 184.331H270.597C270.597 184.851 270.616 190.729 270.616 190.729L264.92 190.748Z" fill="#E98862"/>
<path d="M257.995 192.95C257.842 192.949 257.69 192.917 257.55 192.855C257.41 192.793 257.284 192.703 257.18 192.59C257.077 192.478 256.997 192.345 256.947 192.2C256.897 192.055 256.877 191.902 256.889 191.749C256.906 191.538 256.982 191.335 257.11 191.166C257.238 190.996 257.412 190.867 257.611 190.793L264.241 188.574C264.369 188.531 264.505 188.517 264.64 188.532C264.774 188.547 264.904 188.591 265.02 188.66C265.931 189.292 267.022 189.615 268.13 189.582C268.994 189.521 269.823 189.218 270.523 188.709C270.585 188.658 270.659 188.626 270.738 188.617C270.817 188.607 270.897 188.62 270.969 188.654C271.041 188.688 271.102 188.742 271.144 188.809C271.186 188.876 271.209 188.954 271.209 189.034V192.274C271.209 192.369 271.19 192.464 271.153 192.552C271.116 192.64 271.063 192.721 270.995 192.788C270.927 192.855 270.847 192.909 270.758 192.945C270.67 192.981 270.575 193 270.479 192.999L257.995 192.95Z" fill="#C1D8ED"/>
<path d="M242.222 190.067C241.622 185.02 241.622 184.501 241.622 184.33H247.318C247.318 184.313 247.318 184.291 247.318 184.264C247.338 184.685 247.626 187.255 247.88 189.394L242.222 190.067Z" fill="#E98862"/>
<path d="M262.083 188.793L272.084 187.948C270.866 169.322 267.096 109.127 267.096 109.127L246.46 110.401L246.248 111.845L246.175 111.824C243.756 124.641 242.726 138.798 240.765 151.706C240.627 163.66 240.589 176.18 240.121 188.102L250.157 188.272C250.125 176.636 250.414 164.461 250.757 152.791C252.469 143.484 253.81 133.743 255.779 124.345C257.498 143.699 260.27 170.304 262.083 188.793Z" fill="#262626"/>
<path d="M235.282 192.95C235.129 192.949 234.977 192.917 234.837 192.855C234.697 192.793 234.571 192.703 234.467 192.59C234.363 192.478 234.284 192.345 234.234 192.2C234.184 192.055 234.164 191.902 234.176 191.749C234.193 191.538 234.269 191.335 234.397 191.166C234.525 190.996 234.698 190.867 234.897 190.793L241.527 188.574C241.656 188.531 241.792 188.517 241.926 188.532C242.061 188.547 242.191 188.591 242.306 188.66C243.218 189.292 244.308 189.615 245.417 189.582C246.281 189.521 247.11 189.218 247.81 188.709C247.871 188.658 247.946 188.626 248.025 188.617C248.104 188.607 248.184 188.62 248.256 188.654C248.328 188.688 248.388 188.742 248.431 188.809C248.473 188.876 248.496 188.954 248.495 189.034V192.274C248.495 192.369 248.477 192.464 248.44 192.552C248.403 192.64 248.349 192.72 248.282 192.788C248.214 192.855 248.133 192.909 248.045 192.945C247.956 192.981 247.862 193 247.766 192.999L235.282 192.95Z" fill="#C1D8ED"/>
<path d="M258.715 76.2559C258.712 76.2288 258.711 76.2017 258.71 76.1746C258.696 75.6816 258.7 75.1473 258.732 74.5607L254.38 73.8779C254.475 74.7891 254.491 75.7068 254.427 76.6208C254.415 76.7782 254.401 76.9385 254.384 77.1019C254.234 78.432 253.848 79.8396 252.933 80.6083L259.712 80.4186C259.262 79.6843 258.789 78.4095 258.715 76.2559Z" fill="#E98862"/>
<path d="M261.129 72.2778C260.878 74.0175 259.979 75.6831 258.467 76.2854C256.671 77.0002 255.329 77.0829 253.238 77.1417C250.384 77.223 250.394 74.2454 250.23 71.2505C250.064 68.2437 250.213 65.0091 251.311 63.9289C253.503 61.7724 260.149 62.9117 261.051 66.3899C261.517 68.1886 261.368 70.6225 261.129 72.2778Z" fill="#E98862"/>
<path d="M248.544 65.7478C248.544 65.7478 247.367 65.5198 247.655 64.3462C247.845 63.5679 248.84 63.7116 248.84 63.7116C248.84 63.7116 247.898 63.5663 247.875 62.7485C247.86 62.2335 248.232 61.3488 249.441 61.8142C250.861 62.3601 252.459 62.24 253.669 62.0012C254.353 61.8312 255.049 61.713 255.751 61.6475H255.754C256.562 61.6107 257.371 61.6957 258.153 61.8996C260.346 62.4886 263.743 64.3513 263.117 68.7812C262.441 73.5689 259.595 75.7447 259.204 76.0456C258.469 76.6124 253.854 76.8531 253.384 76.4088C252.679 75.7436 252.229 73.0024 252.233 68.2049C250.332 67.9588 249.028 67.8678 249.028 67.8678C249.028 67.8678 247.455 67.971 247.424 66.8223C247.393 65.6735 248.544 65.7478 248.544 65.7478Z" fill="#0F1011"/>
<path d="M250.953 71.799C250.939 72.0183 250.969 72.2382 251.041 72.4458C251.113 72.6535 251.225 72.8448 251.372 73.0089C251.518 73.1729 251.695 73.3064 251.894 73.4016C252.092 73.4969 252.307 73.552 252.527 73.5637C252.746 73.5755 252.966 73.5437 253.173 73.4702C253.38 73.3967 253.571 73.2829 253.734 73.1355C253.897 72.988 254.029 72.8098 254.123 72.611C254.217 72.4122 254.27 72.1969 254.28 71.9773C254.296 71.7583 254.267 71.5384 254.196 71.3306C254.124 71.1229 254.012 70.9317 253.865 70.7682C253.718 70.6048 253.54 70.4725 253.341 70.3793C253.142 70.286 252.927 70.2337 252.707 70.2255C251.518 70.2203 251.002 70.882 250.953 71.799Z" fill="#E98862"/>
<path d="M274.92 121.272L271.679 121.696C271.679 122.503 271.252 125.204 271.939 125.397C272.2 125.47 272.49 124.689 272.668 124.107C273.351 125.256 273.606 128.01 273.697 129.563C273.704 129.666 273.741 129.764 273.804 129.845C273.867 129.927 273.953 129.987 274.051 130.019C274.149 130.051 274.254 130.052 274.353 130.023C274.452 129.994 274.54 129.936 274.605 129.856C277.162 126.725 274.92 121.272 274.92 121.272Z" fill="#E98862"/>
<path d="M246.137 98.1575C246.049 90.6405 242.095 80.4031 251.095 80.0182C252.183 79.9713 257.498 79.964 261.389 79.964C264.003 79.964 266.149 80.7655 267.388 82.004C271.66 86.2734 266.416 93.5486 266.416 99.2433C266.416 104.938 268.993 107.488 268.803 110.41C268.505 115.003 246.173 113.918 245.035 111.309C243.863 108.616 246.241 106.958 246.137 98.1575Z" fill="#367CFF"/>
<path d="M270.748 122.616L268.514 101.763L262.62 85.3312L268.187 83.337L274.2 100.1C274.279 100.321 274.332 100.55 274.357 100.783L276.629 121.987L270.748 122.616Z" fill="#367CFF"/>
<path d="M222.632 91.0888C222.89 90.5521 223.186 89.7335 222.822 89.3686C222.449 88.9957 221.825 89.8823 221.443 90.5301C220.566 90.1593 219.585 89.85 219.277 90.1577C218.681 90.754 217.968 92.7628 218.322 93.7172C218.676 94.6716 222.201 94.8446 222.201 94.8446L223.367 91.2777C223.116 91.243 222.869 91.1796 222.632 91.0888Z" fill="#E98862"/>
<path d="M237.24 100.385C236.957 100.385 236.675 100.344 236.404 100.264L221.591 95.9001L223.263 90.2309L236.225 94.0487L246.722 81.6152L251.243 85.4266L239.5 99.3341C239.223 99.6631 238.877 99.9276 238.486 100.109C238.096 100.291 237.671 100.385 237.24 100.385Z" fill="#367CFF"/>
<path d="M73.7782 89.074L74.7623 87.5488C75.5424 88.1451 76.2247 88.4509 76.9505 88.4509C77.8202 88.4509 78.2029 88.0904 78.2029 87.3938C78.2029 85.8159 74.152 85.8444 74.152 83.0771C74.152 81.2982 75.3851 80.1651 77.3297 80.1651C77.882 80.1572 78.4294 80.2694 78.9339 80.4941C79.4384 80.7188 79.8879 81.0505 80.2512 81.4662L79.1222 82.7584C78.5645 82.2515 78.0914 81.9845 77.4507 81.9845C76.7124 81.9845 76.3115 82.2827 76.3115 82.9709C76.3115 84.4332 80.3624 84.3056 80.3624 87.2368C80.3624 88.9987 79.196 90.2727 76.95 90.2727C75.787 90.2458 74.668 89.8229 73.7782 89.074ZM76.4772 78.6608H77.9743V80.8694H76.4772V78.6608ZM76.4772 89.3494H77.9743V91.7727H76.4772V89.3494Z" fill="white"/>
</svg>
