<svg width="48" height="48" viewBox="0 0 48 48" fill="none" xmlns="http://www.w3.org/2000/svg">
<path d="M0 30.1896V47.4394H11.9912V30.1896H0ZM10.5174 45.9657H1.47385V31.6634H10.5174V45.9657Z" fill="black"/>
<path d="M4.47238 43.4067H2.99854V44.8806H4.47238V43.4067Z" fill="black"/>
<path d="M32.5572 31.4188C32.8565 30.8173 33.0259 30.1402 33.0259 29.424V28.687H16.2076L14.7051 30.1895H13.5078V31.6633H15.3154L16.8179 30.1609H31.4609C31.1312 31.4706 29.9433 32.4432 28.5325 32.4432H20.2689V33.9171H28.5325C29.6147 33.9171 30.6087 33.5324 31.3851 32.8927H46.526V34.1569L26.9427 40.9023L15.1336 38.8968L15.0723 38.8865H13.5116V40.3603H14.9481L27.0668 42.4184L47.9997 35.2081V31.4188H32.5572Z" fill="black"/>
<path d="M47.3045 0.560531L41.2949 0.630249L41.312 2.10385L47.3216 2.03414L47.3045 0.560531Z" fill="black"/>
<path d="M42.7927 3.3175H41.3188V4.79135H42.7927V3.3175Z" fill="black"/>
<path d="M45.0529 3.3175H43.5791V4.79135H45.0529V3.3175Z" fill="black"/>
<path d="M47.3127 3.3175H45.8389V4.79135H47.3127V3.3175Z" fill="black"/>
<path d="M38.1745 5.58229V2.04013H39.8449V0.566284H36.7007V4.41876C34.7927 3.14019 32.4997 2.39357 30.0354 2.39357C23.4155 2.39357 18.0298 7.77933 18.0298 14.3992C18.0298 16.4689 18.5563 18.4179 19.4823 20.1195H12.0381V21.5933H20.4299C22.6222 24.5127 26.112 26.4048 30.0355 26.4048C36.6554 26.4048 42.041 21.0192 42.041 14.3992C42.0409 10.9171 40.5503 7.77726 38.1745 5.58229ZM29.2331 3.89788V14.1258H19.5073C19.6459 8.7127 23.889 4.30232 29.2331 3.89788ZM30.0354 24.9307C27.0075 24.9307 24.2742 23.6459 22.3514 21.5931H25.4993V20.1193H21.1973C20.3331 18.7885 19.7609 17.2515 19.5725 15.5995H30.0192V15.5996L37.1805 22.1287C35.3015 23.8668 32.7906 24.9307 30.0354 24.9307ZM38.1905 21.0556L30.707 14.0788V3.88954C32.9729 4.03279 35.046 4.89632 36.7007 6.25223V10.9816H38.1745V7.72317C39.6689 9.54146 40.5671 11.8672 40.5671 14.3992C40.567 16.922 39.6751 19.2401 38.1905 21.0556Z" fill="black"/>
<path d="M13.5124 22.3796H12.0386V23.8535H13.5124V22.3796Z" fill="black"/>
<path d="M15.7722 22.3796H14.2983V23.8535H15.7722V22.3796Z" fill="black"/>
<path d="M18.0319 22.3796H16.5581V23.8535H18.0319V22.3796Z" fill="black"/>
</svg>
