<svg width="40" height="36" viewBox="0 0 40 36" fill="none" xmlns="http://www.w3.org/2000/svg">
<path d="M37.599 17.199C35.886 15.915 33.704 15.695 31.841 16.409C31.103 12.753 27.873 10 24 10C23.186 10 22.402 10.123 21.662 10.349C20.214 8.898 18.212 8 16 8C11.582 8 8 11.582 8 16C8 16.242 8.015 16.481 8.036 16.718C3.208 17.952 0 20.674 0 24V36H20C30.869 36 38.481 26.025 38.801 25.601C40.785 22.953 40.247 19.185 37.599 17.199ZM20 32H6H4V24C4 22.369 7.896 20 14 20C18.975 20 22.482 21.573 23.61 23.038C22.46 23.615 21.229 24 20 24H12V28H20C26.974 28 32.353 20.864 32.399 20.801C33.06 19.92 34.318 19.739 35.2 20.4C36.082 21.062 36.262 22.319 35.6 23.201C35.331 23.559 28.893 32 20 32ZM12 16C12 13.794 13.794 12 16 12C17.07 12 18.075 12.417 18.831 13.175L20.53 14.877L22.83 14.175C23.21 14.059 23.604 14 24 14C26.206 14 28 15.794 28 18C28 19.071 27.572 20.039 26.884 20.758C24.789 17.905 19.939 16 14 16C13.319 16 12.658 16.034 12.008 16.083C12.008 16.054 12 16.028 12 16Z" fill="black"/>
<path d="M5.18213 8C6.2867 8 7.18213 7.10457 7.18213 6C7.18213 4.89543 6.2867 4 5.18213 4C4.07756 4 3.18213 4.89543 3.18213 6C3.18213 7.10457 4.07756 8 5.18213 8Z" fill="black"/>
<path d="M11.1821 4C12.2867 4 13.1821 3.10457 13.1821 2C13.1821 0.89543 12.2867 0 11.1821 0C10.0776 0 9.18213 0.89543 9.18213 2C9.18213 3.10457 10.0776 4 11.1821 4Z" fill="black"/>
<path d="M32.1821 10C33.2867 10 34.1821 9.10457 34.1821 8C34.1821 6.89543 33.2867 6 32.1821 6C31.0776 6 30.1821 6.89543 30.1821 8C30.1821 9.10457 31.0776 10 32.1821 10Z" fill="black"/>
</svg>
