<svg width="48" height="48" viewBox="0 0 48 48" fill="none" xmlns="http://www.w3.org/2000/svg">
<path d="M30.0002 24C24.0482 24 19.1872 25.913 17.1002 28.777C16.0502 27.863 15.2382 26.964 14.8002 26.398C12.8142 23.755 9.04623 23.217 6.40023 25.2C3.75423 27.184 3.21523 30.953 5.20123 33.6C5.51923 34.025 13.1312 44 24.0002 44H44.0002V32C44.0002 27.439 37.9812 24 30.0002 24ZM8.40023 31.2C7.73823 30.318 7.91823 29.061 8.79723 28.4C9.15723 28.13 9.58023 28.001 9.99823 28.001C10.6062 28.001 11.2052 28.275 11.5942 28.792C11.6472 28.864 17.0262 36 24.0002 36H32.0002V34V32H24.0002C22.7712 32 21.5402 31.615 20.3902 31.038C21.5182 29.573 25.0252 28 30.0002 28C36.1042 28 40.0002 30.369 40.0002 32V40H38.0002H24.0002C15.1072 40 8.66923 31.559 8.40023 31.2Z" fill="black"/>
</svg>
