<svg width="43" height="48" viewBox="0 0 43 48" fill="none" xmlns="http://www.w3.org/2000/svg">
<path d="M11 29.48V44L19 40L27 44V29.48C30.624 26.95 33 22.755 33 18C33 10.268 26.732 4 19 4C11.268 4 5 10.268 5 18C5 22.755 7.376 26.95 11 29.48ZM23 37.528L20.789 36.423L19 35.528L17.211 36.422L15 37.528V31.413C16.268 31.79 17.609 32 19 32C20.391 32 21.732 31.79 23 31.413V37.528ZM19 8C24.514 8 29 12.486 29 18C29 23.514 24.514 28 19 28C13.486 28 9 23.514 9 18C9 12.486 13.486 8 19 8Z" fill="black"/>
<path d="M19 24C22.314 24 25 21.314 25 18C25 14.686 22.314 12 19 12C15.686 12 13 14.686 13 18C13 21.314 15.686 24 19 24ZM19 16C20.103 16 21 16.897 21 18C21 19.103 20.103 20 19 20C17.897 20 17 19.103 17 18C17 16.897 17.897 16 19 16Z" fill="black"/>
</svg>
