<svg width="48" height="48" viewBox="0 0 48 48" fill="none" xmlns="http://www.w3.org/2000/svg">
<path d="M30 24C24.048 24 19.187 25.913 17.1 28.777C16.05 27.863 15.238 26.964 14.8 26.398C12.814 23.755 9.04598 23.217 6.39998 25.2C3.75398 27.184 3.21498 30.953 5.20098 33.6C5.51898 34.025 13.131 44 24 44H44V32C44 27.439 37.981 24 30 24ZM8.39998 31.2C7.73798 30.318 7.91798 29.061 8.79698 28.4C9.15698 28.13 9.57998 28.001 9.99798 28.001C10.606 28.001 11.205 28.275 11.594 28.792C11.647 28.864 17.026 36 24 36H32V34V32H24C22.771 32 21.54 31.615 20.39 31.038C21.518 29.573 25.025 28 30 28C36.104 28 40 30.369 40 32V40H38H24C15.107 40 8.66898 31.559 8.39998 31.2Z" fill="black"/>
<path d="M25.75 10.5V9H17.5V10.5H20.125C21.1015 10.5 21.9257 11.1285 22.2362 12H17.5V13.5H22.2362C22.0823 13.9374 21.7967 14.3165 21.4187 14.585C21.0406 14.8536 20.5887 14.9986 20.125 15H17.5V16.8105L21.6895 21H23.8105L19.3105 16.5H20.125C20.989 16.4988 21.8261 16.1998 22.4953 15.6533C23.1645 15.1068 23.6247 14.3463 23.7985 13.5H25.75V12H23.7985C23.6835 11.4542 23.4466 10.9414 23.1055 10.5H25.75Z" fill="black"/>
</svg>
