<svg width="48" height="48" viewBox="0 0 48 48" fill="none" xmlns="http://www.w3.org/2000/svg">
<path d="M20.083 19.9971C21.1876 19.9971 22.083 19.1016 22.083 17.9971C22.083 16.8925 21.1876 15.9971 20.083 15.9971C18.9784 15.9971 18.083 16.8925 18.083 17.9971C18.083 19.1016 18.9784 19.9971 20.083 19.9971Z" fill="black"/>
<path d="M28.002 19.9971C29.1065 19.9971 30.002 19.1016 30.002 17.9971C30.002 16.8925 29.1065 15.9971 28.002 15.9971C26.8974 15.9971 26.002 16.8925 26.002 17.9971C26.002 19.1016 26.8974 19.9971 28.002 19.9971Z" fill="black"/>
<path d="M24.083 31.913C28.448 31.913 32 28.363 32 24H28C28 26.157 26.243 27.913 24.083 27.913C21.923 27.913 20.166 26.157 20.166 24H16.166C16.166 28.363 19.718 31.913 24.083 31.913Z" fill="black"/>
<path d="M41.369 19.029C39.205 11.517 32.282 6 24.083 6C15.884 6 8.96101 11.517 6.79701 19.029C5.28201 19.177 4.08301 20.448 4.08301 22V26C4.08301 27.65 5.43301 29 7.08301 29C8.73301 29 10.083 27.65 10.083 26V23.998C10.084 16.279 16.364 10 24.083 10C31.803 10 38.083 16.28 38.083 24C38.083 31.72 31.803 38 24.083 38H22.069C20.419 38 19.069 39.35 19.069 41C19.069 42.65 20.419 44 22.069 44H26.083C27.635 44 28.907 42.801 29.054 41.286C34.985 39.577 39.66 34.902 41.369 28.971C42.884 28.824 44.083 27.552 44.083 26V22C44.083 20.448 42.884 19.176 41.369 19.029Z" fill="black"/>
</svg>
