<svg width="85" height="85" viewBox="0 0 85 85" fill="none" xmlns="http://www.w3.org/2000/svg">
<path d="M72.552 12.448C64.525 4.42066 53.8521 0 42.5 0C31.1479 0 20.475 4.42066 12.448 12.448C4.42083 20.4752 0 31.1479 0 42.5C0 53.8521 4.42066 64.525 12.448 72.552C20.4752 80.5792 31.1479 85 42.5 85C53.8521 85 64.525 80.5793 72.552 72.552C80.5792 64.5248 85 53.8521 85 42.5C85 31.1479 80.5793 20.475 72.552 12.448ZM42.5 81.5306C20.9786 81.5306 3.46939 64.0214 3.46939 42.5C3.46939 20.9786 20.9786 3.46939 42.5 3.46939C64.0214 3.46939 81.5306 20.9786 81.5306 42.5C81.5306 64.0214 64.0214 81.5306 42.5 81.5306Z" fill="black"/>
<path d="M42.5 6.93878C22.8914 6.93878 6.93878 22.8914 6.93878 42.5C6.93878 62.1086 22.8914 78.0612 42.5 78.0612C62.1084 78.0612 78.0612 62.1086 78.0612 42.5C78.0612 22.8914 62.1084 6.93878 42.5 6.93878ZM42.5 74.5918C24.8046 74.5918 10.4082 60.1954 10.4082 42.5C10.4082 24.8046 24.8046 10.4082 42.5 10.4082C60.1956 10.4082 74.5918 24.8046 74.5918 42.5C74.5918 60.1954 60.1956 74.5918 42.5 74.5918Z" fill="black"/>
<path d="M69.3505 34.0201C68.8945 32.6168 67.7042 31.6132 66.244 31.401L52.2219 29.3635L45.9511 16.6574C45.298 15.334 43.9757 14.5121 42.5002 14.5123C41.0246 14.5123 39.7023 15.3344 39.0494 16.6574L32.7785 29.3635L18.7564 31.401C17.2962 31.6132 16.1058 32.6168 15.6498 34.0201C15.1939 35.4234 15.5671 36.935 16.6236 37.9651L26.77 47.8555L24.3747 61.8209C24.1252 63.2752 24.7119 64.7175 25.9057 65.5848C27.0994 66.4522 28.6525 66.5645 29.9585 65.8777L42.5 59.2842L55.0416 65.8778C55.6098 66.1765 56.2243 66.3241 56.8361 66.3241C57.6307 66.3241 58.4199 66.0751 59.0946 65.5851C60.2884 64.7179 60.8751 63.2755 60.6256 61.8212L58.2303 47.8558L68.3767 37.9655C69.4334 36.9352 69.8066 35.4234 69.3505 34.0201ZM65.955 35.4809L55.1555 46.0079C54.7468 46.4064 54.5602 46.9806 54.6567 47.5432L57.206 62.4074C57.2324 62.5615 57.1818 62.6862 57.0553 62.7781C56.9287 62.8701 56.7949 62.8798 56.6561 62.807L43.3073 55.7891C43.0548 55.6562 42.7774 55.5897 42.5002 55.5897C42.2229 55.5897 41.9455 55.6561 41.693 55.7891L28.344 62.807C28.2057 62.8798 28.0716 62.8701 27.9449 62.7781C27.8184 62.6862 27.7678 62.5615 27.7942 62.4074L30.3437 47.5432C30.4403 46.9804 30.2537 46.4064 29.8448 46.0079L19.0453 35.4809C18.9333 35.3718 18.901 35.241 18.9494 35.0922C18.9975 34.9436 19.1006 34.8568 19.2553 34.8342L34.1798 32.6656C34.7447 32.5836 35.2333 32.2286 35.4858 31.7166L42.1605 18.1927C42.2297 18.0526 42.3441 17.9815 42.5003 17.9815C42.6566 17.9815 42.7711 18.0526 42.8402 18.1928L49.5145 31.7166C49.7672 32.2285 50.2556 32.5834 50.8205 32.6656L65.7453 34.8342C65.9001 34.8568 66.0028 34.9435 66.0511 35.0922C66.0993 35.241 66.0669 35.3718 65.955 35.4809Z" fill="black"/>
</svg>
