<svg width="15" height="15" viewBox="0 0 15 15" fill="none" xmlns="http://www.w3.org/2000/svg">
<path d="M12.9746 11.5253C12.6429 11.2076 12.32 10.8807 12.0064 10.545C11.7429 10.2773 11.5842 10.0825 11.5842 10.0825L9.60085 9.13542C10.3949 8.23487 10.8331 7.07558 10.8334 5.87496C10.8334 3.1415 8.60919 0.916626 5.87502 0.916626C3.14085 0.916626 0.916687 3.1415 0.916687 5.87496C0.916687 8.60842 3.14085 10.8333 5.87502 10.8333C7.12381 10.8333 8.2621 10.3658 9.13548 9.6015L10.0825 11.5848C10.0825 11.5848 10.2773 11.7435 10.5451 12.007C10.8192 12.2641 11.1797 12.6119 11.5254 12.9753L12.4873 13.9613L12.9151 14.4189L14.4175 12.9165L13.9599 12.4887C13.6915 12.2252 13.3331 11.8752 12.9746 11.5253ZM5.87502 9.41663C3.92215 9.41663 2.33335 7.82783 2.33335 5.87496C2.33335 3.92208 3.92215 2.33329 5.87502 2.33329C7.8279 2.33329 9.41669 3.92208 9.41669 5.87496C9.41669 7.82783 7.8279 9.41663 5.87502 9.41663Z" fill="#FFEEEE"/>
</svg>
