<svg width="14" height="13" viewBox="0 0 14 13" fill="none" xmlns="http://www.w3.org/2000/svg">
<path d="M13.1969 4.51251L9.22972 3.93594L7.45628 0.340631C7.40784 0.242193 7.32816 0.162506 7.22972 0.114068C6.98284 -0.00780671 6.68284 0.0937558 6.5594 0.340631L4.78597 3.93594L0.818779 4.51251C0.709404 4.52813 0.609404 4.57969 0.532842 4.65782C0.440282 4.75295 0.389277 4.88094 0.391035 5.01366C0.392793 5.14639 0.44717 5.27298 0.542217 5.36563L3.41253 8.16407L2.7344 12.1156C2.7185 12.2076 2.72867 12.3021 2.76377 12.3885C2.79886 12.475 2.85747 12.5498 2.93295 12.6047C3.00843 12.6595 3.09776 12.692 3.19081 12.6987C3.28386 12.7053 3.37691 12.6857 3.4594 12.6422L7.00784 10.7766L10.5563 12.6422C10.6532 12.6938 10.7657 12.7109 10.8735 12.6922C11.1453 12.6453 11.3282 12.3875 11.2813 12.1156L10.6032 8.16407L13.4735 5.36563C13.5516 5.28907 13.6032 5.18907 13.6188 5.07969C13.661 4.80626 13.4703 4.55313 13.1969 4.51251ZM9.39534 7.77032L9.95941 11.0563L7.00784 9.50626L4.05628 11.0578L4.62034 7.77188L2.23284 5.44376L5.53284 4.96407L7.00784 1.97501L8.48284 4.96407L11.7828 5.44376L9.39534 7.77032Z" fill="#FFE600"/>
</svg>
