<svg width="69" height="57" viewBox="0 0 69 57" fill="none" xmlns="http://www.w3.org/2000/svg">
<g clip-path="url(#clip0_680_8206)">
<path fill-rule="evenodd" clip-rule="evenodd" d="M67.8134 28.4175C67.8134 43.7404 52.7724 56.1597 34.2176 56.1597C15.6627 56.1597 0.619141 43.7404 0.619141 28.4175C0.619141 13.0975 15.6627 0.674465 34.2176 0.674465C52.7724 0.674465 67.8134 13.0975 67.8134 28.4175Z" fill="white"/>
<path fill-rule="evenodd" clip-rule="evenodd" d="M47.7382 36.8405C47.5862 37.0519 47.3893 37.1766 47.1569 37.2191C47.1949 37.3871 47.3124 37.5117 47.4281 37.6391C47.5862 37.7241 47.7382 37.7638 47.8954 37.7638H47.9334C48.0881 37.7638 48.1649 37.7241 48.3178 37.6391C48.4742 37.557 48.589 37.4314 48.7082 37.2587V35.5369H47.7762C47.854 35.6643 47.8954 35.7899 47.9334 35.8739C47.9706 35.9995 48.0086 36.0844 48.0086 36.1259C48.0086 36.2958 47.9706 36.4205 47.9334 36.5469C47.8954 36.6282 47.8159 36.7565 47.7382 36.8405V36.8405ZM49.9719 42.583C49.6558 42.583 49.3975 42.8314 49.3975 43.1323H49.3898V44.0436H50.5688V43.1323C50.5688 42.8314 50.2881 42.583 49.9719 42.583V42.583ZM44.3194 42.5285C44.2891 42.5285 44.265 42.5285 44.2416 42.5313H44.1V44.7775H44.3505V44.7711C44.9102 44.7545 45.3628 44.2605 45.3628 43.6512C45.3628 43.0308 44.8947 42.5285 44.3194 42.5285ZM34.2183 2.40773C16.5938 2.40773 2.21875 14.0894 2.21875 28.417C2.21875 42.7437 16.5938 54.4253 34.2183 54.4253C51.8429 54.4253 66.2136 42.7437 66.2136 28.417C66.2136 14.0894 51.8429 2.40773 34.2183 2.40773ZM6.4841 31.2541L20.5482 9.64585H31.7315L24.6183 20.5187H26.6318L33.7441 9.64585H44.1553L30.0895 31.2541H6.4841ZM19.9625 44.2282C19.9522 45.0499 19.2482 45.7183 18.3853 45.7183C17.5215 45.7183 16.8166 45.0499 16.8071 44.2282V41.6275H17.8048V44.2144H17.8108C17.8108 44.5126 18.0717 44.7618 18.3853 44.7618C18.6988 44.7618 18.9821 44.5126 18.9821 44.2144V41.6275H19.9625V44.2282V44.2282ZM23.7744 45.7183H22.7948V43.1323C22.7948 42.8314 22.5133 42.583 22.198 42.583C21.8827 42.583 21.6236 42.8314 21.6236 43.1323H21.6175V45.7183H20.6207V43.1166C20.6302 42.294 21.3333 41.6275 22.198 41.6275C23.0626 41.6275 23.7649 42.294 23.7744 43.1166V45.7183ZM25.3413 45.6721H24.3611V41.628H25.3413V45.6721ZM28.5122 42.703H27.7478V45.6721H26.7674V42.703H26.0038V41.6339H28.5122V42.703V42.703ZM31.0923 42.559C31.0077 42.5378 30.917 42.5285 30.8289 42.5285C30.3313 42.5285 29.9081 42.8443 29.756 43.2856H31.0923V44.1036H29.7915C29.9677 44.4969 30.3667 44.7711 30.8289 44.7711C30.917 44.7711 31.0077 44.7637 31.0923 44.7425V45.6888C31.0042 45.7017 30.917 45.7063 30.8289 45.7063C29.6861 45.7063 28.7541 44.7849 28.7541 43.6512C28.7541 42.5165 29.6861 41.5924 30.8289 41.5924C30.917 41.5924 31.0042 41.597 31.0923 41.6127V42.559ZM33.1265 45.7063C33.0997 45.7063 33.0721 45.7017 33.0427 45.7017V45.7183H31.9691V41.597H32.9995C33.0427 41.5952 33.0851 41.5924 33.1265 41.5924C34.2304 41.5924 35.1279 42.5165 35.1279 43.6512C35.1279 44.7849 34.2304 45.7063 33.1265 45.7063V45.7063ZM35.7204 35.5369H35.102V36.5054H33.6698C33.6284 36.5054 33.5912 36.5469 33.5506 36.5469C33.5126 36.5866 33.5126 36.5866 33.5126 36.6282C33.5126 36.714 33.5912 36.8008 33.7053 36.9255C33.8227 37.0519 33.9376 37.1332 34.0162 37.1332C34.0965 37.1332 34.1708 37.0953 34.3263 37.0519C34.4429 37.0086 34.5578 36.967 34.6355 36.967C34.8282 36.967 35.0234 37.0519 35.1789 37.1766C35.3335 37.3455 35.4104 37.5117 35.4104 37.7241C35.4104 38.1017 35.2963 38.3555 35.0623 38.6067C34.791 38.8587 34.5207 38.9418 34.1708 38.9418C33.745 38.9418 33.3191 38.7738 32.9322 38.482C32.5443 38.1423 32.2334 37.6807 31.9613 37.1332L32.5063 36.8811C32.6609 37.3031 32.8536 37.6807 33.1645 37.9761C33.472 38.2281 33.8227 38.3952 34.1708 38.3952C34.3263 38.3952 34.4809 38.3131 34.6355 38.1857C34.7513 38.0573 34.8282 37.9327 34.8282 37.7241C34.8282 37.6807 34.791 37.6391 34.7513 37.5948C34.7141 37.5948 34.6355 37.557 34.5975 37.557C34.5207 37.557 34.4049 37.5948 34.2874 37.6391C34.1302 37.6807 34.0542 37.6807 33.9756 37.6807C33.783 37.6807 33.5506 37.557 33.3191 37.2191C33.0479 36.9255 32.8942 36.6743 32.8942 36.4205C32.8942 36.3346 32.9676 36.2072 33.0479 36.1259C33.1645 36.0438 33.2811 35.9995 33.4357 35.9995H34.5207V35.5369H31.2668V36.714H29.9098C29.7949 36.714 29.6403 36.8008 29.5626 36.9255C29.4451 37.0086 29.3682 37.1766 29.3682 37.3455C29.3682 37.6391 29.4831 37.8921 29.7163 38.0573C29.9098 38.2706 30.1793 38.3555 30.492 38.3555C30.6086 38.3555 30.7632 38.3131 30.879 38.2281C31.0336 38.1423 31.1891 38.0186 31.3057 37.8487L31.7687 38.2281C31.614 38.4396 31.4205 38.6482 31.2262 38.7738C30.9956 38.9012 30.7226 38.9418 30.492 38.9418C30.0264 38.9418 29.5997 38.8181 29.2913 38.482C28.9415 38.1857 28.786 37.7638 28.786 37.3455C28.786 37.0086 28.9035 36.714 29.1359 36.5054C29.3682 36.2506 29.6403 36.1259 29.9495 36.1259H30.6846V35.5369H27.9723V36.5054H26.6957C26.6179 36.5054 26.5782 36.5469 26.5411 36.5469C26.5013 36.5866 26.5013 36.6282 26.5013 36.6743C26.5013 36.7565 26.5411 36.8405 26.6585 36.967C26.7337 37.0519 26.8503 37.0953 26.9263 37.0953C26.9669 37.0953 27.1198 37.0953 27.277 37.0519C27.4308 37.0086 27.5482 36.967 27.626 36.967C27.8186 36.967 27.9723 37.0519 28.1278 37.2191C28.2444 37.3455 28.3213 37.557 28.3213 37.7638C28.3213 38.0573 28.2444 38.3555 28.0509 38.5642C27.8972 38.7738 27.7028 38.9012 27.4308 38.9833C27.626 39.1532 27.8575 39.3656 28.2064 39.5751L27.8972 40.0755C27.3539 39.7838 27.0058 39.4468 26.7337 39.1532C26.5013 39.1532 26.2698 39.0674 26.0772 38.9418C25.8829 38.8181 25.8043 38.6925 25.8043 38.482C25.8043 38.3555 25.844 38.2706 25.9209 38.1857C25.9977 38.1017 26.1135 38.0186 26.2292 38.0186C26.345 38.0186 26.6179 38.1857 26.9669 38.5226C27.1595 38.5226 27.3539 38.4396 27.5085 38.3131C27.664 38.1857 27.74 38.0186 27.74 37.8099C27.74 37.7638 27.74 37.6807 27.7028 37.6391C27.664 37.5948 27.626 37.557 27.588 37.557C27.4705 37.557 27.3539 37.5948 27.1975 37.6391C27.042 37.6807 26.8892 37.6807 26.8123 37.6807C26.6585 37.6807 26.4642 37.5569 26.2292 37.3031C25.9977 37.0519 25.8829 36.8405 25.8829 36.6743C25.8829 36.4638 25.9597 36.3346 26.1135 36.1675C26.2698 36.0438 26.4642 35.9995 26.6957 35.9995H27.3539V35.5369H25.0294V39.024H24.4507V35.5369H23.403V39.024H22.7828V36.967H21.7764C21.7376 36.967 21.6987 36.967 21.659 37.0086C21.621 37.0519 21.621 37.0953 21.621 37.1332V37.557C21.621 37.6391 21.583 37.6807 21.5424 37.7241C21.5035 37.8099 21.4664 37.8099 21.4283 37.8099C21.2729 37.8099 21.0802 37.6807 20.8462 37.3871C20.6147 37.0953 20.5335 36.8405 20.5335 36.6282C20.5335 36.5469 20.5335 36.5054 20.6147 36.4638C20.6501 36.4205 20.7287 36.378 20.8064 36.378H22.7828V35.5369H19.839V38.9529C19.9746 38.9944 20.0964 39.0535 20.1888 39.1532C20.384 39.3656 20.4601 39.5751 20.4601 39.7838C20.4601 40.0755 20.384 40.3303 20.1491 40.5408C19.9565 40.7495 19.6844 40.8326 19.4132 40.8326C19.0642 40.8326 18.7161 40.7495 18.368 40.5805C18.0579 40.37 17.7469 40.1198 17.5163 39.7838L17.8247 39.4053C18.0959 39.6988 18.368 39.9103 18.6392 40.0755C18.9087 40.2039 19.1419 40.2869 19.4132 40.2869C19.5669 40.2869 19.6844 40.2472 19.8001 40.1632C19.9167 40.0367 19.9565 39.9518 19.9565 39.7838C19.9565 39.6988 19.9167 39.6148 19.839 39.5751C19.7613 39.4893 19.6446 39.4468 19.5669 39.4468C19.4909 39.4468 19.4512 39.4893 19.3751 39.5317C19.2974 39.5751 19.2205 39.6148 19.1419 39.6988L18.793 39.2797C18.9087 39.1532 19.0642 39.0674 19.1808 39.024C19.2033 39.0083 19.2309 38.999 19.2585 38.988V38.0186C19.1419 38.1423 19.027 38.2281 18.8707 38.2706C18.755 38.3555 18.5995 38.3555 18.4829 38.3555C18.444 38.3555 18.444 38.3555 18.444 38.3555C18.0173 38.3555 17.67 38.1857 17.3988 37.8921C17.1285 37.557 16.9721 37.1332 16.9721 36.6743C17.1665 36.714 17.2822 36.714 17.3211 36.714C17.4766 36.714 17.6294 36.6743 17.7469 36.5469C17.8635 36.4638 17.8998 36.2958 17.8998 36.1259C17.8998 36.0438 17.8998 35.9173 17.8247 35.8324C17.7867 35.7059 17.708 35.6219 17.6294 35.5369H16.7778V34.9498H30.7632L29.1721 33.311L29.5997 32.9297L31.3057 34.9498H35.7204V35.5369V35.5369ZM38.6271 45.6721H37.6452V41.628H38.6271V45.6721ZM42.5193 45.7183H41.5354L41.5371 43.1323C41.5371 42.8314 41.2556 42.583 40.9394 42.583C40.625 42.583 40.3659 42.8314 40.3659 43.1323H40.3589V45.7183H39.3621V43.1166C39.3725 42.294 40.0765 41.6275 40.9394 41.6275C41.8049 41.6275 42.5072 42.294 42.5175 43.1166H42.5193V45.7183ZM44.3194 45.7063C44.2891 45.7063 44.265 45.7017 44.2416 45.7017V45.7183H43.2077V41.597H44.1993C44.2382 41.5952 44.2788 41.5924 44.3194 41.5924C45.3715 41.5924 46.2318 42.5165 46.2318 43.6512C46.2318 44.7849 45.3715 45.7063 44.3194 45.7063V45.7063ZM47.7374 45.6721H46.7592V41.628H47.7374V45.6721ZM51.5475 45.7183H50.5662V44.7711H49.3898V45.7183H48.3947V43.1166H48.3955C48.4007 42.294 49.1099 41.6275 49.9719 41.6275C50.8323 41.6275 51.5397 42.294 51.5475 43.1166V45.7183V45.7183ZM51.5743 35.5369H50.9921V39.024H50.3727V35.5369H49.3258V39.024H48.7082V38.0186C48.6305 38.1423 48.5122 38.2281 48.3584 38.2706C48.2029 38.3555 48.0881 38.3555 47.9334 38.3555H47.8954C47.5076 38.3555 47.1569 38.1857 46.8865 37.8921C46.6153 37.557 46.4607 37.1332 46.4607 36.6743C46.6153 36.714 46.7319 36.714 46.8105 36.714C46.9651 36.714 47.1189 36.6743 47.2364 36.5469C47.3124 36.4638 47.3892 36.2958 47.3892 36.1259C47.3892 36.0438 47.3521 35.9173 47.3124 35.8324C47.2752 35.7059 47.1949 35.6219 47.1189 35.5369H45.8025V36.5054H44.3297C44.2909 36.5054 44.2909 36.5469 44.252 36.5469C44.2123 36.5866 44.2123 36.5866 44.2123 36.6282C44.2123 36.714 44.252 36.8008 44.4075 36.9255C44.525 37.0519 44.6027 37.1332 44.677 37.1332C44.7564 37.1332 44.8696 37.0953 44.9879 37.0519C45.1426 37.0086 45.2203 36.967 45.2989 36.967C45.5313 36.967 45.7239 37.0519 45.8405 37.1766C45.9951 37.3455 46.0728 37.5117 46.0728 37.7241C46.0728 38.1017 45.9562 38.3555 45.7239 38.6067C45.4924 38.8587 45.1814 38.9418 44.8696 38.9418C44.4075 38.9418 44.0205 38.7738 43.6344 38.482C43.2068 38.1423 42.8959 37.6807 42.6652 37.1332L43.1662 36.8811C43.3243 37.3031 43.5549 37.6807 43.8642 37.9761C44.1751 38.2281 44.4852 38.3952 44.8696 38.3952C45.0259 38.3952 45.1814 38.3131 45.2989 38.1857C45.4121 38.0573 45.4924 37.9327 45.4924 37.7241C45.4924 37.6807 45.4924 37.6391 45.4121 37.5948C45.3749 37.5948 45.336 37.557 45.26 37.557C45.1814 37.557 45.1046 37.5948 44.9508 37.6391C44.8307 37.6807 44.7184 37.6807 44.6398 37.6807C44.4852 37.6807 44.252 37.557 43.979 37.2191C43.7104 36.9255 43.5955 36.6743 43.5955 36.4205C43.5955 36.3346 43.6344 36.2072 43.7493 36.1259C43.827 36.0438 43.9445 35.9995 44.0983 35.9995H45.1814V35.5369H42.0433V39.024H41.4629V35.5369H40.3002V36.5054H39.0227C38.9449 36.5054 38.9069 36.5469 38.8663 36.5469C38.8283 36.5866 38.8283 36.6282 38.8283 36.6743C38.8283 36.7565 38.8663 36.8405 38.9829 36.967C39.0624 37.0519 39.1401 37.0953 39.2162 37.0953C39.2956 37.0953 39.4114 37.0953 39.604 37.0519C39.7206 37.0086 39.8752 36.967 39.9547 36.967C40.1456 36.967 40.3002 37.0519 40.4574 37.2191C40.5697 37.3455 40.65 37.557 40.65 37.7638C40.65 38.0573 40.5697 38.3555 40.3797 38.5642C40.2242 38.7738 40.0298 38.9012 39.7586 38.9833C39.9547 39.1532 40.1853 39.3656 40.4963 39.5751L40.1853 40.0755C39.6809 39.7838 39.3336 39.4468 39.0624 39.1532C38.8283 39.1532 38.5977 39.0674 38.4025 38.9418C38.2099 38.8181 38.1339 38.6925 38.1339 38.482C38.1339 38.3555 38.1701 38.2706 38.2479 38.1857C38.3247 38.1017 38.4422 38.0186 38.558 38.0186C38.6746 38.0186 38.9069 38.1857 39.2956 38.5226C39.4874 38.5226 39.6809 38.4396 39.8381 38.3131C39.9918 38.1857 40.0687 38.0186 40.0687 37.8099C40.0687 37.7638 40.0298 37.6807 40.0298 37.6391C39.9918 37.5948 39.9547 37.557 39.9132 37.557C39.7975 37.557 39.6809 37.5948 39.5263 37.6391C39.3708 37.6807 39.2162 37.6807 39.1402 37.6807C38.9829 37.6807 38.7912 37.5569 38.558 37.3031C38.2867 37.0519 38.2099 36.8405 38.2099 36.6743C38.2099 36.4638 38.2867 36.3346 38.4422 36.1675C38.5977 36.0438 38.7912 35.9995 39.0227 35.9995H39.6809V35.5369H37.822V34.9498H41.3851C41.3445 34.8639 41.3445 34.8205 41.3091 34.7402V34.4863C41.3091 34.1493 41.4257 33.8576 41.7349 33.6046C42.0036 33.3516 42.3154 33.227 42.7015 33.227C43.1282 33.227 43.5161 33.3941 43.8642 33.6877C44.252 34.0247 44.525 34.4041 44.7564 34.9045H44.1354C43.979 34.5694 43.7493 34.3201 43.5161 34.1078C43.2457 33.9407 42.9727 33.8576 42.7015 33.8576C42.5098 33.8576 42.3154 33.8973 42.1608 34.0247C42.0036 34.1493 41.9284 34.3201 41.9284 34.4863C41.9284 34.6543 41.9284 34.8205 42.0036 34.9498H51.5743V35.5369V35.5369ZM40.352 34.1133H39.7833V33.4975H40.352V34.1133ZM46.6904 31.2393L39.2481 21.0967L46.5142 9.63293L61.6675 31.2393H46.6904V31.2393ZM18.4829 35.9173C18.5226 36.0438 18.5226 36.0844 18.5226 36.1259C18.5226 36.2958 18.5226 36.4205 18.4829 36.5469C18.444 36.6282 18.368 36.7565 18.2885 36.8405C18.1348 37.0519 17.8998 37.1766 17.67 37.2191C17.708 37.3871 17.8247 37.5117 17.9404 37.6391C18.0959 37.7241 18.2505 37.7638 18.444 37.7638C18.444 37.7638 18.444 37.7638 18.4829 37.7638C18.5606 37.7638 18.7161 37.7241 18.8327 37.6391C18.9873 37.557 19.1031 37.4314 19.2585 37.2587V35.5369H18.2885C18.368 35.7059 18.444 35.8324 18.4829 35.9173ZM33.1265 42.5285C33.1023 42.5285 33.073 42.5285 33.0488 42.5313H32.8942V44.7775H33.1602V44.7711C33.7476 44.7545 34.2192 44.2605 34.2192 43.6512C34.2192 43.0308 33.7286 42.5285 33.1265 42.5285" fill="#034EA2"/>
</g>
<defs>
<clipPath id="clip0_680_8206">
<rect width="68.4113" height="56.1324" fill="white"/>
</clipPath>
</defs>
</svg>
