<svg width="45" height="43" viewBox="0 0 45 43" fill="none" xmlns="http://www.w3.org/2000/svg">
<g clip-path="url(#clip0_1066_12238)">
<path d="M2.00118 37.0588H25.8088C26.9034 37.0588 27.7941 36.1681 27.7941 35.0735V9.92647C27.7941 9.89603 27.7809 9.86956 27.7769 9.84044C27.7732 9.8127 27.7675 9.78527 27.7597 9.75838C27.7338 9.64558 27.678 9.54181 27.5982 9.45794L18.3349 0.194559C18.2299 0.0953986 18.0958 0.0327374 17.9524 0.0158824C17.9246 0.0132353 17.8981 0 17.8676 0H1.99324C0.894706 0 0 0.890735 0 1.98529V35.0735C0 36.1681 0.897353 37.0588 2.00118 37.0588ZM18.5294 2.25926L25.5349 9.26471H19.1912C19.0157 9.26471 18.8473 9.19498 18.7232 9.07088C18.5991 8.94677 18.5294 8.77845 18.5294 8.60294V2.25926ZM1.32353 1.98529C1.32353 1.62 1.62397 1.32353 1.99324 1.32353H17.2059V8.60294C17.2059 9.6975 18.0966 10.5882 19.1912 10.5882H26.4706V35.0735C26.4706 35.249 26.4009 35.4174 26.2768 35.5415C26.1527 35.6656 25.9843 35.7353 25.8088 35.7353H2.00118C1.91323 35.7363 1.82593 35.7201 1.74428 35.6874C1.66263 35.6547 1.58821 35.6062 1.52528 35.5448C1.46236 35.4833 1.41215 35.4101 1.37753 35.3292C1.34292 35.2484 1.32457 35.1615 1.32353 35.0735V1.98529Z" fill="#FFFDFD"/>
<path d="M5.95669 15.8824H21.839C22.0146 15.8824 22.1829 15.8126 22.307 15.6885C22.4311 15.5644 22.5008 15.3961 22.5008 15.2206C22.5008 15.0451 22.4311 14.8768 22.307 14.7527C22.1829 14.6286 22.0146 14.5588 21.839 14.5588H5.95669C5.78118 14.5588 5.61285 14.6286 5.48875 14.7527C5.36464 14.8768 5.29492 15.0451 5.29492 15.2206C5.29492 15.3961 5.36464 15.5644 5.48875 15.6885C5.61285 15.8126 5.78118 15.8824 5.95669 15.8824Z" fill="#FFFDFD"/>
<path d="M5.95669 21.1766H21.839C22.0146 21.1766 22.1829 21.1068 22.307 20.9827C22.4311 20.8586 22.5008 20.6903 22.5008 20.5148C22.5008 20.3393 22.4311 20.171 22.307 20.0469C22.1829 19.9227 22.0146 19.853 21.839 19.853H5.95669C5.78118 19.853 5.61285 19.9227 5.48875 20.0469C5.36464 20.171 5.29492 20.3393 5.29492 20.5148C5.29492 20.6903 5.36464 20.8586 5.48875 20.9827C5.61285 21.1068 5.78118 21.1766 5.95669 21.1766Z" fill="#FFFDFD"/>
<path d="M5.95669 10.5882H12.5743C12.7498 10.5882 12.9182 10.5185 13.0423 10.3944C13.1664 10.2702 13.2361 10.1019 13.2361 9.92641C13.2361 9.7509 13.1664 9.58258 13.0423 9.45847C12.9182 9.33437 12.7498 9.26465 12.5743 9.26465H5.95669C5.78118 9.26465 5.61285 9.33437 5.48875 9.45847C5.36464 9.58258 5.29492 9.7509 5.29492 9.92641C5.29492 10.1019 5.36464 10.2702 5.48875 10.3944C5.61285 10.5185 5.78118 10.5882 5.95669 10.5882Z" fill="#FFFDFD"/>
<path d="M5.95669 26.4705H21.839C22.0146 26.4705 22.1829 26.4008 22.307 26.2767C22.4311 26.1526 22.5008 25.9842 22.5008 25.8087C22.5008 25.6332 22.4311 25.4649 22.307 25.3408C22.1829 25.2167 22.0146 25.147 21.839 25.147H5.95669C5.78118 25.147 5.61285 25.2167 5.48875 25.3408C5.36464 25.4649 5.29492 25.6332 5.29492 25.8087C5.29492 25.9842 5.36464 26.1526 5.48875 26.2767C5.61285 26.4008 5.78118 26.4705 5.95669 26.4705Z" fill="#FFFDFD"/>
<path d="M5.95669 31.7647H21.839C22.0146 31.7647 22.1829 31.695 22.307 31.5709C22.4311 31.4468 22.5008 31.2784 22.5008 31.1029C22.5008 30.9274 22.4311 30.7591 22.307 30.635C22.1829 30.5109 22.0146 30.4412 21.839 30.4412H5.95669C5.78118 30.4412 5.61285 30.5109 5.48875 30.635C5.36464 30.7591 5.29492 30.9274 5.29492 31.1029C5.29492 31.2784 5.36464 31.4468 5.48875 31.5709C5.61285 31.695 5.78118 31.7647 5.95669 31.7647Z" fill="#FFFDFD"/>
<path d="M28.4551 6.61772H34.411V13.8971C34.411 14.9917 35.3017 15.8824 36.3963 15.8824H43.6757V40.3677C43.6757 40.5432 43.6059 40.7116 43.4818 40.8357C43.3577 40.9598 43.1894 41.0295 43.0139 41.0295H19.2063C19.1183 41.0305 19.031 41.0142 18.9494 40.9816C18.8677 40.9489 18.7933 40.9004 18.7304 40.839C18.6674 40.7775 18.6172 40.7043 18.5826 40.6234C18.548 40.5425 18.5296 40.4557 18.5286 40.3677V39.0442C18.5286 38.8687 18.4589 38.7004 18.3348 38.5762C18.2107 38.4521 18.0424 38.3824 17.8668 38.3824C17.6913 38.3824 17.523 38.4521 17.3989 38.5762C17.2748 38.7004 17.2051 38.8687 17.2051 39.0442V40.3677C17.2051 41.4623 18.1024 42.353 19.2063 42.353H43.0139C44.1085 42.353 44.9992 41.4623 44.9992 40.3677V15.2207C44.9992 15.1902 44.986 15.1637 44.982 15.1346C44.9783 15.1069 44.9725 15.0795 44.9648 15.0526C44.9389 14.9398 44.8831 14.836 44.8033 14.7521L35.5399 5.48875C35.4357 5.38876 35.3011 5.32636 35.1574 5.3114C35.1296 5.30742 35.1032 5.29419 35.0727 5.29419H28.4551C28.2796 5.29419 28.1112 5.36391 27.9871 5.48802C27.863 5.61212 27.7933 5.78044 27.7933 5.95595C27.7933 6.13147 27.863 6.29979 27.9871 6.42389C28.1112 6.548 28.2796 6.61772 28.4551 6.61772ZM36.3963 14.5589C36.2207 14.5589 36.0524 14.4892 35.9283 14.3651C35.8042 14.241 35.7345 14.0726 35.7345 13.8971V7.55345L42.7399 14.5589H36.3963Z" fill="#FFFDFD"/>
<path d="M31.1032 21.1766H39.0443C39.2199 21.1766 39.3882 21.1068 39.5123 20.9827C39.6364 20.8586 39.7061 20.6903 39.7061 20.5148C39.7061 20.3393 39.6364 20.171 39.5123 20.0469C39.3882 19.9227 39.2199 19.853 39.0443 19.853H31.1032C30.9277 19.853 30.7593 19.9227 30.6352 20.0469C30.5111 20.171 30.4414 20.3393 30.4414 20.5148C30.4414 20.6903 30.5111 20.8586 30.6352 20.9827C30.7593 21.1068 30.9277 21.1766 31.1032 21.1766Z" fill="#FFFDFD"/>
<path d="M31.1032 26.4705H39.0443C39.2199 26.4705 39.3882 26.4008 39.5123 26.2767C39.6364 26.1526 39.7061 25.9842 39.7061 25.8087C39.7061 25.6332 39.6364 25.4649 39.5123 25.3408C39.3882 25.2167 39.2199 25.147 39.0443 25.147H31.1032C30.9277 25.147 30.7593 25.2167 30.6352 25.3408C30.5111 25.4649 30.4414 25.6332 30.4414 25.8087C30.4414 25.9842 30.5111 26.1526 30.6352 26.2767C30.7593 26.4008 30.9277 26.4705 31.1032 26.4705Z" fill="#FFFDFD"/>
<path d="M31.1032 31.7647H39.0443C39.2199 31.7647 39.3882 31.695 39.5123 31.5709C39.6364 31.4468 39.7061 31.2784 39.7061 31.1029C39.7061 30.9274 39.6364 30.7591 39.5123 30.635C39.3882 30.5109 39.2199 30.4412 39.0443 30.4412H31.1032C30.9277 30.4412 30.7593 30.5109 30.6352 30.635C30.5111 30.7591 30.4414 30.9274 30.4414 31.1029C30.4414 31.2784 30.5111 31.4468 30.6352 31.5709C30.7593 31.695 30.9277 31.7647 31.1032 31.7647Z" fill="#FFFDFD"/>
<path d="M31.1032 37.0589H39.0443C39.2199 37.0589 39.3882 36.9892 39.5123 36.8651C39.6364 36.7409 39.7061 36.5726 39.7061 36.3971C39.7061 36.2216 39.6364 36.0533 39.5123 35.9292C39.3882 35.8051 39.2199 35.7354 39.0443 35.7354H31.1032C30.9277 35.7354 30.7593 35.8051 30.6352 35.9292C30.5111 36.0533 30.4414 36.2216 30.4414 36.3971C30.4414 36.5726 30.5111 36.7409 30.6352 36.8651C30.7593 36.9892 30.9277 37.0589 31.1032 37.0589Z" fill="#FFFDFD"/>
</g>
<defs>
<clipPath id="clip0_1066_12238">
<rect width="45" height="42.3529" fill="white"/>
</clipPath>
</defs>
</svg>
