<svg width="45" height="45" viewBox="0 0 45 45" fill="none" xmlns="http://www.w3.org/2000/svg">
<path d="M33.6445 18.9844L41.0273 9.75587C41.276 9.44526 41.4318 9.07066 41.4766 8.6753C41.5215 8.27994 41.4536 7.87996 41.2808 7.52154C41.1081 7.16312 40.8374 6.86087 40.5002 6.6497C40.163 6.43854 39.7729 6.32705 39.375 6.32813H7.03125C6.47181 6.32813 5.93528 6.55037 5.5397 6.94595C5.14411 7.34154 4.92188 7.87807 4.92188 8.43751V37.9688C4.92188 38.5282 5.14411 39.0647 5.5397 39.4603C5.93528 39.8559 6.47181 40.0781 7.03125 40.0781C7.59069 40.0781 8.12722 39.8559 8.5228 39.4603C8.91839 39.0647 9.14062 38.5282 9.14062 37.9688V31.6406H39.375C39.7729 31.6417 40.163 31.5302 40.5002 31.3191C40.8374 31.1079 41.1081 30.8056 41.2808 30.4472C41.4536 30.0888 41.5215 29.6888 41.4766 29.2935C41.4318 28.8981 41.276 28.5235 41.0273 28.2129L33.6445 18.9844ZM9.14062 27.4219V10.5469H34.9805L29.2852 17.666C28.9856 18.0401 28.8224 18.5051 28.8224 18.9844C28.8224 19.4636 28.9856 19.9286 29.2852 20.3027L34.9805 27.4219H9.14062Z" fill="white"/>
</svg>
