<svg width="55" height="55" viewBox="0 0 55 55" fill="none" xmlns="http://www.w3.org/2000/svg">
<path d="M54.1406 27.5C54.1406 42.2165 42.2122 54.1406 27.5 54.1406C12.7878 54.1406 0.859375 42.2165 0.859375 27.5C0.859375 12.7921 12.7878 0.859375 27.5 0.859375C42.2122 0.859375 54.1406 12.7921 54.1406 27.5ZM28.2149 9.66797C22.3607 9.66797 18.627 12.1341 15.695 16.517C15.3151 17.0848 15.4422 17.8506 15.9866 18.2634L19.7141 21.0897C20.2732 21.5137 21.0698 21.4128 21.5042 20.8618C23.4232 18.4278 24.739 17.0164 27.6598 17.0164C29.8544 17.0164 32.5688 18.4288 32.5688 20.5568C32.5688 22.1655 31.2408 22.9917 29.0739 24.2066C26.547 25.6231 23.2031 27.3862 23.2031 31.7969V32.2266C23.2031 32.9384 23.7803 33.5156 24.4922 33.5156H30.5078C31.2197 33.5156 31.7969 32.9384 31.7969 32.2266V32.0834C31.7969 29.0259 40.7329 28.8986 40.7329 20.625C40.7329 14.3943 34.2698 9.66797 28.2149 9.66797ZM27.5 36.3086C24.7752 36.3086 22.5586 38.5252 22.5586 41.25C22.5586 43.9746 24.7752 46.1914 27.5 46.1914C30.2248 46.1914 32.4414 43.9746 32.4414 41.25C32.4414 38.5252 30.2248 36.3086 27.5 36.3086Z" fill="#F01313"/>
</svg>
