<svg width="58" height="58" viewBox="0 0 58 58" fill="none" xmlns="http://www.w3.org/2000/svg">
<path d="M24.166 45.9167C15.0528 45.9167 10.4949 45.9167 7.66502 43.0843C4.83268 40.2544 4.83268 35.6966 4.83268 26.5833C4.83268 17.4701 4.83268 12.9123 7.66502 10.0823C10.4949 7.25 15.0528 7.25 24.166 7.25H33.8327C42.9459 7.25 47.5038 7.25 50.3337 10.0823C53.166 12.9123 53.166 17.4701 53.166 26.5833C53.166 35.6966 53.166 40.2544 50.3337 43.0843C48.7556 44.6648 46.641 45.3633 43.4993 45.6702" stroke="#20A50A" stroke-width="2" stroke-linecap="round" stroke-linejoin="round"/>
<path d="M24.1654 45.9165C27.1524 45.9165 30.4439 47.1248 33.4478 48.6836C38.2763 51.1897 40.6905 52.4439 41.8795 51.644C43.0685 50.8465 42.8438 48.3694 42.3919 43.4177L42.2904 42.2915" stroke="#20A50A" stroke-width="2" stroke-linecap="round"/>
<path d="M28.4601 18.255C26.3571 20.8845 24.8397 23.5139 23.908 26.1434H23.9479C27.6481 26.1434 29.7645 26.1567 30.2969 26.1833C30.8559 26.1833 31.162 26.1567 31.2153 26.1036C31.2685 26.0505 31.3084 25.9841 31.3351 25.9044C30.8825 22.6375 30.5231 20.4197 30.2569 19.251C29.9907 18.0558 29.7245 17.4582 29.4583 17.4582C29.1921 17.4582 28.8594 17.7238 28.4601 18.255ZM24.9062 37.0199L25.7847 36.8606C26.0509 36.8606 26.184 37.0066 26.184 37.2988C26.184 38.2284 25.9977 39.012 25.625 39.6494C25.2523 40.2869 24.7865 40.7384 24.2274 41.004C23.3223 41.4555 22.5503 41.6813 21.9115 41.6813C20.6869 41.6813 19.7685 41.2297 19.1562 40.3267C18.544 39.3971 18.2378 38.0159 18.2378 36.1833C18.2378 34.324 18.7436 31.9203 19.7552 28.9721H17.4392C17.1464 28.9721 17 28.826 17 28.5339C17 28.2417 17.2263 27.7769 17.6788 27.1394C18.1314 26.4754 18.6105 26.1434 19.1163 26.1434H20.9132C22.8032 21.9469 25.026 18.3214 27.5816 15.2669C28.2471 14.4701 29.059 13.7264 30.0174 13.0359C31.0023 12.3453 31.761 12 32.2934 12C32.8258 12 33.2251 12.239 33.4913 12.7171C34.1834 13.8327 34.9954 17.9097 35.9271 24.9482C36.2465 27.9761 36.7922 31.1102 37.5642 34.3506C38.3628 37.5644 39.0949 39.4369 39.7604 39.9681C39.9201 40.0744 40 40.2072 40 40.3665C40 40.7649 39.4277 41.1368 38.283 41.4821C37.1649 41.8274 36.2998 42 35.6875 42C35.1019 42 34.6493 41.9203 34.3299 41.761C34.0104 41.6282 33.8108 41.4821 33.7309 41.3227C33.2517 40.2869 32.7726 37.8167 32.2934 33.9124L32.0538 32.0398C31.9473 30.7915 31.8409 29.8486 31.7344 29.2112L31.4549 29.012L23.1094 28.9721C22.7899 30.3267 22.6302 31.5086 22.6302 32.5179C22.6302 33.5272 22.6568 34.2709 22.7101 34.749C22.7899 35.2005 23.0162 35.6919 23.3889 36.2231C23.7616 36.7543 24.2674 37.0199 24.9062 37.0199Z" fill="#20A50A"/>
</svg>
